<svg width="490" height="368" viewBox="0 0 490 368" fill="none" xmlns="http://www.w3.org/2000/svg">
<path d="M430.75 343.262H65.6794C65.5787 343.262 65.4822 343.222 65.411 343.151C65.3398 343.08 65.2998 342.983 65.2998 342.882C65.2998 342.782 65.3398 342.685 65.411 342.614C65.4822 342.543 65.5787 342.503 65.6794 342.503H430.75C430.851 342.503 430.947 342.543 431.019 342.614C431.09 342.685 431.13 342.782 431.13 342.882C431.13 342.983 431.09 343.08 431.019 343.151C430.947 343.222 430.851 343.262 430.75 343.262Z" fill="#CCCCCC"/>
<path d="M55.5188 104.779H72.5834V130.537H55.5188V104.779ZM85.4938 87.6003H102.558V130.535H85.4938V87.6003ZM115.469 64.9449H132.533V130.535H115.469V64.9449ZM374.334 92.8267C372.42 91.263 371.352 89.1597 371.13 86.5167C371.041 85.1883 370.998 84.2489 370.998 83.6701C370.998 83.0539 371.042 81.8647 371.13 80.1023C371.305 77.4151 372.329 75.289 374.203 73.724C376.077 72.1589 378.618 71.379 381.828 71.384C385.043 71.384 387.587 72.1659 389.461 73.7296C391.335 75.2934 392.359 77.4195 392.533 80.108C392.621 81.8691 392.664 83.0584 392.664 83.6758C392.664 84.2451 392.621 85.194 392.533 86.5224C392.311 89.1641 391.242 91.2674 389.328 92.8324C387.414 94.3975 384.914 95.1774 381.828 95.1724C378.749 95.1724 376.251 94.3905 374.334 92.8267ZM375.662 117.606C375.523 117.489 375.411 117.342 375.337 117.176C375.263 117.01 375.227 116.829 375.233 116.647C375.235 116.382 375.328 116.125 375.497 115.921L408.138 72.9705C408.421 72.5935 408.768 72.2691 409.163 72.0122C409.58 71.7939 410.047 71.691 410.516 71.7142H417.39C417.807 71.6931 418.217 71.8225 418.546 72.0786C418.685 72.1954 418.796 72.3423 418.871 72.5084C418.945 72.6744 418.981 72.8552 418.975 73.037C418.974 73.3026 418.881 73.5597 418.711 73.7638L386.064 116.712C385.779 117.085 385.433 117.406 385.039 117.661C384.622 117.878 384.154 117.98 383.684 117.957H376.812C376.397 117.983 375.986 117.858 375.655 117.606H375.662ZM383.492 86.0537C383.581 84.8214 383.625 83.8965 383.625 83.2791C383.625 82.5289 383.581 81.6256 383.492 80.5691C383.405 79.2483 382.855 78.5879 381.841 78.5879C380.828 78.5879 380.278 79.2483 380.19 80.5691C380.145 81.098 380.123 82.0013 380.124 83.2791C380.124 84.5127 380.146 85.4375 380.19 86.0537C380.278 87.3745 380.828 88.0355 381.841 88.0368C382.855 88.0381 383.403 87.377 383.485 86.0537H383.492ZM405.127 115.955C403.21 114.391 402.142 112.288 401.921 109.645C401.832 108.321 401.787 107.372 401.789 106.798C401.789 106.182 401.833 104.993 401.921 103.23C402.096 100.543 403.12 98.4175 404.994 96.8538C406.868 95.29 409.411 94.5082 412.625 94.5082C415.841 94.5082 418.385 95.29 420.258 96.8538C422.13 98.4175 423.154 100.543 423.33 103.23C423.417 104.993 423.462 106.182 423.463 106.798C423.463 107.371 423.419 108.32 423.33 109.645C423.116 112.286 422.048 114.389 420.125 115.953C418.202 117.517 415.702 118.298 412.625 118.296C409.542 118.298 407.042 117.517 405.127 115.953V115.955ZM414.28 109.182C414.367 107.948 414.411 107.023 414.412 106.405C414.412 105.657 414.368 104.755 414.28 103.697C414.191 102.375 413.64 101.714 412.627 101.714C411.613 101.714 411.063 102.375 410.976 103.697C410.931 104.225 410.909 105.127 410.909 106.405C410.909 107.639 410.931 108.564 410.976 109.182C411.063 110.502 411.613 111.163 412.627 111.163C413.64 111.163 414.191 110.502 414.28 109.182ZM369.367 248.285L363.448 247.389C362.69 247.272 361.976 246.96 361.374 246.484C360.772 246.008 360.304 245.384 360.015 244.674C360.01 244.658 360.003 244.643 359.996 244.628C359.7 243.922 359.592 243.152 359.682 242.392C359.773 241.632 360.058 240.909 360.511 240.292L364.061 235.475C364.213 235.269 364.286 235.016 364.267 234.76C364.248 234.505 364.138 234.265 363.957 234.084L357.387 227.516C357.206 227.335 356.966 227.225 356.711 227.205C356.456 227.186 356.202 227.258 355.996 227.41L351.227 230.926C350.603 231.383 349.871 231.671 349.102 231.761C348.334 231.85 347.556 231.739 346.843 231.439L346.797 231.42C346.084 231.127 345.458 230.656 344.981 230.05C344.504 229.445 344.191 228.726 344.074 227.964L343.186 222.104C343.148 221.851 343.02 221.62 342.826 221.453C342.632 221.286 342.385 221.194 342.129 221.195H332.83C332.574 221.195 332.327 221.287 332.133 221.453C331.939 221.62 331.811 221.851 331.773 222.104L330.887 227.964C330.769 228.726 330.456 229.444 329.979 230.049C329.502 230.655 328.876 231.127 328.163 231.42L328.116 231.439C327.404 231.739 326.625 231.85 325.857 231.761C325.089 231.671 324.358 231.383 323.734 230.926L318.963 227.41C318.757 227.258 318.503 227.185 318.248 227.204C317.992 227.224 317.753 227.335 317.572 227.516L311.004 234.084C310.823 234.265 310.713 234.505 310.693 234.76C310.674 235.015 310.746 235.269 310.898 235.475L314.45 240.292C314.902 240.909 315.187 241.633 315.277 242.392C315.367 243.152 315.258 243.922 314.963 244.628L314.944 244.674C314.655 245.384 314.187 246.008 313.585 246.484C312.984 246.96 312.269 247.272 311.511 247.389L305.592 248.285C305.339 248.324 305.108 248.451 304.941 248.645C304.775 248.839 304.683 249.086 304.682 249.342V258.632C304.682 258.887 304.774 259.135 304.941 259.329C305.108 259.523 305.339 259.65 305.592 259.689L311.596 260.598C312.341 260.712 313.044 261.016 313.637 261.482C314.231 261.947 314.693 262.558 314.982 263.255C314.989 263.269 314.995 263.285 315.001 263.3C315.296 263.999 315.406 264.763 315.318 265.517C315.231 266.271 314.949 266.989 314.501 267.602L310.896 272.489C310.744 272.695 310.671 272.949 310.69 273.204C310.709 273.459 310.819 273.699 311 273.88L317.57 280.45C317.751 280.631 317.991 280.741 318.246 280.76C318.502 280.779 318.755 280.706 318.961 280.554L323.895 276.916C324.501 276.473 325.211 276.193 325.957 276.105C326.702 276.018 327.458 276.124 328.15 276.415L328.196 276.434C328.891 276.718 329.502 277.177 329.967 277.767C330.433 278.357 330.738 279.057 330.853 279.799L331.771 285.861C331.809 286.114 331.936 286.345 332.13 286.512C332.325 286.679 332.572 286.77 332.828 286.77H342.127C342.383 286.77 342.63 286.678 342.824 286.511C343.018 286.344 343.146 286.114 343.184 285.861L344.101 279.799C344.217 279.057 344.522 278.358 344.988 277.768C345.453 277.179 346.063 276.719 346.758 276.434L346.801 276.415C347.494 276.125 348.25 276.018 348.996 276.106C349.741 276.193 350.452 276.473 351.058 276.916L355.992 280.554C356.198 280.706 356.452 280.779 356.707 280.76C356.962 280.741 357.202 280.631 357.383 280.45L363.953 273.88C364.134 273.699 364.244 273.459 364.263 273.204C364.282 272.949 364.209 272.695 364.058 272.489L360.452 267.602C360.003 266.99 359.721 266.271 359.634 265.517C359.546 264.763 359.656 263.999 359.953 263.3L359.972 263.255C360.26 262.558 360.723 261.947 361.316 261.482C361.909 261.016 362.612 260.712 363.357 260.598L369.362 259.689C369.615 259.65 369.845 259.523 370.012 259.329C370.178 259.135 370.269 258.887 370.269 258.632V249.342C370.269 249.087 370.179 248.841 370.013 248.647C369.848 248.453 369.619 248.325 369.367 248.285ZM337.59 266.023C335.2 266.044 332.858 265.354 330.862 264.039C328.866 262.724 327.307 260.846 326.383 258.642C325.459 256.438 325.211 254.009 325.672 251.664C326.134 249.319 327.282 247.164 328.972 245.475C330.662 243.785 332.816 242.636 335.161 242.175C337.506 241.714 339.935 241.961 342.139 242.886C344.343 243.81 346.222 245.369 347.536 247.365C348.851 249.361 349.542 251.702 349.521 254.092C349.493 257.248 348.227 260.267 345.995 262.498C343.764 264.73 340.745 265.996 337.59 266.023Z" fill="#EDEDED"/>
<path d="M148.027 50.1045H376.446V204.513H148.027V50.1045Z" fill="#F2F2F2"/>
<path d="M195 342.958C194.919 342.959 194.839 342.94 194.766 342.904C194.693 342.869 194.63 342.816 194.581 342.752C194.532 342.687 194.498 342.612 194.484 342.532C194.469 342.452 194.473 342.37 194.495 342.292L232.972 204.373C232.991 204.307 233.022 204.245 233.065 204.19C233.107 204.136 233.16 204.091 233.22 204.057C233.28 204.024 233.346 204.002 233.414 203.994C233.483 203.986 233.552 203.991 233.618 204.009C233.684 204.028 233.746 204.059 233.801 204.102C233.855 204.144 233.9 204.197 233.934 204.257C233.967 204.317 233.989 204.383 233.997 204.452C234.006 204.52 234 204.589 233.982 204.656L195.505 342.575C195.474 342.685 195.408 342.782 195.317 342.852C195.226 342.921 195.114 342.958 195 342.958ZM332.919 342.958C332.805 342.958 332.694 342.922 332.603 342.853C332.512 342.785 332.446 342.688 332.414 342.579L293.935 204.659C293.905 204.528 293.926 204.389 293.995 204.273C294.065 204.156 294.176 204.071 294.306 204.035C294.436 203.998 294.576 204.013 294.695 204.077C294.814 204.141 294.905 204.248 294.947 204.377L333.424 342.296C333.443 342.362 333.448 342.432 333.44 342.5C333.432 342.569 333.41 342.635 333.376 342.695C333.342 342.755 333.297 342.808 333.243 342.851C333.188 342.893 333.126 342.925 333.06 342.943C333.014 342.955 332.966 342.96 332.919 342.958Z" fill="#D80808"/>
<path d="M319.677 294.611C319.631 294.611 319.585 294.605 319.54 294.594L216.224 266.359C216.158 266.341 216.096 266.31 216.041 266.268C215.987 266.226 215.941 266.174 215.907 266.114C215.873 266.054 215.851 265.988 215.842 265.92C215.833 265.852 215.838 265.782 215.856 265.716C215.874 265.649 215.905 265.587 215.947 265.533C215.99 265.478 216.042 265.433 216.102 265.399C216.161 265.364 216.227 265.342 216.296 265.334C216.364 265.325 216.433 265.33 216.5 265.348L319.815 293.583C319.939 293.615 320.046 293.691 320.118 293.798C320.189 293.904 320.219 294.032 320.202 294.159C320.185 294.286 320.122 294.402 320.025 294.485C319.928 294.569 319.805 294.614 319.677 294.613V294.611Z" fill="#D80808"/>
<path d="M208.616 295.112C208.488 295.114 208.364 295.068 208.268 294.985C208.171 294.901 208.108 294.785 208.091 294.658C208.074 294.531 208.104 294.403 208.175 294.297C208.246 294.19 208.354 294.114 208.478 294.082L311.541 265.598C311.607 265.58 311.677 265.575 311.745 265.583C311.813 265.592 311.879 265.614 311.939 265.648C311.999 265.682 312.052 265.727 312.094 265.782C312.137 265.836 312.168 265.898 312.186 265.965C312.204 266.031 312.21 266.1 312.201 266.169C312.193 266.237 312.171 266.303 312.137 266.363C312.103 266.423 312.057 266.476 312.003 266.518C311.948 266.56 311.886 266.591 311.82 266.61L208.753 295.101C208.708 295.11 208.662 295.114 208.616 295.112ZM146.028 201.016H377.892V206.013H146.028V201.016ZM146.028 48.1062H377.892V53.103H146.028V48.1062Z" fill="#D80808"/>
<path d="M288.918 203.64H238.377C237.496 203.64 236.63 203.407 235.868 202.965C235.106 202.522 234.474 201.887 234.037 201.122L233.976 201.016H293.317L293.256 201.122C292.819 201.887 292.188 202.523 291.426 202.965C290.664 203.407 289.799 203.64 288.918 203.64ZM238.377 45.7947H288.918C289.799 45.7944 290.664 46.0272 291.426 46.4695C292.188 46.9118 292.819 47.5478 293.256 48.313L293.317 48.4174H233.976L234.037 48.313C234.474 47.5479 235.106 46.912 235.868 46.4698C236.63 46.0275 237.496 45.7946 238.377 45.7947Z" fill="#2B2B2B"/>
<path d="M348.087 60.4467C356.535 57.7392 361.188 48.6961 358.481 40.2482C355.773 31.8003 346.73 27.1468 338.282 29.8542C329.834 32.5617 325.181 41.6048 327.888 50.0527C330.596 58.5006 339.639 63.1541 348.087 60.4467Z" fill="#FF5A5A"/>
<path d="M345.794 56.2126C351.891 54.7735 355.667 48.6644 354.228 42.5674C352.789 36.4704 346.68 32.6944 340.583 34.1334C334.486 35.5725 330.71 41.6816 332.149 47.7786C333.588 53.8755 339.697 57.6516 345.794 56.2126Z" fill="#FF7878"/>
<path d="M343.186 56.7182C340.899 56.7182 338.663 56.0399 336.762 54.7691C334.861 53.4983 333.379 51.6922 332.504 49.5791C331.629 47.4661 331.401 45.141 331.848 42.8981C332.295 40.6552 333.397 38.5952 335.014 36.9788C336.632 35.3623 338.693 34.262 340.936 33.8169C343.18 33.3719 345.504 33.6022 347.617 34.4787C349.729 35.3552 351.534 36.8385 352.803 38.741C354.073 40.6434 354.749 42.8796 354.747 45.1666C354.741 48.2299 353.52 51.1657 351.353 53.3309C349.186 55.4961 346.249 56.7142 343.186 56.7182ZM343.186 34.0324C340.986 34.0324 338.836 34.6846 337.006 35.9066C335.177 37.1286 333.751 38.8655 332.909 40.8977C332.067 42.9299 331.846 45.1662 332.274 47.3239C332.703 49.4816 333.761 51.4638 335.316 53.02C336.871 54.5762 338.853 55.6365 341.01 56.0668C343.167 56.4971 345.404 56.2782 347.437 55.4376C349.47 54.5971 351.208 53.1727 352.431 51.3445C353.655 49.5163 354.309 47.3664 354.311 45.1666C354.31 42.2156 353.138 39.3856 351.052 37.298C348.966 35.2104 346.137 34.036 343.186 34.0324Z" fill="white"/>
<path d="M342.844 50.5865C342.815 50.558 342.792 50.5237 342.778 50.4857C342.763 50.4477 342.757 50.407 342.759 50.3663V49.463C342.218 49.4282 341.69 49.2856 341.205 49.0436C340.808 48.8483 340.466 48.5559 340.212 48.1934C339.99 47.8711 339.863 47.4932 339.844 47.1022C339.844 47.0685 339.851 47.0351 339.864 47.0041C339.878 46.9731 339.897 46.9451 339.922 46.9219C339.947 46.8969 339.976 46.8772 340.009 46.8638C340.041 46.8505 340.076 46.8438 340.112 46.8441H340.73C340.807 46.8424 340.883 46.867 340.944 46.914C341.005 46.9609 341.048 47.0273 341.066 47.1022C341.161 47.4871 341.398 47.8216 341.73 48.0378C342.096 48.2997 342.619 48.4306 343.298 48.4306C344.028 48.4306 344.574 48.3041 344.936 48.0511C345.109 47.9331 345.25 47.7731 345.345 47.5859C345.44 47.3987 345.486 47.1905 345.478 46.9808C345.488 46.7145 345.394 46.455 345.215 46.2577C344.991 46.0381 344.722 45.8691 344.427 45.7624C344.078 45.6207 343.555 45.4461 342.86 45.2386C342.311 45.0942 341.779 44.8912 341.273 44.6332C340.913 44.4505 340.606 44.1771 340.383 43.84C340.172 43.4786 340.069 43.0643 340.087 42.6463C340.081 42.3405 340.141 42.0371 340.263 41.7568C340.386 41.4764 340.567 41.2257 340.795 41.0218C341.267 40.5815 341.92 40.3234 342.755 40.2475V39.3556C342.753 39.3152 342.759 39.2747 342.774 39.237C342.788 39.1993 342.811 39.1653 342.841 39.1373C342.899 39.0846 342.975 39.0567 343.053 39.0595H343.518C343.556 39.058 343.594 39.0647 343.63 39.0791C343.665 39.0935 343.697 39.1153 343.723 39.143C343.776 39.2009 343.804 39.2773 343.801 39.3556V40.2589C344.302 40.3118 344.785 40.4702 345.22 40.7239C345.58 40.9319 345.887 41.2211 346.116 41.5684C346.308 41.859 346.422 42.1944 346.446 42.5419C346.446 42.5771 346.44 42.612 346.426 42.6446C346.413 42.6771 346.393 42.7067 346.368 42.7317C346.344 42.7564 346.314 42.7759 346.281 42.7889C346.249 42.802 346.214 42.8083 346.179 42.8076H345.533C345.465 42.8051 345.399 42.7827 345.344 42.7431C345.311 42.7216 345.284 42.6936 345.262 42.661C345.241 42.6283 345.227 42.5917 345.22 42.5533C345.191 42.3644 345.12 42.1844 345.013 42.0259C344.906 41.8675 344.766 41.7346 344.602 41.6367C344.196 41.3831 343.724 41.2569 343.247 41.2742C342.759 41.2488 342.274 41.3683 341.854 41.6177C341.687 41.7264 341.551 41.877 341.461 42.0545C341.37 42.232 341.328 42.4302 341.338 42.6292C341.326 42.8955 341.411 43.157 341.577 43.3655C341.781 43.5861 342.032 43.7579 342.311 43.8684C342.781 44.0632 343.261 44.2311 343.75 44.3713C344.343 44.5274 344.921 44.7344 345.478 44.99C345.856 45.155 346.183 45.4169 346.427 45.7491C346.647 46.1023 346.755 46.5138 346.737 46.9295C346.748 47.2638 346.684 47.5963 346.549 47.9023C346.414 48.2082 346.211 48.4797 345.957 48.6963C345.437 49.1442 344.725 49.4023 343.822 49.4706V50.3607C343.823 50.3995 343.817 50.4382 343.804 50.4747C343.791 50.5112 343.77 50.5447 343.744 50.5732C343.718 50.6016 343.686 50.6239 343.651 50.6387C343.615 50.6535 343.577 50.6603 343.539 50.6586H343.074C343.033 50.6631 342.991 50.659 342.952 50.6466C342.912 50.6342 342.876 50.6137 342.844 50.5865Z" fill="white"/>
<path d="M97.1243 202.897C100.901 194.87 97.4563 185.301 89.4295 181.524C81.4027 177.747 71.8337 181.192 68.0565 189.219C64.2794 197.245 67.7244 206.814 75.7513 210.592C83.7781 214.369 93.3471 210.924 97.1243 202.897Z" fill="#FF5A5A"/>
<path d="M90.6109 204.088C95.0406 199.658 95.0406 192.476 90.6109 188.047C86.1813 183.617 78.9994 183.617 74.5697 188.047C70.14 192.476 70.14 199.658 74.5697 204.088C78.9994 208.518 86.1813 208.518 90.6109 204.088Z" fill="#FF7878"/>
<path d="M82.5902 207.629C80.3032 207.629 78.0675 206.951 76.166 205.681C74.2644 204.41 72.7823 202.604 71.9072 200.491C71.0321 198.378 70.8032 196.053 71.2495 193.81C71.6959 191.567 72.7973 189.507 74.4146 187.889C76.0319 186.272 78.0924 185.171 80.3356 184.725C82.5787 184.279 84.9037 184.509 87.0165 185.384C89.1294 186.26 90.9351 187.742 92.2055 189.644C93.4758 191.546 94.1536 193.781 94.1533 196.068C94.1492 199.134 92.9296 202.072 90.762 204.24C88.5943 206.407 85.6555 207.626 82.5902 207.629ZM82.5902 184.942C80.3895 184.941 78.2382 185.594 76.4082 186.816C74.5782 188.038 73.1517 189.776 72.3093 191.809C71.4669 193.842 71.2463 196.079 71.6754 198.238C72.1045 200.396 73.164 202.379 74.72 203.935C76.276 205.492 78.2586 206.551 80.417 206.981C82.5753 207.41 84.8126 207.19 86.8458 206.348C88.8791 205.506 90.6169 204.08 91.8396 202.25C93.0623 200.42 93.7149 198.269 93.7149 196.068C93.7119 193.119 92.5389 190.291 90.4533 188.205C88.3678 186.119 85.5399 184.945 82.5902 184.942Z" fill="white"/>
<path d="M82.2486 201.496C82.2195 201.468 82.1968 201.434 82.1821 201.396C82.1673 201.358 82.1609 201.318 82.1632 201.278V200.374C81.6224 200.34 81.0939 200.197 80.609 199.955C80.2117 199.759 79.8703 199.466 79.6164 199.103C79.3946 198.781 79.2671 198.404 79.2483 198.014C79.2472 197.978 79.2536 197.943 79.267 197.91C79.2804 197.878 79.3006 197.848 79.3261 197.824C79.3509 197.799 79.3805 197.779 79.4131 197.766C79.4457 197.752 79.4806 197.746 79.5159 197.746H80.1345C80.2118 197.744 80.2873 197.769 80.3485 197.817C80.4096 197.864 80.4526 197.931 80.4704 198.006C80.5646 198.391 80.8022 198.726 81.1346 198.942C81.5015 199.203 82.0241 199.334 82.7022 199.334C83.4335 199.334 83.9794 199.208 84.34 198.955C84.5135 198.837 84.6544 198.677 84.7493 198.49C84.8442 198.302 84.8901 198.094 84.8827 197.885C84.892 197.618 84.7966 197.359 84.617 197.161C84.3936 196.942 84.1257 196.772 83.8314 196.664C83.4822 196.524 82.9597 196.35 82.2638 196.142C81.7147 195.997 81.1828 195.794 80.6773 195.535C80.3162 195.352 80.0089 195.079 79.7853 194.742C79.5754 194.38 79.4727 193.966 79.4893 193.548C79.4841 193.242 79.5448 192.939 79.6673 192.659C79.7897 192.378 79.9711 192.128 80.1991 191.924C80.6722 191.485 81.3257 191.227 82.1594 191.149V190.259C82.1571 190.219 82.1635 190.178 82.1782 190.14C82.193 190.102 82.2157 190.068 82.2448 190.039C82.303 189.987 82.3793 189.96 82.4574 189.963H82.9318C82.9703 189.961 83.0088 189.967 83.0446 189.982C83.0803 189.996 83.1125 190.019 83.1387 190.047C83.1912 190.105 83.2191 190.181 83.2165 190.259V191.163C83.7173 191.215 84.2013 191.373 84.636 191.628C84.9966 191.835 85.3034 192.124 85.5317 192.472C85.724 192.763 85.8378 193.098 85.862 193.446C85.8627 193.482 85.8562 193.517 85.8429 193.55C85.8295 193.584 85.8096 193.614 85.7842 193.639C85.7588 193.665 85.7286 193.685 85.6953 193.698C85.6621 193.711 85.6264 193.718 85.5906 193.717H84.9453C84.874 193.716 84.8047 193.693 84.7461 193.653C84.7139 193.631 84.6865 193.603 84.6653 193.57C84.6441 193.537 84.6296 193.501 84.6227 193.463C84.5933 193.274 84.5226 193.094 84.4157 192.935C84.3088 192.777 84.1682 192.644 84.004 192.546C83.5985 192.293 83.1266 192.168 82.6491 192.186C82.1613 192.16 81.6769 192.279 81.2561 192.527C81.0888 192.636 80.953 192.787 80.8624 192.965C80.7718 193.143 80.7296 193.341 80.7399 193.541C80.7281 193.806 80.8131 194.067 80.979 194.275C81.1822 194.497 81.4335 194.669 81.7135 194.778C82.1828 194.974 82.6631 195.142 83.152 195.283C83.7452 195.438 84.3237 195.645 84.8808 195.901C85.2582 196.067 85.5854 196.329 85.8297 196.66C86.0493 197.014 86.1571 197.425 86.139 197.841C86.1506 198.175 86.0865 198.508 85.9514 198.814C85.8164 199.121 85.6139 199.393 85.359 199.61C84.8391 200.056 84.1274 200.314 83.2241 200.382V201.274C83.2263 201.352 83.1985 201.428 83.1463 201.486C83.1197 201.514 83.0876 201.536 83.0519 201.551C83.0162 201.565 82.9779 201.572 82.9394 201.57H82.4764C82.4354 201.574 82.394 201.569 82.3548 201.557C82.3156 201.544 82.2795 201.523 82.2486 201.496Z" fill="white"/>
<path d="M405.073 239.416C413.706 237.378 419.054 228.727 417.016 220.093C414.978 211.459 406.327 206.112 397.693 208.149C389.059 210.187 383.712 218.838 385.75 227.472C387.788 236.106 396.439 241.453 405.073 239.416Z" fill="#FF5A5A"/>
<path d="M404.295 234.746C410.349 233.138 413.954 226.927 412.347 220.872C410.739 214.817 404.527 211.212 398.473 212.82C392.418 214.428 388.813 220.639 390.421 226.694C392.028 232.749 398.24 236.354 404.295 234.746Z" fill="#FF7878"/>
<path d="M401.388 235.321C399.101 235.321 396.865 234.643 394.964 233.372C393.062 232.102 391.58 230.295 390.705 228.182C389.83 226.069 389.601 223.744 390.048 221.501C390.494 219.257 391.596 217.197 393.214 215.58C394.832 213.963 396.893 212.862 399.136 212.417C401.379 211.971 403.704 212.201 405.817 213.077C407.93 213.953 409.735 215.436 411.005 217.339C412.275 219.241 412.952 221.477 412.951 223.764C412.946 226.829 411.726 229.766 409.559 231.933C407.391 234.099 404.453 235.318 401.388 235.321ZM401.388 212.634C399.188 212.634 397.037 213.286 395.208 214.509C393.378 215.731 391.952 217.468 391.11 219.501C390.268 221.534 390.048 223.771 390.477 225.929C390.907 228.087 391.966 230.069 393.522 231.625C395.078 233.181 397.06 234.24 399.218 234.669C401.376 235.099 403.613 234.878 405.645 234.036C407.678 233.194 409.416 231.768 410.638 229.939C411.86 228.11 412.513 225.959 412.513 223.758C412.508 220.81 411.334 217.984 409.249 215.9C407.163 213.815 404.337 212.643 401.388 212.64V212.634Z" fill="white"/>
<path d="M401.045 229.194C401.016 229.165 400.994 229.13 400.979 229.092C400.965 229.055 400.959 229.014 400.961 228.973V228.07C400.42 228.035 399.892 227.893 399.407 227.651C399.009 227.456 398.668 227.163 398.414 226.801C398.192 226.478 398.064 226.1 398.046 225.709C398.046 225.676 398.053 225.642 398.067 225.611C398.08 225.58 398.1 225.552 398.124 225.529C398.149 225.504 398.179 225.484 398.211 225.471C398.244 225.458 398.279 225.451 398.314 225.451H398.933C399.009 225.45 399.085 225.475 399.146 225.521C399.207 225.568 399.25 225.635 399.268 225.709C399.362 226.095 399.599 226.43 399.933 226.645C400.297 226.909 400.821 227.04 401.5 227.04C402.231 227.04 402.777 226.909 403.138 226.66C403.312 226.542 403.453 226.382 403.548 226.194C403.643 226.007 403.688 225.798 403.681 225.588C403.69 225.322 403.594 225.063 403.415 224.867C403.192 224.646 402.924 224.477 402.629 224.37C402.28 224.228 401.758 224.054 401.062 223.848C400.513 223.703 399.981 223.499 399.475 223.24C399.114 223.058 398.808 222.785 398.585 222.447C398.374 222.086 398.27 221.672 398.287 221.253C398.282 220.947 398.342 220.644 398.465 220.364C398.587 220.083 398.769 219.833 398.997 219.629C399.47 219.191 400.124 218.931 400.957 218.855V217.965C400.955 217.924 400.961 217.884 400.976 217.846C400.99 217.808 401.012 217.773 401.041 217.744C401.1 217.692 401.177 217.664 401.255 217.667H401.72C401.759 217.665 401.797 217.672 401.832 217.687C401.868 217.701 401.899 217.724 401.925 217.752C401.978 217.81 402.006 217.886 402.003 217.965V218.866C402.504 218.92 402.987 219.079 403.423 219.331C403.783 219.539 404.09 219.829 404.318 220.177C404.511 220.468 404.624 220.803 404.649 221.151C404.649 221.186 404.642 221.221 404.629 221.254C404.615 221.286 404.596 221.316 404.571 221.341C404.546 221.366 404.516 221.385 404.484 221.399C404.451 221.412 404.416 221.419 404.381 221.418H403.736C403.664 221.417 403.593 221.394 403.535 221.352C403.502 221.33 403.475 221.302 403.454 221.27C403.433 221.237 403.419 221.201 403.413 221.162C403.384 220.973 403.313 220.793 403.206 220.635C403.099 220.476 402.959 220.344 402.794 220.246C402.389 219.993 401.917 219.867 401.439 219.885C400.952 219.86 400.467 219.979 400.047 220.227C399.879 220.336 399.743 220.486 399.653 220.664C399.562 220.842 399.52 221.041 399.53 221.24C399.519 221.506 399.604 221.767 399.769 221.975C399.973 222.196 400.224 222.368 400.504 222.477C400.973 222.672 401.454 222.84 401.942 222.98C402.535 223.137 403.113 223.344 403.671 223.599C404.049 223.765 404.376 224.026 404.62 224.358C404.84 224.711 404.948 225.123 404.929 225.539C404.941 225.873 404.877 226.205 404.742 226.511C404.607 226.817 404.404 227.089 404.149 227.305C403.629 227.753 402.918 228.011 402.014 228.08V228.97C402.017 229.048 401.989 229.125 401.937 229.184C401.91 229.212 401.879 229.234 401.843 229.248C401.808 229.262 401.77 229.269 401.732 229.268H401.267C401.186 229.273 401.106 229.247 401.045 229.194Z" fill="white"/>
<path d="M61.7719 169.008C60.7485 169.003 59.768 168.596 59.041 167.876C58.3139 167.155 57.8981 166.179 57.8828 165.156C57.8674 164.132 58.2538 163.144 58.959 162.402C59.6642 161.66 60.632 161.224 61.6548 161.188C62.6776 161.152 63.6739 161.518 64.4299 162.208C65.1859 162.898 65.6414 163.856 65.6987 164.878C65.756 165.9 65.4105 166.903 64.7363 167.673C64.0622 168.443 63.1131 168.919 62.0926 168.997C61.9844 169.004 61.8782 169.008 61.7719 169.008ZM61.7833 161.947H61.529C60.9137 161.996 60.3269 162.227 59.8428 162.61C59.3587 162.993 58.999 163.511 58.8092 164.099C58.6195 164.686 58.6081 165.317 58.7766 165.91C58.9451 166.504 59.2859 167.035 59.7558 167.435C60.2258 167.835 60.8039 168.087 61.4171 168.159C62.0302 168.231 62.6508 168.119 63.2005 167.838C63.7502 167.557 64.2043 167.12 64.5053 166.581C64.8063 166.042 64.9408 165.426 64.8918 164.81C64.8293 164.029 64.4749 163.299 63.8989 162.766C63.3229 162.234 62.5676 161.938 61.7833 161.937V161.947ZM408.156 170.648C407.118 170.649 406.122 170.244 405.38 169.519C404.639 168.794 404.211 167.807 404.189 166.771C404.166 165.734 404.551 164.729 405.261 163.973C405.971 163.217 406.949 162.769 407.985 162.726C409.021 162.683 410.033 163.048 410.803 163.742C411.574 164.437 412.041 165.406 412.105 166.441C412.169 167.476 411.825 168.495 411.146 169.279C410.467 170.063 409.508 170.55 408.474 170.635C408.368 170.644 408.26 170.648 408.156 170.648ZM408.165 163.584H407.913C407.297 163.634 406.709 163.864 406.225 164.248C405.74 164.631 405.38 165.149 405.189 165.737C404.999 166.325 404.988 166.956 405.156 167.55C405.325 168.145 405.666 168.676 406.136 169.077C406.607 169.477 407.185 169.729 407.799 169.801C408.412 169.873 409.033 169.761 409.583 169.48C410.133 169.199 410.588 168.761 410.889 168.222C411.19 167.682 411.325 167.066 411.275 166.45C411.21 165.67 410.854 164.943 410.278 164.412C409.702 163.882 408.948 163.587 408.165 163.586V163.584ZM319.565 37.6362C318.528 37.6371 317.533 37.2316 316.792 36.5068C316.051 35.782 315.623 34.7955 315.602 33.7593C315.58 32.723 315.965 31.7194 316.674 30.9639C317.384 30.2084 318.362 29.7613 319.397 29.7184C320.433 29.6755 321.444 30.0403 322.214 30.7345C322.984 31.4287 323.45 32.397 323.514 33.4315C323.578 34.4661 323.234 35.4844 322.556 36.268C321.877 37.0517 320.918 37.5381 319.885 37.6229C319.772 37.6324 319.671 37.6362 319.565 37.6362ZM319.576 30.5728C319.493 30.5728 319.407 30.5728 319.324 30.5822C318.708 30.6311 318.12 30.8617 317.635 31.2447C317.15 31.6277 316.789 32.146 316.599 32.734C316.409 33.3219 316.397 33.9532 316.565 34.5478C316.734 35.1424 317.075 35.6736 317.545 36.0743C318.178 36.6106 318.996 36.8747 319.823 36.8088C320.623 36.7405 321.367 36.3665 321.898 35.7644C322.43 35.1623 322.71 34.3785 322.679 33.5757C322.648 32.773 322.309 32.013 321.732 31.4538C321.155 30.8945 320.385 30.579 319.582 30.5728H319.576ZM203.728 233.317C202.69 233.319 201.694 232.914 200.952 232.19C200.21 231.465 199.781 230.478 199.759 229.442C199.736 228.405 200.121 227.4 200.831 226.644C201.54 225.887 202.518 225.439 203.554 225.396C204.591 225.352 205.603 225.717 206.373 226.411C207.144 227.106 207.611 228.075 207.675 229.11C207.739 230.145 207.395 231.164 206.716 231.948C206.038 232.732 205.078 233.219 204.045 233.304C203.938 233.314 203.834 233.317 203.728 233.317ZM203.728 226.254H203.473C202.648 226.32 201.882 226.712 201.345 227.342C200.807 227.973 200.542 228.791 200.608 229.617C200.676 230.441 201.069 231.205 201.699 231.742C202.329 232.279 203.145 232.544 203.971 232.48C204.771 232.412 205.515 232.038 206.047 231.436C206.578 230.833 206.858 230.049 206.826 229.246C206.795 228.444 206.456 227.684 205.879 227.125C205.301 226.565 204.531 226.25 203.728 226.244V226.254ZM97.778 63.9637C96.7415 63.9646 95.7459 63.5591 95.0049 62.8343C94.264 62.1095 93.8367 61.1231 93.8148 60.0868C93.7929 59.0505 94.1782 58.0469 94.8878 57.2915C95.5975 56.536 96.575 56.0888 97.6107 56.0459C98.6463 56.003 99.6575 56.3678 100.427 57.062C101.197 57.7562 101.664 58.7245 101.728 59.759C101.792 60.7936 101.447 61.812 100.769 62.5956C100.09 63.3792 99.1317 63.8656 98.0987 63.9504C97.9924 63.9542 97.8842 63.9637 97.778 63.9637ZM97.7894 56.9003C97.7059 56.9003 97.6205 56.9003 97.537 56.9098C96.9212 56.9586 96.3337 57.1889 95.8488 57.5715C95.3638 57.9542 95.0033 58.472 94.8126 59.0595C94.6219 59.6471 94.6097 60.278 94.7776 60.8725C94.9454 61.4669 95.2857 61.9983 95.7555 62.3994C96.2253 62.8005 96.8035 63.0533 97.4169 63.1258C98.0304 63.1983 98.6515 63.0874 99.2019 62.8069C99.7523 62.5265 100.207 62.0892 100.509 61.5503C100.811 61.0113 100.946 60.395 100.898 59.7792C100.835 58.9973 100.481 58.2677 99.905 57.7353C99.329 57.2029 98.5737 56.9068 97.7894 56.906V56.9003Z" fill="#CCCCCC"/>
<path d="M363.42 320.018C363.378 320.018 363.337 320.01 363.298 319.995C363.26 319.979 363.225 319.955 363.195 319.926C363.166 319.896 363.142 319.861 363.127 319.823C363.111 319.784 363.103 319.743 363.103 319.701V305.311C363.103 305.227 363.136 305.146 363.196 305.086C363.255 305.027 363.336 304.994 363.42 304.994C363.504 304.994 363.585 305.027 363.644 305.086C363.703 305.146 363.737 305.227 363.737 305.311V319.701C363.737 319.785 363.703 319.866 363.644 319.925C363.585 319.985 363.504 320.018 363.42 320.018Z" fill="#D80808"/>
<path d="M349.156 290.624C346.12 293.85 346.854 299.627 350.864 303.639C354.874 307.65 360.657 308.394 363.879 305.347L349.156 290.624ZM356.669 280.867C356.669 290.079 362.532 297.551 369.764 297.551C376.996 297.551 382.858 290.079 382.858 280.867C382.878 277.788 382.19 274.746 380.849 271.975H375.212L378.439 268.369C376.129 265.759 373.091 264.177 369.76 264.177C362.532 264.19 356.669 271.658 356.669 280.867Z" fill="#A43030"/>
<path d="M370.123 320.05C370.081 320.051 370.04 320.043 370.001 320.027C369.963 320.011 369.928 319.988 369.898 319.958C369.869 319.929 369.845 319.894 369.829 319.855C369.814 319.817 369.806 319.775 369.806 319.734V272.979C369.806 272.895 369.839 272.814 369.899 272.754C369.958 272.695 370.039 272.662 370.123 272.662C370.207 272.662 370.287 272.695 370.347 272.754C370.406 272.814 370.44 272.895 370.44 272.979V319.734C370.44 319.818 370.406 319.898 370.347 319.958C370.287 320.017 370.207 320.05 370.123 320.05ZM376.355 319.737C376.313 319.737 376.272 319.729 376.234 319.713C376.196 319.697 376.161 319.674 376.132 319.644C376.102 319.615 376.079 319.58 376.063 319.542C376.048 319.503 376.04 319.462 376.04 319.42V301.075C376.037 301.031 376.042 300.987 376.057 300.946C376.071 300.905 376.094 300.867 376.123 300.835C376.153 300.803 376.189 300.777 376.229 300.76C376.269 300.742 376.312 300.733 376.356 300.733C376.4 300.733 376.443 300.742 376.483 300.76C376.523 300.777 376.559 300.803 376.588 300.835C376.618 300.867 376.641 300.905 376.655 300.946C376.67 300.987 376.675 301.031 376.672 301.075V319.42C376.672 319.462 376.664 319.503 376.648 319.542C376.632 319.58 376.608 319.615 376.579 319.644C376.55 319.674 376.515 319.697 376.476 319.713C376.438 319.729 376.397 319.737 376.355 319.737Z" fill="#D80808"/>
<path d="M399.931 277.218C404.865 282.439 403.658 291.804 397.156 298.306C390.654 304.808 381.291 306.011 376.068 301.08L399.931 277.218Z" fill="#A43030"/>
<path d="M370.123 281.422C370.081 281.422 370.04 281.414 370.001 281.398C369.963 281.382 369.928 281.359 369.899 281.329L364.445 275.877C364.415 275.847 364.392 275.812 364.376 275.773C364.36 275.735 364.352 275.694 364.352 275.652C364.352 275.61 364.361 275.569 364.377 275.53C364.393 275.492 364.416 275.457 364.446 275.428C364.475 275.398 364.51 275.375 364.549 275.359C364.587 275.343 364.629 275.335 364.67 275.335C364.712 275.335 364.753 275.344 364.792 275.36C364.83 275.376 364.865 275.399 364.894 275.429L370.347 280.881C370.406 280.94 370.439 281.021 370.439 281.105C370.439 281.189 370.406 281.269 370.347 281.329C370.317 281.358 370.283 281.382 370.244 281.398C370.206 281.414 370.164 281.422 370.123 281.422ZM370.123 287.396C370.081 287.396 370.04 287.388 370.002 287.373C369.963 287.357 369.928 287.334 369.899 287.305C369.839 287.245 369.806 287.164 369.806 287.08C369.806 286.996 369.839 286.915 369.899 286.855L375.636 281.118C375.696 281.062 375.775 281.032 375.857 281.034C375.939 281.035 376.017 281.069 376.075 281.127C376.133 281.184 376.166 281.263 376.168 281.345C376.169 281.427 376.139 281.506 376.084 281.566L370.347 287.305C370.287 287.363 370.206 287.396 370.123 287.396Z" fill="#D80808"/>
<path d="M390.097 319.734V330.019C390.102 332.79 389.218 335.488 387.574 337.719C387.485 337.786 387.401 337.862 387.324 337.944C387.131 338.158 386.963 338.394 386.825 338.647C386.802 338.673 386.779 338.702 386.755 338.728C386.705 338.789 386.658 338.84 386.605 338.897C386.533 338.973 386.46 339.051 386.388 339.123C386.107 339.408 385.819 339.681 385.513 339.941C383.157 341.95 380.161 343.051 377.065 343.047H364.171C361 343.048 357.937 341.892 355.557 339.796C353.176 337.699 351.642 334.807 351.242 331.661C351.217 331.481 351.196 331.3 351.181 331.118C351.181 331.05 351.181 330.981 351.166 330.913C351.157 330.773 351.149 330.632 351.145 330.492C351.141 330.351 351.145 330.175 351.145 330.017V319.734H390.097Z" fill="#CCCCCC"/>
<path d="M338.417 162.135H202.094C202.025 162.129 201.962 162.098 201.915 162.047C201.869 161.997 201.843 161.931 201.843 161.862C201.843 161.794 201.869 161.728 201.915 161.677C201.962 161.627 202.025 161.596 202.094 161.59H338.417C338.455 161.587 338.493 161.591 338.528 161.604C338.564 161.616 338.597 161.636 338.625 161.661C338.653 161.687 338.675 161.718 338.69 161.752C338.705 161.787 338.713 161.824 338.713 161.862C338.713 161.9 338.705 161.937 338.69 161.972C338.675 162.007 338.653 162.038 338.625 162.063C338.597 162.089 338.564 162.109 338.528 162.121C338.493 162.133 338.455 162.138 338.417 162.135ZM338.417 146.592H202.094C202.021 146.592 201.952 146.563 201.9 146.512C201.849 146.461 201.82 146.391 201.82 146.319C201.82 146.246 201.849 146.177 201.9 146.125C201.952 146.074 202.021 146.045 202.094 146.045H338.417C338.489 146.045 338.559 146.074 338.61 146.125C338.661 146.177 338.69 146.246 338.69 146.319C338.69 146.391 338.661 146.461 338.61 146.512C338.559 146.563 338.489 146.592 338.417 146.592ZM338.417 131.049H202.094C202.025 131.044 201.962 131.012 201.915 130.962C201.869 130.912 201.843 130.846 201.843 130.777C201.843 130.708 201.869 130.642 201.915 130.592C201.962 130.542 202.025 130.51 202.094 130.505H338.417C338.455 130.502 338.493 130.506 338.528 130.519C338.564 130.531 338.597 130.55 338.625 130.576C338.653 130.602 338.675 130.633 338.69 130.667C338.705 130.702 338.713 130.739 338.713 130.777C338.713 130.815 338.705 130.852 338.69 130.887C338.675 130.921 338.653 130.953 338.625 130.978C338.597 131.004 338.564 131.023 338.528 131.036C338.493 131.048 338.455 131.053 338.417 131.049ZM338.417 115.507H202.094C202.021 115.507 201.952 115.478 201.9 115.427C201.849 115.375 201.82 115.306 201.82 115.233C201.82 115.161 201.849 115.091 201.9 115.04C201.952 114.989 202.021 114.96 202.094 114.96H338.417C338.489 114.96 338.559 114.989 338.61 115.04C338.661 115.091 338.69 115.161 338.69 115.233C338.69 115.306 338.661 115.375 338.61 115.427C338.559 115.478 338.489 115.507 338.417 115.507ZM338.417 99.9642H202.094C202.025 99.9585 201.962 99.9273 201.915 99.8768C201.869 99.8264 201.843 99.7604 201.843 99.6918C201.843 99.6233 201.869 99.5573 201.915 99.5068C201.962 99.4564 202.025 99.4252 202.094 99.4195H338.417C338.455 99.4164 338.493 99.4211 338.528 99.4333C338.564 99.4456 338.597 99.4651 338.625 99.4907C338.653 99.5163 338.675 99.5474 338.69 99.582C338.705 99.6166 338.713 99.654 338.713 99.6918C338.713 99.7296 338.705 99.767 338.69 99.8016C338.675 99.8363 338.653 99.8673 338.625 99.8929C338.597 99.9185 338.564 99.9381 338.528 99.9503C338.493 99.9626 338.455 99.9673 338.417 99.9642ZM338.417 84.4216H202.094C202.021 84.4216 201.952 84.3928 201.9 84.3415C201.849 84.2903 201.82 84.2208 201.82 84.1483C201.82 84.0758 201.849 84.0063 201.9 83.955C201.952 83.9038 202.021 83.875 202.094 83.875H338.417C338.489 83.875 338.559 83.9038 338.61 83.955C338.661 84.0063 338.69 84.0758 338.69 84.1483C338.69 84.2208 338.661 84.2903 338.61 84.3415C338.559 84.3928 338.489 84.4216 338.417 84.4216Z" fill="#808080"/>
<path d="M220.153 162.383C219.991 162.383 219.835 162.326 219.712 162.222L201.651 146.837C201.581 146.779 201.523 146.709 201.48 146.628C201.438 146.548 201.412 146.461 201.404 146.37C201.395 146.28 201.405 146.189 201.433 146.102C201.461 146.016 201.505 145.936 201.564 145.867C201.623 145.798 201.695 145.741 201.776 145.7C201.857 145.66 201.945 145.635 202.036 145.629C202.127 145.623 202.217 145.635 202.303 145.665C202.389 145.694 202.468 145.74 202.536 145.801L220.092 160.757L247.518 130.518C247.625 130.4 247.77 130.323 247.927 130.301C248.084 130.279 248.245 130.313 248.38 130.397L272.755 145.389L281.551 99.5031C281.573 99.3864 281.626 99.2777 281.703 99.1877C281.781 99.0976 281.88 99.0293 281.992 98.9894C282.104 98.9496 282.224 98.9396 282.341 98.9604C282.458 98.9813 282.568 99.0322 282.659 99.1083L318.253 129.004L334.329 84.2489C334.395 84.086 334.522 83.955 334.683 83.8833C334.843 83.8117 335.025 83.8049 335.191 83.8645C335.356 83.9241 335.493 84.0454 335.571 84.203C335.649 84.3606 335.663 84.5423 335.61 84.7101L319.202 130.376C319.165 130.479 319.104 130.572 319.023 130.646C318.943 130.721 318.845 130.774 318.739 130.803C318.633 130.83 318.521 130.833 318.414 130.809C318.307 130.785 318.207 130.736 318.122 130.666L282.67 100.904L273.907 146.62C273.886 146.729 273.839 146.831 273.771 146.917C273.702 147.003 273.613 147.072 273.512 147.116C273.411 147.16 273.3 147.179 273.19 147.171C273.081 147.163 272.974 147.129 272.88 147.072L248.146 131.852L220.657 162.161C220.594 162.232 220.516 162.288 220.429 162.326C220.342 162.364 220.248 162.384 220.153 162.383Z" fill="#D75454"/>
<path d="M287.288 99.6093C287.288 100.548 287.009 101.465 286.488 102.245C285.967 103.025 285.226 103.633 284.359 103.992C283.492 104.352 282.538 104.446 281.618 104.262C280.697 104.079 279.852 103.628 279.188 102.964C278.525 102.301 278.073 101.455 277.89 100.535C277.707 99.6145 277.801 98.6606 278.16 97.7937C278.519 96.9267 279.127 96.1858 279.907 95.6644C280.688 95.1431 281.605 94.8649 282.543 94.8649C283.801 94.8649 285.008 95.3647 285.898 96.2545C286.788 97.1442 287.288 98.351 287.288 99.6093Z" fill="#A43030"/>
<path d="M284.519 99.6093C284.519 99.9993 284.403 100.381 284.187 100.705C283.97 101.029 283.662 101.282 283.302 101.431C282.941 101.58 282.545 101.619 282.162 101.543C281.78 101.467 281.429 101.279 281.153 101.004C280.877 100.728 280.689 100.376 280.613 99.994C280.537 99.6115 280.576 99.2151 280.725 98.8548C280.875 98.4945 281.127 98.1865 281.452 97.9699C281.776 97.7532 282.157 97.6376 282.547 97.6376C283.07 97.6376 283.572 97.8453 283.941 98.2151C284.311 98.5849 284.519 99.0864 284.519 99.6093Z" fill="white"/>
<path d="M158.309 87.775L158.21 88.6308L157.796 94.7207L150.302 99.9206L140.605 93.7358L140.876 88.3595L140.95 87.6345L158.309 87.775Z" fill="#FFCFCF"/>
<path d="M158.309 87.775L158.21 88.6308C157.352 90.1943 156.084 91.4942 154.543 92.3906C153.001 93.2871 151.244 93.746 149.461 93.7181C147.678 93.6902 145.936 93.1764 144.424 92.2322C142.911 91.288 141.684 89.949 140.876 88.3595L140.95 87.6345L158.309 87.775Z" fill="#FFA9A9"/>
<path d="M148.594 92.8002C146.008 92.5212 143.638 91.2263 142.006 89.2002C140.374 87.1741 139.614 84.5828 139.893 81.9963L140.969 72.016L160.476 74.1206L159.4 84.099C159.262 85.3799 158.873 86.621 158.255 87.7515C157.637 88.882 156.803 89.8797 155.799 90.6877C154.796 91.4957 153.643 92.0982 152.407 92.4606C151.171 92.8231 149.875 92.9385 148.594 92.8002Z" fill="#FFCFCF"/>
<path d="M141.29 82.3321C140.999 84.0173 140.857 85.4008 139.172 85.1104C137.487 84.8201 134.894 82.9679 135.187 81.2827C135.255 80.8818 135.403 80.4984 135.62 80.1545C135.837 79.8105 136.119 79.5126 136.452 79.2779C136.784 79.0432 137.159 78.8762 137.556 78.7864C137.952 78.6967 138.363 78.6859 138.764 78.7549C139.165 78.8238 139.548 78.971 139.892 79.188C140.236 79.4051 140.534 79.6878 140.769 80.02C141.003 80.3521 141.17 80.7273 141.26 81.124C141.35 81.5207 141.361 81.9313 141.292 82.3321H141.29ZM157.817 83.82C157.829 85.5279 157.743 86.9171 159.453 86.9057C161.163 86.8943 164.023 85.49 164.008 83.7782C164.002 82.9568 163.671 82.1712 163.086 81.5943C162.501 81.0174 161.711 80.6964 160.89 80.702C160.068 80.7075 159.283 81.0391 158.706 81.6238C158.129 82.2086 157.808 82.9985 157.813 83.82H157.817Z" fill="#FFCFCF"/>
<path d="M136.513 79.2351C136.513 79.2351 134.494 76.8591 134.405 73.5722C134.374 72.6442 134.675 71.7358 135.253 71.0094C135.832 70.283 136.649 69.7862 137.561 69.6077L137.642 69.5945C137.642 69.5945 135.997 63.5748 142.089 59.9691C148.18 56.3633 153.025 63.5387 153.025 63.5387C153.318 63.129 153.732 62.8221 154.209 62.6619C154.686 62.5017 155.202 62.4964 155.682 62.6468C155.682 62.6468 157.147 62.9106 157.081 64.6299C157.081 64.6299 159.586 61.9143 163.782 64.9507C168.963 68.7025 163.243 81.9185 163.243 81.9185C163.243 81.9185 162.169 79.9543 159.611 80.8956L160.303 76.0582C160.303 76.0582 155.388 78.4722 152.974 74.0713C152.974 74.0713 150.291 77.9655 146.677 76.7509C142.8 75.4471 143.058 79.8974 140.176 79.3755C140.172 79.3774 138.43 78.0243 136.513 79.2351Z" fill="#D80808"/>
<path d="M146.419 87.3308C146.393 88.1076 146.669 88.8643 147.189 89.4418C147.709 90.0193 148.433 90.3726 149.208 90.4274C149.983 90.4822 150.75 90.2343 151.346 89.7357C151.942 89.2371 152.322 88.5267 152.405 87.754L146.419 87.3308Z" fill="white"/>
<path d="M155.067 79.1363C155.043 79.2308 154.985 79.3129 154.903 79.3663C154.822 79.4197 154.723 79.4406 154.627 79.4248L152.539 79.0699C152.395 79.0327 152.27 78.94 152.193 78.8118C152.116 78.6836 152.093 78.5302 152.128 78.3848C152.148 78.3096 152.184 78.2394 152.233 78.1786C152.282 78.1178 152.343 78.0677 152.412 78.0314C152.481 77.9951 152.557 77.9734 152.634 77.9676C152.712 77.9618 152.79 77.972 152.864 77.9977L154.821 78.6865C154.913 78.7171 154.989 78.7817 155.035 78.8671C155.081 78.9525 155.093 79.0522 155.067 79.1458V79.1363ZM145.074 78.3411C145.074 78.4383 145.111 78.5318 145.177 78.6024C145.244 78.673 145.335 78.7154 145.432 78.7207L147.545 78.8725C147.696 78.8725 147.84 78.8125 147.947 78.7058C148.054 78.599 148.114 78.4542 148.114 78.3032C148.113 78.2249 148.096 78.1476 148.064 78.0763C148.031 78.0049 147.985 77.9409 147.927 77.8884C147.869 77.8359 147.8 77.7958 147.726 77.7709C147.652 77.7459 147.573 77.7366 147.495 77.7434L145.431 77.9464C145.335 77.9541 145.246 77.9974 145.182 78.0678C145.117 78.1381 145.081 78.2304 145.081 78.326L145.074 78.3411ZM146.218 82.1177C146.19 82.5769 146.442 82.966 146.787 82.9869C147.133 83.0077 147.425 82.6547 147.454 82.1955C147.482 81.7362 147.231 81.3491 146.884 81.3263C146.537 81.3035 146.247 81.6603 146.218 82.1177Z" fill="#D80808"/>
<path d="M146.679 84.3134L145.402 84.2318C145.08 84.2117 144.765 84.1284 144.476 83.9866C144.186 83.8447 143.927 83.6471 143.714 83.4051C143.5 83.1631 143.337 82.8814 143.233 82.5762C143.128 82.2709 143.085 81.9481 143.106 81.6262L143.227 79.7L149.408 80.0795L149.285 82.0076C149.248 82.5904 149.006 83.1414 148.602 83.5626C148.198 83.9837 147.657 84.2477 147.076 84.3077C146.944 84.3195 146.811 84.3214 146.679 84.3134ZM143.565 80.0852L143.466 81.6508C143.448 81.9259 143.485 82.2018 143.573 82.4628C143.662 82.7238 143.801 82.9647 143.983 83.1718C144.165 83.3789 144.386 83.5481 144.634 83.6698C144.881 83.7914 145.15 83.8631 145.425 83.8807L146.702 83.9604C146.977 83.9787 147.252 83.9424 147.513 83.8537C147.774 83.765 148.014 83.6256 148.221 83.4436C148.427 83.2616 148.596 83.0405 148.717 82.7931C148.837 82.5456 148.908 82.2768 148.924 82.0019L149.023 80.4382L143.565 80.0852Z" fill="white"/>
<path d="M152.39 82.5087C152.359 82.966 152.612 83.3551 152.959 83.3778C153.306 83.4006 153.599 83.0438 153.627 82.5865C153.655 82.1291 153.403 81.7382 153.058 81.7173C152.712 81.6964 152.422 82.0494 152.39 82.5087Z" fill="#D80808"/>
<path d="M154.489 84.805L153.211 84.7253C152.562 84.6818 151.956 84.3836 151.526 83.8956C151.095 83.4076 150.875 82.7693 150.913 82.1196L151.035 80.1915L157.216 80.5825L157.094 82.5087C157.058 83.0922 156.814 83.6435 156.408 84.0635C156.001 84.4834 155.458 84.7443 154.876 84.7993C154.747 84.8126 154.617 84.8145 154.489 84.805ZM151.374 80.5768L151.276 82.1424C151.241 82.6967 151.428 83.2419 151.795 83.6585C152.163 84.0751 152.68 84.3291 153.234 84.3647L154.511 84.4444C154.786 84.4627 155.062 84.4264 155.322 84.3377C155.583 84.249 155.823 84.1096 156.03 83.9276C156.237 83.7456 156.405 83.5245 156.526 83.277C156.647 83.0296 156.717 82.7607 156.734 82.4859L156.832 80.9203L151.374 80.5768Z" fill="white"/>
<path d="M148.928 85.807H148.947L151.456 85.3192C151.481 85.3147 151.505 85.3047 151.526 85.2899C151.547 85.2752 151.565 85.256 151.577 85.2338C151.59 85.2121 151.599 85.1878 151.602 85.1626C151.605 85.1374 151.602 85.1119 151.595 85.0877L149.887 79.6848C149.87 79.6403 149.838 79.6035 149.796 79.5817C149.753 79.5599 149.705 79.5547 149.659 79.5671C149.636 79.5741 149.615 79.5854 149.597 79.6006C149.579 79.6157 149.564 79.6344 149.553 79.6554C149.542 79.6764 149.535 79.6994 149.533 79.723C149.531 79.7467 149.534 79.7704 149.541 79.793L151.188 85.0023L148.879 85.4521C148.833 85.4634 148.793 85.4915 148.766 85.5308C148.74 85.5701 148.729 85.6178 148.736 85.6646C148.745 85.7078 148.77 85.7463 148.805 85.7726C148.84 85.7989 148.884 85.8111 148.928 85.807Z" fill="#EA1717"/>
<path d="M143.514 80.2276L156.878 81.0702C156.921 81.073 156.964 81.0673 157.004 81.0535C157.045 81.0397 157.083 81.0179 157.115 80.9895C157.147 80.9612 157.174 80.9267 157.192 80.8881C157.211 80.8495 157.222 80.8075 157.225 80.7646C157.228 80.7217 157.222 80.6787 157.208 80.638C157.195 80.5974 157.173 80.5598 157.144 80.5275C157.116 80.4953 157.082 80.4689 157.043 80.45C157.004 80.4311 156.962 80.42 156.92 80.4173L143.554 79.5728C143.511 79.57 143.467 79.5758 143.427 79.5897C143.386 79.6037 143.348 79.6256 143.316 79.6542C143.284 79.6827 143.257 79.7174 143.239 79.7563C143.22 79.7951 143.209 79.8372 143.206 79.8803C143.204 79.9233 143.209 79.9665 143.223 80.0073C143.237 80.0481 143.259 80.0857 143.288 80.118C143.316 80.1503 143.351 80.1766 143.39 80.1954C143.429 80.2142 143.471 80.2252 143.514 80.2276Z" fill="#EA1717"/>
<path d="M212.928 102.221C212.928 102.221 219.13 98.9583 222.853 108.06L213.919 107.642L212.928 102.221Z" fill="#D80808"/>
<path d="M210.195 109.907L217.34 100.313L220.709 95.5196L228.11 90.4849C228.19 90.4303 228.28 90.3923 228.375 90.373C228.471 90.3538 228.568 90.3537 228.664 90.3728C228.759 90.3919 228.849 90.4297 228.929 90.4842C229.01 90.5386 229.078 90.6086 229.131 90.6899C229.222 90.8312 229.261 90.9997 229.242 91.1668C229.223 91.3338 229.147 91.4892 229.027 91.6065L224.628 95.8764L225.387 95.6392C226.155 95.399 226.987 95.4671 227.706 95.829L231.281 97.6129C231.361 97.6529 231.431 97.7099 231.486 97.78C231.541 97.8501 231.579 97.9315 231.599 98.0183C231.619 98.1051 231.62 98.1953 231.601 98.2823C231.582 98.3694 231.544 98.4512 231.49 98.5219C231.416 98.6182 231.314 98.6899 231.199 98.7278C231.084 98.7657 230.959 98.768 230.843 98.7344L228.345 98.0133L226.389 97.444L228.097 97.6831L229.715 99.6188C229.794 99.7139 229.832 99.8359 229.821 99.9587C229.81 100.082 229.752 100.195 229.659 100.275C229.58 100.343 229.482 100.382 229.379 100.387C229.276 100.392 229.174 100.363 229.089 100.304L227.002 98.8673L224.658 98.0588L221.202 104.187L219.287 111.508L210.195 109.907Z" fill="#FFC8C8"/>
<path d="M221.098 99.4062L227.839 96.2256C228.002 96.1483 228.185 96.1239 228.363 96.1559C228.54 96.1879 228.703 96.2746 228.829 96.4039C228.915 96.4914 228.981 96.596 229.023 96.7108C229.065 96.8256 229.083 96.9481 229.075 97.0701C229.066 97.1922 229.032 97.3111 228.974 97.419C228.917 97.5269 228.837 97.6214 228.74 97.6963L224.149 101.249C224.149 101.249 223.555 103.217 221.202 104.187L219.454 102.01L221.098 99.4062Z" fill="#FFC8C8"/>
<path d="M221.098 99.558C221.063 99.5587 221.03 99.5474 221.002 99.5261C220.975 99.5048 220.956 99.4748 220.949 99.4411C220.941 99.4074 220.945 99.3721 220.961 99.3412C220.976 99.3103 221.002 99.2857 221.033 99.2715L227.774 96.0889C228.001 95.9809 228.26 95.9606 228.501 96.032C228.742 96.1034 228.948 96.2615 229.079 96.4758C229.21 96.6901 229.258 96.9453 229.212 97.1924C229.166 97.4395 229.03 97.6609 228.831 97.814L227.21 99.0684C227.179 99.0936 227.139 99.1053 227.099 99.1011C227.06 99.0968 227.023 99.0768 226.998 99.0456C226.973 99.0144 226.961 98.9745 226.965 98.9347C226.97 98.8948 226.989 98.8583 227.021 98.8331L228.639 97.5787C228.719 97.5165 228.785 97.4383 228.833 97.349C228.881 97.2597 228.909 97.1614 228.916 97.0604C228.923 96.9595 228.909 96.8581 228.874 96.763C228.84 96.6679 228.786 96.5811 228.715 96.5083C228.611 96.4015 228.475 96.3298 228.328 96.3033C228.181 96.2768 228.029 96.2967 227.894 96.3603L221.153 99.5429C221.136 99.5514 221.117 99.5565 221.098 99.558ZM224.356 97.6546C224.328 97.6543 224.301 97.6461 224.277 97.631C224.253 97.6159 224.234 97.5945 224.221 97.5692C223.745 96.5975 224.521 95.7796 224.529 95.772C224.557 95.7433 224.595 95.7268 224.634 95.7261C224.674 95.7254 224.713 95.7405 224.741 95.7682C224.77 95.7959 224.787 95.8339 224.787 95.8737C224.788 95.9136 224.773 95.9521 224.745 95.9808C224.719 96.0092 224.108 96.6564 224.489 97.4382C224.504 97.4727 224.505 97.5114 224.492 97.5466C224.48 97.5818 224.454 97.6109 224.421 97.628C224.402 97.6423 224.38 97.6515 224.356 97.6546Z" fill="#FF9191"/>
<path d="M222.986 106.916L222.825 106.682C222.318 106.007 221.6 105.52 220.785 105.301C219.813 105.065 218.779 105.356 217.771 105.335C217.048 105.321 216.335 105.153 215.681 104.844C215.027 104.534 214.446 104.09 213.976 103.54C213.613 103.103 213.316 102.615 213.095 102.092L204.826 111.717L201.693 115.359L197.672 120.042L190.819 113.759C189.362 112.41 187.889 111.068 186.428 109.728C186.378 109.681 186.335 109.647 186.285 109.599C182.784 106.382 179.548 102.891 175.649 100.143C174.404 99.2526 173.075 98.4176 171.718 97.6338L171.948 121.597L193.146 139.447C194.244 140.204 195.438 140.811 196.696 141.254L196.729 141.265C197.774 141.648 198.9 141.759 200 141.585C201.1 141.412 202.137 140.961 203.014 140.274L203.073 140.227C203.958 139.537 204.748 138.734 205.422 137.838L223.798 108.39C223.582 107.871 223.31 107.376 222.986 106.916Z" fill="#D80808"/>
<path d="M169.359 332.821C169.359 332.821 166.446 332.411 164.858 335.825C163.269 339.239 160.034 339.474 160.034 339.474L158.489 339.755L158.569 318.971L172.329 318.043L169.359 332.821Z" fill="#FFC8C8"/>
<path d="M158.54 326.463L158.489 339.747L160.034 339.466C160.034 339.466 163.269 339.233 164.858 335.817C166.446 332.401 169.359 332.813 169.359 332.813L170.637 326.455L158.54 326.463Z" fill="#E3E3E3"/>
<path d="M103.363 332.834C103.363 332.834 101.344 332.411 99.8559 335.825C98.3681 339.239 95.3355 339.474 95.3355 339.474H90.9441L95.1059 319.257L107.603 319.392L103.363 332.834Z" fill="#FFC8C8"/>
<path d="M93.5193 326.966L90.9441 339.474H95.3355C95.3355 339.474 98.2068 339.166 99.8559 335.825C101.344 332.807 103.363 332.834 103.363 332.834L105.31 326.966H93.5193Z" fill="#E3E3E3"/>
<path d="M185.075 337.514C184.83 337.405 184.595 337.324 184.384 337.242C183.957 337.09 183.518 336.978 183.071 336.906C180.32 336.57 177.601 336.01 174.941 335.233H174.931C174.741 335.168 174.565 335.119 174.398 335.043C173.671 334.813 173.033 334.583 172.464 334.363C172.274 334.297 172.096 334.223 171.938 334.149C171.274 333.872 170.741 333.618 170.346 333.403C170.156 333.297 169.997 333.213 169.864 333.134C169.524 332.944 169.357 332.813 169.357 332.813C169.357 332.813 166.443 332.403 164.86 335.815C164.527 336.541 164.065 337.202 163.497 337.764C162.452 338.789 160.763 339.093 159.512 338.297C159.032 338.018 158.671 337.572 158.499 337.045V342.588H188.489C188.489 339.669 186.616 338.218 185.075 337.514Z" fill="#D80808"/>
<path d="M172.844 338.301C172.886 338.317 172.931 338.325 172.976 338.326C173.027 338.326 173.077 338.313 173.122 338.288C173.166 338.264 173.204 338.228 173.231 338.185L174.939 335.231C174.749 335.168 174.571 335.115 174.402 335.054L172.735 337.939C172.718 337.97 172.708 338.003 172.704 338.038C172.7 338.073 172.704 338.109 172.714 338.143C172.724 338.176 172.74 338.208 172.763 338.235C172.785 338.262 172.813 338.285 172.844 338.301ZM170.358 337.453C170.398 337.477 170.444 337.49 170.49 337.489C170.541 337.489 170.591 337.475 170.636 337.451C170.68 337.426 170.718 337.39 170.745 337.347L172.468 334.384C172.278 334.314 172.1 334.242 171.94 334.172L170.246 337.109C170.229 337.139 170.219 337.172 170.216 337.206C170.212 337.239 170.216 337.273 170.227 337.306C170.237 337.338 170.254 337.367 170.277 337.393C170.299 337.418 170.327 337.439 170.358 337.453ZM168.202 336.57C168.246 336.588 168.294 336.597 168.342 336.597C168.391 336.599 168.439 336.587 168.482 336.564C168.525 336.541 168.561 336.507 168.587 336.466L170.348 333.413C170.158 333.306 170.001 333.223 169.868 333.139L168.088 336.21C168.071 336.241 168.06 336.275 168.056 336.31C168.053 336.345 168.056 336.381 168.067 336.415C168.078 336.448 168.095 336.48 168.118 336.506C168.141 336.533 168.17 336.555 168.202 336.57Z" fill="white"/>
<path d="M121.991 342.588H89.9819L90.2116 341.702L90.3501 341.186L91.4337 337.054C91.7355 338.104 93.4909 338.572 94.9503 338.783C96.6582 339.03 98.258 338.142 99.1936 336.696C99.3969 336.374 99.5752 336.037 99.7269 335.688C101.219 332.272 104.077 332.828 104.077 332.828C104.227 332.946 104.385 333.053 104.551 333.149L105.003 333.418C105.484 333.693 105.979 333.942 106.487 334.164C106.642 334.238 106.806 334.312 106.986 334.378C107.511 334.599 108.109 334.828 108.791 335.058C108.954 335.124 109.119 335.174 109.299 335.248C111.783 336.025 114.329 336.585 116.909 336.921C117.329 336.993 117.741 337.106 118.139 337.257C118.344 337.331 118.564 337.421 118.794 337.529C120.236 338.218 121.991 339.669 121.991 342.588Z" fill="#D80808"/>
<path d="M107.337 338.301C107.376 338.317 107.418 338.325 107.46 338.326C107.509 338.326 107.557 338.312 107.599 338.288C107.641 338.263 107.675 338.228 107.699 338.185L109.295 335.231C109.119 335.168 108.952 335.115 108.793 335.054L107.231 337.939C107.199 338.001 107.192 338.074 107.212 338.141C107.232 338.208 107.276 338.266 107.337 338.301ZM105.008 337.453C105.045 337.477 105.088 337.49 105.132 337.489C105.18 337.488 105.228 337.474 105.269 337.45C105.311 337.425 105.345 337.389 105.369 337.347L106.984 334.375C106.808 334.305 106.641 334.232 106.491 334.162L104.902 337.1C104.885 337.13 104.874 337.163 104.87 337.197C104.867 337.231 104.87 337.266 104.88 337.299C104.89 337.332 104.906 337.363 104.928 337.389C104.95 337.416 104.978 337.437 105.008 337.453ZM102.987 336.57C103.029 336.588 103.075 336.597 103.12 336.597C103.167 336.598 103.213 336.586 103.253 336.563C103.293 336.54 103.327 336.506 103.35 336.466L104.999 333.413C104.822 333.306 104.673 333.223 104.549 333.139L102.881 336.21C102.848 336.272 102.841 336.344 102.861 336.412C102.881 336.479 102.926 336.536 102.987 336.57Z" fill="white"/>
<path d="M118.152 167.122L90.6348 329.968H107.735L144.229 207.164L155.046 234.72C156.008 236.713 156.434 238.923 156.282 241.13L155.333 329.968H173.847L182.023 239.066C182.227 237.393 182.098 235.696 181.643 234.073L170.128 161.499L148.668 155.806L119.443 156.485L118.152 167.122Z" fill="#D75454"/>
<path d="M144.871 206.557L143.914 206.348L146.977 192.195L152.957 187.547L153.557 188.32L147.858 192.749L144.871 206.557Z" fill="#BF3B3B"/>
<path d="M164.182 182.31H182.293L177.981 101.93C171.705 97.0435 169.32 95.9371 159.882 94.3392C159.383 94.2538 155.102 162.541 154.453 172.918H154.547C154.612 175.43 155.655 177.818 157.455 179.573C159.255 181.327 161.669 182.309 164.182 182.31Z" fill="#D80808"/>
<path d="M155.259 161.355C155.17 161.798 155.138 162.251 155.166 162.702V162.713L154.462 172.918L134.372 173.588L136.733 137.53L136.745 137.367L136.769 136.987V136.819L136.79 136.521L136.807 136.268L136.82 136.054V135.879L136.834 135.653V135.539L136.851 135.27V135.188L136.887 134.661V134.57L139.606 93.0241L140.523 93.5403L150.48 99.1387L157.514 94.307L157.992 92.5193L159.89 94.3392L155.322 160.571L155.259 161.355Z" fill="#A43030"/>
<path d="M146.835 171.043C146.883 171.04 146.928 171.02 146.963 170.987C146.997 170.954 147.019 170.91 147.025 170.862C147.091 170.282 147.106 169.724 147.12 169.196C147.12 168.881 147.137 168.557 147.156 168.224C147.203 167.204 147.271 166.164 147.345 165.16C147.419 164.156 147.482 163.11 147.535 162.085C147.547 161.77 147.552 161.453 147.556 161.148C147.551 160.21 147.611 159.274 147.734 158.345C147.835 157.586 148.196 156.971 148.577 156.318C148.666 156.166 148.767 156.007 148.848 155.847C148.947 155.706 149.012 155.545 149.039 155.375C149.066 155.205 149.054 155.031 149.004 154.866C148.902 154.577 148.762 154.303 148.588 154.05C148.432 153.828 148.304 153.587 148.209 153.333C148.082 152.887 148.495 152.621 149.05 152.321C149.241 152.227 149.41 152.094 149.546 151.931C149.682 151.768 149.783 151.577 149.841 151.372C149.881 151.201 149.883 151.023 149.848 150.85C149.814 150.677 149.743 150.514 149.64 150.37C149.631 150.357 149.621 150.345 149.609 150.334C149.543 150.255 149.496 150.161 149.475 150.059C149.454 149.978 149.424 149.899 149.385 149.824C149.378 149.809 149.368 149.795 149.357 149.782C148.886 149.3 148.5 148.74 148.218 148.127C148.689 138.012 149.234 127.753 149.759 117.832C150.082 111.723 150.418 105.407 150.731 99.1823C150.734 99.1288 150.716 99.0761 150.68 99.0359C150.645 98.9958 150.595 98.9713 150.541 98.9679C150.487 98.9647 150.435 98.9829 150.394 99.0184C150.354 99.0539 150.329 99.1039 150.325 99.1577C150.01 105.382 149.676 111.698 149.351 117.807C148.826 127.744 148.281 138.018 147.808 148.152C147.807 148.182 147.812 148.212 147.824 148.239C148.121 148.906 148.535 149.513 149.046 150.035C149.064 150.08 149.08 150.127 149.093 150.175C149.131 150.337 149.21 150.487 149.321 150.611C149.388 150.706 149.434 150.813 149.456 150.927C149.479 151.04 149.477 151.157 149.452 151.27C149.406 151.417 149.33 151.554 149.229 151.671C149.129 151.788 149.005 151.882 148.865 151.949C148.361 152.225 147.598 152.638 147.827 153.443C147.93 153.732 148.07 154.006 148.243 154.259C148.399 154.481 148.527 154.722 148.623 154.976C148.655 155.086 148.661 155.202 148.641 155.314C148.621 155.427 148.575 155.534 148.507 155.625C148.42 155.781 148.327 155.938 148.237 156.092C147.858 156.749 147.454 157.421 147.343 158.267C147.215 159.21 147.152 160.162 147.154 161.114C147.154 161.419 147.144 161.734 147.135 162.044C147.087 163.061 147.017 164.101 146.945 165.105C146.873 166.109 146.808 167.152 146.755 168.177C146.736 168.513 146.729 168.841 146.719 169.158C146.706 169.707 146.693 170.225 146.628 170.788C146.625 170.816 146.627 170.844 146.635 170.87C146.643 170.897 146.656 170.922 146.674 170.943C146.692 170.964 146.714 170.982 146.738 170.994C146.763 171.007 146.79 171.014 146.818 171.016L146.835 171.043Z" fill="white"/>
<path d="M155.306 101.934C155.339 101.933 155.37 101.924 155.399 101.909C155.427 101.893 155.451 101.871 155.47 101.845L160.003 95.161C160.034 95.1159 160.046 95.0605 160.036 95.0068C160.026 94.9531 159.995 94.9055 159.95 94.8745C159.905 94.8444 159.849 94.8333 159.796 94.8436C159.742 94.8539 159.695 94.8847 159.664 94.9295L155.236 101.46L150.621 98.9926C150.59 98.9744 150.554 98.9648 150.518 98.9648C150.482 98.9648 150.447 98.9744 150.416 98.9926L146.778 101.257L139.538 96.349C139.493 96.3186 139.437 96.3073 139.384 96.3178C139.33 96.3283 139.283 96.3597 139.252 96.405C139.222 96.4503 139.211 96.5058 139.221 96.5594C139.232 96.613 139.263 96.6602 139.308 96.6906L146.658 101.672C146.692 101.693 146.731 101.705 146.77 101.705C146.81 101.705 146.849 101.693 146.882 101.672L150.532 99.3949L155.202 101.909C155.234 101.928 155.27 101.936 155.306 101.934ZM151.169 105.591C151.176 105.772 151.236 105.946 151.342 106.093C151.448 106.239 151.595 106.351 151.765 106.414C151.934 106.477 152.119 106.488 152.295 106.446C152.471 106.405 152.63 106.312 152.753 106.179C152.876 106.047 152.957 105.881 152.986 105.703C153.015 105.524 152.991 105.341 152.916 105.177C152.841 105.012 152.718 104.874 152.565 104.778C152.411 104.683 152.232 104.636 152.052 104.642C151.931 104.646 151.813 104.674 151.703 104.724C151.594 104.774 151.495 104.845 151.413 104.933C151.331 105.021 151.267 105.125 151.225 105.238C151.184 105.351 151.165 105.471 151.169 105.591ZM150.321 125.895C150.328 126.076 150.388 126.25 150.494 126.397C150.6 126.543 150.747 126.655 150.916 126.718C151.086 126.781 151.27 126.792 151.446 126.751C151.621 126.709 151.781 126.616 151.904 126.484C152.027 126.352 152.109 126.186 152.138 126.008C152.167 125.83 152.143 125.647 152.068 125.482C151.993 125.318 151.871 125.179 151.718 125.084C151.564 124.988 151.386 124.94 151.205 124.946C151.085 124.95 150.966 124.978 150.857 125.028C150.747 125.078 150.648 125.149 150.566 125.237C150.484 125.325 150.42 125.429 150.378 125.542C150.336 125.655 150.316 125.775 150.321 125.895ZM149.441 145.178C149.447 145.359 149.508 145.533 149.613 145.68C149.719 145.826 149.866 145.938 150.036 146.001C150.205 146.064 150.389 146.075 150.565 146.034C150.741 145.992 150.901 145.899 151.024 145.767C151.147 145.635 151.228 145.469 151.257 145.291C151.286 145.113 151.262 144.93 151.187 144.765C151.113 144.601 150.991 144.462 150.837 144.367C150.684 144.271 150.505 144.223 150.325 144.229C150.204 144.233 150.086 144.261 149.976 144.311C149.866 144.361 149.768 144.432 149.685 144.52C149.603 144.608 149.539 144.712 149.497 144.825C149.455 144.938 149.436 145.058 149.441 145.178ZM148.057 167.818C148.064 167.999 148.124 168.174 148.23 168.32C148.336 168.467 148.483 168.578 148.653 168.641C148.822 168.704 149.006 168.715 149.182 168.674C149.358 168.632 149.518 168.539 149.641 168.407C149.764 168.274 149.845 168.108 149.874 167.93C149.903 167.751 149.878 167.568 149.803 167.404C149.728 167.239 149.606 167.101 149.452 167.006C149.299 166.911 149.12 166.863 148.939 166.87C148.819 166.873 148.7 166.901 148.591 166.951C148.481 167 148.382 167.071 148.3 167.16C148.218 167.248 148.154 167.352 148.113 167.465C148.071 167.578 148.052 167.698 148.057 167.818Z" fill="white"/>
<path d="M104.454 164.48C104.514 164.526 104.577 164.569 104.644 164.611C107.47 166.611 110.26 166.575 110.26 166.575L108.109 182.31H124.314C126.767 182.309 129.138 181.427 130.995 179.825C132.852 178.222 134.071 176.006 134.431 173.58L139.646 93.024L126.643 95.4759C122.997 96.161 119.659 97.8045 116.524 99.7857C103.466 108.037 100.583 156.02 100.583 156.02C100.466 157.642 100.759 159.267 101.435 160.746C102.112 162.224 103.15 163.509 104.454 164.48Z" fill="#D80808"/>
<path d="M122.714 152.253L124.574 168.219L144.569 170.249C144.88 169.425 144.97 168.534 144.829 167.665C144.389 164.706 142.831 161.689 143.977 158.69C144.419 157.513 145.368 156.491 146.583 156.185L122.714 152.253Z" fill="#D80808"/>
<path d="M122.257 114.839C122.258 114.816 122.264 114.794 122.275 114.774C122.285 114.753 122.299 114.736 122.317 114.721C122.334 114.707 122.355 114.696 122.377 114.69C122.398 114.684 122.421 114.682 122.444 114.685C122.466 114.688 122.488 114.696 122.507 114.707C122.527 114.719 122.544 114.735 122.557 114.753C122.57 114.772 122.579 114.793 122.584 114.815C122.588 114.837 122.588 114.86 122.584 114.882L117.756 151.266L135.67 154.223V154.557L117.545 151.566C117.502 151.559 117.463 151.534 117.438 151.499C117.412 151.464 117.402 151.419 117.408 151.376L122.257 114.839ZM109.345 166.49L134.788 169.099V169.431L109.311 166.813C109.268 166.807 109.229 166.785 109.203 166.751C109.176 166.717 109.164 166.675 109.168 166.632C109.172 166.589 109.193 166.55 109.226 166.522C109.259 166.495 109.302 166.481 109.345 166.484V166.49Z" fill="#1F1F1F"/>
<path d="M144.823 167.638L146.531 167.272C146.531 167.272 147.877 168.657 150.327 167.665L151.932 168.49L152.999 170.137L154.551 172.735C154.591 172.804 154.647 172.863 154.712 172.908L155.451 172.882C155.536 172.81 155.599 172.715 155.632 172.609C155.666 172.503 155.669 172.39 155.64 172.282L154.9 169.331L153.701 167.365C153.692 167.351 153.686 167.335 153.684 167.318C153.682 167.302 153.683 167.285 153.688 167.269C153.693 167.253 153.702 167.238 153.713 167.226C153.725 167.214 153.739 167.204 153.754 167.198C153.777 167.188 153.803 167.187 153.827 167.193C153.851 167.199 153.873 167.213 153.889 167.232L155.5 169.238L156.314 172.183C156.355 172.318 156.445 172.432 156.565 172.505C156.686 172.577 156.829 172.603 156.967 172.576C157.09 172.549 157.2 172.481 157.279 172.382C157.358 172.284 157.4 172.161 157.4 172.035L157.413 168.551V168.45L155.895 166.505L155.375 165.839L156.335 167.025L157.407 168.354L157.633 168.633L158.233 171.031C158.271 171.189 158.366 171.327 158.501 171.418C158.635 171.509 158.799 171.546 158.959 171.522C159.12 171.498 159.266 171.415 159.368 171.289C159.47 171.163 159.522 171.003 159.512 170.841L159.294 167.145L160.592 168.716C160.672 168.815 160.789 168.879 160.916 168.893C161.043 168.907 161.171 168.87 161.271 168.79C161.359 168.719 161.419 168.619 161.442 168.509C161.465 168.398 161.45 168.283 161.398 168.183L159.753 165.025C159.568 164.665 159.28 164.368 158.925 164.173L155.521 162.275L148.738 160.07C147.846 159.776 145.567 159.311 143.869 158.982C142.931 161.878 144.396 164.786 144.823 167.638Z" fill="#FFC8C8"/>
<path d="M159.17 167.253H159.182C159.192 167.251 159.203 167.248 159.212 167.242C159.221 167.236 159.229 167.229 159.236 167.22C159.242 167.211 159.247 167.201 159.249 167.19C159.252 167.18 159.252 167.169 159.25 167.158L159.216 166.955C159.17 166.661 159.023 166.393 158.8 166.196L156.238 163.941C156.223 163.926 156.202 163.918 156.18 163.918C156.159 163.918 156.138 163.926 156.122 163.941C156.115 163.949 156.109 163.958 156.105 163.968C156.101 163.978 156.098 163.988 156.098 163.999C156.098 164.01 156.101 164.021 156.105 164.031C156.109 164.04 156.115 164.049 156.122 164.057L158.683 166.312C158.875 166.481 159.004 166.711 159.045 166.964L159.079 167.167C159.079 167.179 159.081 167.191 159.085 167.202C159.089 167.213 159.096 167.223 159.105 167.231C159.114 167.239 159.124 167.246 159.135 167.249C159.146 167.253 159.158 167.254 159.17 167.253ZM157.373 168.564H157.402C157.422 168.556 157.438 168.54 157.447 168.519C157.455 168.499 157.455 168.476 157.447 168.456L157.362 168.245C157.358 168.238 157.353 168.231 157.347 168.225L155.435 165.972C155.42 165.957 155.399 165.949 155.378 165.949C155.356 165.949 155.335 165.957 155.32 165.972C155.311 165.979 155.304 165.987 155.299 165.997C155.294 166.006 155.291 166.017 155.29 166.028C155.289 166.039 155.29 166.049 155.294 166.06C155.297 166.07 155.303 166.08 155.31 166.088L157.208 168.331L157.29 168.521C157.297 168.536 157.309 168.548 157.324 168.556C157.339 168.563 157.356 168.566 157.373 168.564Z" fill="#EA1717"/>
<path d="M220.898 114.93C220.855 114.929 220.812 114.914 220.778 114.886C220.743 114.859 220.719 114.821 220.709 114.778C220.665 114.605 219.57 110.539 214.175 111.216C212.211 111.459 210.664 111.121 209.571 110.214C208.704 109.472 208.156 108.425 208.041 107.29C208.039 107.237 208.057 107.185 208.093 107.145C208.128 107.106 208.178 107.082 208.231 107.079C208.258 107.076 208.285 107.079 208.31 107.087C208.336 107.095 208.359 107.109 208.379 107.127C208.399 107.144 208.415 107.166 208.425 107.191C208.436 107.215 208.442 107.242 208.442 107.269C208.558 108.293 209.054 109.236 209.833 109.912C210.837 110.743 212.281 111.051 214.127 110.821C219.879 110.115 221.086 114.638 221.098 114.683C221.104 114.709 221.106 114.735 221.102 114.761C221.098 114.787 221.09 114.812 221.076 114.835C221.063 114.857 221.045 114.877 221.024 114.893C221.003 114.908 220.979 114.92 220.954 114.926C220.935 114.93 220.917 114.931 220.898 114.93ZM220.172 109.861C219.863 109.861 219.564 109.751 219.328 109.552C219.092 109.353 218.934 109.076 218.882 108.772C218.83 108.467 218.888 108.154 219.044 107.888C219.201 107.622 219.446 107.419 219.738 107.317C220.029 107.214 220.347 107.218 220.636 107.327C220.925 107.436 221.166 107.644 221.317 107.914C221.467 108.183 221.517 108.498 221.459 108.801C221.4 109.104 221.236 109.377 220.995 109.571C220.762 109.759 220.471 109.861 220.172 109.861ZM220.172 107.641C219.964 107.641 219.763 107.712 219.602 107.844C219.462 107.957 219.358 108.109 219.305 108.281C219.251 108.453 219.25 108.638 219.301 108.81C219.352 108.983 219.453 109.137 219.591 109.253C219.73 109.368 219.9 109.44 220.079 109.459C220.258 109.477 220.439 109.443 220.599 109.359C220.758 109.275 220.889 109.145 220.975 108.987C221.061 108.828 221.098 108.648 221.081 108.468C221.065 108.289 220.995 108.118 220.881 107.978C220.807 107.885 220.714 107.808 220.61 107.751C220.505 107.693 220.389 107.658 220.27 107.646L220.172 107.641ZM142.166 168.76C141.907 168.76 141.653 168.683 141.437 168.54C141.221 168.396 141.053 168.191 140.954 167.951C140.854 167.712 140.828 167.448 140.878 167.194C140.928 166.939 141.053 166.705 141.237 166.522C141.42 166.338 141.654 166.213 141.908 166.162C142.162 166.112 142.426 166.137 142.666 166.237C142.906 166.336 143.111 166.504 143.255 166.72C143.399 166.935 143.476 167.189 143.476 167.448C143.476 167.796 143.338 168.129 143.092 168.375C142.847 168.621 142.514 168.759 142.166 168.76ZM142.166 166.539C141.986 166.539 141.81 166.593 141.66 166.693C141.51 166.793 141.394 166.936 141.325 167.102C141.256 167.269 141.238 167.452 141.273 167.629C141.308 167.805 141.395 167.968 141.523 168.095C141.651 168.222 141.813 168.309 141.99 168.344C142.167 168.379 142.35 168.361 142.516 168.291C142.683 168.222 142.825 168.105 142.925 167.955C143.025 167.805 143.078 167.629 143.077 167.448C143.077 167.207 142.981 166.976 142.81 166.805C142.639 166.635 142.408 166.539 142.166 166.539Z" fill="white"/>
<path d="M146.583 156.185C146.583 156.185 147.493 158.29 147.317 159.711L143.871 158.977C143.871 158.977 144.419 156.703 146.583 156.185Z" fill="#D80808"/>
<path d="M139.358 169.883C139.328 169.883 139.298 169.877 139.27 169.864C139.218 169.841 139.176 169.798 139.155 169.744C139.134 169.69 139.135 169.63 139.158 169.578C139.889 167.921 139.014 164.564 138.604 163.199C138.184 161.826 138.041 160.383 138.183 158.954C138.418 156.709 139.242 155.538 139.891 154.952C139.934 154.913 139.99 154.893 140.048 154.896C140.105 154.899 140.159 154.925 140.197 154.968C140.236 155.011 140.256 155.067 140.253 155.124C140.25 155.182 140.224 155.236 140.181 155.274C139.589 155.811 138.836 156.891 138.614 159.001C138.479 160.372 138.617 161.757 139.02 163.074C139.546 164.827 140.316 168.029 139.555 169.752C139.538 169.791 139.511 169.824 139.476 169.847C139.441 169.87 139.4 169.883 139.358 169.883Z" fill="white"/>
<path d="M140.698 91.5343L139.646 93.0297L140.605 93.7357L140.698 91.5343Z" fill="#A43030"/>
</svg>
