<svg width="272" height="327" viewBox="0 0 272 327" fill="none" xmlns="http://www.w3.org/2000/svg">
<path d="M119.056 154.754C118.205 164.8 116.012 174.729 112.539 184.205C111.492 187.047 110.205 190.006 107.675 191.668C104.202 193.954 99.6108 193.042 95.5915 191.948C95.5675 191.941 95.5369 191.933 95.5129 191.925C95.1466 194.407 95.0053 197.156 94.7322 199.88C94.623 200.995 94.4671 202.143 93.8663 203.08C93.3281 203.915 92.4608 204.492 91.5562 204.898C91.5003 204.922 91.4457 204.945 91.391 204.969C90.1188 205.515 88.7293 205.788 87.3398 205.772C85.7478 205.758 84.1784 205.351 82.641 204.89C77.2242 203.26 72.0486 200.817 67.3415 197.67C70.3394 176.36 63.1887 160.858 64.992 154.979C65.8974 152.037 67.5132 149.368 69.0275 146.69C71.1747 142.928 73.173 139.071 75.7402 135.582C78.3167 132.101 81.5087 128.962 85.4587 127.174C90.0015 125.121 95.2718 124.981 100.11 126.183C109.26 128.463 117.229 135.956 118.9 145.23C119.454 148.361 119.321 151.576 119.056 154.754Z" fill="#FFA6A6"/>
<path d="M82.3928 120.75C82.3928 120.75 66.9684 113.257 58.8346 127.277C50.7009 141.296 55.2907 153.395 58.9907 161.74C62.6908 170.085 67.4368 183.331 67.4368 186.298C67.4368 186.298 79.2394 180.56 82.8458 166.182C82.8458 166.182 73.4869 162.982 77.1545 153.88C80.8235 144.778 93.8059 150.561 90.3701 171.388C90.3701 171.388 94.9836 158.274 98.426 154.145C101.868 150.015 104.663 149.469 114.038 151.046C123.405 152.622 139.814 147.143 139.814 126.895C139.814 126.895 129.736 129.338 121.961 127.348C110.596 124.451 96.81 107.965 82.3928 120.75Z" fill="#D80808"/>
<path d="M94.7257 199.879C94.6164 200.995 94.4592 202.143 93.8584 203.08C93.3202 203.915 92.4529 204.492 91.5484 204.898L83.6483 185.595C88.1286 189.333 95.513 191.925 95.513 191.925C95.513 191.925 94.9988 197.148 94.7257 199.879Z" fill="#EA1717"/>
<path d="M232.345 184.057C236.373 180.498 240.073 176.564 243.383 172.332C245.139 170.092 246.793 167.742 247.934 165.134C248.613 163.574 249.105 161.801 248.55 160.193C248.136 158.992 247.2 158.055 246.255 157.204C244.694 155.8 242.954 154.465 240.907 153.988C237.356 153.161 233.804 155.05 230.643 156.876C229.253 157.681 227.833 158.5 226.771 159.71C225.702 160.927 225.046 162.466 224.641 164.034C223.384 168.85 224.297 173.963 225.655 178.756C226.108 180.356 226.646 182.011 227.809 183.206C228.972 184.4 231.081 185.172 232.345 184.057Z" fill="#FFA6A6"/>
<path d="M178.71 147.002C168.516 150.952 158.329 154.902 148.135 158.852C147.674 159.03 147.19 159.218 146.846 159.586C146.339 160.124 146.254 160.919 146.238 161.653C146.191 164.261 146.816 166.868 148.096 169.475C148.462 170.225 149.267 170.678 150.102 170.591C161.67 169.444 173.215 168.085 184.737 166.532C183.223 160.037 181.56 153.567 178.71 147.002Z" fill="#A61B1B"/>
<path d="M266.801 162.583C237.607 166.471 208.39 167.041 179.805 170.85C178.251 171.052 176.783 170.108 176.33 168.609C174.129 161.358 172.514 154.372 172.162 147.236C172.107 146.089 172.693 144.887 173.786 144.536C197.828 136.824 226.211 127.23 261.4 115.95C264.436 131.094 266.068 146.526 266.801 162.583Z" fill="#A61B1B"/>
<path d="M220.34 184.65C220.777 180.223 221.035 175.68 219.832 171.403C218.928 168.172 217.203 165.159 216.835 161.825C216.608 159.748 216.929 157.657 217.264 155.596C217.389 154.847 217.514 154.075 217.929 153.442C218.342 152.802 219.106 152.333 219.848 152.505C220.34 152.622 220.73 152.997 221.058 153.387C222.767 155.424 223.345 158.148 224.423 160.576C225.554 163.114 227.279 165.385 229.426 167.157C230.746 168.241 232.259 169.178 233.141 170.646C234.047 172.137 234.172 173.979 234 175.72C233.579 180.021 231.26 184.268 227.443 186.289C225.983 187.062 224.29 187.492 222.682 187.14C221.074 186.788 219.606 185.5 220.34 184.65ZM193.387 183.105C195.001 170.061 209.084 161.404 211.277 148.439C211.378 147.83 211.449 147.175 211.168 146.621C210.926 146.144 210.458 145.824 209.997 145.551C204.361 142.24 196.712 143.35 191.739 147.588C186.767 151.827 184.455 158.727 185.08 165.229C185.697 171.74 189.022 177.805 193.387 183.105Z" fill="#FFA6A6"/>
<path d="M157.166 141.397C146.972 145.347 136.786 149.297 126.59 153.247C126.131 153.427 125.646 153.614 125.302 153.981C124.796 154.519 124.709 155.316 124.693 156.049C124.647 158.656 125.272 161.263 126.552 163.87C126.918 164.62 127.723 165.073 128.558 164.987C140.126 163.84 151.671 162.482 163.193 160.929C161.678 154.434 160.016 147.962 157.166 141.397Z" fill="#A61B1B"/>
<path d="M245.256 156.971C216.06 160.858 186.843 161.428 158.258 165.237C156.705 165.441 155.236 164.496 154.783 162.998C152.583 155.745 150.967 148.759 150.615 141.625C150.56 140.477 151.146 139.275 152.239 138.923C176.281 131.211 204.664 121.618 239.853 110.338C242.89 125.489 244.521 140.915 245.256 156.971Z" fill="#A61B1B"/>
<path d="M199.662 163.613C197.164 162.387 194.517 161.022 193.151 158.593C191.715 156.041 192.035 152.903 192.395 149.991C192.785 146.807 193.182 143.63 193.572 140.445C193.69 139.477 193.791 138.4 193.23 137.596C192.441 136.472 190.771 136.456 189.444 136.816C185.712 137.829 182.832 140.796 180.553 143.919C177.438 148.189 175.011 153.332 175.581 158.593C175.915 161.732 177.313 164.737 177.29 167.891C177.274 170.591 176.228 173.168 175.666 175.814C175.104 178.461 175.128 181.497 176.908 183.526C178.882 185.782 182.731 185.914 185.018 183.971C185.846 183.269 186.469 182.355 187.086 181.457C191.161 175.548 195.228 169.632 199.662 163.613Z" fill="#FFA6A6"/>
<path d="M240.885 180.777C231.876 178.303 222.37 177.671 213.486 179.786C210.364 194.595 206.133 209.176 200.856 223.367C198.256 230.345 194.955 237.754 188.413 241.321C180.178 245.809 169.96 242.585 161.522 238.488C139.658 227.879 120.291 211.799 96.9508 205.024C93.4537 204.009 91.486 208.911 87.9117 208.309C75.7259 206.28 75.4688 198.153 52.3944 201.066C46.3137 201.066 36.4313 203.829 31.092 207.255C22.0684 213.04 18.3293 224.194 15.6675 234.584C12.428 247.23 9.85213 260.047 8.14263 273.224C8.07229 288.43 6.86237 303.628 4.06006 319.903C25.3157 323.252 46.7742 325.305 68.2796 326.039C80.6991 326.468 93.2512 326.444 105.405 323.853C108.824 304.198 112.235 284.55 115.896 265.222C133.335 268.58 150.772 271.944 168.211 275.301C180.045 277.58 193.151 279.656 203.463 273.418C211.996 268.259 216.53 258.58 220.317 249.353C229.449 227.114 234.96 204.789 240.885 180.777Z" fill="#DE3131"/>
<path d="M81.9545 211.604C83.6877 217.202 85.1239 222.891 86.3269 229.386C83.1961 257.995 79.0516 286.486 73.9066 314.798C73.7974 315.415 73.6801 316.072 73.8999 316.665C74.0398 317.055 74.3049 317.383 74.57 317.703C76.647 320.232 78.7319 322.761 80.8075 325.298C82.947 323.105 85.0852 320.919 87.2248 318.726C87.9029 318.03 88.6063 317.304 88.9487 316.392C89.2231 315.666 89.2457 314.869 89.2617 314.088C89.9558 286.846 90.6512 259.603 91.3533 232.361C91.4239 229.746 91.4865 227.115 91.9395 224.531C92.4537 221.581 93.4769 218.715 93.6953 215.725C93.9378 212.392 93.1878 209.083 92.4391 205.828C92.3684 205.515 92.2818 205.188 92.0327 204.985C91.7516 204.767 91.3613 204.781 91.0016 204.813C89.2457 204.961 87.4819 205.102 85.7247 205.25C85.0612 205.305 84.3432 205.39 83.8836 205.867C83.5785 206.187 83.4466 206.632 83.3214 207.061C82.9071 208.505 82.5021 209.941 81.9545 211.604Z" fill="#A61B1B"/>
<path d="M94.6171 200.77C93.165 202.869 91.2453 204.118 88.1385 204.805C81.3243 202.643 73.5574 199.34 67.8275 195.196C66.5785 197.164 65.5872 199.122 64.8065 200.894C69.7939 208.256 75.665 215.023 82.2448 221.01C83.7129 216.35 85.7419 211.87 88.2784 207.685C90.715 211.354 93.1264 215.561 95.0541 221.431C96.9125 214.109 97.147 208.466 94.6171 200.77Z" fill="#DE3131"/>
<path d="M200.496 178.07C190.63 175.767 180.489 174.628 169.937 174.573C166.44 184.377 162.949 194.189 159.452 203.994C157.447 209.621 155.417 215.312 152.185 220.339C148.954 225.367 144.364 229.746 138.674 231.58C133.146 233.36 127.167 232.602 121.423 231.736C110.993 230.151 100.611 228.247 90.2996 226.014C83.4147 224.523 75.7265 223.009 69.7235 226.694C67.8656 227.833 66.32 229.394 64.8837 231.034C61.2071 235.233 58.1394 240.112 56.945 245.56C55.743 251.009 56.6172 257.073 60.0987 261.438C64.4699 266.909 71.8857 268.744 78.7626 270.086C100.714 274.372 123.045 277.105 145.409 276.612C153.036 276.441 161.108 275.746 167.29 271.28C171.365 268.339 174.221 264.021 176.602 259.603C181.646 250.236 184.924 240.041 187.968 229.855C193.019 212.892 197.515 195.782 200.496 178.07Z" fill="#DE3131"/>
<path d="M42.6209 97.6445C38.2341 109.189 34.0813 120.829 30.1704 132.538C28.0629 138.853 26.0021 145.246 25.3073 151.864C14.6367 143.755 6.08132 132.896 0.5 120.781C11.5533 101.196 24.316 82.5714 38.6087 65.2031C44.2133 69.9413 49.8493 74.6484 56.0159 79.8862C68.1464 60.8162 81.2372 42.3551 95.5212 24.8386C92.0721 20.7405 89.2145 16.1584 87.0603 11.2563C100.221 7.11123 113.499 3.35665 126.879 0C124.474 16.2754 122.023 32.6992 116.153 48.0613C113.342 44.6969 110.541 41.3325 107.395 38.0619C94.0304 64.5943 80.659 91.1346 67.2956 117.666C59.2867 111.758 51.2778 105.848 42.6209 97.6445Z" fill="#A61B1B"/>
<path d="M240.182 110.696C233.851 111.485 235.981 157.04 244.826 157.36C253.366 157.665 250.22 109.447 240.182 110.696ZM260.859 115.974C254.529 116.763 256.66 162.318 265.505 162.638C274.044 162.951 270.897 114.725 260.859 115.974Z" fill="#DE3131"/>
<path d="M187.507 108.324C217.314 108.324 241.477 84.1601 241.477 54.3531C241.477 24.5461 217.314 0.382751 187.507 0.382751C157.7 0.382751 133.536 24.5461 133.536 54.3531C133.536 84.1601 157.7 108.324 187.507 108.324Z" fill="#D80808"/>
<path d="M187.506 96.0769C210.55 96.0769 229.229 77.397 229.229 54.3542C229.229 31.3113 210.55 12.6313 187.506 12.6313C164.463 12.6313 145.784 31.3113 145.784 54.3542C145.784 77.397 164.463 96.0769 187.506 96.0769Z" fill="#DE3131"/>
<path d="M187.507 83.6098C203.665 83.6098 216.764 70.5112 216.764 54.3532C216.764 38.1951 203.665 25.0964 187.507 25.0964C171.35 25.0964 158.25 38.1951 158.25 54.3532C158.25 70.5112 171.35 83.6098 187.507 83.6098Z" fill="#D80808"/>
<path d="M187.506 70.9093C196.651 70.9093 204.063 63.4967 204.063 54.3529C204.063 45.209 196.651 37.7964 187.506 37.7964C178.362 37.7964 170.949 45.209 170.949 54.3529C170.949 63.4967 178.362 70.9093 187.506 70.9093Z" fill="#DE3131"/>
<path d="M187.509 59.8258C190.53 59.8258 192.98 57.3758 192.98 54.3539C192.98 51.3317 190.53 48.8818 187.509 48.8818C184.486 48.8818 182.036 51.3317 182.036 54.3539C182.036 57.3758 184.486 59.8258 187.509 59.8258ZM150.117 141.077C150.781 144.981 151.444 148.883 152.108 152.794C152.427 154.683 152.749 156.572 153.068 158.461C153.24 159.469 153.412 160.474 153.584 161.482C153.701 162.161 153.802 162.848 154.138 163.457C154.933 164.893 156.589 164.807 158.009 164.76C159.945 164.706 161.881 164.62 163.817 164.519C167.813 164.307 171.81 164.003 175.792 163.613C176.783 163.52 176.798 161.95 175.799 162.052C172.2 162.403 168.594 162.685 164.98 162.887C163.177 162.988 161.365 163.075 159.563 163.137C158.689 163.168 157.807 163.231 156.932 163.215C155.886 163.192 155.433 162.863 155.222 161.849C154.496 158.415 154.037 154.902 153.451 151.435C152.842 147.845 152.233 144.255 151.624 140.663C151.46 139.696 149.954 140.094 150.117 141.077Z" fill="#D80808"/>
<path d="M125.559 162.808C125.926 164.995 128.19 165.869 130.173 165.783C132.756 165.674 135.379 165.057 137.932 164.667C143.435 163.832 148.938 162.996 154.442 162.161C155.433 162.013 155.035 160.498 154.051 160.646C149.305 161.364 144.559 162.09 139.813 162.808C137.471 163.168 135.129 163.52 132.788 163.878C131.047 164.143 127.495 164.995 127.066 162.411C126.91 161.427 125.395 161.825 125.559 162.808ZM173.909 164.199C173.987 166.393 174.783 168.453 176.142 170.172C176.407 170.499 176.977 170.437 177.243 170.164C177.57 169.836 177.5 169.391 177.235 169.062C176.181 167.735 175.533 165.948 175.471 164.207C175.455 163.786 175.127 163.427 174.698 163.419C174.284 163.427 173.893 163.778 173.909 164.199Z" fill="#D80808"/>
<path d="M146.69 168.985C147.291 171.217 149.641 171.483 151.599 171.311C154.253 171.084 156.908 170.787 159.554 170.467C164.792 169.835 170.013 169.054 175.205 168.125C176.196 167.946 175.798 166.44 174.815 166.611C170.31 167.415 165.792 168.111 161.255 168.696C158.992 168.985 156.72 169.242 154.457 169.476C153.333 169.593 152.208 169.719 151.077 169.796C150.023 169.867 148.539 169.851 148.204 168.594C147.938 167.618 146.432 168.016 146.69 168.985ZM197.209 161.952C211.213 160.656 225.218 159.359 239.222 158.064C240.986 157.901 242.758 157.791 244.513 157.557C245.958 157.361 247.387 156.932 248.362 155.793C249.01 155.035 247.901 153.927 247.254 154.699C246.372 155.73 245.045 155.957 243.757 156.089C242.125 156.261 240.486 156.394 238.846 156.542C235.506 156.853 232.165 157.159 228.824 157.47C222.079 158.095 215.335 158.72 208.59 159.345C204.797 159.695 201.011 160.047 197.217 160.399C196.218 160.484 196.203 162.045 197.209 161.952ZM230.252 166.744C237.503 166.087 244.756 165.432 252.007 164.784C255.629 164.456 259.258 164.143 262.881 163.801C265.355 163.566 267.915 163.16 269.476 161.03C270.071 160.225 268.712 159.453 268.119 160.256C266.526 162.418 262.927 162.232 260.555 162.45C257.191 162.754 253.818 163.059 250.454 163.363C243.717 163.973 236.989 164.582 230.252 165.182C229.261 165.268 229.253 166.837 230.252 166.744ZM230.112 114.233C233.328 113.734 236.208 111.782 239.487 111.642C240.994 111.579 242.578 111.891 243.64 113.04C244.772 114.257 245.263 116.068 245.81 117.598C248.182 124.303 249.463 131.391 249.58 138.502C249.65 142.531 249.353 146.558 248.682 150.531C248.518 151.515 250.025 151.928 250.189 150.937C251.461 143.358 251.453 135.614 250.142 128.043C249.487 124.241 248.502 120.501 247.191 116.872C246.613 115.256 246.059 113.499 244.944 112.166C243.967 111.001 242.562 110.362 241.079 110.159C237.036 109.597 233.585 112.118 229.714 112.72C228.731 112.876 229.128 114.389 230.112 114.233ZM249.8 120.611C252.874 119.456 255.975 118.394 259.112 117.433C260.548 116.996 261.961 116.653 263.296 117.528C264.35 118.214 265.068 119.346 265.63 120.447C266.988 123.108 267.793 126.153 268.495 129.049C269.259 132.18 269.767 135.363 270.017 138.573C270.29 142.147 270.243 145.737 269.892 149.313C269.791 150.312 271.359 150.312 271.453 149.321C272.132 142.412 271.64 135.403 270.001 128.658C269.251 125.59 268.385 122.36 266.911 119.549C265.708 117.255 263.693 115.154 260.9 115.42C259.027 115.599 257.13 116.411 255.35 116.996C253.351 117.66 251.369 118.363 249.393 119.104C248.473 119.448 248.855 120.962 249.8 120.611Z" fill="#D80808"/>
<path d="M257.377 120.182C255.356 133.365 256.535 146.924 260.89 159.539C261.217 160.484 262.732 160.093 262.404 159.149C258.143 146.807 256.901 133.506 258.883 120.587C259.032 119.603 257.526 119.19 257.377 120.182ZM236.715 114.662C234.092 127.324 236.661 140.195 239.33 152.622C239.541 153.606 241.056 153.207 240.844 152.232C238.237 140.086 235.661 127.455 238.229 115.067C238.424 114.084 236.918 113.678 236.715 114.662ZM65.0932 204.002C69.7459 210.567 74.9523 216.718 80.6741 222.377C80.9938 222.697 81.7039 222.681 81.8997 222.205C83.8821 217.42 86.1921 212.784 88.8233 208.326C88.3703 208.326 87.9174 208.326 87.4724 208.326C89.9317 212.932 92.3989 217.537 94.8569 222.151C95.1699 222.736 96.1371 222.612 96.2863 221.963C97.488 216.795 97.6599 211.488 96.8325 206.249C96.6767 205.258 95.1619 205.657 95.3178 206.64C96.1065 211.605 95.9187 216.663 94.7796 221.557C95.2552 221.495 95.7321 221.433 96.2077 221.37C93.7485 216.765 91.2825 212.159 88.8233 207.546C88.5422 207.014 87.7615 207.054 87.4724 207.546C84.8426 212.01 82.5312 216.639 80.5489 221.425C80.9552 221.37 81.3682 221.315 81.7745 221.253C76.1539 215.695 71.0262 209.661 66.4515 203.213C65.8739 202.409 64.5157 203.183 65.0932 204.002Z" fill="#D80808"/>
<path d="M45.0869 212.683C61.5028 213.627 75.9826 222.642 91.5322 227.053C99.8533 229.418 108.463 231.065 117.065 231.986C121.452 232.454 125.87 232.673 130.281 232.502C134.363 232.345 138.594 231.986 142.427 230.496C149.39 227.786 153.074 221.066 156.134 214.657C156.563 213.759 155.213 212.97 154.777 213.884C152.129 219.426 149.023 225.577 143.262 228.435C139.625 230.237 135.417 230.668 131.42 230.886C127.144 231.119 122.842 230.971 118.58 230.573C109.978 229.77 101.352 228.13 93.023 225.85C85.2881 223.735 77.9263 220.605 70.4713 217.685C62.3068 214.485 53.9233 211.636 45.1025 211.121C44.0878 211.059 44.0799 212.62 45.0869 212.683Z" fill="#D80808"/>
<path d="M83.1268 218.692C83.5864 220.597 84.0553 222.509 84.5163 224.414C84.6175 224.819 85.0625 225.078 85.4688 224.976C85.8818 224.867 86.1243 224.437 86.0297 224.024C85.57 222.119 85.1011 220.207 84.6402 218.302C84.5389 217.896 84.094 217.638 83.689 217.74C83.2747 217.849 83.0322 218.278 83.1268 218.692ZM92.407 218.84C91.565 221.152 91.0175 223.555 90.7524 225.998C90.7057 226.42 91.1347 226.779 91.5251 226.787C91.986 226.787 92.2671 226.427 92.3137 226.014C92.5709 223.704 93.1184 221.431 93.9137 219.254C94.0629 218.856 93.7419 218.403 93.3595 218.302C92.9305 218.169 92.5562 218.442 92.407 218.84ZM44.2846 260.447C65.9225 267.565 88.084 273.498 110.768 276.051C122.047 277.315 133.429 277.728 144.755 276.979C150.196 276.62 155.91 276.292 161.155 274.684C165.784 273.272 169.789 270.493 173.021 266.925C179.78 259.462 182.192 249.549 185.494 240.299C185.83 239.355 184.323 238.957 183.987 239.893C181.146 247.848 179.07 256.465 173.957 263.341C171.154 267.113 167.54 270.398 163.201 272.287C158.173 274.481 152.381 274.825 146.98 275.254C124.802 277.018 102.525 274.263 80.926 269.259C68.6781 266.426 56.6179 262.866 44.6826 258.94C43.7381 258.627 43.3322 260.134 44.2846 260.447Z" fill="#D80808"/>
<path d="M80.7912 270.391C79.503 278.11 78.208 285.831 76.9198 293.551C76.279 297.376 75.6395 301.208 74.9987 305.033C74.679 306.946 74.3593 308.859 74.0395 310.779C73.7265 312.636 73.2748 314.533 73.1176 316.414C72.9618 318.327 74.4299 319.584 75.6009 320.896C77.1063 322.589 78.613 324.292 80.1198 325.985C80.7832 326.734 81.8836 325.625 81.2122 324.876C79.9639 323.471 78.7143 322.067 77.466 320.661C76.3576 319.412 74.4765 318.016 74.711 316.196C75.1866 312.535 75.9286 308.89 76.5374 305.252C77.7631 297.915 78.9887 290.577 80.221 283.239C80.9164 279.095 81.6105 274.942 82.3059 270.796C82.4618 269.813 80.9551 269.399 80.7912 270.391ZM83.9219 323.214C85.2874 321.832 86.661 320.451 88.0278 319.068C89.1122 317.976 90.19 317.015 90.3299 315.384C90.4857 313.511 90.2673 311.552 90.2366 309.671C90.198 307.789 90.174 305.908 90.15 304.026C90.0648 296.439 90.1114 288.844 90.2833 281.257C90.3072 280.25 88.7459 280.242 88.7219 281.249C88.558 288.446 88.5114 295.65 88.582 302.848C88.6127 306.415 88.6753 309.982 88.7685 313.55C88.7925 314.432 88.9564 315.494 88.4874 316.282C88.0425 317.023 87.2471 317.64 86.653 318.241C85.3727 319.529 84.1004 320.817 82.8202 322.105C82.1021 322.831 83.2105 323.932 83.9219 323.214Z" fill="#D80808"/>
</svg>
