<svg width="494" height="494" viewBox="0 0 494 494" fill="none" xmlns="http://www.w3.org/2000/svg">
<path d="M157.744 53.962C210.025 19.508 283.495 26.5309 329.713 77.6716C354.984 105.643 365.248 144.118 391.478 171.49C421.01 202.282 456.305 232.234 469.69 274.251C483.916 318.909 471.431 370.11 439.618 404.264C400.902 445.801 343.999 433.316 290.217 432.655C69.9883 429.894 -93.698 282.895 114.586 101.681C131.993 86.4351 140.457 65.3066 157.744 53.962Z" fill="#FFCCCC"/>
<path d="M430.134 186.555C428.994 186.916 422.991 191.357 422.991 191.357L415.908 195.919L415.608 193.338C415.608 193.338 412.727 187.576 409.186 187.816C409.186 187.816 413.447 193.038 413.988 196.519C414.528 200.001 414.768 202.402 414.768 202.402L410.086 207.024L417.889 217.048L436.197 203.362C436.197 203.362 431.275 186.195 430.134 186.555Z" fill="#DB7B7B"/>
<path d="M433.796 186.555L430.614 212.066L417.889 212.366L414.828 186.555H433.796Z" fill="#FF5555"/>
<path d="M436.557 186.916H412.547V184.395H414.828V180.433L434.336 183.314L434.396 184.755H436.557V187.216" fill="#8C0E0E"/>
<path d="M434.936 203.842C439.378 204.263 433.796 192.078 433.796 192.078C433.796 192.078 421.791 191.237 421.671 191.898C421.551 192.558 421.611 193.638 422.571 193.878C423.531 194.119 431.035 195.139 431.035 195.139C431.035 195.139 423.231 195.499 423.351 196.339C423.592 197.6 424.492 197.72 426.833 198.08C428.814 198.38 433.135 198.5 433.135 198.5C433.135 198.5 424.912 198.68 425.092 199.221C425.272 199.761 424.732 201.441 427.553 201.021C433.976 200.181 434.936 203.842 434.936 203.842Z" fill="#DB7B7B"/>
<path d="M380.914 252.882C380.914 252.882 393.099 339.017 387.457 357.325C381.815 375.632 379.594 392.139 379.594 392.139L351.262 383.855C351.262 383.855 360.626 340.758 362.067 332.475C363.447 324.191 348.981 256.904 348.981 256.904L380.914 252.882Z" fill="#D80808"/>
<path d="M367.529 259.065L354.143 397.541H327.072C327.072 397.541 335.836 250.962 334.275 249.701C332.715 248.561 367.529 259.065 367.529 259.065ZM378.213 174.671C378.213 174.671 381.094 221.129 387.277 219.449C393.519 217.828 410.206 205.703 410.206 205.703L420.35 216.868C420.35 216.868 389.438 251.262 376.712 237.216C364.047 223.11 378.213 174.671 378.213 174.671ZM369.87 420.71L371.73 411.346L351.982 403.423L348.861 417.349L349.942 417.529C354.383 419.57 375.932 429.534 379.294 429.834C383.015 430.194 369.87 420.71 369.87 420.71Z" fill="#D80808"/>
<path d="M322.931 284.395L325.092 287.516C325.092 287.516 326.112 289.617 328.633 292.798C329.293 293.639 330.074 294.359 330.974 294.899C332.054 295.56 333.555 296.4 334.515 296.64C335.716 296.88 335.956 298.441 334.936 298.921C333.915 299.341 330.674 298.741 327.553 296.34C324.431 293.999 325.872 299.941 326.412 302.162C326.892 304.323 328.093 311.166 327.553 311.886C326.772 312.907 325.512 312.186 325.092 310.025C324.671 307.805 322.871 301.322 321.73 301.682C320.59 301.982 323.231 313.087 323.231 313.087C323.231 313.087 324.191 315.368 322.871 315.788C320.53 316.508 318.549 304.503 318.429 303.363C318.309 302.582 317.048 302.883 317.228 303.723C317.409 304.623 320.11 314.707 317.769 315.488C315.908 316.088 316.088 305.644 314.347 303.843C312.607 302.042 315.068 311.766 313.267 312.246C312.607 312.426 312.066 312.486 311.466 306.664C310.866 300.722 311.826 284.455 311.826 284.455L323.111 284.575" fill="#FFCACA"/>
<path d="M362.127 159.064C361.887 157.204 362.847 149.461 362.847 149.461C362.847 149.461 369.93 148.92 370.59 141.957C371.25 134.935 371.31 118.728 371.31 118.728L358.645 112.005L344.119 122.27L340.818 129.953L345.14 148.26V157.444L362.127 159.064Z" fill="#DB7B7B"/>
<path d="M362.847 149.46C362.847 149.46 358.105 149.34 353.663 146.039C353.663 146.039 355.584 151.261 362.667 151.201L362.847 149.46Z" fill="#EA1717"/>
<path d="M341.058 137.636C342.979 141.898 344.119 148.14 344.119 148.14C345.14 150.061 345.5 143.938 345.5 143.938C345.5 143.938 346.4 138.056 345.56 135.775C345.56 135.775 341.958 136.916 341.178 130.493C340.758 127.312 345.56 125.811 346.88 129.653L349.882 129.953C349.882 129.953 350.122 117.948 357.025 120.169C357.025 120.169 362.007 123.23 365.008 121.369C368.009 119.508 367.769 118.848 367.769 118.848C367.769 118.848 369.209 122.03 373.051 119.929C376.893 117.828 377.373 114.166 376.052 112.426C375.272 111.405 374.552 110.265 373.291 110.025C372.031 109.785 370.65 110.325 369.87 111.285C370.83 109.905 370.17 107.864 368.729 106.903C367.349 106.003 365.488 106.063 363.927 106.663C362.367 107.264 361.046 108.344 359.786 109.424C358.885 106.903 356.184 105.103 353.543 105.343C350.842 105.583 348.501 107.744 348.021 110.385C346.58 108.584 343.819 108.164 341.718 109.184C339.617 110.205 338.297 112.366 337.877 114.647C337.457 116.927 337.937 119.268 338.837 121.429C337.216 120.529 334.996 121.189 333.915 122.69C332.835 124.19 332.835 126.291 333.615 127.972C334.395 129.653 335.896 130.913 337.517 131.753C336.316 132.714 335.896 134.635 336.676 136.015C337.457 137.396 339.257 138.116 340.698 137.576" fill="#8C0E0E"/>
<path d="M316.808 177.492C316.808 177.492 321.67 155.103 345.14 157.444L366.628 159.605C366.628 159.605 381.394 165.847 379.294 183.434C377.253 201.021 376.232 217.108 376.773 220.169C377.313 223.29 382.475 250.962 380.914 252.882C365.428 271.73 325.872 241.658 325.872 241.658L316.808 177.492Z" fill="#FF5555"/>
<path d="M345.14 157.444L339.677 288.237L323.411 279.413L325.092 163.386C325.092 163.386 329.473 155.883 345.14 157.444Z" fill="#8C0E0E"/>
<path d="M311.226 286.736L316.808 177.432C318.549 170.709 322.271 165.547 327.073 161.225V288.177L311.226 286.736ZM362.127 159.064C362.127 159.064 376.773 166.327 376.112 190.877C375.392 215.427 384.936 284.815 384.936 284.815L397.181 282.354C397.181 282.354 383.015 216.568 382.415 205.043C381.815 193.278 382.835 176.652 374.912 165.187C369.21 156.964 362.127 159.064 362.127 159.064Z" fill="#8C0E0E"/>
<path d="M345.14 157.444C345.14 157.444 340.338 168.248 340.818 172.15C341.298 176.111 342.979 184.395 342.979 184.395C342.979 184.395 339.437 186.556 339.738 188.416C339.978 190.277 342.799 219.689 342.799 219.689L345.14 157.444ZM327.072 288.237C328.573 261.826 328.213 210.565 329.713 184.095L327.072 288.237Z" fill="#D80808"/>
<path d="M369.99 410.686C369.75 410.566 374.972 390.818 374.972 390.818L357.625 385.776L353.963 404.264L369.99 410.686ZM330.014 397.601H349.762V413.087H330.014V397.601Z" fill="#DB7B7B"/>
<path d="M351.682 421.491L349.882 412.127H328.573L330.794 425.933L331.934 425.993C336.796 426.233 360.506 427.493 363.747 426.533C367.469 425.392 351.682 421.491 351.682 421.491Z" fill="#D80808"/>
<path d="M184.815 117.648L189.857 134.575C190.097 135.355 190.337 136.135 190.277 136.916C190.217 139.316 187.996 141.177 185.655 141.597C183.314 142.018 180.913 141.417 178.632 140.757C178.032 143.158 175.151 144.178 172.69 144.659C161.765 146.699 150.181 145.259 140.097 140.577C144.418 134.334 147.96 127.612 150.601 120.469C159.184 120.829 167.768 121.249 176.351 121.609C177.852 121.669 179.413 121.729 180.853 121.249C182.294 120.709 183.554 119.508 183.674 118.008" fill="#8C0E0E"/>
<path d="M85.1744 191.898L82.6534 188.957C82.6534 188.957 80.8527 187.456 78.2716 184.095C77.6114 183.254 77.1312 182.234 76.771 181.213C76.3509 179.953 75.8707 178.272 75.9307 177.252C75.9907 175.991 74.4901 175.391 73.7698 176.291C73.0495 177.192 72.9295 180.613 74.4901 184.275C76.0507 187.936 70.4685 185.055 68.4277 183.975C66.3868 182.954 59.9042 180.073 59.0639 180.433C57.8634 180.973 58.2235 182.354 60.3244 183.374C62.4252 184.395 68.3676 187.756 67.8274 188.776C67.2272 189.797 56.903 184.455 56.903 184.455C56.903 184.455 54.8622 182.954 54.1419 184.155C52.8213 186.315 64.286 191.237 65.3664 191.658C66.1467 191.958 65.5465 193.158 64.7061 192.738C63.8658 192.378 54.502 187.156 53.1215 189.317C52.101 190.997 62.4852 193.458 63.8058 195.619C65.1263 197.78 56.1227 192.978 55.1623 194.599C54.8021 195.199 54.6221 195.739 60.2643 197.72C65.9667 199.761 82.4133 202.882 82.4133 202.882L85.0544 191.598" fill="#FF7E7E"/>
<path d="M131.573 165.247C131.573 165.247 122.209 192.318 119.328 192.558C99.5803 194.359 78.0916 185.835 78.0916 185.835L72.6895 201.081C72.6895 201.081 128.632 226.111 140.637 201.982C153.422 176.411 152.762 172.39 152.762 172.39L131.573 165.247Z" fill="#FCB1B1"/>
<path d="M132.834 318.309C142.858 364.348 208.764 407.145 208.764 407.145L219.989 393.399C219.989 393.399 166.988 346.16 164.767 325.152C162.486 304.143 180.073 271.19 180.073 271.19L161.825 263.447L132.834 318.309Z" fill="#D80808"/>
<path d="M155.103 150.661C155.403 148.74 154.683 140.817 154.683 140.817C154.683 140.817 147.42 140.037 146.999 132.834C146.579 125.631 146.999 109.064 146.999 109.064L160.205 102.582L174.731 113.566L172.51 149.521L155.103 150.661Z" fill="#FFCACA"/>
<path d="M173.71 119.208C173.71 119.208 161.825 118.068 159.785 107.323L146.939 119.208C146.939 119.208 143.038 111.225 150.181 103.842C157.324 96.459 162.186 97.9596 165.007 97.9596C167.588 97.9596 180.793 100.781 184.695 115.727C184.995 116.807 185.235 119.508 185.415 120.709L173.71 119.208Z" fill="#8C0E0E"/>
<path d="M154.743 140.877C154.743 140.877 159.605 140.937 164.287 137.636C164.287 137.636 162.126 142.918 154.923 142.618L154.743 140.877Z" fill="#FCB1B1"/>
<path d="M139.797 231.754C139.797 234.335 140.697 237.876 140.697 237.876L191.718 252.582C191.718 252.582 195.379 229.533 186.075 216.688C181.814 210.805 182.774 202.522 184.515 195.439L190.517 171.249L182.474 148.5L150.361 150.661C150.361 150.661 131.753 148.8 125.271 173.41L137.216 191.357L137.336 198.14L139.797 231.754Z" fill="#FF5555"/>
<path d="M189.557 222.75C190.097 222.75 199.341 243.459 190.997 255.763C190.217 256.904 188.296 259.725 185.715 263.747C173.35 282.714 145.139 327.312 144.178 333.855C143.038 341.778 120.229 424.912 120.229 424.912L103.242 422.211L117.107 327.913L139.797 231.754L189.557 222.75ZM160.085 106.483C160.085 106.483 157.444 111.585 158.584 115.427L147.06 118.428C147.06 118.368 144.418 103.782 160.085 106.483ZM184.815 119.628C184.815 119.628 186.135 136.195 173.35 139.136L174.191 119.148L184.815 119.628Z" fill="#8C0E0E"/>
<path d="M132.474 196.82L103.842 208.885L56.963 209.905L34.1538 171.189L82.3533 167.948L103.242 205.403L132.294 194.119L132.474 196.82Z" fill="#FF5555"/>
<path d="M127.312 168.368L119.268 187.996L137.276 196.94L138.956 179.773L127.312 168.368Z" fill="#FF5555"/>
<path d="M162.006 147.06L155.463 149.881L156.783 163.086L165.067 148.26L162.006 147.06Z" fill="#FFCACA"/>
<path d="M101.681 422.211C101.681 422.211 86.7352 426.173 90.4567 427.313C94.1782 428.453 120.049 425.632 120.049 425.632L120.889 422.691L101.681 422.211Z" fill="#8C0E0E"/>
<path d="M120.049 425.632L125.331 411.406H102.401L101.681 422.211L120.049 425.632Z" fill="#8C0E0E"/>
<path d="M208.945 408.105C208.945 408.105 205.163 423.111 207.984 420.41C210.745 417.709 220.95 393.759 220.95 393.759L218.789 391.599L208.945 408.105Z" fill="#D80808"/>
<path d="M220.889 393.76L210.985 382.235L199.881 402.223L208.945 408.105L220.889 393.76Z" fill="#D80808"/>
<path d="M175.571 128.272C175.511 127.072 175.511 125.811 175.931 124.731C176.351 123.59 177.312 122.63 178.512 122.51C179.893 122.39 181.213 123.53 181.454 124.851C181.694 126.231 180.853 127.612 179.653 128.332C178.452 128.992 176.952 128.992 175.631 128.452" fill="#FFCACA"/>
<path d="M167.408 232.714C167.408 232.714 166.747 166.267 169.088 161.225C169.088 161.225 171.549 148.74 181.093 148.5L176.832 148.86C176.832 148.86 168.188 148.26 165.667 165.247C163.206 182.234 163.326 233.254 163.326 233.254L167.408 232.714ZM148.92 235.055C148.92 235.055 146.339 158.704 148.38 150.661H145.799C145.799 150.661 143.518 157.204 143.938 175.511C144.238 186.495 143.938 235.055 143.938 235.055H148.92Z" fill="#8C0E0E"/>
<path d="M118.488 201.201C118.488 201.201 106.003 209.125 103.242 209.065C100.541 209.005 92.6775 208.825 93.5178 209.905C94.3582 210.985 103.242 212.486 103.242 212.486L118.488 201.201Z" fill="#FFCACA"/>
<path d="M119.388 217.888C119.388 217.888 178.512 233.795 186.616 208.104C195.199 180.853 195.319 187.936 195.319 187.936L176.772 170.049C176.772 170.049 166.808 201.502 163.986 202.222C148.44 206.183 130.793 203.662 124.55 202.522C123.83 201.922 123.05 201.261 122.089 200.361C121.309 199.641 120.649 198.74 120.169 197.78C119.568 196.58 118.848 195.019 118.728 193.999C118.548 192.738 116.987 192.378 116.447 193.338C115.907 194.299 116.267 197.72 118.428 201.081C118.428 201.081 104.322 210.145 103.182 212.306L119.388 217.888Z" fill="#FFCACA"/>
<path d="M182.474 148.5C182.474 148.5 195.979 151.081 196.52 172.33C197.06 193.578 188.476 209.845 188.476 209.845L165.547 197.9L182.474 148.5Z" fill="#FF5555"/>
<path d="M300.242 358.225H238.296C235.415 358.225 233.074 355.884 233.074 353.003C233.074 350.122 235.415 347.781 238.296 347.781H300.182C303.063 347.781 305.404 350.122 305.404 353.003C305.464 355.884 303.123 358.225 300.242 358.225Z" fill="#D3D3D3"/>
<path d="M256.441 424.208V418.926H309.742V424.208H256.441Z" fill="#D80808"/>
<path d="M261.346 423.171C261.826 425.933 259.965 428.514 257.204 428.934C254.443 429.414 251.862 427.553 251.442 424.792C250.962 422.031 252.822 419.45 255.584 419.03C258.345 418.55 260.926 420.41 261.346 423.171ZM280.193 354.804H285.476V421.071H280.193V354.804ZM314.647 423.171C315.128 425.933 313.267 428.514 310.506 428.934C307.745 429.414 305.164 427.553 304.743 424.792C304.263 422.031 306.124 419.45 308.885 419.03C311.646 418.55 314.227 420.41 314.647 423.171Z" fill="#D80808"/>
<path d="M316.448 358.225H257.985C254.023 358.225 251.142 354.324 252.282 350.422L280.193 254.143C280.914 251.562 283.255 249.761 285.896 249.761H344.359C348.321 249.761 351.202 253.663 350.062 257.564L322.15 353.843C321.43 356.484 319.089 358.225 316.448 358.225Z" fill="#D3D3D3"/>
<path d="M308.405 358.225H257.444C253.483 358.225 250.601 354.324 251.742 350.422L279.653 254.143C280.374 251.562 282.714 249.761 285.356 249.761H336.316C340.278 249.761 343.159 253.663 342.018 257.564L314.107 353.843C313.387 356.484 311.046 358.225 308.405 358.225Z" fill="#F2F2F2"/>
<path d="M316.448 358.225H254.503C251.622 358.225 249.281 355.884 249.281 353.003C249.281 350.122 251.622 347.781 254.503 347.781H316.388C319.269 347.781 321.61 350.122 321.61 353.003C321.67 355.884 319.329 358.225 316.448 358.225Z" fill="#D3D3D3"/>
<path d="M265.247 276.472L251.502 313.027L254.743 320.17L273.291 316.928L278.573 277.852L265.247 276.472Z" fill="#FCB1B1"/>
<path d="M273.591 258.705C273.591 258.705 262.726 264.407 260.325 283.135L274.671 290.998L273.591 258.705Z" fill="#F42A2A"/>
<path d="M291.118 251.562L274.011 258.765L260.505 318.849L305.644 336.616L329.714 268.069C329.714 268.069 325.812 253.783 303.243 250.121L291.118 251.562Z" fill="#F42A2A"/>
<path d="M336.736 322.09C336.736 321.31 336.256 316.568 336.016 315.788L328.573 268.189C327.132 261.646 319.809 258.345 313.987 261.586C309.665 263.987 307.745 269.089 309.425 273.711L318.249 314.587L336.736 322.09Z" fill="#FFCACA"/>
<path d="M326.592 311.946L276.232 308.045L273.711 316.928L322.21 333.315C329.653 335.836 337.277 329.954 336.736 322.09C336.376 316.688 332.054 312.366 326.592 311.946Z" fill="#FFCACA"/>
<path d="M323.531 260.145C323.531 260.145 329.954 262.906 332.715 279.593L310.026 286.556C310.026 286.556 295.2 269.929 311.046 258.825L323.531 260.145Z" fill="#F42A2A"/>
<path d="M260.445 317.469C262.306 322.391 271.61 322.631 276.592 320.77C281.514 318.909 286.616 316.088 284.755 311.106C282.894 306.184 274.671 303.243 269.269 304.443C262.726 305.944 258.585 312.487 260.445 317.469Z" fill="#FFCACA"/>
<path d="M287.877 324.191L251.922 319.569L252.462 315.488L288.417 320.11C289.557 320.23 290.338 321.25 290.157 322.391C289.977 323.531 288.957 324.311 287.877 324.191Z" fill="#F2F2F2"/>
<path d="M256.664 320.17L209.005 314.047C206.243 313.687 204.083 311.586 203.722 308.825L198.74 274.251C198.32 271.19 200.901 268.549 203.963 268.969L247.72 274.611C249.581 274.851 251.022 276.292 251.262 278.093L256.664 320.17Z" fill="#F2F2F2"/>
<path d="M199.701 411.467L187.336 416.569L179.533 417.169C175.931 417.409 172.93 420.05 172.21 423.531L171.85 425.152L214.227 430.434L215.067 413.387L199.701 411.467Z" fill="#D80808"/>
<path d="M215.067 413.387L219.209 394.84L203.903 392.739L199.701 411.467L215.067 413.387Z" fill="#FFCACA"/>
<path d="M305.644 336.616C305.644 336.616 304.443 346.88 286.016 348.261H241.718L220.829 406.545L198.86 403.003L220.829 317.408L271.19 322.991L305.644 336.616Z" fill="#D80808"/>
<path d="M164.227 377.973L150.961 375.992L143.938 372.451C140.697 370.83 136.795 371.551 134.334 374.132L133.194 375.332L166.808 401.623L176.291 387.457L164.227 377.973Z" fill="#8C0E0E"/>
<path d="M176.411 387.517L187.936 372.871L175.811 363.207L164.227 377.973L176.411 387.517Z" fill="#FFCACA"/>
<path d="M260.505 318.849L226.352 308.645C224.911 308.225 223.53 307.685 222.09 307.204C219.149 306.064 211.706 304.503 205.943 313.327C198.56 324.671 168.968 367.289 168.968 367.289L187.036 380.614L226.472 330.374C229.773 325.812 235.055 323.111 240.697 323.111L271.19 323.051L260.505 318.849Z" fill="#8C0E0E"/>
<path d="M304.443 232.834C305.044 231.694 315.608 212.846 305.944 208.104C305.944 208.104 304.683 198.14 293.579 199.221C282.474 200.301 285.476 203.542 278.393 201.922C271.31 200.301 264.647 203.963 265.187 209.905C265.728 215.847 270.229 218.368 278.393 216.928C286.556 215.487 293.039 216.568 293.039 216.568L299.881 218.548L304.443 232.834Z" fill="#FF5555"/>
<path d="M305.764 253.242L304.923 229.293L288.357 235.175L289.677 254.383C289.977 258.825 292.438 262.306 296.88 262.006L298.261 261.946C302.702 261.526 306.064 257.684 305.764 253.242Z" fill="#FFCACA"/>
<path d="M303.483 232.594C303.483 232.594 306.604 252.582 289.557 253.723L288.777 244.239L303.483 232.594Z" fill="#FCB1B1"/>
<path d="M289.437 249.281H290.037C298.561 248.861 305.103 241.658 304.683 233.134L303.843 215.727C303.723 213.506 301.862 211.826 299.641 211.946L279.353 212.906C275.451 213.086 272.39 216.448 272.57 220.349L273.231 234.575C273.711 243.098 280.914 249.641 289.437 249.281Z" fill="#FFCACA"/>
<path d="M300.782 227.912C300.902 230.794 303.363 233.014 306.244 232.834C309.125 232.714 311.346 230.253 311.166 227.372C311.046 224.491 308.585 222.27 305.704 222.45C302.883 222.57 300.662 225.031 300.782 227.912Z" fill="#FFCACA"/>
<path d="M298.321 213.987L299.341 233.374C299.461 235.115 298.741 236.916 297.24 237.876C296.34 238.537 295.62 239.377 293.999 239.137C289.377 238.477 291.538 235.055 282.114 235.535C273.531 236.016 274.191 240.757 274.191 240.757C274.191 240.757 275.872 249.821 287.636 250.241C299.401 250.661 305.284 243.218 303.903 233.314L302.763 212.846L298.321 213.987Z" fill="#FF5555"/>
<path d="M273.171 217.288C273.171 217.288 278.633 218.128 286.616 216.207C294.539 214.227 300.842 220.649 300.842 220.649C300.842 220.649 302.523 223.59 302.943 223.53C303.363 223.47 305.764 222.51 305.764 222.51L305.644 213.566L299.821 209.005L283.675 208.344L274.131 210.445L273.171 217.288Z" fill="#FF5555"/>
</svg>
