<svg width="536" height="377" viewBox="0 0 536 377" fill="none" xmlns="http://www.w3.org/2000/svg">
<path opacity="0.1" d="M3.73476 205.08C-19.7316 331.785 107.793 432.5 226.736 340.728C434.816 180.207 331.809 243.507 443.537 262.232C555.265 280.956 565.282 94.0596 475.585 96.47C385.887 98.8805 358.323 173.36 264.597 104.749C170.872 36.1391 23.3135 99.5093 3.73476 205.08Z" fill="#F42A2A"/>
<path d="M218.917 365.231C296.034 365.231 358.55 302.715 358.55 225.598C358.55 148.481 296.034 85.9646 218.917 85.9646C141.799 85.9646 79.2834 148.481 79.2834 225.598C79.2834 302.715 141.799 365.231 218.917 365.231Z" fill="#FFCCCC"/>
<path d="M63.9639 195.23C75.469 195.23 84.7957 185.903 84.7957 174.398C84.7957 162.893 75.469 153.566 63.9639 153.566C52.4589 153.566 43.1322 162.893 43.1322 174.398C43.1322 185.903 52.4589 195.23 63.9639 195.23Z" fill="#700B0B"/>
<path d="M76.9837 136.928C83.0724 136.928 88.0083 131.992 88.0083 125.903C88.0083 119.815 83.0724 114.879 76.9837 114.879C70.895 114.879 65.9592 119.815 65.9592 125.903C65.9592 131.992 70.895 136.928 76.9837 136.928Z" fill="#EA1717"/>
<path d="M99.0668 162.258C101.084 162.258 102.719 160.622 102.719 158.605C102.719 156.588 101.084 154.953 99.0668 154.953C97.0497 154.953 95.4145 156.588 95.4145 158.605C95.4145 160.622 97.0497 162.258 99.0668 162.258Z" fill="#700B0B"/>
<mask id="mask0_12_674" style="mask-type:luminance" maskUnits="userSpaceOnUse" x="79" y="15" width="340" height="351">
<path d="M358.55 225.598C358.55 302.702 296.021 365.231 218.917 365.231C141.812 365.231 79.3172 302.702 79.3172 225.598C79.3172 148.494 132.479 15.2179 209.583 15.2179C266.803 15.2179 393.078 16.6044 417.292 85.9646C425.712 110.11 358.55 205.713 358.55 225.598Z" fill="white"/>
</mask>
<g mask="url(#mask0_12_674)">
<path d="M161.19 89.5831C161.19 89.5831 157.673 61.2776 166.533 48.3593C178.099 31.5518 210.902 26.8512 226.56 36.1172C243.874 46.364 257.672 72.8095 251.619 95.9746C277.354 103.381 283.509 132.633 265.416 140.141L280.905 173.316C290.543 193.945 280.702 218.598 258.585 229.25L218.984 248.323C218.984 248.323 145.904 259.822 131.43 225.97C116.956 192.118 145.296 167.431 145.296 167.431C145.296 167.431 122.164 141.73 133.189 116.671C144.247 91.6121 161.19 89.5831 161.19 89.5831Z" fill="#700B0B"/>
<path d="M273.566 186.572C273.566 186.572 339.984 197.09 357.975 196.312C372.077 197.09 395.31 119.884 397.339 115.149C408.6 108.081 411.407 98.4095 411.238 93.0663C411.069 87.7231 396.697 83.2254 395.31 85.9308C397.677 78.8629 398.218 76.6309 398.861 74.196C400.214 69.1572 396.358 65.3358 390.846 84.3075C385.402 103.009 385.943 99.9313 384.624 106.526C375.73 123.604 352.801 163.441 351.246 169.461C321.52 168.75 271.165 157.185 271.165 157.185L273.566 186.572ZM140.561 168.548C140.561 168.548 109.077 227.627 102.956 244.13C96.8686 256.406 160.108 312.949 163.659 317.041C165.857 330.467 171.673 335.1 176.611 337.501C181.548 339.868 191.119 329.148 189.191 326.645C194.771 332.124 196.597 333.646 198.559 335.404C202.65 338.989 207.622 337.366 192.37 323.433C177.321 309.669 179.959 311.63 174.413 307.302C162.171 291.238 134.44 251.807 129.537 247.546C141.474 221.269 171.234 181.601 171.234 181.601L140.561 168.548Z" fill="#FDB2B2"/>
<path d="M212.694 365.231L231.057 285.557L262.339 304.292C262.339 304.292 264.875 327.22 268.122 356.946C268.122 356.946 243.638 365.806 212.694 365.231Z" fill="#700B0B"/>
<path d="M244.246 362.797C249.251 332.563 253.242 308.215 253.242 308.215C253.242 308.215 167.649 296.311 167.345 319.713C167.243 326.882 168.089 340.68 170.084 356.439C215.095 370.913 244.246 362.797 244.246 362.797Z" fill="#8C0E0E"/>
<path d="M244.889 208.689C242.352 214.573 261.595 296.277 264.807 315.114C264.807 315.114 264.402 315.046 263.624 314.911C255.271 313.659 204.172 306.93 162.881 324.143L159.093 208.723L158.924 204.428C158.924 204.428 158.924 200.066 159.33 193.404V193.336C160.277 179.606 163.118 156.441 171.944 141.561C176.509 133.851 182.563 128.338 190.848 127.527C216.516 124.99 216.38 135.508 240.222 141.392L278.909 150.996C278.909 150.996 274.581 180.992 278.909 189.92H252.058C252.058 189.886 247.391 202.737 244.889 208.689Z" fill="#E31B22"/>
<path d="M230.144 50.5236C230.144 50.5236 253.681 85.8293 241.338 103.076C232.106 115.995 216.617 122.758 216.617 122.758V141.358C216.617 141.358 214.757 143.015 211.511 143.184C205.863 143.489 190.848 134.425 190.848 134.425V61.1761L230.144 50.5236Z" fill="#FFCACA"/>
<path d="M159.026 213.457C159.026 213.457 194.534 172.301 188.887 152.484C183.239 132.667 156.388 139.464 141.373 162.291C126.358 185.118 120.406 192.93 120.406 192.93C120.406 192.93 135.86 213.829 159.026 213.457Z" fill="#E31B22"/>
<path d="M230.077 47.1757C230.077 47.1757 231.903 83.9355 214.182 92.8296C196.462 101.724 209.854 123.638 192.979 140.005C187.974 144.841 180.534 144.03 174.819 142.339C166.635 139.904 157.267 141.662 151.552 147.581C151.011 148.155 150.504 148.764 150.098 149.373C128.184 134.899 183.713 54.4465 183.713 54.4465L230.077 47.1757Z" fill="#700B0B"/>
</g>
<path d="M294.432 248.155C286.755 260.025 282.291 274.16 282.291 289.345C282.291 331.245 316.278 365.232 358.178 365.232C400.078 365.232 434.065 331.245 434.065 289.345C434.065 247.444 400.078 213.458 358.178 213.458C339.68 213.458 322.703 220.086 309.548 231.11L283.813 224.313L294.432 248.155ZM383.508 20.8317C383.508 32.3298 374.174 47.1757 362.676 47.1757C351.178 47.1757 341.844 32.3298 341.844 20.8317C341.844 9.33369 351.144 0 362.676 0C374.208 0 383.508 9.33369 383.508 20.8317Z" fill="#EA1717"/>
<path d="M323.187 265.991L318.642 282.786H312.953L310.305 271.89L307.566 282.786H301.907L297.332 265.991H302.479L304.857 278L307.686 265.991H313.134L315.993 277.94L318.341 265.991H323.187ZM335.474 265.81C337.401 265.81 338.946 266.452 340.109 267.737C341.273 269.001 341.855 270.746 341.855 272.974V282.786H336.738V273.666C336.738 272.542 336.447 271.67 335.865 271.047C335.284 270.425 334.501 270.114 333.518 270.114C332.534 270.114 331.752 270.425 331.17 271.047C330.588 271.67 330.297 272.542 330.297 273.666V282.786H325.15V260.513H330.297V268.248C330.819 267.506 331.531 266.914 332.434 266.472C333.337 266.031 334.35 265.81 335.474 265.81ZM353.077 283.027C351.432 283.027 349.947 282.676 348.622 281.974C347.318 281.271 346.285 280.268 345.522 278.964C344.78 277.659 344.409 276.134 344.409 274.388C344.409 272.663 344.79 271.148 345.552 269.843C346.315 268.519 347.358 267.506 348.683 266.803C350.007 266.101 351.492 265.75 353.137 265.75C354.783 265.75 356.268 266.101 357.592 266.803C358.916 267.506 359.96 268.519 360.722 269.843C361.485 271.148 361.866 272.663 361.866 274.388C361.866 276.114 361.475 277.639 360.692 278.964C359.93 280.268 358.876 281.271 357.532 281.974C356.208 282.676 354.723 283.027 353.077 283.027ZM353.077 278.572C354.06 278.572 354.893 278.211 355.575 277.489C356.278 276.766 356.629 275.733 356.629 274.388C356.629 273.044 356.288 272.011 355.606 271.288C354.943 270.566 354.121 270.205 353.137 270.205C352.134 270.205 351.301 270.566 350.639 271.288C349.977 271.991 349.646 273.024 349.646 274.388C349.646 275.733 349.967 276.766 350.609 277.489C351.271 278.211 352.094 278.572 353.077 278.572ZM298.054 305.358C298.054 303.633 298.375 302.118 299.017 300.813C299.68 299.509 300.572 298.506 301.696 297.803C302.82 297.101 304.074 296.75 305.459 296.75C306.643 296.75 307.676 296.991 308.559 297.472C309.462 297.954 310.154 298.586 310.636 299.369V296.991H315.783V313.786H310.636V311.408C310.134 312.191 309.432 312.823 308.529 313.305C307.646 313.786 306.612 314.027 305.429 314.027C304.064 314.027 302.82 313.676 301.696 312.974C300.572 312.251 299.68 311.238 299.017 309.934C298.375 308.609 298.054 307.084 298.054 305.358ZM310.636 305.388C310.636 304.104 310.275 303.091 309.552 302.348C308.85 301.606 307.987 301.235 306.964 301.235C305.94 301.235 305.067 301.606 304.345 302.348C303.643 303.071 303.291 304.074 303.291 305.358C303.291 306.643 303.643 307.666 304.345 308.429C305.067 309.171 305.94 309.542 306.964 309.542C307.987 309.542 308.85 309.171 309.552 308.429C310.275 307.686 310.636 306.673 310.636 305.388ZM324.653 299.79C325.255 298.867 326.008 298.145 326.911 297.623C327.814 297.081 328.817 296.81 329.921 296.81V302.258H328.506C327.222 302.258 326.259 302.539 325.617 303.101C324.974 303.643 324.653 304.606 324.653 305.99V313.786H319.506V296.991H324.653V299.79ZM348.213 305.118C348.213 305.599 348.183 306.101 348.123 306.623H336.474C336.555 307.666 336.886 308.469 337.468 309.031C338.07 309.572 338.802 309.843 339.665 309.843C340.949 309.843 341.842 309.301 342.344 308.218H347.822C347.541 309.321 347.029 310.315 346.287 311.198C345.565 312.081 344.652 312.773 343.548 313.275C342.444 313.776 341.21 314.027 339.846 314.027C338.2 314.027 336.735 313.676 335.451 312.974C334.167 312.271 333.164 311.268 332.441 309.964C331.719 308.659 331.358 307.134 331.358 305.388C331.358 303.643 331.709 302.118 332.411 300.813C333.133 299.509 334.137 298.506 335.421 297.803C336.705 297.101 338.18 296.75 339.846 296.75C341.471 296.75 342.916 297.091 344.18 297.773C345.444 298.456 346.427 299.429 347.13 300.693C347.852 301.957 348.213 303.432 348.213 305.118ZM342.946 303.763C342.946 302.88 342.645 302.178 342.043 301.656C341.441 301.134 340.688 300.874 339.785 300.874C338.923 300.874 338.19 301.124 337.588 301.626C337.006 302.128 336.645 302.84 336.505 303.763H342.946ZM381.417 296.991L376.872 313.786H371.183L368.534 302.89L365.795 313.786H360.136L355.561 296.991H360.708L363.086 309L365.916 296.991H371.364L374.223 308.94L376.571 296.991H381.417ZM399.212 305.118C399.212 305.599 399.182 306.101 399.122 306.623H387.473C387.553 307.666 387.884 308.469 388.466 309.031C389.068 309.572 389.801 309.843 390.664 309.843C391.948 309.843 392.841 309.301 393.343 308.218H398.821C398.54 309.321 398.028 310.315 397.286 311.198C396.563 312.081 395.65 312.773 394.546 313.275C393.443 313.776 392.209 314.027 390.844 314.027C389.199 314.027 387.734 313.676 386.45 312.974C385.165 312.271 384.162 311.268 383.44 309.964C382.717 308.659 382.356 307.134 382.356 305.388C382.356 303.643 382.707 302.118 383.41 300.813C384.132 299.509 385.135 298.506 386.42 297.803C387.704 297.101 389.179 296.75 390.844 296.75C392.47 296.75 393.914 297.091 395.179 297.773C396.443 298.456 397.426 299.429 398.128 300.693C398.851 301.957 399.212 303.432 399.212 305.118ZM393.944 303.763C393.944 302.88 393.644 302.178 393.042 301.656C392.44 301.134 391.687 300.874 390.784 300.874C389.921 300.874 389.189 301.124 388.587 301.626C388.005 302.128 387.644 302.84 387.503 303.763H393.944ZM408.098 291.483C410.245 291.483 411.96 292.044 413.245 293.168C414.549 294.292 415.201 295.877 415.201 297.924C415.201 299.81 414.579 301.285 413.335 302.348C412.111 303.392 410.485 303.924 408.459 303.944L408.308 306.201H403.793L403.643 300.603H405.449C406.994 300.603 408.168 300.412 408.97 300.031C409.793 299.65 410.205 298.957 410.205 297.954C410.205 297.252 410.014 296.7 409.633 296.298C409.251 295.897 408.72 295.696 408.037 295.696C407.315 295.696 406.753 295.907 406.352 296.329C405.951 296.73 405.75 297.282 405.75 297.984H400.904C400.864 296.76 401.115 295.656 401.656 294.673C402.218 293.69 403.041 292.917 404.124 292.355C405.228 291.773 406.552 291.483 408.098 291.483ZM406.111 314.027C405.208 314.027 404.466 313.766 403.884 313.244C403.322 312.703 403.041 312.04 403.041 311.258C403.041 310.455 403.322 309.783 403.884 309.241C404.466 308.699 405.208 308.429 406.111 308.429C406.994 308.429 407.716 308.699 408.278 309.241C408.86 309.783 409.151 310.455 409.151 311.258C409.151 312.04 408.86 312.703 408.278 313.244C407.716 313.766 406.994 314.027 406.111 314.027Z" fill="white"/>
<path d="M363.319 56.6109C361.188 56.6109 359.193 55.1229 357.434 52.1807C356.183 50.084 357.13 43.7601 358.144 37.0642C358.415 35.3057 358.652 33.581 358.888 32.0254C357.4 27.3923 357.739 24.3826 358.381 23.5033C358.618 23.1651 358.956 23.0637 359.26 23.1989C359.869 23.5033 360.207 24.7884 360.207 26.8513C360.207 28.204 360.038 29.9287 359.801 31.8563C359.903 32.1945 360.038 32.5326 360.173 32.9046C361.391 36.1511 362.608 35.441 363.014 35.1704C363.995 34.5955 364.942 32.9723 365.652 31.1123C365.381 26.9189 365.686 23.9091 366.159 23.0298C366.396 22.5564 366.7 22.5226 366.836 22.5226C367.309 22.5564 367.546 23.1989 367.613 23.4018C368.222 25.0251 367.681 28.4407 366.565 31.349C366.903 36.2526 368.053 42.9823 370.894 50.0502L371.029 50.3546L370.86 50.6251C370.725 50.8618 367.58 56.4418 363.42 56.5094C363.386 56.6109 363.352 56.6109 363.319 56.6109ZM359.497 33.8177C359.328 34.9337 359.159 36.0835 358.99 37.2671C358.111 43.1514 357.096 49.7797 358.111 51.4706C359.734 54.1422 361.492 55.4949 363.352 55.4611C366.565 55.3934 369.237 51.4029 369.913 50.3208C367.444 44.0983 366.227 38.0111 365.753 33.1414C365.043 34.5617 364.198 35.7115 363.319 36.2188C362.507 36.7598 360.884 37.098 359.497 33.8177ZM358.956 24.3487C358.719 24.7884 358.415 26.5807 359.125 29.6581C359.227 28.6098 359.294 27.6629 359.294 26.8851C359.294 25.2956 359.058 24.5855 358.956 24.3487ZM366.768 23.9429C366.565 24.6193 366.362 26.3102 366.396 28.745C366.937 26.7836 367.14 24.8898 366.768 23.9429Z" fill="white"/>
<path d="M362.676 59.4516C358.483 59.4516 354.999 56.2728 354.661 52.1132L353.951 44.1322L356.082 44.9438C360.444 46.6009 365.246 46.5671 369.575 44.8424L371.367 44.1322L370.657 52.1132C370.319 56.2728 366.836 59.4516 362.676 59.4516Z" fill="#700B0B"/>
<path d="M448.81 60.6351C446.375 66.418 438.529 71.9303 432.746 69.4954C426.964 67.0605 425.408 57.6254 427.843 51.8087C430.278 46.0259 436.94 43.2866 442.756 45.7215C448.573 48.1564 451.245 54.8185 448.81 60.6351Z" fill="#EA1717"/>
<path d="M431.055 74.3651C429.973 73.9254 429.297 72.7418 429.026 70.8818C428.823 69.563 430.65 66.587 432.577 63.4419C433.084 62.6303 433.558 61.8187 433.998 61.0747C434.234 58.4369 435.046 56.9828 435.553 56.6784C435.756 56.5431 435.925 56.5769 436.06 56.7122C436.297 56.9828 436.196 57.7267 435.756 58.7413C435.486 59.4176 435.012 60.2631 434.471 61.1762C434.471 61.3791 434.437 61.582 434.437 61.7849C434.37 63.6787 435.114 63.5772 435.384 63.5434C435.993 63.4419 436.804 62.8332 437.582 62.0554C438.326 59.8911 439.138 58.4369 439.544 58.0987C439.747 57.9297 439.916 57.9635 439.983 57.9973C440.22 58.1326 440.186 58.4707 440.186 58.606C440.152 59.5529 439.138 61.1423 437.954 62.3936C437.075 64.9299 436.23 68.5484 436.196 72.708V72.8771L436.06 72.9785C435.959 73.08 433.186 75.2105 431.089 74.3651H431.055ZM433.964 62.0892C433.659 62.6303 433.321 63.1714 432.983 63.7125C431.292 66.4855 429.398 69.6306 429.534 70.6789C429.77 72.3698 430.379 73.4182 431.326 73.7902C432.949 74.4327 435.147 72.9785 435.722 72.5727C435.79 68.9204 436.466 65.6063 437.278 63.0361C436.635 63.611 435.959 63.983 435.418 64.0845C434.843 64.1859 433.964 64.0168 433.964 62.0892ZM435.688 57.1857C435.486 57.3548 434.944 58.2002 434.674 59.8911C434.944 59.3838 435.181 58.9104 435.35 58.5384C435.655 57.7606 435.722 57.3548 435.688 57.1857ZM439.713 58.6398C439.476 58.9442 439.003 59.7558 438.529 60.9733C439.205 60.1278 439.713 59.2147 439.713 58.6398Z" fill="white"/>
<path d="M430.142 75.6501C428.046 74.7709 426.963 72.4374 427.64 70.2731L428.992 66.1135L429.906 66.959C431.732 68.7175 434.167 69.6982 436.703 69.7658L437.751 69.7997L435.722 73.6549C434.674 75.6839 432.239 76.5294 430.142 75.6501Z" fill="#700B0B"/>
<path d="M367.749 93.7089C368.154 98.3757 364.942 104.733 360.275 105.139C355.608 105.545 351.279 99.8975 350.874 95.2307C350.468 90.5638 353.883 86.438 358.55 86.0322C363.217 85.6264 367.309 89.042 367.749 93.7089Z" fill="#EA1717"/>
<path d="M360.85 108.927C359.971 108.995 359.125 108.487 358.314 107.337C357.739 106.526 357.874 103.922 358.043 101.183C358.077 100.472 358.111 99.7623 358.144 99.1198C357.367 97.2936 357.4 96.0762 357.637 95.7042C357.739 95.5689 357.84 95.5013 357.975 95.5351C358.246 95.6366 358.415 96.1438 358.483 96.9893C358.516 97.5303 358.516 98.2405 358.483 99.0521L358.686 99.458C359.294 100.743 359.768 100.405 359.903 100.27C360.275 99.999 360.613 99.3227 360.816 98.5449C360.546 96.854 360.579 95.6366 360.715 95.2646C360.782 95.0617 360.917 95.0278 360.985 95.0278C361.188 95.0278 361.289 95.2646 361.323 95.366C361.628 96.0085 361.526 97.3951 361.188 98.6463C361.492 100.608 362.203 103.313 363.623 106.052L363.691 106.188L363.623 106.323C363.589 106.424 362.507 108.792 360.816 108.995C360.884 108.927 360.884 108.927 360.85 108.927ZM358.483 99.83C358.449 100.27 358.415 100.777 358.415 101.25C358.28 103.651 358.111 106.391 358.584 107.033C359.328 108.048 360.106 108.555 360.85 108.453C362.135 108.318 363.082 106.593 363.319 106.12C362.101 103.685 361.391 101.25 360.985 99.2889C360.748 99.8976 360.444 100.371 360.106 100.642C359.802 100.912 359.159 101.115 358.483 99.83ZM357.908 96.0085C357.806 96.2115 357.772 96.9554 358.178 98.1391C358.178 97.6994 358.178 97.3274 358.144 97.0231C358.077 96.3805 357.975 96.11 357.908 96.0085ZM361.087 95.5689C361.019 95.8395 361.019 96.5496 361.12 97.5303C361.256 96.7187 361.256 95.9409 361.087 95.5689Z" fill="white"/>
<path d="M360.715 110.11C359.024 110.28 357.502 109.096 357.198 107.439L356.623 104.226L357.502 104.463C359.328 104.97 361.29 104.767 362.98 103.922L363.691 103.55V106.796C363.691 108.555 362.406 109.975 360.715 110.11Z" fill="#700B0B"/>
</svg>
