<svg width="396" height="285" viewBox="0 0 396 285" fill="none" xmlns="http://www.w3.org/2000/svg">
<path d="M98.1889 64.6701C85.4307 70.4091 72.4126 76.8059 63.4515 87.5513C60.4619 91.1357 57.8897 95.4882 58.1497 100.148C58.6342 108.837 68.5997 114.013 77.3008 114.029C86.0018 114.045 94.4666 110.783 103.168 110.807C107.658 110.819 113.279 112.993 113.22 117.487C113.184 120.173 111.026 122.289 109.025 124.077C93.667 137.804 78.3091 151.531 62.9473 165.258C57.8307 169.831 52.5525 174.625 49.8898 180.951C47.2271 187.277 47.9952 195.612 53.5057 199.708C57.1335 202.406 61.9508 202.761 66.4727 202.84C87.0063 203.206 107.434 200.047 127.628 196.325C199.037 183.169 269.118 162.844 336.49 135.764C348.826 130.805 362.069 124.711 367.942 112.784C374.725 98.9978 367.489 80.158 353.218 74.4623C344.691 71.0551 335.103 72.028 326.075 70.3579C317.047 68.6878 307.365 62.4998 307.271 53.3221C307.121 38.1375 331.692 32.3749 332.397 17.2061C332.771 9.17463 325.473 2.38787 317.622 0.642925C309.772 -1.10202 301.618 1.00137 293.945 3.41199C293.945 3.40411 154.783 39.2168 98.1889 64.6701Z" fill="#F7F7F7"/>
<path d="M77.0293 222.211C83.501 216.543 90.9022 210.532 99.493 210.918C106.626 211.237 112.846 216.039 117.281 221.64C121.716 227.237 124.856 233.752 129.11 239.491C133.592 245.534 140.068 250.977 147.591 250.922C155.489 250.863 161.937 244.903 167.526 239.322L204.536 202.371C211.37 195.549 219.662 188.191 229.245 189.368C238.813 190.546 245.072 199.677 250.05 207.933C257.625 220.494 265.196 233.059 272.77 245.62C274.279 248.125 275.894 250.733 278.43 252.19C285.138 256.047 293.036 249.918 298.342 244.285C303.805 238.483 309.426 232.594 316.476 228.872C323.523 225.15 332.374 223.905 339.417 227.639C343.907 230.018 347.196 234.115 350.355 238.097C362.554 253.482 374.757 268.868 386.956 284.253H16.1887C16.1887 284.249 56.7478 239.972 77.0293 222.211Z" fill="#FFCCCC"/>
<path d="M84.9387 222.629C90.0435 218.166 95.6289 213.384 102.435 211.903C109.352 210.398 115.871 213.463 120.822 218.17C130.291 227.174 133.718 241.374 145.173 248.496C150.148 251.588 155.973 252.387 161.472 250.213C167.077 247.999 171.524 243.639 175.719 239.456C186.862 228.34 198.002 217.213 209.141 206.089C217.712 197.53 229.702 184.606 242.917 192.043C248.242 195.041 252.012 200.236 255.23 205.29C259.22 211.56 262.943 218.012 266.779 224.378C270.836 231.109 274.893 237.837 278.95 244.569C281.841 249.362 285.154 254.577 291.535 253.924C297.195 253.341 302.064 249.055 305.845 245.132C310.69 240.106 315.421 234.906 321.337 231.101C327.186 227.336 334.367 225.02 341.351 226.327C348.39 227.647 352.994 232.921 357.236 238.258C367.076 250.638 376.888 263.042 386.715 275.434C389.154 278.51 391.596 281.587 394.034 284.667C394.172 284.332 394.314 283.993 394.451 283.658H29.2659C27.6864 283.658 25.8706 283.406 24.3029 283.658C24.1099 283.69 23.8854 283.658 23.6884 283.658C23.8263 283.993 23.9681 284.332 24.1059 284.667C38.8533 268.568 53.8763 252.675 69.3957 237.317C74.4533 232.303 79.5778 227.332 84.9387 222.629C85.5098 222.125 84.6748 221.293 84.1036 221.794C73.7994 230.834 64.2002 240.708 54.6641 250.54C45.8133 259.666 37.0808 268.915 28.4309 278.235C26.7056 280.094 24.9764 281.957 23.263 283.832C22.9243 284.202 23.1527 284.84 23.6805 284.84H379.365C384.179 284.84 389.016 284.974 393.829 284.84C394.034 284.836 394.239 284.84 394.443 284.84C394.999 284.84 395.164 284.214 394.861 283.832C384.777 271.113 374.69 258.394 364.606 245.675C360.273 240.212 356.189 233.922 350.729 229.494C345.892 225.571 339.874 224.2 333.753 225.051C327.407 225.934 321.715 229.006 316.752 232.953C311.32 237.274 307.074 242.776 301.855 247.302C296.675 251.796 288.979 255.696 283.523 249.362C281.042 246.479 279.281 242.843 277.324 239.598C275.228 236.12 273.133 232.645 271.037 229.167L258.665 208.642C255.616 203.584 252.449 198.424 248.065 194.395C244.134 190.783 239.167 188.368 233.728 188.679C227.807 189.018 222.569 192.275 218.106 195.95C212.434 200.622 207.419 206.14 202.224 211.324C196.517 217.024 190.809 222.723 185.098 228.419C179.898 233.61 174.88 239.137 169.275 243.891C163.942 248.417 157.328 251.808 150.234 249.567C136.594 245.258 132.332 229.03 123.599 219.332C119.621 214.912 114.39 211.178 108.356 210.442C102.152 209.682 96.3143 212.399 91.3709 215.909C88.8264 217.713 86.4512 219.738 84.1036 221.79C83.5285 222.298 84.3675 223.129 84.9387 222.629Z" fill="#FFCCCC"/>
<path d="M364.33 102.192C356.637 94.9131 347.302 92.8727 335.753 93.4124C333.862 93.503 331.747 93.8181 330.656 95.1258C329.569 96.4335 330.742 98.8205 332.59 98.4542C319.548 92.2858 304.001 89.9658 289.238 91.9865C287.607 92.211 285.831 92.5655 284.854 93.6881C283.881 94.8146 284.527 96.8707 286.181 96.8865C274.053 91.8565 252.181 101.57 254.371 102.409L364.33 102.192ZM311.225 171.769C304.115 165.042 295.485 163.155 284.815 163.655C283.066 163.738 281.112 164.029 280.104 165.239C279.099 166.448 280.186 168.654 281.888 168.315C269.835 162.611 255.466 160.469 241.821 162.336C240.313 162.54 238.67 162.871 237.772 163.911C236.87 164.951 237.469 166.854 238.997 166.869C227.787 162.217 207.576 171.198 209.601 171.974L311.225 171.769Z" fill="#FFDCDC"/>
<path d="M97.0942 155.313L18.0085 156.967L54.2191 164.392L34.6387 178.67L98.1971 163.813L97.0942 155.313Z" fill="#EA1717"/>
<path d="M99.9064 166.826L14.0852 217.335L61.4704 181.715L16.0468 180.734L99.9064 159.661V166.826Z" fill="#EA1717"/>
<path d="M32.941 198.042L45.9197 186.505L0.5 183.531L31.582 166.838L1.68562 152.807H38.0852L17.3783 129.773L18.0676 129.993C18.8593 130.245 97.1572 155.12 99.9066 155.12H100.407L75.4734 178.304L32.941 198.042ZM1.89832 183.228L46.8887 186.174L35.2098 196.557L75.2844 177.957L99.4772 155.45C92.9623 154.166 26.6781 133.136 18.6427 130.584L38.9715 153.197H3.45025L32.4565 166.81L1.89832 183.228Z" fill="#EA1717"/>
<path d="M93.3205 152.819L42.209 132.439L52.982 146.289L4.89563 139.927L98.1969 162.06L93.3205 152.819Z" fill="#EA1717"/>
<path d="M176.979 90.0604C176.979 90.0604 170.563 112.772 193.921 115.841C192.755 118.271 192.519 119.26 192.519 119.26C192.519 119.26 168.723 113.568 169.905 99.0609C174.096 89.9029 176.979 90.0604 176.979 90.0604Z" fill="#D62121"/>
<path d="M126.443 131.915L102.553 120.544L75.3901 153L98.1965 148.018L126.443 131.915ZM135.782 174.657L118.809 194.958L80.5895 176.784L103.392 171.801L135.782 174.657Z" fill="#F42A2A"/>
<path d="M106.496 168.11L96.9084 169.245L93.3201 152.819L102.553 150.082L106.496 168.11Z" fill="#8C0E0E"/>
<path d="M257.766 125.613C257.766 125.613 233.27 152.071 201.57 166.062C200.979 166.322 200.388 166.578 199.793 166.826C199.202 167.082 198.604 167.326 198.009 167.567C192.735 169.698 187.279 171.454 181.725 172.668C154.909 178.529 122.854 176.855 103.475 172.183L98.1965 148.018C113.862 135.681 142.214 120.418 169.03 114.561C174.584 113.347 180.272 112.67 185.956 112.41C186.602 112.378 187.248 112.355 187.89 112.335C188.536 112.315 189.178 112.3 189.824 112.292C224.471 111.784 257.766 125.613 257.766 125.613Z" fill="#FFCCCC"/>
<path d="M257.767 125.613C257.767 125.613 233.271 152.071 201.57 166.062C200.979 166.322 200.389 166.578 199.794 166.826C192.105 159.736 186.961 151.007 184.893 141.534C182.825 132.065 183.861 121.985 187.894 112.335C188.54 112.315 189.182 112.3 189.828 112.292C224.471 111.784 257.767 125.613 257.767 125.613Z" fill="#F42A2A"/>
<path d="M189.824 112.292C189.178 112.3 188.536 112.315 187.89 112.335C187.248 112.355 186.602 112.378 185.956 112.41C184.132 116.947 182.939 121.568 182.403 126.172C181.788 131.478 182.044 136.772 183.167 141.908C184.29 147.045 186.263 151.968 189.036 156.53C191.443 160.492 194.456 164.199 198.005 167.563C198.6 167.322 199.198 167.074 199.789 166.822C200.384 166.57 200.975 166.318 201.566 166.058C194.003 159.283 188.729 150.854 186.61 141.156C184.494 131.458 185.775 121.603 189.824 112.292Z" fill="#8C0E0E"/>
<path d="M197.371 114.545C207.561 115.009 242.011 121.832 249.932 125.255C243.09 124.731 201.07 117.097 198.632 120.319C197.458 116.991 197.371 114.545 197.371 114.545Z" fill="#FFCCCC"/>
<path d="M131.807 156.467L89.1999 165.778L77.9897 164.892L87.8095 159.413L130.417 150.105L131.807 156.467Z" fill="#F42A2A"/>
<path d="M173.765 156.309L180.091 164.392L171.279 159.169V160.35L169.152 158.921L171.153 155.313L173.765 156.309Z" fill="#700B0B"/>
<path d="M179.922 135.382C180.501 134.657 180.099 133.578 179.189 133.404C171.414 131.911 153.972 127.449 151.337 124.561C148.399 121.343 152.456 117.148 155.394 114.911L164.702 118.87L188.702 130.135C188.858 130.208 188.997 130.314 189.11 130.444C189.223 130.575 189.307 130.728 189.358 130.893C189.408 131.058 189.424 131.232 189.403 131.403C189.382 131.574 189.326 131.74 189.237 131.888L174.474 156.971C174.474 156.971 171.815 156.691 170 156.27C170 156.27 176.897 138.395 179.922 135.382Z" fill="#600B0B"/>
<path d="M183.084 117.814H189.662L187.642 118.433L189.662 120.142L187.488 122.32L183.084 119.756V117.814Z" fill="#FCB1B1"/>
<path d="M177.267 89.3474L174.911 102.96L164.702 118.866L153.814 115.974L164.02 86.4798L175.51 83.9944L177.267 89.3474Z" fill="#F42A2A"/>
<path d="M180.681 85.7945L176.979 90.0604L175.51 83.9944L177.266 82.8994L180.681 85.7945Z" fill="#FCB1B1"/>
<path d="M176.534 72.4061C174.852 73.0836 174.009 77.3928 174.269 78.3027C174.529 79.2126 177.01 82.8994 177.01 82.8994L181.438 73.1624L176.534 72.4061Z" fill="#8C0E0E"/>
<path d="M183.065 75.3563C183.065 75.3563 186.381 87.9294 183.935 87.3582C181.489 86.7831 177.912 86.3144 177.459 85.1012C177.006 83.888 175.931 75.896 176.959 74.6631C177.987 73.4302 182.875 74.5764 182.875 74.5764L183.065 75.3563Z" fill="#FFCACA"/>
<path d="M176.207 75.7424C175.617 75.2382 175.365 74.3677 175.593 73.6233C175.916 72.5795 177.031 71.9768 178.106 71.7877C179.181 71.5987 180.288 71.7168 181.371 71.5593C182.451 71.4017 183.585 70.87 183.995 69.8616C184.578 70.3815 184.905 71.1772 184.857 71.9571C185.22 71.6302 185.586 71.3032 185.948 70.9763C185.425 72.5716 184.814 74.285 183.412 75.2067C182.045 76.1009 180.28 76.0063 178.654 75.8803C178.65 75.8763 176.798 76.2466 176.207 75.7424Z" fill="#8C0E0E"/>
<path d="M178.519 75.5021L176.234 79.0314L176.01 74.6434L178.519 75.5021Z" fill="#8C0E0E"/>
<path d="M176.929 81.3969C177.354 81.2686 177.555 80.6902 177.378 80.105C177.202 79.5198 176.714 79.1494 176.289 79.2777C175.864 79.406 175.663 79.9844 175.84 80.5696C176.016 81.1548 176.504 81.5252 176.929 81.3969Z" fill="#FFCACA"/>
<path d="M164.02 86.4799C164.02 86.4799 147.666 117.814 183.726 120.575C183.545 118.818 183.545 117.463 183.545 117.463C183.545 117.463 164.887 114.978 167.719 98.7615C168.022 97.0323 168.585 95.3622 169.282 93.7512C172.457 86.3972 164.02 86.4799 164.02 86.4799Z" fill="#FF4545"/>
<path d="M337.509 167.819C336.194 167.98 334.827 168.149 333.83 168.279C326.035 158.18 319.437 139.064 316.085 117.629C317.314 117.479 318.539 117.326 319.768 117.176C323.12 138.604 329.714 157.715 337.509 167.819Z" fill="#F7F7F7"/>
<path d="M337.509 167.819L337.757 168.138C336.528 168.287 335.303 168.441 334.074 168.591C333.992 168.488 333.913 168.382 333.83 168.279C334.827 168.149 336.193 167.98 337.509 167.819Z" fill="#F7F7F7"/>
<path d="M337.758 168.138C339.337 170.143 340.968 171.773 342.626 172.979L338.943 173.432C337.285 172.226 335.654 170.596 334.075 168.591C335.304 168.441 336.529 168.287 337.758 168.138Z" fill="#F7F7F7"/>
<path d="M321.923 93.7708C322.443 122.962 331.613 152.981 342.405 160.823L338.723 161.276C327.93 153.434 318.76 123.415 318.24 94.2238C318.11 86.925 318.532 80.3706 319.41 74.7655C320.639 74.6159 321.864 74.4622 323.093 74.3126C322.218 79.9176 321.793 86.472 321.923 93.7708Z" fill="#EA1717"/>
<path d="M331.837 127.976C334.551 136.863 338.206 143.791 342.157 146.663L338.474 147.116C334.524 144.244 330.868 137.316 328.154 128.429C329.383 128.28 330.608 128.126 331.837 127.976Z" fill="#F7F7F7"/>
<path d="M338.227 128.729C339.373 130.832 340.622 132.443 341.921 133.385L338.239 133.838C336.943 132.896 335.69 131.285 334.544 129.182C335.769 129.032 336.998 128.882 338.227 128.729Z" fill="#EA1717"/>
<path d="M337.312 107.254C337.805 112.823 339.605 118.046 341.673 119.551L337.99 120.004C335.922 118.499 334.122 113.276 333.63 107.707C334.855 107.553 336.084 107.403 337.312 107.254ZM327.158 97.5719C327.347 108.254 329.123 119.09 331.837 127.976C330.608 128.126 329.383 128.28 328.154 128.429C325.441 119.547 323.668 108.711 323.475 98.0249C323.164 80.6897 327.119 69.0817 332.838 68.3766L336.521 67.9236C330.801 68.6326 326.851 80.2406 327.158 97.5719Z" fill="#F7F7F7"/>
<path d="M317.429 90.5055C317.591 99.4783 318.414 108.514 319.769 117.176C318.54 117.326 317.315 117.479 316.086 117.629C314.731 108.971 313.908 99.9313 313.746 90.9584C313.226 61.834 319.867 42.3285 329.478 41.1468L333.161 40.6938C323.55 41.8755 316.909 61.3811 317.429 90.5055Z" fill="#F7F7F7"/>
<path d="M332.066 101.141C332.255 111.669 334.783 122.423 338.222 128.733C336.993 128.882 335.768 129.036 334.539 129.186C331.097 122.876 328.568 112.122 328.383 101.594C328.178 90.2061 330.774 82.5804 334.531 82.1195L338.214 81.6665C334.46 82.1274 331.865 89.7531 332.066 101.141ZM334.712 53.2708C329.308 53.9365 325.058 61.7316 323.093 74.3126C321.864 74.4622 320.639 74.6159 319.41 74.7655C321.375 62.1846 325.625 54.3895 331.03 53.7238C332.136 53.5899 333.61 53.4087 334.712 53.2708Z" fill="#EA1717"/>
<path d="M337.183 104.855C337.198 105.655 337.242 106.454 337.313 107.25C336.084 107.399 334.859 107.553 333.63 107.703C333.559 106.906 333.515 106.107 333.5 105.308C333.405 100.12 334.591 96.6462 336.304 96.4375L339.987 95.9845C338.274 96.1933 337.088 99.6713 337.183 104.855Z" fill="#F7F7F7"/>
<path d="M341.917 133.385C342.898 134.098 343.835 134.377 344.71 134.271L341.027 134.724C340.153 134.83 339.215 134.55 338.234 133.838C339.341 133.704 340.842 133.109 341.917 133.385Z" fill="#EA1717"/>
<path d="M341.673 119.547C342.118 119.87 342.547 120 342.945 119.949L339.262 120.402C338.864 120.449 338.435 120.323 337.99 120C339.093 119.866 340.593 119.267 341.673 119.547ZM342.157 146.663C343.65 147.746 345.076 148.175 346.407 148.01L342.724 148.463C341.393 148.628 339.967 148.199 338.474 147.116C339.577 146.982 341.05 146.797 342.157 146.663Z" fill="#F7F7F7"/>
<path d="M342.409 160.823C344.445 162.304 346.395 162.887 348.215 162.663L344.532 163.116C342.712 163.34 340.762 162.757 338.726 161.276C339.829 161.142 341.33 160.543 342.409 160.823Z" fill="#EA1717"/>
<path d="M342.626 172.979C345.131 174.798 347.53 175.519 349.767 175.244L346.084 175.697C343.847 175.972 341.448 175.251 338.943 173.432C340.046 173.298 341.519 173.113 342.626 172.979Z" fill="#F7F7F7"/>
<path d="M336.304 96.4375L339.987 95.9845C340.385 95.9373 340.814 96.0633 341.259 96.3863L337.576 96.8393C337.127 96.5163 336.702 96.3902 336.304 96.4375Z" fill="#EA1717"/>
<path d="M334.535 82.1195L338.218 81.6665C339.093 81.5602 340.03 81.8398 341.011 82.5528L337.328 83.0058C336.347 82.2928 335.41 82.0092 334.535 82.1195Z" fill="#F7F7F7"/>
<path d="M332.838 68.3805L336.521 67.9275C337.852 67.7621 339.282 68.1914 340.775 69.2746L337.092 69.7276C335.599 68.6405 334.169 68.2151 332.838 68.3805ZM342.945 119.949L339.262 120.402C340.972 120.189 342.157 116.719 342.063 111.527C341.949 105.135 339.94 98.5527 337.576 96.8392L341.259 96.3863C343.623 98.1036 345.632 104.682 345.746 111.075C345.836 116.266 344.655 119.74 342.945 119.949Z" fill="#EA1717"/>
<path d="M331.03 53.7238L334.713 53.2708C336.533 53.0463 338.482 53.6293 340.523 55.1103L336.84 55.5633C334.8 54.0862 332.85 53.4993 331.03 53.7238Z" fill="#F7F7F7"/>
<path d="M329.478 41.1468L333.161 40.6939C335.398 40.4181 337.797 41.135 340.306 42.9587L336.623 43.4117C334.114 41.588 331.715 40.8711 329.478 41.1468Z" fill="#EA1717"/>
<path d="M344.71 134.271L341.027 134.724C344.785 134.259 347.38 126.633 347.176 115.25C346.923 101.211 342.512 86.7753 337.324 83.0058L341.007 82.5528C346.195 86.3223 350.606 100.758 350.858 114.797C351.063 126.18 348.468 133.806 344.71 134.271Z" fill="#F7F7F7"/>
<path d="M346.407 148.01L342.724 148.463C348.444 147.758 352.394 136.146 352.087 118.814C351.705 97.4419 344.989 75.4667 337.092 69.7276L340.774 69.2747C348.672 75.0137 355.388 96.9929 355.77 118.362C356.077 135.693 352.126 147.305 346.407 148.01Z" fill="#EA1717"/>
<path d="M348.215 162.663L344.532 163.116C352.343 162.151 357.74 146.292 357.318 122.616C356.798 93.4242 347.628 63.4057 336.836 55.5633L340.519 55.1103C351.311 62.9487 360.481 92.9712 361.001 122.163C361.427 145.839 356.03 161.701 348.215 162.663Z" fill="#F7F7F7"/>
<path d="M349.772 175.243L346.089 175.696C355.696 174.511 362.337 155.005 361.817 125.885C361.175 89.9816 349.894 53.0581 336.624 43.4117L340.306 42.9587C353.581 52.6012 364.858 89.5286 365.5 125.432C366.02 154.552 359.379 174.058 349.772 175.243Z" fill="#EA1717"/>
<path d="M336.623 43.4117C349.897 53.0542 361.175 89.9816 361.817 125.885C362.459 161.792 352.217 183.078 338.943 173.436C325.669 163.793 314.388 126.87 313.746 90.9624C313.108 55.0551 323.349 33.7653 336.623 43.4117ZM338.727 161.276C349.519 169.115 357.842 151.811 357.322 122.616C356.802 93.4242 347.633 63.4057 336.84 55.5633C326.047 47.7209 317.724 65.0324 318.244 94.2238C318.764 123.419 327.934 153.438 338.727 161.276Z" fill="#EA1717"/>
<path d="M337.328 83.0058C342.515 86.7753 346.927 101.211 347.179 115.25C347.431 129.288 343.425 137.611 338.238 133.841C333.046 130.072 328.638 115.636 328.386 101.597C328.134 87.5552 332.14 79.2323 337.328 83.0058ZM337.989 120C340.353 121.717 342.177 117.928 342.062 111.531C341.948 105.139 339.939 98.5566 337.576 96.8432C335.213 95.1258 333.385 98.919 333.499 105.312C333.613 111.709 335.622 118.283 337.989 120Z" fill="#F7F7F7"/>
<path d="M357.322 122.62C356.94 101.184 351.89 79.2992 344.966 66.0802C344.82 65.8006 344.67 65.5209 344.521 65.2491C343.776 63.8823 343.008 62.6179 342.224 61.4599C342.067 61.2275 341.909 61.003 341.751 60.7784C340.172 58.5569 338.525 56.7922 336.84 55.5672C334.815 54.098 332.881 53.5111 331.073 53.7238C330.017 53.8459 329.009 54.2398 328.048 54.8897C327.772 55.0749 327.504 55.2797 327.24 55.5082C326.977 55.7327 326.713 55.9808 326.457 56.2487C325.689 57.0483 324.964 58.0251 324.282 59.1713C324.054 59.5534 323.833 59.9552 323.621 60.3727C323.398 60.8039 323.188 61.2412 322.99 61.6844C322.786 62.1413 322.585 62.614 322.392 63.1024C319.78 69.7237 318.232 79.5316 318.22 91.5296C318.22 92.4198 318.228 93.3179 318.244 94.2317C318.449 105.635 319.969 117.164 322.396 127.449L322.691 128.678C323.491 131.935 324.377 135.063 325.346 138.009C326.433 141.325 327.615 144.414 328.879 147.214C329.159 147.836 329.442 148.443 329.73 149.038C332.463 154.674 335.524 158.956 338.73 161.284C339.234 161.65 339.735 161.965 340.231 162.221C340.562 162.395 340.889 162.54 341.212 162.667C341.535 162.793 341.858 162.891 342.173 162.97C342.65 163.088 343.118 163.151 343.583 163.167C343.89 163.175 344.198 163.163 344.497 163.127C352.028 162.249 357.326 147.541 357.346 125.326C357.346 124.431 357.338 123.529 357.322 122.62ZM338.474 147.116C330.573 141.377 323.857 119.397 323.479 98.0288C323.097 76.6562 329.194 63.9887 337.096 69.7277C344.993 75.4667 351.709 97.4459 352.091 118.815C352.469 140.187 346.372 152.855 338.474 147.116Z" fill="#F7F7F7"/>
<path d="M351.304 187.663L347.621 188.116C359.004 186.71 366.87 163.604 366.252 129.103C365.492 86.5705 352.131 42.8248 336.407 31.4019L340.09 30.9489C355.814 42.3718 369.179 86.1175 369.935 128.65C370.553 163.151 362.687 186.261 351.304 187.663Z" fill="#DBDBDB"/>
<path d="M366.256 129.107C365.495 86.5744 352.135 42.8287 336.41 31.4059C320.686 19.9791 308.554 45.2 309.311 87.7364C310.071 130.273 323.432 174.015 339.16 185.437C354.88 196.86 367.012 171.643 366.256 129.107ZM361.462 140.116C361.352 141.641 361.218 143.126 361.064 144.567C360.871 146.381 360.632 148.189 360.347 149.991C360.221 150.791 360.087 151.575 359.945 152.343C359.871 152.756 359.792 153.162 359.713 153.568C359.567 154.3 359.414 155.013 359.256 155.714C359.221 155.876 359.181 156.037 359.146 156.199C359.012 156.774 358.874 157.337 358.728 157.889C358.685 158.062 358.638 158.231 358.59 158.405C358.149 160.039 357.673 161.572 357.153 162.997C357.078 163.202 357.003 163.399 356.928 163.6C356.562 164.573 356.176 165.491 355.77 166.357C355.38 167.188 354.978 167.972 354.561 168.701C354.088 169.524 353.596 170.284 353.088 170.97C352.816 171.336 352.536 171.683 352.249 172.01C352.213 172.053 352.174 172.096 352.139 172.136C351.707 172.626 351.243 173.087 350.748 173.514C350.421 173.794 350.09 174.046 349.752 174.275C349.413 174.503 349.074 174.704 348.723 174.881C348.377 175.058 348.022 175.208 347.668 175.33C347.345 175.444 347.018 175.531 346.687 175.598L346.498 175.633C346.175 175.693 345.848 175.732 345.517 175.748C345.501 175.748 345.486 175.752 345.47 175.752C343.41 175.838 341.22 175.094 338.939 173.439C330.801 167.527 323.416 151.366 318.768 131.47C318.583 130.686 318.406 129.895 318.232 129.099C317.961 127.854 317.697 126.598 317.445 125.329C317.066 123.423 316.716 121.489 316.389 119.535C316.271 118.826 316.156 118.109 316.046 117.396C315.14 111.555 314.475 105.544 314.092 99.498L314.081 99.2853C313.907 96.5123 313.793 93.7354 313.746 90.9624C313.104 55.0591 323.345 33.7692 336.619 43.4156C337.844 44.3058 339.053 45.4324 340.239 46.7637C340.495 47.0513 340.751 47.3506 341.003 47.6579C352.292 61.3417 361.245 94.015 361.813 125.885C361.907 130.931 361.781 135.693 361.462 140.116Z" fill="#F7F7F7"/>
<path d="M341.315 104.981C341.244 104.646 341.169 104.311 341.09 103.988C341.047 103.811 341 103.634 340.956 103.461C340.867 103.117 340.769 102.776 340.665 102.436C340.614 102.271 340.562 102.106 340.511 101.944C340.405 101.621 340.295 101.31 340.18 101.007C339.44 99.0411 338.538 97.5443 337.577 96.8432C337.281 96.6265 336.994 96.5005 336.718 96.4532C335.202 96.1893 334.02 98.3557 333.634 102.011C333.618 102.176 333.598 102.346 333.587 102.519C333.559 102.862 333.535 103.22 333.52 103.587C333.496 104.138 333.492 104.713 333.5 105.316C333.551 108.116 333.961 110.948 334.611 113.395C334.701 113.745 334.8 114.084 334.902 114.419C335.107 115.084 335.328 115.711 335.56 116.294C335.796 116.877 336.044 117.412 336.308 117.889C336.375 118.007 336.438 118.125 336.505 118.239C336.773 118.688 337.049 119.082 337.336 119.405C337.549 119.65 337.77 119.85 337.99 120.012C338.877 120.654 339.688 120.524 340.35 119.772C340.46 119.646 340.566 119.504 340.669 119.346C340.921 118.948 341.149 118.448 341.342 117.853C341.421 117.617 341.492 117.365 341.555 117.097C341.653 116.699 341.74 116.266 341.811 115.805C341.98 114.73 342.071 113.497 342.071 112.134C342.071 111.941 342.071 111.74 342.067 111.543C342.024 109.298 341.752 107.045 341.315 104.981Z" fill="#EA1717"/>
<path d="M327.942 28.7235L331.625 28.2705C334.276 27.9435 337.12 28.7944 340.09 30.9529L336.407 31.4059C333.437 29.2473 330.593 28.3965 327.942 28.7235Z" fill="#DBDBDB"/>
<path d="M337.092 69.7276C344.989 75.4666 351.705 97.4458 352.087 118.814C352.469 140.187 346.372 152.855 338.474 147.116C330.573 141.377 323.857 119.397 323.479 98.0288C323.093 76.6562 329.19 63.9886 337.092 69.7276ZM338.238 133.841C343.425 137.611 347.431 129.288 347.179 115.25C346.927 101.211 342.515 86.7753 337.328 83.0057C332.136 79.2362 328.134 87.5552 328.383 101.597C328.635 115.632 333.046 130.068 338.238 133.841Z" fill="#EA1717"/>
<path d="M209.061 47.4058C198.604 37.5152 185.916 34.7383 170.22 35.4748C167.648 35.5969 164.772 36.0263 163.295 37.8027C161.814 39.5792 163.413 42.8249 165.922 42.3246C148.197 33.9387 127.065 30.7875 107 33.533C104.782 33.8362 102.368 34.3168 101.044 35.849C99.7208 37.3773 100.599 40.174 102.844 40.1976C86.3561 33.3557 56.629 46.555 59.6068 47.6973L209.061 47.4058Z" fill="#FFDCDC"/>
</svg>
