<svg width="315" height="427" viewBox="0 0 315 427" fill="none" xmlns="http://www.w3.org/2000/svg">
<path d="M301.991 215.857C268.736 294.846 161.58 370.14 82.5998 336.881C3.61906 303.622 -17.6272 174.745 15.6278 95.2944C48.8828 16.3053 139.872 -21.1106 219.315 12.148C298.757 45.4066 335.246 136.406 301.991 215.857Z" fill="#EA1717"/>
<path d="M59.639 403.594C44.8386 397.591 35.5883 381.429 31.8882 356.031C29.1131 338.022 54.0889 297.386 80.4522 254.441C87.3899 243.358 93.8649 232.275 99.8776 222.116C103.115 186.098 114.215 166.241 121.153 162.085C123.928 160.238 126.241 160.7 128.091 162.547C131.328 166.241 129.941 176.4 123.928 190.254C120.228 199.489 113.753 211.034 106.353 223.502C106.353 226.272 105.89 229.043 105.89 231.813C104.965 257.673 115.14 256.288 118.841 255.826C127.166 254.44 138.266 246.129 148.904 235.508C159.079 205.954 170.18 186.098 175.73 181.48C178.505 179.171 180.817 179.633 181.742 180.095C184.98 181.942 184.518 186.56 184.518 188.407C184.055 201.336 170.18 223.04 153.992 240.125C141.966 274.759 130.404 324.169 129.941 380.967V383.276L128.091 384.661C126.703 386.047 88.7773 415.138 60.1014 403.594H59.639ZM99.4152 235.97C95.2525 243.358 90.6273 250.746 86.0021 258.135C62.8764 296 36.9758 338.945 38.8259 353.261C42.0635 376.349 50.3884 390.664 63.3388 395.744C85.5395 404.518 115.603 384.661 123.466 379.12C124.391 329.248 133.641 283.994 144.741 248.899C135.953 256.749 126.703 261.829 119.303 263.214C111.44 264.6 99.4152 262.291 99.4152 235.97ZM123.003 169.012C120.228 171.321 112.828 182.865 109.128 205.954C112.828 199.027 116.066 192.563 118.378 187.483C122.541 176.862 123.466 171.321 123.003 169.012ZM178.043 188.868C174.805 193.024 168.33 204.107 161.855 220.731C171.105 209.187 178.043 196.719 178.043 188.868Z" fill="white"/>
<path d="M46.4599 421.66C17.8331 409.581 3.05789 377.523 12.2923 347.789L30.7612 290.643L43.2281 302.258C68.161 326.417 101.405 339.891 136.034 340.82L150.347 341.284L122.644 394.249C108.331 422.125 75.0866 433.74 46.4599 421.66Z" fill="#700B0B"/>
</svg>
