<svg width="42" height="36" viewBox="0 0 42 36" fill="none" xmlns="http://www.w3.org/2000/svg">
<path d="M1.99521 20.7317C2.96357 21.1998 3.33901 22.5104 2.76739 23.4195C1.38521 25.5254 3.19195 28.5883 5.70316 28.3853C6.78404 28.3783 7.69049 29.2685 7.64405 30.3908C7.57964 32.8918 10.5374 34.561 12.6708 33.166C13.5619 32.6019 14.8352 32.9441 15.3254 33.8765C16.4557 36.0963 19.9282 36.1057 21.0595 33.8764C21.5288 32.9087 22.8381 32.5322 23.7479 33.1046C24.2701 33.4194 24.8355 33.5791 25.4289 33.5791C26.8206 33.5791 28.1006 32.6609 28.5414 31.3471C28.6613 30.9883 28.4685 30.6007 28.11 30.4804C27.7521 30.3621 27.3639 30.5539 27.2436 30.9114C26.8797 31.9973 25.4951 32.56 24.4526 31.9312C22.9026 30.9575 20.683 31.5781 19.8626 33.2136C19.2034 34.5078 17.1803 34.5075 16.5226 33.2135C15.6502 31.5884 13.4965 31.0213 11.9119 32.0274C10.6818 32.8094 8.95815 31.837 9.01269 30.3554C9.0862 28.5197 7.44298 26.9291 5.61319 27.0168C4.16117 27.0735 3.1366 25.3551 3.94094 24.1238C4.89956 22.5973 4.31429 20.4102 2.72023 19.5683C1.37551 18.9426 1.33604 16.8667 2.6582 16.1945C4.28355 15.3229 4.85141 13.1674 3.84462 11.5835C3.48509 10.9824 3.47574 10.261 3.82023 9.65321C4.16439 9.04676 4.78521 8.68456 5.51662 8.68456C7.34415 8.73188 8.92815 7.16697 8.8516 5.29574C8.84124 4.76685 9.03537 4.27902 9.39457 3.91515C10.0034 3.29834 10.9784 3.14831 11.7475 3.61276C13.297 4.58726 15.5173 3.96486 16.3378 2.33032C16.9955 1.03581 19.0206 1.03685 19.6775 2.33007C20.5493 3.95571 22.7034 4.52264 24.2885 3.51649C25.5186 2.73466 27.2424 3.7074 27.1874 5.18857C27.1308 7.02011 28.7082 8.60211 30.5762 8.52346C32.0426 8.42593 33.0564 10.2038 32.2599 11.4184C31.6782 12.3877 31.6364 13.5666 32.148 14.572C32.5569 15.3651 33.7677 14.7611 33.3676 13.9511C32.6523 12.7116 34.0071 11.6861 33.9076 10.4431C33.9092 8.63105 32.3889 7.08251 30.5051 7.15523C29.4319 7.20147 28.5068 6.26276 28.5561 5.15344C28.6194 2.65121 25.6644 0.985138 23.5291 2.37755C22.638 2.94274 21.3654 2.59975 20.875 1.6674C19.7296 -0.580398 16.2066 -0.550952 15.1069 1.728C14.6187 2.65609 13.3378 2.99532 12.4526 2.43958C11.1621 1.66042 9.4624 1.89799 8.42058 2.95352C7.8021 3.58035 7.46797 4.41602 7.48334 5.36696C7.49402 5.8979 7.29322 6.38974 6.92166 6.75963C6.56046 7.11949 6.08466 7.31629 5.52231 7.31629C3.00279 7.22194 1.30326 10.1929 2.70566 12.343C2.97623 12.7911 3.05073 13.316 2.91575 13.8209C2.78076 14.3257 2.45398 14.7434 1.99554 14.997C-0.224727 16.1273 -0.233123 19.6011 1.99521 20.7317Z" fill="#D80808"/>
<path d="M30.0934 18.0316C30.4713 18.0179 30.7664 17.7005 30.7527 17.3229C29.6175 1.28621 6.70834 1.73971 6.12477 17.7721C6.10531 24.7659 12.0369 30.4231 19.0213 30.0754C19.3989 30.0621 19.6942 29.7447 19.6805 29.3671C19.6672 28.9895 19.3447 28.6855 18.9718 28.7082C12.7588 29.0244 7.47563 23.9952 7.49343 17.772C8.01325 3.51988 28.3768 3.11921 29.3848 17.3725C29.3984 17.75 29.7219 18.0534 30.0934 18.0316Z" fill="#D80808"/>
<path d="M26.609 17.7255C27.9423 16.8786 27.2964 14.6881 25.7025 14.7337C25.7025 14.7337 21.5693 14.7337 21.5693 14.7337C21.4591 14.7337 21.3615 14.6658 21.3237 14.5569L19.9775 10.813C19.5207 9.38024 17.3677 9.37519 16.9088 10.807C16.9088 10.8069 15.5576 14.5649 15.5576 14.5649C15.5228 14.6658 15.4253 14.7337 15.315 14.7337H11.1818C9.59116 14.6899 8.9371 16.8777 10.2784 17.7275C10.2783 17.7275 13.4669 19.8282 13.4669 19.8282C13.5655 19.893 13.6076 20.024 13.5688 20.1349L12.3165 23.632C11.9054 24.6593 12.7652 25.8466 13.8479 25.8232C14.1576 25.8232 14.4687 25.7323 14.747 25.5492L18.3052 23.2049C18.388 23.1475 18.496 23.1481 18.5858 23.2089L21.0905 24.8576C21.8381 25.345 22.5902 24.2121 21.8429 23.7148C21.843 23.7148 19.345 22.0702 19.345 22.0702C18.7967 21.6993 18.088 21.7007 17.5457 22.0662L13.9945 24.4058C13.8585 24.4967 13.7446 24.4372 13.6898 24.3938C13.6337 24.3497 13.5485 24.2521 13.6053 24.0931L14.8589 20.5914C15.1075 19.881 14.8449 19.0978 14.2201 18.6855L11.0345 16.5868C10.8014 16.4216 10.9219 16.1035 11.1818 16.1023H15.315C16.0087 16.1023 16.6258 15.6642 16.8484 15.02L18.1986 11.264C18.251 11.114 18.3737 11.0916 18.4422 11.0916C18.5107 11.0916 18.6333 11.114 18.6878 11.2701L20.033 15.012C20.2585 15.6642 20.8757 16.1023 21.5693 16.1023H25.7025C25.8666 16.1023 25.9318 16.2035 25.9575 16.2887C25.9785 16.3589 25.9929 16.4912 25.8529 16.5848L22.6643 18.6855C22.0394 19.0978 21.7768 19.881 22.0278 20.598L22.404 21.6378C22.5326 21.9934 22.9252 22.1778 23.2804 22.0488C23.6356 21.9199 23.8197 21.5276 23.6911 21.1727L23.3172 20.1396C23.2767 20.024 23.3188 19.893 23.4174 19.8282L26.609 17.7255Z" fill="#D80808"/>
<path d="M37.7501 15.4458C37.1827 14.4145 35.7655 14.0344 34.7586 14.6442L33.8103 15.1915C33.046 15.6191 32.607 16.5295 32.7371 17.3914L23.7088 22.6036C23.5701 22.6838 23.4639 22.8101 23.4087 22.9604L22.3851 25.7436C22.3649 25.7504 21.1798 26.4347 21.1798 26.4347C18.8708 27.8604 20.8427 31.277 23.2327 29.9905C23.2327 29.9906 24.4178 29.3063 24.4178 29.3063C24.4341 29.2919 27.3559 29.7974 27.3559 29.7974C27.5129 29.8247 27.6758 29.7958 27.8146 29.7159L34.9261 25.6101L35.6103 26.7949L32.6475 28.5057C31.8749 28.97 32.5483 30.1278 33.3319 29.6911C33.3318 29.6912 36.8873 27.6383 36.8873 27.6383C37.2148 27.4491 37.3267 27.0308 37.1379 26.7034L36.1115 24.9257L36.8433 24.5032C37.5252 25.0465 38.5282 25.1224 39.2847 24.6738L40.2333 24.1259C41.2782 23.5218 41.6377 22.1799 41.0346 21.1347L37.7501 15.4458ZM22.548 28.8051C21.7722 29.2496 21.0903 28.0704 21.8637 27.6202C21.8641 27.6202 22.4565 27.2781 22.4565 27.2781L23.1408 28.4629L22.548 28.8051ZM27.3448 28.4068L24.3941 27.8962L23.5738 26.4755L24.6076 23.6648L33.2823 18.6568C33.5221 19.072 35.7205 22.88 36.0196 23.3981L27.3448 28.4068ZM39.5487 22.941L38.6004 23.4884C38.2223 23.7152 37.6916 23.5757 37.4791 23.1876L34.1942 17.4987C33.9653 17.1211 34.1079 16.5897 34.4946 16.377C34.4946 16.3767 35.4429 15.8294 35.4429 15.8294C35.8283 15.6047 36.3371 15.7344 36.5646 16.1301L39.8491 21.819C40.0753 22.2113 39.9406 22.7145 39.5487 22.941Z" fill="#D80808"/>
</svg>
