<svg width="444" height="444" viewBox="0 0 444 444" fill="none" xmlns="http://www.w3.org/2000/svg">
<path d="M97.902 215.083H145.428V227.657H97.902V215.083Z" fill="#FCBBBB"/>
<path d="M118.006 240.897C118.015 240.888 118.015 240.817 118.024 240.666C118.024 240.497 118.033 240.284 118.041 240.018C118.05 239.423 118.059 238.597 118.077 237.54C118.095 235.373 118.121 232.248 118.157 228.314L118.006 228.465C128.857 228.482 146.111 228.518 165.532 228.562C165.425 228.456 165.771 228.802 165.292 228.323V228.331V228.34V228.367V228.42V228.518V228.722V229.131V229.939C165.292 230.472 165.292 231.013 165.292 231.546C165.292 232.612 165.292 233.668 165.292 234.716C165.292 236.812 165.292 238.881 165.292 240.897L165.532 240.657C151.999 240.701 140.153 240.737 131.663 240.763C127.436 240.79 124.035 240.817 121.664 240.834C120.51 240.843 119.604 240.861 118.965 240.87C118.672 240.879 118.441 240.879 118.255 240.888C118.095 240.888 118.006 240.888 118.006 240.897C117.997 240.906 118.077 240.906 118.228 240.914C118.405 240.914 118.627 240.923 118.903 240.932C119.533 240.941 120.421 240.95 121.558 240.968C123.92 240.985 127.294 241.003 131.503 241.039C140.037 241.065 151.936 241.101 165.541 241.145H165.78V240.906C165.78 238.881 165.78 236.821 165.78 234.725C165.78 233.677 165.78 232.621 165.78 231.555C165.78 231.022 165.78 230.489 165.78 229.948V229.14V228.731V228.527V228.429V228.376V228.349V228.34V228.331C165.292 227.843 165.647 228.198 165.532 228.092C146.12 228.127 128.857 228.163 118.006 228.189H117.855V228.34C117.89 232.31 117.917 235.462 117.935 237.655C117.953 238.703 117.961 239.511 117.97 240.097C117.979 240.355 117.979 240.559 117.988 240.719C117.988 240.834 117.997 240.897 118.006 240.897Z" fill="#C78F8F"/>
<path d="M333.515 83.623H381.041V96.1971H333.515V83.623Z" fill="#E1A2A2"/>
<path d="M353.61 109.437C353.619 109.428 353.619 109.357 353.628 109.206C353.628 109.038 353.637 108.824 353.646 108.558C353.655 107.963 353.664 107.137 353.681 106.08C353.699 103.914 353.726 100.788 353.761 96.8542L353.61 97.0051C364.462 97.0229 381.716 97.0584 401.136 97.1028C401.03 96.9962 401.385 97.3426 400.896 96.8631V96.8719V96.8808V96.9074V96.9607V97.0584V97.2626V97.6623V98.4703C400.896 99.0031 400.896 99.5448 400.896 100.078C400.896 101.143 400.896 102.2 400.896 103.248C400.896 105.343 400.896 107.412 400.896 109.428L401.136 109.188C387.603 109.233 375.757 109.268 367.268 109.295C363.041 109.322 359.64 109.348 357.269 109.366C356.115 109.375 355.209 109.393 354.569 109.393C354.276 109.402 354.045 109.402 353.859 109.41C353.699 109.428 353.619 109.428 353.61 109.437C353.601 109.446 353.681 109.446 353.832 109.455C354.01 109.455 354.232 109.464 354.507 109.473C355.138 109.482 356.026 109.49 357.162 109.508C359.524 109.526 362.899 109.544 367.108 109.579C375.642 109.606 387.541 109.641 401.145 109.686H401.385V109.446C401.385 107.421 401.385 105.361 401.385 103.266C401.385 102.218 401.385 101.161 401.385 100.095C401.385 99.5626 401.385 99.0298 401.385 98.4881V97.68V97.2804V97.0762V96.9785V96.9252V96.8986V96.8897V96.8808C400.896 96.3924 401.252 96.7476 401.136 96.6411C381.724 96.6766 364.462 96.7121 353.61 96.7387H353.459V96.8897C353.495 100.859 353.522 104.011 353.539 106.205C353.557 107.253 353.566 108.061 353.575 108.647C353.584 108.904 353.584 109.109 353.593 109.268C353.601 109.375 353.601 109.437 353.61 109.437Z" fill="#C78F8F"/>
<path d="M64.7975 121.692H112.323V134.266H64.7975V121.692Z" fill="#FDB2B2"/>
<path d="M50.7227 121.692C50.7315 121.683 50.7316 121.612 50.7404 121.461C50.7404 121.292 50.7493 121.079 50.7582 120.812C50.7671 120.217 50.776 119.392 50.7937 118.335C50.8115 116.168 50.8381 113.042 50.8736 109.109L50.7227 109.26C61.574 109.277 78.8279 109.313 98.2484 109.357C98.1419 109.251 98.4882 109.597 98.0087 109.117V109.126V109.135V109.162V109.215V109.313V109.517V109.926V110.734C98.0087 111.266 98.0087 111.808 98.0087 112.341C98.0087 113.406 98.0087 114.463 98.0087 115.511C98.0087 117.607 98.0087 119.676 98.0087 121.692L98.2484 121.452C84.7153 121.496 72.8694 121.532 64.3801 121.558C60.1532 121.585 56.7522 121.612 54.3812 121.629C53.2268 121.638 52.3211 121.656 51.6817 121.656C51.3887 121.665 51.1578 121.665 50.9713 121.674C50.8115 121.683 50.7227 121.692 50.7227 121.692C50.7138 121.7 50.7937 121.7 50.9447 121.709C51.1223 121.709 51.3443 121.718 51.6195 121.727C52.25 121.736 53.138 121.745 54.2747 121.763C56.6367 121.78 60.0111 121.798 64.2203 121.834C72.7539 121.86 84.6531 121.896 98.2573 121.94H98.4971V121.7C98.4971 119.676 98.4971 117.616 98.4971 115.52C98.4971 114.472 98.4971 113.415 98.4971 112.35C98.4971 111.817 98.4971 111.284 98.4971 110.742V109.934V109.526V109.322V109.224V109.171V109.144V109.135V109.126C98.0087 108.638 98.3639 108.993 98.2484 108.887C78.8368 108.922 61.574 108.958 50.7227 108.984H50.5717V109.135C50.6072 113.105 50.6339 116.257 50.6516 118.45C50.6694 119.498 50.6782 120.306 50.6871 120.892C50.696 121.15 50.696 121.354 50.7049 121.514C50.7138 121.629 50.7138 121.7 50.7227 121.692Z" fill="#C78F8F"/>
<path d="M141.325 62.8615C141.334 62.8526 141.334 62.7816 141.343 62.6306C141.343 62.4619 141.352 62.2488 141.361 61.9824C141.37 61.3874 141.378 60.5616 141.396 59.5049C141.414 57.3382 141.441 54.2124 141.476 50.2786L141.325 50.4295C152.177 50.4473 169.43 50.4828 188.851 50.5272C188.744 50.4206 189.091 50.767 188.611 50.2874V50.2963V50.3052V50.3318V50.3851V50.4828V50.687V51.0955V51.9036C188.611 52.4364 188.611 52.9781 188.611 53.5109C188.611 54.5765 188.611 55.6332 188.611 56.681C188.611 58.7767 188.611 60.8458 188.611 62.8615L188.851 62.6218C175.318 62.6662 163.472 62.7017 154.983 62.7283C150.756 62.755 147.355 62.7816 144.984 62.7994C143.829 62.8082 142.924 62.826 142.284 62.8349C141.991 62.8438 141.76 62.8438 141.574 62.8526C141.414 62.8526 141.334 62.8615 141.325 62.8615C141.316 62.8704 141.396 62.8704 141.547 62.8793C141.725 62.8793 141.947 62.8882 142.222 62.897C142.853 62.9059 143.741 62.9148 144.877 62.9237C147.239 62.9414 150.614 62.9592 154.823 62.9947C163.356 63.0214 175.256 63.0569 188.86 63.1013H189.1V62.8615C189.1 60.8369 189.1 58.7767 189.1 56.681C189.1 55.6332 189.1 54.5765 189.1 53.5109C189.1 52.9781 189.1 52.4453 189.1 51.9036V51.0955V50.687V50.4828V50.3851V50.3318V50.3052V50.2963V50.2874C188.611 49.799 188.966 50.1542 188.851 50.0477C169.439 50.0832 152.177 50.1187 141.325 50.1454H141.174V50.2963C141.21 54.2657 141.236 57.4181 141.254 59.6114C141.272 60.6593 141.281 61.4674 141.29 62.0534C141.299 62.311 141.299 62.5152 141.307 62.675C141.316 62.7994 141.325 62.8704 141.325 62.8615Z" fill="#C78F8F"/>
<path d="M134.887 50.2875C134.896 50.2786 134.896 50.1987 134.905 50.0477C134.913 49.8701 134.913 49.6481 134.922 49.3817C134.931 48.7601 134.949 47.9254 134.967 46.8598C134.993 44.6575 135.02 41.5407 135.064 37.7134L134.887 37.891C142.284 37.9087 152.345 37.9354 163.436 37.962C163.649 38.1751 163.143 37.669 163.196 37.7223V37.7311V37.74V37.7666V37.8199V37.9265V38.1307V38.5392V39.3651C163.196 39.9156 163.196 40.4573 163.196 40.999C163.196 42.0823 163.196 43.1479 163.196 44.1958C163.196 46.3003 163.205 48.3427 163.205 50.2963L163.436 50.0655C155.195 50.1099 148.091 50.1454 143.012 50.172C140.499 50.1987 138.492 50.2164 137.062 50.2342C136.396 50.2431 135.864 50.2519 135.455 50.2608C135.091 50.2697 134.896 50.2786 134.887 50.2875C134.878 50.2963 135.056 50.3052 135.402 50.3141C135.793 50.323 136.308 50.3319 136.956 50.3407C138.377 50.3585 140.366 50.3763 142.852 50.4029C147.976 50.4295 155.124 50.4651 163.436 50.5095H163.667V50.2786C163.667 48.325 163.676 46.2826 163.676 44.178C163.676 43.1302 163.676 42.0557 163.676 40.9812C163.676 40.4395 163.676 39.8979 163.676 39.3473V38.5215V38.113V37.9176V37.8111V37.7578V37.74V37.7311V37.7223C163.729 37.7755 163.214 37.2605 163.427 37.4825C152.336 37.5091 142.275 37.5358 134.878 37.5535H134.7V37.7311C134.736 41.6028 134.771 44.7552 134.798 46.9841C134.816 48.0319 134.834 48.8578 134.842 49.4616C134.86 50.0122 134.869 50.3052 134.887 50.2875Z" fill="#C78F8F"/>
<path d="M350.894 232.931C350.902 232.922 350.902 232.851 350.911 232.7C350.911 232.532 350.92 232.319 350.929 232.052C350.938 231.457 350.947 230.631 350.965 229.575C350.982 227.408 351.009 224.282 351.045 220.348L350.894 220.499C361.745 220.517 378.999 220.553 398.419 220.597C398.313 220.49 398.668 220.837 398.18 220.357V220.366V220.375V220.402V220.455V220.553V220.757V221.165V221.973C398.18 222.506 398.18 223.048 398.18 223.581C398.18 224.646 398.18 225.703 398.18 226.751C398.18 228.846 398.18 230.916 398.18 232.931L398.419 232.692C384.886 232.736 373.04 232.771 364.551 232.798C360.324 232.825 356.923 232.851 354.552 232.869C353.398 232.878 352.492 232.896 351.853 232.905C351.56 232.914 351.329 232.914 351.142 232.922C350.982 232.922 350.894 232.931 350.894 232.931C350.885 232.94 350.965 232.94 351.116 232.949C351.293 232.949 351.515 232.958 351.79 232.967C352.421 232.976 353.309 232.985 354.446 233.002C356.808 233.02 360.182 233.038 364.391 233.073C372.925 233.1 384.824 233.136 398.428 233.18H398.668V232.94C398.668 230.916 398.668 228.855 398.668 226.76C398.668 225.712 398.668 224.655 398.668 223.59C398.668 223.057 398.668 222.524 398.668 221.982V221.174V220.766V220.561V220.464V220.41V220.384V220.375V220.366C398.18 219.878 398.535 220.233 398.419 220.126C379.008 220.162 361.745 220.197 350.894 220.224H350.743V220.375C350.778 224.344 350.805 227.497 350.823 229.69C350.84 230.738 350.849 231.546 350.858 232.132C350.867 232.39 350.867 232.594 350.876 232.754C350.885 232.869 350.885 232.94 350.894 232.931Z" fill="#D29797"/>
<path d="M344.446 220.357C344.455 220.348 344.455 220.268 344.464 220.117C344.473 219.94 344.473 219.718 344.482 219.451C344.491 218.83 344.509 217.995 344.526 216.93C344.553 214.727 344.58 211.61 344.624 207.783L344.446 207.961C351.843 207.978 361.904 208.005 372.996 208.032C373.209 208.245 372.703 207.739 372.756 207.792V207.801V207.81V207.836V207.89V207.996V208.201V208.609V209.435C372.756 209.985 372.756 210.527 372.756 211.069C372.756 212.152 372.756 213.218 372.756 214.266C372.756 216.37 372.765 218.404 372.765 220.366L372.996 220.135C364.755 220.18 357.651 220.215 352.572 220.242C350.059 220.268 348.052 220.286 346.622 220.304C345.956 220.313 345.423 220.322 345.015 220.331C344.651 220.339 344.455 220.348 344.446 220.357C344.438 220.366 344.615 220.375 344.961 220.384C345.352 220.393 345.867 220.402 346.515 220.411C347.936 220.428 349.925 220.446 352.412 220.473C357.536 220.499 364.684 220.535 372.996 220.579H373.226V220.348C373.226 218.395 373.235 216.352 373.235 214.248C373.235 213.2 373.235 212.125 373.235 211.051C373.235 210.509 373.235 209.968 373.235 209.417V208.591V208.183V207.979V207.872V207.819V207.792C373.289 207.845 372.774 207.33 372.996 207.552C361.904 207.579 351.843 207.606 344.446 207.623H344.269V207.801C344.304 211.673 344.34 214.825 344.366 217.054C344.384 218.102 344.402 218.928 344.411 219.531C344.42 220.082 344.438 220.375 344.446 220.357Z" fill="#D29797"/>
<path d="M53.4838 195.111C53.4838 195.111 59.7176 193.646 61.4137 207.881C63.1097 222.115 62.8789 229.885 62.8789 229.885C62.8789 229.885 63.5715 232.993 65.8981 231.981C68.2246 230.978 72.3005 227.186 74.929 229.104C77.6463 231.093 77.4065 234.858 74.9823 239.627C72.5669 244.404 67.6563 255.051 67.2212 256.019C66.7861 256.969 66.8216 258.603 68.5177 258.177C70.2137 257.742 81.1983 251.934 83.6492 257.316C86.0912 262.697 77.1757 274.889 76.2255 276.239C75.2753 277.589 75.3375 278.335 75.9058 278.974C76.483 279.605 79.9906 277.305 83.1786 275.786C86.3754 274.259 90.3358 273.051 91.4902 276.275C92.6446 279.498 89.5366 289.968 73.6858 302.994L65.9513 308.553L57.169 304.753C38.8673 295.482 33.566 285.936 33.9833 282.544C34.4096 279.152 38.5388 279.462 41.9931 280.262C45.4386 281.052 49.3635 282.535 49.7898 281.798C50.216 281.052 50.1094 280.315 48.884 279.196C47.6674 278.086 36.3099 268.114 37.5265 262.342C38.743 256.561 50.731 259.847 52.4804 259.9C54.2298 259.953 53.9012 258.346 53.2707 257.511C52.6313 256.668 45.5273 247.335 42.1263 243.197C38.7341 239.058 37.6685 235.444 39.8974 232.914C42.0375 230.472 46.8416 233.278 49.3369 233.757C51.8321 234.237 51.8321 231.049 51.8321 231.049C51.8321 231.049 49.923 223.518 48.4844 209.257C47.0458 194.996 53.6081 195.102 53.6081 195.102" fill="#FCB1B1"/>
<path d="M66.7861 310.676C65.685 300.206 63.4295 281.629 61.5647 265.663C59.7088 249.706 58.0393 235.258 56.8849 224.797C56.3166 219.576 55.8549 215.34 55.5352 212.401C55.3753 210.944 55.251 209.817 55.1622 209.026C55.1178 208.653 55.0823 208.36 55.0557 208.147C55.029 207.952 55.0113 207.854 55.0113 207.854C55.0113 207.854 55.0113 207.961 55.029 208.156C55.0468 208.369 55.0734 208.662 55.1 209.035C55.1711 209.817 55.2777 210.953 55.4109 212.41C55.6861 215.34 56.1124 219.576 56.6629 224.815C57.7641 235.284 59.398 249.741 61.2539 265.698C63.1098 281.656 65.4098 300.233 66.5553 310.702" fill="#EA1717"/>
<path d="M69.4408 234.636C69.423 234.627 69.2632 234.814 68.9879 235.16C68.7126 235.507 68.3308 236.022 67.8602 236.661C66.9278 237.94 65.6846 239.742 64.3526 241.758C63.0472 243.747 61.8661 245.541 60.9604 246.917C60.5519 247.539 60.2056 248.054 59.9214 248.471C59.6728 248.835 59.5485 249.049 59.5662 249.057C59.584 249.066 59.7438 248.88 60.0191 248.533C60.2944 248.187 60.6762 247.672 61.138 247.024C62.0526 245.736 63.2692 243.916 64.6101 241.909C65.9332 239.929 67.1231 238.144 68.0378 236.776C68.4551 236.164 68.8014 235.64 69.0856 235.222C69.3253 234.858 69.4586 234.645 69.4408 234.636Z" fill="#EA1717"/>
<path d="M58.6871 248.915C58.7315 248.853 55.1351 246.127 50.6507 242.841C46.1574 239.547 42.4811 236.936 42.4367 236.998C42.3923 237.061 45.9887 239.787 50.4731 243.081C54.9664 246.367 58.6427 248.977 58.6871 248.915Z" fill="#EA1717"/>
<path d="M62.6482 273.291C62.6571 273.273 62.4262 273.175 62 273.016C61.5204 272.838 60.9166 272.625 60.2062 272.358C58.6877 271.808 56.6009 271.026 54.3276 270.094C52.0544 269.162 50.0208 268.247 48.5556 267.563C47.863 267.244 47.2858 266.977 46.8152 266.764C46.4067 266.578 46.1758 266.48 46.1669 266.498C46.158 266.515 46.3712 266.649 46.7708 266.862C47.1704 267.084 47.7476 267.386 48.4668 267.75C49.9143 268.478 51.9389 269.428 54.2211 270.36C56.5032 271.302 58.6078 272.048 60.1441 272.554C60.9166 272.802 61.5382 272.998 61.9733 273.122C62.3996 273.255 62.6393 273.309 62.6482 273.291Z" fill="#EA1717"/>
<path d="M75.2136 262.511C75.2047 262.493 75.0093 262.626 74.6808 262.884C74.3078 263.185 73.8372 263.55 73.2955 263.985C72.1322 264.917 70.5427 266.231 68.7933 267.688C67.044 269.144 65.4722 270.485 64.3444 271.462C63.8205 271.923 63.3765 272.314 63.0213 272.634C62.7105 272.918 62.5507 273.078 62.5596 273.096C62.5685 273.113 62.7638 272.98 63.0923 272.723C63.4653 272.421 63.9359 272.057 64.4776 271.621C65.6409 270.689 67.2304 269.375 68.9798 267.918C70.7292 266.462 72.3009 265.121 73.4287 264.144C73.9526 263.683 74.3966 263.292 74.7518 262.972C75.0626 262.697 75.2313 262.528 75.2136 262.511Z" fill="#EA1717"/>
<path d="M81.447 283.592C81.4381 283.574 81.1895 283.752 80.7721 284.071C80.3104 284.435 79.7065 284.906 78.9872 285.474C77.4954 286.664 75.4352 288.325 73.1797 290.181C70.9242 292.028 68.8907 293.715 67.4255 294.949C66.7328 295.544 66.1556 296.041 65.7028 296.423C65.3032 296.778 65.0812 296.983 65.0989 296.992C65.1078 297.009 65.3564 296.832 65.7738 296.512C66.2356 296.148 66.8394 295.677 67.5587 295.109C69.0505 293.919 71.1107 292.259 73.3662 290.403C75.6217 288.556 77.6552 286.868 79.1204 285.634C79.8131 285.039 80.3903 284.542 80.8432 284.16C81.2428 283.814 81.4559 283.609 81.447 283.592Z" fill="#EA1717"/>
<path d="M65.4012 296.556C65.4101 296.539 65.117 296.406 64.5842 296.192C64.007 295.962 63.2522 295.651 62.3376 295.278C60.4373 294.505 57.8265 293.431 54.9761 292.161C52.1167 290.9 49.5681 289.683 47.7211 288.795C46.8331 288.369 46.0961 288.014 45.5366 287.739C45.0216 287.49 44.7285 287.366 44.7196 287.383C44.7108 287.401 44.9861 287.561 45.4833 287.845C45.9806 288.12 46.7177 288.511 47.6234 288.982C49.4438 289.923 51.9924 291.166 54.8517 292.436C57.7111 293.706 60.3396 294.754 62.2576 295.473C63.2167 295.828 63.9981 296.113 64.5398 296.299C65.0904 296.485 65.3923 296.574 65.4012 296.556Z" fill="#EA1717"/>
<path d="M146.102 296.779C143.58 296.175 140.854 296.885 138.687 298.306C136.521 299.727 134.851 301.813 133.537 304.051C130.988 308.376 130.234 314.112 130.278 319.129C135.837 318.721 140.454 314.192 142.657 311.741C146.129 307.879 150.054 298.777 146.102 296.779Z" fill="#E89D9D"/>
<path d="M121.424 322.779C123.653 320.932 124.577 317.753 124.008 314.911C123.44 312.07 121.504 309.601 119.062 308.038C117.934 307.319 116.54 306.76 115.27 307.177C114.08 307.568 113.281 308.766 113.077 310.001C112.873 311.235 113.175 312.505 113.627 313.677C115.164 317.7 117.393 321.296 121.424 322.779Z" fill="#E89D9D"/>
<path d="M118.468 334.998C118.53 335.025 119.143 333.924 119.978 332.041C120.395 331.1 120.768 329.901 121.008 328.56C121.239 327.228 121.523 325.763 121.594 324.173C121.762 321.012 121.07 318.135 120.155 316.279C119.702 315.347 119.223 314.654 118.868 314.192C118.495 313.748 118.273 313.526 118.246 313.544C118.166 313.606 118.992 314.574 119.791 316.439C120.59 318.286 121.194 321.065 121.034 324.147C120.972 325.674 120.697 327.139 120.501 328.471C120.288 329.794 119.978 330.949 119.613 331.899C118.876 333.79 118.388 334.963 118.468 334.998Z" fill="#C78F8F"/>
<path d="M142.505 303.438C142.479 303.412 142.07 303.856 141.369 304.673C140.667 305.49 139.664 306.689 138.438 308.18C135.987 311.164 132.649 315.32 129.07 320.009C125.491 324.697 122.374 329.031 120.19 332.21C119.098 333.799 118.227 335.096 117.641 336.01C117.055 336.916 116.745 337.431 116.78 337.449C116.816 337.467 117.18 337.005 117.819 336.135C118.512 335.184 119.417 333.941 120.51 332.441C122.783 329.324 125.944 325.035 129.514 320.355C133.084 315.737 136.325 311.564 138.74 308.438C139.868 306.973 140.809 305.756 141.529 304.815C142.186 303.954 142.532 303.465 142.505 303.438Z" fill="#C78F8F"/>
<path d="M125.341 328.125C130.278 324.52 137.009 323.516 142.781 325.523C144.255 326.038 145.862 327.015 145.942 328.569C146.022 330.123 144.521 331.277 143.092 331.908C137.16 334.536 129.665 333.107 125.119 328.48" fill="#E89D9D"/>
<path d="M138.945 327.983C138.954 327.947 138.652 327.85 138.102 327.716C137.551 327.574 136.743 327.423 135.748 327.255C133.75 326.979 130.891 326.669 127.81 327.37C126.282 327.725 124.888 328.32 123.725 329.04C122.562 329.75 121.674 330.611 120.972 331.357C120.297 332.13 119.809 332.787 119.525 333.284C119.232 333.773 119.081 334.048 119.116 334.066C119.214 334.128 119.871 333.053 121.265 331.624C121.975 330.931 122.863 330.132 124 329.475C125.128 328.809 126.46 328.249 127.943 327.912C130.909 327.237 133.715 327.468 135.704 327.637C137.693 327.867 138.927 328.072 138.945 327.983Z" fill="#C78F8F"/>
<path d="M215.492 185.876C215.492 185.876 205.475 188.274 204.463 188.949C203.459 189.624 197.803 196.781 197.794 197.544C197.785 198.308 196.222 208.724 197.767 207.978C199.312 207.233 200.298 199.942 200.298 199.942L201.062 199.17C201.062 199.17 200.058 205.421 200.369 206.904C200.653 208.272 202.198 208.343 202.438 207.215C202.687 206.087 203.379 200.599 203.699 200.368C204.01 200.129 203.246 206.442 203.415 207.197C203.637 208.218 205.138 208.813 205.413 207.703C205.582 207.055 205.972 200.99 205.972 200.99C205.972 200.99 206.221 205.98 206.479 206.513C206.896 207.392 208.033 207.179 208.139 206.149C208.21 205.439 207.748 201.825 207.846 200.883C207.846 200.883 208.334 200.129 210.253 199.933C211.149 199.844 216.522 199.844 217.41 196.923C218.2 194.33 221.157 192.501 221.157 192.501L215.492 185.876Z" fill="#9E563A"/>
<path d="M197.803 207.97C197.847 208.005 198.344 207.428 198.886 206.336C199.152 205.794 199.428 205.11 199.641 204.329C199.801 203.547 199.96 202.686 200.129 201.78C200.245 201.114 200.36 200.466 200.467 199.853L200.422 199.96C202.092 197.811 203.237 196.221 203.157 196.15C203.068 196.079 201.772 197.562 200.058 199.676L200.023 199.72L200.014 199.782C199.898 200.386 199.783 201.025 199.658 201.691C199.508 202.579 199.357 203.423 199.214 204.222C199.037 204.977 198.806 205.643 198.584 206.194C198.122 207.295 197.74 207.925 197.803 207.97Z" fill="#91371C"/>
<path d="M213.235 189.402C213.599 190.183 213.137 191.124 212.48 191.693C211.823 192.252 210.997 192.581 210.305 193.096C208.236 194.632 207.614 197.633 205.474 199.072C205.172 199.276 204.746 199.427 204.488 199.178C204.249 198.948 204.346 198.548 204.453 198.237C205.412 195.555 206.362 192.865 207.321 190.183" fill="#9E563A"/>
<path d="M207.322 190.174C207.286 190.165 207.153 190.458 206.922 191.018C206.691 191.568 206.38 192.367 206.007 193.371C205.626 194.41 205.182 195.591 204.702 196.878C204.578 197.207 204.453 197.553 204.329 197.891C204.24 198.219 203.965 198.61 204.187 199.161C204.311 199.427 204.649 199.578 204.897 199.542C205.155 199.525 205.368 199.427 205.555 199.312C205.91 199.072 206.229 198.805 206.522 198.495C207.686 197.251 208.298 195.795 209.107 194.685C209.506 194.126 209.932 193.637 210.412 193.264C210.891 192.9 211.406 192.634 211.859 192.341C212.801 191.79 213.351 190.947 213.413 190.325C213.493 189.686 213.236 189.384 213.227 189.402C213.182 189.41 213.36 189.73 213.227 190.29C213.103 190.849 212.596 191.55 211.673 192.048C211.22 192.314 210.687 192.563 210.163 192.945C209.63 193.326 209.16 193.842 208.734 194.419C207.872 195.564 207.233 197.012 206.158 198.157C205.892 198.441 205.59 198.69 205.288 198.894C204.986 199.09 204.658 199.125 204.596 198.939C204.498 198.752 204.631 198.379 204.755 198.042C204.88 197.695 204.995 197.358 205.111 197.021C205.555 195.724 205.954 194.525 206.318 193.477C206.656 192.465 206.922 191.648 207.091 191.08C207.277 190.512 207.357 190.192 207.322 190.174Z" fill="#91371C"/>
<path d="M239.814 182.67L219.186 194.135L214.586 186.089L242.354 164.076L239.814 182.67Z" fill="#9E563A"/>
<path d="M286.7 213.75L207.277 171.162L217.8 152.301L161.901 158.339L185.85 208.929L196.169 190.44L275.867 233.171L286.7 213.75Z" fill="#D40000"/>
<path opacity="0.6" d="M286.7 213.75L207.277 171.162L217.8 152.301L161.901 158.339L185.85 208.929L196.169 190.44L275.867 233.171L286.7 213.75Z" fill="black"/>
<path d="M290.146 215.828L207.943 178.896L217.125 159.343L161.785 169.271L189.207 218.066L198.211 198.903L280.697 235.959L290.146 215.828Z" fill="#EA1717"/>
<path d="M286.833 363.769L291.087 399.28L246.083 400.275C246.252 395.977 271.222 386.946 271.222 386.946L266.454 363.299L286.833 363.769Z" fill="#D40000"/>
<path d="M283.228 384.575C284.107 384.797 284.728 385.756 284.542 386.644C284.356 387.532 283.379 388.171 282.5 387.967C281.621 387.763 280.839 386.626 281.114 385.774C281.399 384.912 282.588 384.229 283.388 384.637" fill="white"/>
<path d="M291.087 399.28L290.883 395.64L247.806 397.957C247.806 397.957 245.817 398.872 246.074 400.275L291.087 399.28Z" fill="black"/>
<path d="M270.547 387.363C270.556 387.585 271.657 387.656 272.758 388.34C273.877 388.997 274.454 389.93 274.65 389.841C274.854 389.796 274.499 388.491 273.149 387.683C271.826 386.875 270.503 387.168 270.547 387.363Z" fill="black"/>
<path d="M264.696 389.539C264.651 389.752 265.61 390.107 266.374 391.022C267.164 391.91 267.378 392.913 267.6 392.896C267.804 392.922 267.928 391.635 266.96 390.516C265.992 389.397 264.696 389.326 264.696 389.539Z" fill="black"/>
<path d="M262.236 395.027C262.44 395.071 262.716 393.961 262.13 392.771C261.543 391.572 260.504 391.128 260.416 391.306C260.291 391.493 260.975 392.123 261.446 393.109C261.934 394.086 262.014 395.009 262.236 395.027Z" fill="black"/>
<path d="M270.769 381.334C270.867 381.529 271.871 381.21 273.114 381.263C274.357 381.298 275.334 381.689 275.449 381.503C275.573 381.343 274.614 380.552 273.149 380.499C271.675 380.446 270.663 381.165 270.769 381.334Z" fill="black"/>
<path d="M269.854 375.953C269.854 376.041 270.725 376.157 272.11 375.89C272.794 375.757 273.611 375.509 274.454 375.118C274.88 374.922 275.307 374.683 275.733 374.399C275.937 374.256 276.177 374.123 276.399 373.857C276.639 373.626 276.763 373.04 276.479 372.685C276.239 372.347 275.831 372.205 275.502 372.205C275.173 372.205 274.907 372.276 274.658 372.338C274.161 372.472 273.691 372.649 273.264 372.853C272.412 373.262 271.728 373.777 271.213 374.265C270.192 375.251 269.854 376.086 269.925 376.121C270.023 376.192 270.52 375.491 271.568 374.674C272.092 374.265 272.758 373.839 273.557 373.502C273.957 373.333 274.383 373.182 274.845 373.075C275.316 372.942 275.724 372.924 275.848 373.138C275.893 373.218 275.902 373.253 275.804 373.395C275.706 373.528 275.511 373.653 275.316 373.795C274.925 374.061 274.525 374.301 274.143 374.505C273.371 374.914 272.625 375.198 271.986 375.384C270.698 375.757 269.845 375.837 269.854 375.953Z" fill="black"/>
<path d="M270.147 376.263C270.227 376.299 270.645 375.5 270.698 374.079C270.725 373.368 270.627 372.516 270.334 371.619C270.183 371.166 269.988 370.713 269.73 370.26C269.455 369.825 269.126 369.23 268.265 369.159C267.821 369.15 267.457 369.506 267.341 369.808C267.199 370.118 267.173 370.376 267.128 370.642C267.057 371.166 267.075 371.681 267.155 372.161C267.315 373.111 267.723 373.901 268.167 374.47C269.073 375.615 269.996 375.855 270.014 375.784C270.085 375.668 269.313 375.269 268.611 374.159C268.265 373.617 267.954 372.889 267.856 372.054C267.803 371.637 267.803 371.193 267.874 370.749C267.936 370.269 268.105 369.879 268.283 369.923C268.505 369.914 268.895 370.269 269.091 370.642C269.33 371.042 269.526 371.45 269.677 371.85C269.979 372.658 270.112 373.431 270.165 374.088C270.245 375.402 270.023 376.228 270.147 376.263Z" fill="black"/>
<path d="M216.566 330.824L216.823 366.939L171.819 367.934C171.988 363.636 196.959 354.605 196.959 354.605L196.195 330.354L216.566 330.824Z" fill="#D40000"/>
<path d="M208.955 352.234C209.834 352.456 210.456 353.415 210.27 354.303C210.083 355.191 209.106 355.831 208.227 355.626C207.348 355.422 206.567 354.285 206.842 353.433C207.126 352.572 208.316 351.888 209.115 352.296" fill="white"/>
<path d="M216.823 366.93V363.281L173.542 365.607C173.542 365.607 171.553 366.522 171.811 367.925L216.823 366.93Z" fill="black"/>
<path d="M196.283 355.014C196.292 355.236 197.393 355.307 198.494 355.99C199.613 356.647 200.191 357.58 200.386 357.491C200.59 357.447 200.235 356.141 198.885 355.333C197.553 354.525 196.23 354.818 196.283 355.014Z" fill="black"/>
<path d="M190.432 357.189C190.388 357.402 191.347 357.757 192.11 358.672C192.901 359.56 193.114 360.564 193.336 360.546C193.54 360.572 193.664 359.285 192.696 358.166C191.729 357.047 190.432 356.985 190.432 357.189Z" fill="black"/>
<path d="M187.964 362.677C188.168 362.721 188.443 361.611 187.857 360.421C187.28 359.223 186.232 358.779 186.143 358.956C186.019 359.143 186.703 359.773 187.173 360.759C187.662 361.736 187.751 362.659 187.964 362.677Z" fill="black"/>
<path d="M196.506 348.984C196.603 349.179 197.607 348.86 198.85 348.913C200.093 348.948 201.07 349.339 201.185 349.153C201.31 348.993 200.351 348.203 198.886 348.149C197.411 348.096 196.39 348.815 196.506 348.984Z" fill="black"/>
<path d="M195.591 343.603C195.591 343.692 196.461 343.807 197.846 343.541C198.53 343.407 199.347 343.159 200.191 342.768C200.617 342.573 201.043 342.333 201.469 342.058C201.674 341.916 201.913 341.782 202.135 341.516C202.375 341.285 202.499 340.699 202.215 340.344C201.975 340.006 201.567 339.864 201.238 339.864C200.91 339.864 200.643 339.935 200.395 339.997C199.898 340.131 199.427 340.308 199.001 340.512C198.148 340.921 197.464 341.436 196.949 341.924C195.928 342.91 195.591 343.745 195.662 343.78C195.759 343.851 196.257 343.15 197.305 342.333C197.828 341.924 198.494 341.498 199.294 341.161C199.693 340.992 200.12 340.841 200.581 340.734C201.052 340.601 201.46 340.584 201.585 340.797C201.629 340.877 201.638 340.912 201.54 341.054C201.443 341.187 201.247 341.312 201.052 341.454C200.661 341.72 200.262 341.96 199.88 342.164C199.107 342.573 198.361 342.857 197.722 343.043C196.425 343.407 195.582 343.487 195.591 343.603Z" fill="black"/>
<path d="M195.884 343.914C195.964 343.949 196.381 343.15 196.434 341.729C196.461 341.019 196.363 340.166 196.07 339.269C195.919 338.816 195.724 338.364 195.466 337.911C195.191 337.476 194.863 336.881 194.001 336.81C193.557 336.801 193.193 337.156 193.078 337.458C192.936 337.769 192.909 338.026 192.865 338.292C192.793 338.816 192.811 339.331 192.9 339.811C193.06 340.761 193.468 341.551 193.912 342.12C194.818 343.265 195.742 343.505 195.759 343.434C195.83 343.319 195.058 342.919 194.356 341.809C194.01 341.267 193.699 340.539 193.602 339.704C193.548 339.287 193.548 338.843 193.619 338.399C193.681 337.92 193.85 337.529 194.028 337.573C194.25 337.564 194.641 337.92 194.836 338.292C195.076 338.692 195.271 339.101 195.422 339.5C195.724 340.308 195.857 341.081 195.91 341.738C195.981 343.052 195.759 343.878 195.884 343.914Z" fill="black"/>
<path d="M240.994 205.075C241.314 206.691 244.235 247.841 246.18 263.07C248.125 278.299 263.754 377.56 263.754 377.56L292.196 375.686C292.196 375.686 283.121 270.192 282.482 261.445C281.833 252.698 288.387 218.35 285.43 209.275C282.482 200.2 277.695 196.523 277.695 196.523L261.418 191.124L241.003 194.037V205.075H240.994Z" fill="black"/>
<path d="M190.432 341.818C190.432 341.818 188.167 275.262 190.432 266.187C192.696 257.112 244.564 208.325 244.564 208.325L252.219 251.419C252.219 251.419 233.162 265.823 219.087 277.092L220.615 341.818H190.432Z" fill="black"/>
<path d="M241.27 211.442C241.261 211.442 241.261 211.522 241.261 211.664C241.27 211.841 241.27 212.054 241.279 212.312C241.314 212.916 241.35 213.75 241.403 214.807C241.519 216.974 241.741 220.109 242.06 223.971C242.691 231.706 243.756 242.371 245.195 254.119C246.625 265.876 248.116 276.488 249.289 284.151C249.875 287.987 250.372 291.086 250.736 293.226C250.923 294.265 251.065 295.091 251.171 295.686C251.224 295.944 251.26 296.157 251.295 296.326C251.322 296.468 251.349 296.539 251.358 296.539C251.367 296.539 251.358 296.459 251.349 296.317C251.331 296.148 251.304 295.935 251.269 295.668C251.18 295.065 251.065 294.239 250.923 293.2C250.612 291.015 250.168 287.916 249.617 284.107C248.525 276.426 247.086 265.814 245.657 254.066C244.218 242.317 243.108 231.67 242.389 223.945C242.034 220.082 241.758 216.956 241.59 214.798C241.501 213.75 241.43 212.916 241.377 212.312C241.35 212.054 241.323 211.841 241.305 211.664C241.288 211.513 241.279 211.442 241.27 211.442Z" fill="#5D5D5D"/>
<path d="M203.227 267.51C203.201 267.572 204.195 268.007 205.776 268.762C207.357 269.517 209.505 270.618 211.788 272.003C214.07 273.389 216.041 274.792 217.435 275.848C218.829 276.905 219.673 277.589 219.726 277.536C219.744 277.509 219.558 277.314 219.202 276.967C218.847 276.621 218.314 276.15 217.64 275.591C216.29 274.463 214.327 273.007 212.027 271.613C209.727 270.218 207.534 269.153 205.909 268.469C205.101 268.123 204.435 267.874 203.964 267.714C203.494 267.554 203.236 267.483 203.227 267.51Z" fill="#5D5D5D"/>
<path d="M198.868 274.046C198.859 274.108 200.058 274.268 201.993 274.507C203.929 274.747 206.593 275.076 209.532 275.502C212.472 275.928 215.127 276.354 217.045 276.665C218.963 276.976 220.153 277.171 220.171 277.1C220.18 277.065 219.887 276.985 219.363 276.843C218.83 276.71 218.066 276.532 217.107 276.337C215.198 275.937 212.543 275.458 209.604 275.031C206.655 274.614 203.982 274.33 202.038 274.17C201.07 274.09 200.28 274.046 199.729 274.019C199.178 274.01 198.876 274.019 198.868 274.046Z" fill="#5D5D5D"/>
<path d="M278.717 81.6782C279.854 79.6802 281.612 77.9575 283.797 77.2116C285.981 76.4657 288.592 76.8298 290.261 78.4104C291.94 79.991 292.392 82.8326 291.034 84.6886C294.017 84.2002 297.214 85.9495 298.404 88.729C299.594 91.5084 298.653 95.0338 296.246 96.8542C293.84 98.6746 290.181 98.6035 287.837 96.7032C287.437 98.3815 286.132 99.8201 284.489 100.362C282.846 100.903 280.937 100.539 279.614 99.4294C276.266 96.6233 277.261 90.3984 273.514 88.1606" fill="black"/>
<path d="M273.744 58.9099C272.75 55.8374 267.644 53.058 264.846 51.4507C260.664 49.0442 256.783 49.5238 254.395 51.6638C250.07 48.0408 244.387 44.5598 238.926 45.9806C233.464 47.4103 229.042 52.9958 230.037 58.5458C230.623 61.8137 232.887 64.753 232.754 68.0741C232.665 70.3385 231.466 72.3809 230.507 74.4321C229.548 76.4834 228.82 78.881 229.664 80.9767C230.454 82.9303 232.434 84.1469 233.5 85.9673C234.37 87.4502 234.566 89.2174 235.125 90.8424C237.185 96.863 244.289 100.237 250.567 99.1807C256.845 98.124 262.067 93.3998 265.033 87.7699C267.999 82.14 268.976 75.6754 269.322 69.3173" fill="black"/>
<path d="M269.056 63.2611L267.804 113.469L245.275 111.391C245.648 105.281 245.932 98.8433 245.932 98.8433C245.932 98.8433 238.144 97.0317 237.176 86.6599C236.679 81.3408 237.541 72.6384 238.446 65.712C239.201 59.9133 244.636 55.9085 250.399 56.8941" fill="#D3947B"/>
<path d="M246.003 98.719C246.003 98.719 252.885 99.607 259.989 95.9395C259.989 95.9395 256.1 102.848 245.888 101.223L246.003 98.719Z" fill="#C5765E"/>
<path d="M253.427 67.266C253.542 67.6567 254.972 67.5679 256.615 67.8787C258.266 68.154 259.581 68.7223 259.82 68.3938C259.927 68.2339 259.723 67.861 259.199 67.4525C258.684 67.044 257.849 66.6355 256.863 66.4579C255.869 66.2803 254.945 66.3869 254.324 66.5911C253.702 66.7954 253.382 67.0795 253.427 67.266Z" fill="black"/>
<path d="M241.421 66.2892C241.652 66.6266 242.646 66.3602 243.818 66.4135C244.999 66.4313 245.976 66.7687 246.225 66.449C246.331 66.2892 246.198 65.9606 245.781 65.6232C245.372 65.2946 244.671 65.0016 243.863 64.9661C243.055 64.9394 242.335 65.1881 241.909 65.49C241.483 65.8008 241.323 66.1205 241.421 66.2892Z" fill="black"/>
<path d="M252.672 78.8366C252.672 79.0409 252.841 79.2096 253.045 79.2096C253.249 79.2096 253.418 79.0409 253.418 78.8366C253.418 78.6324 253.249 78.4637 253.045 78.4637C252.841 78.4637 252.672 78.6324 252.672 78.8366Z" fill="#B3644C"/>
<path d="M242.033 76.9985C242.033 77.2027 242.202 77.3714 242.406 77.3714C242.611 77.3714 242.779 77.2027 242.779 76.9985C242.779 76.7942 242.611 76.6255 242.406 76.6255C242.202 76.6166 242.033 76.7854 242.033 76.9985Z" fill="#B3644C"/>
<path d="M239.955 77.9753C239.955 78.1795 240.124 78.3482 240.328 78.3482C240.532 78.3482 240.701 78.1795 240.701 77.9753C240.701 77.771 240.532 77.6023 240.328 77.6023C240.124 77.6023 239.955 77.771 239.955 77.9753Z" fill="#B3644C"/>
<path d="M239.317 76.4035C239.317 76.6077 239.485 76.7765 239.69 76.7765C239.894 76.7765 240.062 76.6077 240.062 76.4035C240.062 76.1993 239.894 76.0305 239.69 76.0305C239.485 76.0305 239.317 76.1993 239.317 76.4035Z" fill="#B3644C"/>
<path d="M254.395 80.4972C254.395 80.7014 254.563 80.8702 254.768 80.8702C254.972 80.8702 255.141 80.7014 255.141 80.4972C255.141 80.293 254.972 80.1242 254.768 80.1242C254.555 80.1242 254.395 80.293 254.395 80.4972Z" fill="#B3644C"/>
<path d="M255.797 78.9876C255.797 79.1918 255.966 79.3605 256.17 79.3605C256.374 79.3605 256.543 79.1918 256.543 78.9876C256.543 78.7833 256.374 78.6146 256.17 78.6146C255.966 78.6146 255.797 78.7833 255.797 78.9876Z" fill="#B3644C"/>
<path d="M250.94 55.2958C251.864 63.4742 257.663 73.5442 265.512 76.0306C272.963 74.2901 267.715 81.767 267.653 87.5657C267.59 92.9558 264.722 96.641 268.212 99.3938C271.098 100.086 272.759 92.1833 274.908 89.981C277.048 87.7699 279.099 85.0526 278.948 81.9802C278.877 80.5416 278.309 79.1652 278.238 77.7266C278.149 76.1371 278.664 74.5742 278.939 73.0025C280.191 66.0494 276.586 58.5725 270.53 54.9406C264.474 51.3086 256.393 51.5573 250.39 55.2691" fill="black"/>
<path d="M277.988 76.9452C277.997 76.9541 278.086 76.8475 278.246 76.6522C278.397 76.4479 278.592 76.1194 278.725 75.6487C279 74.7074 278.876 73.2334 278.13 71.6616C277.775 70.8713 277.207 70.081 276.496 69.3617C275.795 68.6335 274.978 67.9054 274.028 67.266C273.086 66.6266 272.012 66.0583 270.831 65.6676C269.659 65.268 268.415 64.9572 267.146 64.6375C265.876 64.3178 264.641 64.007 263.478 63.5986C262.315 63.199 261.232 62.7194 260.228 62.1866C258.23 61.121 256.596 59.8956 255.335 58.7412C254.074 57.5868 253.168 56.5301 252.582 55.7753C252.28 55.4023 252.067 55.1004 251.916 54.8962C251.765 54.6919 251.686 54.5854 251.677 54.5942C251.668 54.6031 251.739 54.7097 251.881 54.9228C252.014 55.1359 252.218 55.4467 252.511 55.8286C253.08 56.6011 253.968 57.6845 255.229 58.8566C256.481 60.0288 258.132 61.2898 260.139 62.3731C261.143 62.9148 262.244 63.4032 263.416 63.8117C264.588 64.229 265.831 64.5398 267.101 64.8595C268.371 65.1792 269.605 65.49 270.769 65.8807C271.932 66.2714 272.989 66.8131 273.921 67.4436C274.853 68.0741 275.662 68.7845 276.372 69.4949C277.091 70.2053 277.642 70.9512 277.997 71.7238C278.743 73.2511 278.894 74.6986 278.654 75.6132C278.405 76.5634 277.944 76.9274 277.988 76.9452Z" fill="#5D5D5D"/>
<path d="M251.668 54.6031C251.659 54.612 251.739 54.7008 251.881 54.8606C252.023 55.0294 252.245 55.2602 252.529 55.5622C253.106 56.166 253.977 57.0096 255.14 57.942C256.312 58.8655 257.777 59.9134 259.633 60.6504C260.557 61.0234 261.578 61.2454 262.635 61.4585C263.691 61.6716 264.792 61.8314 265.911 62.0002C268.158 62.3376 270.298 62.6839 272.154 63.3144C274.001 63.9538 275.555 64.8418 276.674 65.8186C277.793 66.7865 278.485 67.7899 278.858 68.527C279.036 68.8999 279.169 69.193 279.231 69.4061C279.311 69.6103 279.356 69.7169 279.365 69.7169C279.373 69.7169 279.347 69.6014 279.285 69.3883C279.231 69.1752 279.116 68.8733 278.947 68.4826C278.601 67.7189 277.917 66.6799 276.789 65.6854C275.67 64.6819 274.099 63.7584 272.234 63.1013C270.36 62.453 268.202 62.0978 265.956 61.7604C264.828 61.5917 263.736 61.423 262.688 61.2187C261.64 61.0056 260.628 60.7925 259.722 60.4284C257.902 59.7091 256.436 58.6879 255.255 57.791C254.083 56.8764 253.204 56.0506 252.6 55.4734C252.316 55.1981 252.094 54.9672 251.916 54.7985C251.757 54.683 251.677 54.6031 251.668 54.6031Z" fill="#5D5D5D"/>
<path d="M240.169 45.6521C240.16 45.7053 241.048 45.732 242.425 46.0961C242.762 46.1937 243.135 46.2914 243.526 46.4513C243.925 46.5845 244.325 46.7709 244.751 46.9663C245.586 47.3837 246.474 47.9165 247.317 48.5825C248.161 49.2573 248.871 50.0033 249.466 50.7225C249.751 51.0955 250.026 51.4418 250.248 51.797C250.488 52.1434 250.674 52.4808 250.843 52.7916C251.509 54.0437 251.74 54.905 251.784 54.8873C251.802 54.8784 251.74 54.6742 251.624 54.2834C251.571 54.0881 251.491 53.8572 251.376 53.5997C251.26 53.3421 251.154 53.0313 250.976 52.7205C250.816 52.4009 250.63 52.0546 250.399 51.6994C250.186 51.3353 249.91 50.9801 249.626 50.5982C249.031 49.8612 248.303 49.0975 247.451 48.4137C246.589 47.7389 245.684 47.1972 244.831 46.7887C244.396 46.6022 243.987 46.4069 243.579 46.2825C243.179 46.1316 242.806 46.0339 242.451 45.954C242.105 45.8563 241.785 45.8208 241.501 45.7675C241.217 45.7142 240.977 45.6965 240.773 45.6876C240.391 45.6432 240.169 45.6343 240.169 45.6521Z" fill="#5D5D5D"/>
<path d="M232.878 84.7418C232.878 84.7418 232.86 84.7063 232.807 84.653C232.754 84.582 232.683 84.5021 232.594 84.4044C232.407 84.1824 232.123 83.8627 231.795 83.4187C231.475 82.9747 231.093 82.4064 230.889 81.6605C230.791 81.2875 230.738 80.8702 230.791 80.4439C230.853 80.0177 231.004 79.5737 231.253 79.1563C231.741 78.3127 232.541 77.5668 233.278 76.661C234.006 75.7464 234.681 74.6808 235.214 73.4731C235.746 72.2654 236.146 70.9334 236.332 69.5038C236.528 68.0741 236.466 66.5911 236.439 65.0904C236.421 63.5897 236.457 62.1067 236.839 60.7481C237.212 59.3894 237.931 58.1995 238.801 57.2494C239.671 56.2903 240.701 55.571 241.749 55.1093C242.797 54.6386 243.872 54.4344 244.848 54.3989C246.82 54.3278 248.374 54.8962 249.342 55.3846C249.83 55.6421 250.185 55.873 250.425 56.0417C250.532 56.1216 250.62 56.1838 250.691 56.237C250.754 56.2814 250.789 56.2992 250.789 56.2992C250.789 56.2992 250.354 55.8552 249.377 55.3135C248.409 54.7896 246.846 54.1858 244.839 54.239C243.845 54.2657 242.744 54.461 241.669 54.9406C240.586 55.4112 239.529 56.1394 238.641 57.1162C237.744 58.0841 237.007 59.3095 236.617 60.7037C236.226 62.0978 236.181 63.5986 236.208 65.1082C236.226 66.6178 236.288 68.0918 236.102 69.4949C235.924 70.8979 235.533 72.2122 235.009 73.4021C234.494 74.592 233.837 75.6487 233.118 76.5545C232.407 77.4602 231.599 78.215 231.102 79.0942C230.845 79.5293 230.685 79.991 230.631 80.4439C230.578 80.8968 230.64 81.3319 230.747 81.7138C230.978 82.4863 231.377 83.0546 231.706 83.4986C232.043 83.9426 232.336 84.2534 232.541 84.4666C232.638 84.5642 232.709 84.6353 232.772 84.7063C232.851 84.7241 232.878 84.7507 232.878 84.7418Z" fill="#5D5D5D"/>
<path d="M277.447 77.5224C277.447 77.5224 277.482 77.5135 277.553 77.4691C277.633 77.4247 277.74 77.3714 277.864 77.3004C278.131 77.1406 278.53 76.9008 278.992 76.5278C279.907 75.7908 281.15 74.4854 281.905 72.4697C282.677 70.4894 282.757 67.7366 281.514 65.1703C280.91 63.8916 279.951 62.6928 278.717 61.7693C277.491 60.8369 276.026 60.1531 274.463 59.6913C272.9 59.2207 271.329 58.9809 269.81 58.8389C268.292 58.6968 266.818 58.6258 265.423 58.5281C264.029 58.4304 262.706 58.3061 261.49 58.0841C260.264 57.871 259.154 57.5601 258.168 57.1872C256.197 56.4324 254.803 55.3845 253.977 54.5498C253.569 54.1236 253.284 53.7684 253.098 53.5109C253.018 53.3954 252.947 53.2977 252.894 53.2267C252.849 53.1645 252.823 53.129 252.814 53.129C252.814 53.129 253.107 53.7329 253.906 54.612C254.714 55.4733 256.108 56.5567 258.097 57.3381C259.092 57.7289 260.211 58.0574 261.445 58.2794C262.671 58.5103 264.003 58.6435 265.406 58.7412C268.194 58.9632 271.302 58.9898 274.392 59.9045C275.928 60.3662 277.367 61.0322 278.566 61.938C279.773 62.8437 280.706 64.007 281.301 65.2502C282.526 67.7544 282.464 70.4539 281.727 72.3986C281.008 74.3877 279.8 75.6842 278.912 76.439C278.468 76.8209 278.077 77.0784 277.82 77.2471C277.696 77.327 277.598 77.3803 277.518 77.4336C277.482 77.4957 277.447 77.5224 277.447 77.5224Z" fill="black"/>
<path d="M240.55 73.3133C240.488 74.0059 241.021 74.6275 241.749 74.7074C242.468 74.7873 243.108 74.2901 243.161 73.5974C243.223 72.9048 242.69 72.2832 241.971 72.2033C241.243 72.1234 240.613 72.6206 240.55 73.3133Z" fill="black"/>
<path d="M240.728 71.262C240.879 71.4396 241.918 70.7558 243.33 70.8357C244.742 70.8979 245.737 71.6794 245.905 71.5106C245.985 71.4396 245.834 71.1199 245.399 70.7647C244.973 70.4095 244.227 70.0543 243.348 70.0099C242.469 69.9655 241.714 70.2497 241.27 70.5605C240.817 70.8802 240.648 71.1821 240.728 71.262Z" fill="black"/>
<path d="M254.493 74.5742C254.431 75.2669 254.963 75.8885 255.692 75.9684C256.411 76.0483 257.05 75.551 257.103 74.8584C257.166 74.1657 256.633 73.5441 255.914 73.4642C255.194 73.3843 254.555 73.8816 254.493 74.5742Z" fill="black"/>
<path d="M254.528 72.0257C254.679 72.2033 255.718 71.5195 257.13 71.5994C258.542 71.6616 259.536 72.443 259.705 72.2743C259.785 72.2033 259.634 71.8836 259.199 71.5284C258.773 71.1732 258.027 70.818 257.148 70.7736C256.269 70.7292 255.514 71.0133 255.07 71.3241C254.617 71.6349 254.448 71.9369 254.528 72.0257Z" fill="black"/>
<path d="M248.916 82.9836C248.925 82.9037 248.055 82.7083 246.643 82.4508C246.287 82.3975 245.95 82.3087 245.897 82.0512C245.826 81.7848 245.994 81.403 246.199 80.9945C246.58 80.142 246.989 79.2451 247.415 78.3038C249.102 74.4677 250.346 71.3153 250.195 71.2442C250.044 71.1732 248.543 74.2279 246.856 78.0641C246.447 79.0054 246.057 79.9111 245.684 80.7725C245.524 81.1721 245.266 81.625 245.417 82.1755C245.497 82.4508 245.755 82.6639 245.985 82.735C246.216 82.8149 246.412 82.8326 246.589 82.8504C248.019 83.0102 248.907 83.0724 248.916 82.9836Z" fill="black"/>
<path d="M249.333 86.4201C249.875 85.7719 250.789 85.4522 251.668 85.5943C252.281 85.692 252.885 86.0205 253.231 86.5445C253.578 87.0595 253.622 87.7788 253.258 88.2317C252.849 88.7467 252.041 88.8266 251.384 88.6046C250.718 88.3737 250.168 87.9031 249.635 87.4325C249.493 87.2993 249.342 87.1661 249.253 86.9974C249.164 86.8286 249.155 86.6066 249.28 86.4734" fill="#BF745D"/>
<path d="M253.027 84.1824C252.796 84.1558 252.716 85.692 251.34 86.7132C249.972 87.7344 248.347 87.4769 248.321 87.69C248.294 87.7877 248.667 88.0097 249.36 88.063C250.035 88.1251 251.038 87.9564 251.873 87.3348C252.707 86.7132 253.098 85.8341 253.187 85.2125C253.276 84.5731 253.125 84.1824 253.027 84.1824Z" fill="black"/>
<path d="M266.836 76.0838C267.005 76.0039 273.585 73.775 273.656 80.5771C273.727 87.3792 266.88 86.0561 266.863 85.8607C266.854 85.6565 266.836 76.0838 266.836 76.0838Z" fill="#E79B7D"/>
<path d="M268.923 83.25C268.949 83.2234 269.038 83.3299 269.242 83.4187C269.438 83.5075 269.775 83.5608 270.13 83.4276C270.85 83.1523 271.436 82.0068 271.462 80.7814C271.471 80.1598 271.338 79.5737 271.116 79.0853C270.903 78.588 270.574 78.2417 270.21 78.1884C269.846 78.1085 269.598 78.3305 269.518 78.517C269.429 78.7123 269.473 78.8455 269.438 78.8544C269.42 78.8722 269.287 78.739 269.34 78.4637C269.367 78.3305 269.447 78.1706 269.607 78.0374C269.766 77.9042 270.006 77.8332 270.264 77.8598C270.788 77.8865 271.267 78.366 271.516 78.8988C271.791 79.4316 271.96 80.0976 271.951 80.7902C271.924 82.1578 271.232 83.4542 270.255 83.7473C269.775 83.8805 269.376 83.7384 269.171 83.5786C268.932 83.4187 268.896 83.2678 268.923 83.25Z" fill="#91371C"/>
<path d="M274.543 89.2351C274.605 89.3239 276.452 87.5568 277.482 84.6619C278.539 81.7759 278.246 79.2362 278.14 79.2629C277.989 79.254 278.069 81.7138 277.047 84.5021C276.053 87.2993 274.428 89.1463 274.543 89.2351Z" fill="#D40000"/>
<path d="M270.343 109.854C270.343 109.854 285.546 120.368 286.194 131.708C286.842 143.048 277.616 176.561 277.616 176.561C277.616 176.561 282.473 192.11 280.209 195.351C277.944 198.592 264.66 194.703 254.936 196.967C245.213 199.232 239.059 201.825 236.146 198.912C233.234 195.999 232.257 194.055 233.553 182.386C234.85 170.718 230.063 155.853 230.063 145.126C230.063 134.106 242.185 113.806 242.185 113.806L243.677 108.691C243.677 108.691 264.278 101.996 269.135 102.644L270.343 109.854Z" fill="#EA1717"/>
<path d="M286.221 130.394C286.39 131.38 286.221 175.939 286.221 175.939L289.489 182.067C289.8 184.198 288.663 186.409 287.02 188.656L269.491 191.151L263.604 183.63L268.878 175.238L259.084 138.102C259.084 138.102 255.452 130.598 260.54 123.814C265.61 117.03 283.61 114.916 286.221 130.394Z" fill="#D40000"/>
<path d="M262.218 127.552C262.298 127.597 262.84 126.407 264.198 124.853C265.53 123.299 267.812 121.434 270.805 120.475C273.806 119.516 276.746 119.72 278.726 120.209C280.733 120.688 281.87 121.345 281.905 121.256C281.914 121.23 281.648 121.052 281.132 120.777C280.609 120.502 279.827 120.173 278.815 119.889C276.808 119.303 273.771 119.045 270.672 120.031C267.573 121.026 265.255 122.997 263.959 124.64C263.301 125.466 262.849 126.194 262.582 126.709C262.307 127.233 262.191 127.543 262.218 127.552Z" fill="black"/>
<path d="M284.498 173.124C284.489 173.133 284.534 173.231 284.631 173.426C284.747 173.657 284.889 173.933 285.066 174.279C285.484 175.06 286.061 176.126 286.771 177.449C287.491 178.799 288.441 180.45 289.382 182.289C289.657 183.203 289.187 184.34 288.716 185.37C288.21 186.418 287.571 187.483 286.842 188.522L286.985 188.434C283.486 188.922 279.632 189.473 275.574 190.041C274.055 190.263 272.563 190.476 271.134 190.68L271.267 190.698C269.615 190.014 267.955 189.668 266.543 188.949C266.374 188.86 266.214 188.753 266.09 188.647C265.948 188.522 265.806 188.371 265.673 188.229C265.397 187.945 265.131 187.67 264.873 187.377C264.367 186.8 263.941 186.196 263.657 185.548C263.373 184.899 263.257 184.207 263.319 183.541C263.382 182.875 263.604 182.253 263.897 181.694C264.5 180.575 265.317 179.678 266.09 178.914C267.679 177.414 268.905 176.082 269.411 174.945C269.677 174.394 269.802 173.924 269.855 173.613C269.899 173.293 269.908 173.124 269.891 173.124C269.837 173.116 269.828 173.808 269.26 174.865C268.718 175.948 267.493 177.209 265.868 178.692C265.078 179.456 264.225 180.353 263.577 181.525C263.266 182.111 263.017 182.777 262.938 183.505C262.866 184.233 262.982 184.997 263.284 185.707C263.586 186.409 264.039 187.057 264.554 187.652C264.811 187.954 265.086 188.238 265.362 188.531C265.504 188.673 265.637 188.815 265.797 188.958C265.974 189.117 266.152 189.224 266.339 189.33C267.822 190.094 269.518 190.458 271.072 191.106L271.143 191.133L271.205 191.124C272.634 190.92 274.126 190.707 275.645 190.494C279.703 189.908 283.557 189.357 287.056 188.851L287.144 188.842L287.198 188.771C287.935 187.697 288.565 186.622 289.08 185.539C289.329 184.997 289.542 184.446 289.693 183.887C289.826 183.328 289.924 182.733 289.72 182.164C288.707 180.246 287.757 178.683 286.993 177.325C286.239 176.028 285.635 174.98 285.182 174.208C284.987 173.879 284.818 173.613 284.685 173.391C284.578 173.213 284.507 173.124 284.498 173.124Z" fill="black"/>
<path d="M271.169 165.639C271.134 165.603 270.583 166.083 269.891 167.024C269.198 167.965 268.399 169.395 267.884 171.118C267.377 172.84 267.262 174.474 267.333 175.637C267.395 176.81 267.599 177.502 267.644 177.493C267.795 177.493 267.306 174.599 268.328 171.242C269.304 167.876 271.294 165.719 271.169 165.639Z" fill="black"/>
<path d="M260.363 139.869C260.327 139.878 260.381 140.331 260.505 141.156C260.62 141.982 260.816 143.172 261.082 144.637C261.606 147.568 262.423 151.599 263.497 156.013C264.572 160.426 265.691 164.387 266.57 167.228C267.005 168.649 267.378 169.794 267.653 170.585C267.929 171.375 268.088 171.801 268.124 171.792C268.151 171.784 268.044 171.331 267.831 170.532C267.582 169.644 267.271 168.507 266.89 167.139C266.09 164.28 265.025 160.311 263.95 155.906C262.885 151.502 262.014 147.488 261.402 144.575C261.109 143.181 260.869 142.027 260.682 141.13C260.505 140.313 260.398 139.86 260.363 139.869Z" fill="black"/>
<path d="M242.176 113.815C242.167 113.833 242.282 113.886 242.3 114.099C242.318 114.303 242.256 114.623 242.14 115.023C242.025 115.422 241.847 115.902 241.643 116.479C241.545 116.763 241.439 117.074 241.35 117.411C241.306 117.58 241.27 117.758 241.252 117.962C241.252 118.14 241.208 118.415 241.483 118.601L241.616 118.69L241.679 118.521C242.655 115.92 244.574 112.51 246.962 108.665L246.58 108.638C247.735 111.337 248.818 114.374 249.688 117.633C249.964 118.681 250.221 119.72 250.434 120.706L250.496 120.99L250.754 120.866C256.499 118.122 261.401 115.316 264.838 113.176C266.56 112.11 267.919 111.213 268.843 110.583C269.269 110.281 269.615 110.041 269.899 109.846C270.139 109.677 270.254 109.579 270.246 109.561C270.237 109.553 270.104 109.624 269.846 109.775C269.553 109.952 269.189 110.174 268.745 110.441C267.795 111.027 266.409 111.879 264.678 112.909C261.206 114.969 256.295 117.722 250.559 120.448L250.878 120.608C250.665 119.614 250.417 118.566 250.132 117.518C249.253 114.232 248.152 111.178 246.971 108.469L246.802 108.087L246.589 108.434C244.218 112.314 242.336 115.76 241.412 118.433L241.608 118.362C241.528 118.326 241.492 118.14 241.51 117.98C241.519 117.811 241.554 117.642 241.59 117.474C241.661 117.145 241.759 116.834 241.847 116.55C242.025 115.973 242.185 115.484 242.282 115.067C242.38 114.659 242.425 114.321 242.38 114.099C242.327 113.842 242.167 113.797 242.176 113.815Z" fill="black"/>
<path d="M246.749 108.851C246.74 108.851 246.705 108.922 246.634 109.064C246.554 109.233 246.456 109.446 246.332 109.712C246.057 110.316 245.684 111.151 245.204 112.217C244.245 114.401 242.86 117.562 241.359 121.549C239.867 125.537 238.224 130.376 237.194 135.935C236.679 138.714 236.315 141.671 236.271 144.753C236.209 147.834 236.502 151.022 236.99 154.237C237.461 157.46 238.047 160.577 238.411 163.614C238.784 166.642 238.944 169.599 238.704 172.387C238.473 175.176 237.923 177.804 237.496 180.273C237.061 182.741 236.733 185.068 236.697 187.217C236.67 189.366 236.928 191.302 237.381 192.945C237.843 194.587 238.473 195.928 239.13 196.932C239.787 197.944 240.453 198.601 240.915 199.036C241.155 199.241 241.341 199.391 241.475 199.489C241.599 199.587 241.67 199.631 241.679 199.631C241.732 199.578 240.569 198.85 239.29 196.843C238.029 194.854 236.91 191.471 237.035 187.226C237.097 185.112 237.434 182.804 237.887 180.344C238.331 177.884 238.89 175.256 239.139 172.432C239.397 169.608 239.246 166.615 238.873 163.57C238.518 160.515 237.931 157.389 237.461 154.175C236.972 150.969 236.679 147.816 236.733 144.762C236.768 141.707 237.114 138.777 237.621 136.015C238.624 130.483 240.222 125.661 241.67 121.665C243.135 117.669 244.467 114.49 245.373 112.288C245.817 111.213 246.163 110.361 246.421 109.748C246.527 109.473 246.616 109.26 246.687 109.082C246.732 108.94 246.758 108.86 246.749 108.851Z" fill="black"/>
<g opacity="0.37">
<path d="M261.473 174.057C262.734 165.115 258.507 154.787 261.57 146.298C263.4 153.429 264.261 159.68 266.392 165.639C267.476 168.658 267.698 171.57 267.804 171.189C268.204 169.777 267.609 177.2 267.609 177.2C267.609 177.2 264.625 180.095 264.243 180.788C263.133 182.759 263.311 185.778 264.607 187.625C265.851 189.393 269.838 189.988 271.791 190.911L272.715 195.857C267.023 197.331 260.46 191.506 259.706 185.672C259.208 181.765 260.922 177.955 261.473 174.057Z" fill="black"/>
</g>
<g opacity="0.37">
<path d="M252.894 119.676C252.122 120.111 251.358 120.546 250.586 120.99C249.893 116.781 248.73 112.643 247.149 108.673C244.956 111.719 242.656 115.138 241.377 118.663C241.377 118.042 242.212 114.046 242.176 113.806C240.613 115.813 240.143 118.752 241.457 120.928C243.704 118.877 245.426 116.275 246.447 113.406C246.838 116.062 247.229 118.708 247.62 121.363C247.779 122.437 248.108 123.725 249.156 124.036C249.831 124.231 250.541 123.929 251.163 123.61C256.881 120.741 262.059 116.816 266.356 112.074L252.894 119.676Z" fill="black"/>
</g>
<path d="M233.358 185.237C233.323 185.237 233.261 185.503 233.172 186.009C233.083 186.507 232.967 187.235 232.87 188.141C232.692 189.925 232.506 192.527 233.447 195.218C233.918 196.55 234.637 197.722 235.516 198.592C236.395 199.463 237.39 200.004 238.26 200.297C239.148 200.581 239.903 200.635 240.418 200.59C240.933 200.546 241.199 200.448 241.199 200.43C241.199 200.333 240.045 200.626 238.375 199.995C237.558 199.676 236.635 199.134 235.818 198.299C235.001 197.473 234.335 196.346 233.882 195.076C232.985 192.509 233.101 189.961 233.198 188.185C233.323 186.365 233.429 185.246 233.358 185.237Z" fill="black"/>
<path d="M290.581 240.55C290.581 240.55 300.003 242.122 305.339 248.72C310.676 255.318 312.532 260.22 312.532 260.22L303.954 262.315C303.954 262.315 303.777 253.755 299.372 249.04C294.976 244.324 289.533 242.522 287.437 246.216C285.342 249.91 283.983 262.599 287.437 266.338L279.747 268.212C279.747 268.203 278.025 241.181 290.581 240.55Z" fill="#5D5D5D"/>
<path d="M287.997 222.533C287.997 222.533 295.989 238.277 296.717 240.213C297.445 242.149 298.608 250.176 298.608 250.176L297.161 252.538C297.161 252.538 296.104 255.282 292.916 253.977C292.543 253.826 291.274 255.327 288.689 254.421C287.109 253.861 285.271 253.471 285.271 253.471L282.429 247.823L281.47 251.526C281.47 251.526 278.309 246.749 278.548 240.204C278.788 233.668 278.54 222.524 278.54 222.524H287.997V222.533Z" fill="#9E563A"/>
<path d="M287.162 244.449C287.1 244.466 287.242 245.079 287.659 245.985C288.05 246.9 288.769 248.072 289.266 249.448C289.79 250.824 289.773 252.183 289.435 253.071C289.124 253.968 288.627 254.376 288.689 254.43C288.707 254.474 289.311 254.146 289.737 253.195C289.95 252.725 290.092 252.121 290.101 251.437C290.11 250.753 289.959 250.016 289.702 249.288C289.169 247.841 288.405 246.695 287.952 245.834C287.473 244.981 287.224 244.431 287.162 244.449Z" fill="#91371C"/>
<path d="M291.274 243.383C291.14 243.454 292.801 245.452 293.254 248.498C293.751 251.535 292.774 253.941 292.916 253.977C292.961 253.995 293.281 253.435 293.538 252.441C293.796 251.446 293.947 249.999 293.707 248.436C293.458 246.873 292.881 245.541 292.33 244.671C291.78 243.792 291.318 243.347 291.274 243.383Z" fill="#91371C"/>
<path d="M280.662 242.682C280.546 242.69 280.662 244.289 281.416 246.1C282.162 247.912 283.21 249.128 283.299 249.048C283.414 248.969 282.562 247.672 281.843 245.923C281.115 244.173 280.795 242.655 280.662 242.682Z" fill="#91371C"/>
<path d="M297.161 252.538C297.276 252.556 297.507 250.887 297.143 248.871C296.797 246.846 296.006 245.363 295.9 245.417C295.776 245.47 296.344 246.988 296.681 248.951C297.045 250.904 297.028 252.529 297.161 252.538Z" fill="#91371C"/>
<path d="M334.767 258.923C334.306 256.774 332.157 255.433 330.026 255.948L312.541 260.211L261.667 272.616C259.589 273.122 258.302 275.2 258.781 277.287L268.576 319.92C269.055 322.024 271.16 323.339 273.265 322.85L341.241 307.177C343.319 306.697 344.633 304.637 344.18 302.542L334.767 258.923Z" fill="#5D5D5D"/>
<path d="M259.926 279.773C259.935 279.791 260.193 279.729 260.69 279.587C261.223 279.436 261.942 279.232 262.848 278.974C264.757 278.424 267.457 277.642 270.769 276.683C277.464 274.765 286.726 272.199 297.027 269.597C307.328 267.004 316.705 264.864 323.507 263.372C326.882 262.644 329.617 262.049 331.561 261.631C332.485 261.427 333.213 261.267 333.755 261.152C334.252 261.036 334.518 260.965 334.51 260.957C334.51 260.939 334.243 260.974 333.737 261.063C333.195 261.161 332.458 261.294 331.526 261.463C329.608 261.818 326.846 262.36 323.436 263.061C316.616 264.464 307.221 266.56 296.912 269.153C286.611 271.755 277.349 274.374 270.68 276.372C267.341 277.376 264.651 278.202 262.804 278.805C261.907 279.098 261.196 279.329 260.672 279.507C260.175 279.667 259.918 279.764 259.926 279.773Z" fill="black"/>
<path d="M287.126 188.807L290.421 228.109H278.797L271.888 191.062L287.126 188.807Z" fill="#9E563A"/>
<path d="M260.051 136.61C260.042 136.637 260.388 136.779 261.019 137.001C261.649 137.232 262.582 137.507 263.745 137.809C266.063 138.413 269.348 139.008 273.016 139.176C276.683 139.336 280.004 139.034 282.375 138.635C283.556 138.439 284.506 138.244 285.155 138.066C285.803 137.898 286.158 137.791 286.149 137.764C286.131 137.684 284.684 137.995 282.322 138.306C279.96 138.617 276.665 138.865 273.033 138.714C269.402 138.546 266.143 138.013 263.816 137.489C261.489 136.974 260.078 136.539 260.051 136.61Z" fill="#E1A2A2"/>
<path d="M264.73 158.099C264.73 158.135 265.032 158.162 265.574 158.179C266.116 158.197 266.897 158.206 267.865 158.197C269.801 158.179 272.483 158.055 275.422 157.78C278.37 157.496 281.016 157.105 282.926 156.759C283.876 156.59 284.648 156.43 285.172 156.306C285.696 156.181 285.989 156.101 285.98 156.066C285.971 156.004 284.781 156.173 282.872 156.43C280.954 156.696 278.308 157.034 275.378 157.318C272.447 157.602 269.783 157.771 267.847 157.869C265.929 157.975 264.73 158.028 264.73 158.099Z" fill="#E1A2A2"/>
<path d="M266.658 179.616C266.649 179.642 266.915 179.74 267.412 179.873C267.901 180.015 268.629 180.184 269.535 180.335C271.337 180.655 273.886 180.868 276.683 180.664C279.48 180.45 281.967 179.864 283.707 179.278C284.577 178.985 285.27 178.719 285.732 178.506C286.202 178.293 286.451 178.168 286.442 178.133C286.416 178.062 285.359 178.47 283.609 178.959C281.869 179.456 279.409 179.989 276.648 180.193C273.886 180.397 271.382 180.228 269.579 179.998C267.776 179.784 266.675 179.536 266.658 179.616Z" fill="#E1A2A2"/>
<path d="M232.07 163.463C232.052 163.49 232.496 163.721 233.304 164.111C234.104 164.511 235.302 165.017 236.794 165.594C238.286 166.171 240.106 166.766 242.149 167.317C244.2 167.85 246.482 168.338 248.898 168.693C251.322 169.031 253.648 169.191 255.771 169.244C257.893 169.271 259.802 169.208 261.392 169.066C262.99 168.933 264.278 168.773 265.157 168.605C266.036 168.454 266.524 168.356 266.516 168.32C266.507 168.285 266.018 168.329 265.13 168.427C264.242 168.533 262.955 168.64 261.365 168.738C259.776 168.835 257.875 168.871 255.78 168.818C253.675 168.738 251.366 168.569 248.96 168.24C246.553 167.894 244.289 167.423 242.246 166.917C240.213 166.385 238.393 165.834 236.892 165.301C235.391 164.768 234.183 164.307 233.366 163.96C232.55 163.605 232.088 163.427 232.07 163.463Z" fill="#E1A2A2"/>
<path d="M232.274 136.876C232.265 136.903 232.665 137.054 233.384 137.294C234.104 137.533 235.16 137.862 236.466 138.253C239.076 139.034 242.699 140.046 246.731 141.059C250.762 142.071 254.439 142.888 257.112 143.421C258.444 143.687 259.527 143.9 260.282 144.025C261.037 144.158 261.454 144.211 261.454 144.176C261.463 144.14 261.054 144.025 260.317 143.847C259.491 143.652 258.435 143.394 257.183 143.101C254.536 142.48 250.878 141.609 246.846 140.606C242.824 139.594 239.183 138.635 236.554 137.933C235.302 137.604 234.263 137.329 233.438 137.116C232.692 136.93 232.283 136.841 232.274 136.876Z" fill="#E1A2A2"/>
<path d="M238.686 122.819C238.686 122.855 239.005 122.926 239.582 123.032C240.266 123.157 241.092 123.299 242.051 123.476C244.138 123.84 247.015 124.347 250.185 124.968C253.355 125.59 256.215 126.211 258.284 126.664C259.243 126.869 260.06 127.046 260.735 127.197C261.312 127.313 261.64 127.366 261.649 127.339C261.658 127.313 261.347 127.197 260.779 127.028C260.211 126.851 259.385 126.629 258.355 126.354C256.303 125.821 253.444 125.146 250.274 124.515C247.095 123.894 244.2 123.432 242.095 123.148C241.048 123.006 240.195 122.908 239.6 122.855C239.014 122.802 238.686 122.793 238.686 122.819Z" fill="#E1A2A2"/>
<path d="M266.409 112.421C266.329 112.536 267.874 113.664 269.526 115.333C271.187 116.994 272.306 118.539 272.421 118.468C272.519 118.406 271.551 116.71 269.855 115.005C268.167 113.3 266.471 112.314 266.409 112.421Z" fill="#E1A2A2"/>
<path d="M250.194 113.469C250.203 113.495 250.487 113.451 251.002 113.344C251.517 113.238 252.254 113.042 253.16 112.785C254.971 112.27 257.44 111.426 260.077 110.263C262.715 109.1 264.997 107.848 266.604 106.862C267.403 106.374 268.043 105.956 268.469 105.645C268.895 105.343 269.126 105.157 269.108 105.13C269.073 105.068 268.069 105.672 266.436 106.578C264.793 107.484 262.502 108.682 259.891 109.837C257.271 110.991 254.838 111.87 253.062 112.465C251.286 113.069 250.176 113.398 250.194 113.469Z" fill="#E1A2A2"/>
<path d="M233.367 185.565C233.358 185.592 233.74 185.796 234.459 186.098C235.178 186.4 236.253 186.773 237.62 187.119C240.337 187.83 244.245 188.238 248.516 187.901C252.787 187.563 256.579 186.711 259.287 186.054C260.646 185.716 261.738 185.432 262.484 185.219C263.239 185.006 263.647 184.873 263.639 184.846C263.63 184.811 263.203 184.89 262.44 185.05C261.587 185.237 260.504 185.468 259.207 185.743C256.481 186.32 252.707 187.119 248.471 187.448C244.245 187.776 240.391 187.43 237.682 186.809C236.324 186.507 235.249 186.187 234.512 185.938C233.793 185.672 233.384 185.53 233.367 185.565Z" fill="#E1A2A2"/>
<path d="M277.234 85.5943C277.207 85.6032 277.341 85.914 277.642 86.4379C277.944 86.9618 278.451 87.69 279.179 88.4981C280.617 90.1054 283.148 91.9968 286.425 92.7605C289.702 93.5242 292.81 92.947 294.808 92.13C295.82 91.7304 296.592 91.2953 297.099 90.9578C297.605 90.6204 297.853 90.4073 297.844 90.3806C297.8 90.3007 296.717 91.1088 294.701 91.8192C292.712 92.5385 289.702 93.0358 286.54 92.2987C283.379 91.5617 280.901 89.7857 279.427 88.2672C277.927 86.7398 277.314 85.541 277.234 85.5943Z" fill="#5D5D5D"/>
<path d="M298.066 86.6954C298.075 86.6688 297.791 86.5534 297.249 86.3846C296.699 86.2603 295.882 86.1182 294.869 86.1715C293.857 86.2159 292.667 86.429 291.38 86.731C290.092 87.024 288.698 87.4147 287.206 87.6367C285.723 87.8498 284.284 87.8232 283.041 87.4591C281.798 87.1217 280.759 86.5445 279.969 85.9762C278.388 84.7951 277.775 83.6762 277.695 83.7384C277.678 83.7473 277.802 84.0403 278.122 84.5021C278.441 84.9638 278.974 85.5943 279.765 86.2337C280.564 86.8642 281.62 87.4946 282.926 87.8676C284.222 88.2672 285.75 88.3116 287.268 88.0896C288.795 87.8676 290.199 87.4591 291.477 87.1394C292.747 86.8109 293.901 86.58 294.887 86.4912C296.867 86.3225 298.048 86.7842 298.066 86.6954Z" fill="#5D5D5D"/>
<path d="M371.842 361.771C369.169 362.934 367.206 365.403 366.221 368.138C365.235 370.882 365.146 373.875 365.475 376.77C366.105 382.373 369.293 388.02 372.721 392.496C377.436 388.385 378.52 381.201 378.839 377.524C379.345 371.708 376.735 360.901 371.842 361.771Z" fill="#D40000"/>
<path d="M367.233 401.731C367.987 398.57 366.673 395.098 364.24 392.931C361.807 390.764 358.415 389.85 355.174 390.098C353.673 390.214 352.057 390.649 351.195 391.883C350.396 393.038 350.485 394.645 351.133 395.897C351.781 397.14 352.909 398.073 354.099 398.819C358.193 401.385 362.615 403.116 367.233 401.731Z" fill="#D40000"/>
<path d="M373.28 418.896C373.307 418.887 373.245 418.479 373.111 417.751C372.96 416.943 372.774 415.895 372.543 414.643C372.019 412.041 371.353 408.32 369.337 404.706C367.348 401.101 364.56 398.446 362.207 397.131C361.043 396.456 360.022 396.057 359.303 395.844C358.948 395.728 358.655 395.675 358.468 395.631C358.273 395.586 358.175 395.577 358.166 395.586C358.131 395.675 359.8 395.977 362.065 397.371C364.329 398.73 367.029 401.358 368.982 404.901C370.962 408.436 371.673 412.112 372.268 414.696C372.552 416.001 372.783 417.058 372.969 417.777C373.138 418.506 373.253 418.905 373.28 418.896Z" fill="black"/>
<path d="M373.102 370.172C373.084 370.172 373.067 370.34 373.049 370.678C373.031 371.051 372.996 371.53 372.96 372.125C372.889 373.377 372.818 375.198 372.747 377.436C372.605 381.92 372.489 388.127 372.516 394.974C372.543 401.829 372.711 408.027 372.898 412.512C372.987 414.758 373.075 416.57 373.155 417.822C373.2 418.417 373.226 418.887 373.253 419.26C373.28 419.589 373.297 419.766 373.315 419.758C373.333 419.758 373.333 419.58 373.333 419.251C373.324 418.878 373.324 418.399 373.315 417.804C373.28 416.499 373.244 414.696 373.182 412.494C373.075 408.009 372.951 401.811 372.916 394.965C372.889 388.118 372.951 381.92 373.022 377.436C373.058 375.233 373.084 373.431 373.102 372.125C373.102 371.53 373.111 371.051 373.111 370.678C373.129 370.349 373.12 370.172 373.102 370.172Z" fill="black"/>
<path d="M375.394 405.141C376.468 398.366 381.032 392.238 387.222 389.281C388.794 388.527 390.854 388.029 392.15 389.202C393.447 390.374 393.154 392.478 392.523 394.112C389.886 400.896 382.791 405.683 375.509 405.603" fill="#D40000"/>
<path d="M386.449 394.592C386.44 394.565 386.085 394.725 385.446 395.027C385.126 395.178 384.735 395.364 384.318 395.631C383.892 395.897 383.386 396.155 382.879 396.536C382.364 396.9 381.787 397.282 381.237 397.78C380.651 398.232 380.082 398.792 379.487 399.369C378.324 400.568 377.161 401.998 376.157 403.649C375.172 405.31 374.461 407.015 373.964 408.613C373.742 409.421 373.52 410.185 373.413 410.913C373.254 411.641 373.191 412.325 373.129 412.956C373.04 413.577 373.076 414.154 373.049 414.652C373.023 415.149 373.058 415.584 373.085 415.93C373.138 416.632 373.174 417.014 373.209 417.014C373.298 417.014 373.138 415.46 373.413 412.982C373.493 412.369 373.573 411.686 373.742 410.975C373.866 410.256 374.097 409.51 374.319 408.72C374.825 407.157 375.536 405.487 376.504 403.862C377.48 402.237 378.626 400.825 379.754 399.636C380.331 399.049 380.881 398.499 381.459 398.037C382 397.54 382.56 397.149 383.057 396.776C385.073 395.311 386.494 394.663 386.449 394.592Z" fill="black"/>
<path d="M30.2721 311.777C30.2721 311.777 30.5741 311.795 31.169 311.795C31.7729 311.803 32.6609 311.803 33.8241 311.812C36.1773 311.821 39.6405 311.83 44.1338 311.848C53.147 311.866 66.2894 311.883 82.8417 311.91L82.6996 311.768C82.6908 319.494 82.6819 328.24 82.673 337.689V337.857H82.8417C105.956 337.875 133.831 337.884 164.635 337.902L164.422 337.689C164.422 347.226 164.413 357.331 164.413 367.685V367.907H164.635C181.587 367.907 199.374 367.907 217.622 367.916C227.373 367.916 236.99 367.916 246.429 367.916L246.198 367.685C246.198 378.501 246.198 389.086 246.207 399.396V399.618H246.429C278.797 399.6 308.518 399.591 334.057 399.573L333.87 399.387C333.879 406.438 333.879 413.098 333.888 419.42V419.589H334.057C357.251 419.553 376.033 419.536 389.015 419.518C395.498 419.5 400.533 419.482 403.96 419.473C405.665 419.465 406.962 419.456 407.85 419.447C408.729 419.438 409.173 419.42 409.173 419.42C409.173 419.42 408.72 419.402 407.85 419.394C406.971 419.385 405.665 419.385 403.96 419.367C400.533 419.358 395.498 419.34 389.015 419.322C376.033 419.305 357.251 419.278 334.057 419.251L334.226 419.42C334.235 413.098 334.235 406.447 334.243 399.387V399.2H334.057C308.518 399.192 278.797 399.174 246.429 399.156L246.651 399.378C246.651 389.059 246.651 378.475 246.66 367.668V367.437H246.429C236.99 367.437 227.373 367.437 217.622 367.437C199.374 367.437 181.596 367.437 164.635 367.446L164.857 367.668C164.857 357.313 164.849 347.217 164.849 337.671V337.458H164.635C133.84 337.476 105.956 337.493 82.8417 337.502L83.0105 337.671C83.0016 328.223 82.9927 319.467 82.9838 311.75V311.608H82.8417C66.2805 311.635 53.1382 311.661 44.1338 311.67C39.6405 311.688 36.1773 311.697 33.8241 311.706C32.6609 311.715 31.7729 311.724 31.169 311.724C30.5741 311.768 30.2721 311.777 30.2721 311.777Z" fill="black"/>
</svg>
