<svg width="479" height="441" viewBox="0 0 479 441" fill="none" xmlns="http://www.w3.org/2000/svg">
<path d="M444.592 224.848C460.805 207.457 476.028 184.016 467.744 162.02C459.437 139.969 432.193 131.529 408.296 127.304C384.4 123.089 357.289 118.43 344.056 98.7475C330.701 78.8872 337.073 51.0316 323.951 31.0379C310.007 9.79865 280.316 5.58417 254.373 3.47137C214.808 0.23545 174.076 -2.88927 136.168 8.51985C98.2597 19.929 63.4097 49.5527 59.0951 87.672C54.7138 126.425 81.7799 165.712 69.8704 202.964C57.5161 241.617 7.23142 262.945 2.2163 303.111C-0.40802 324.139 10.5452 344.277 21.1537 362.814C34.7201 386.533 48.2865 411.753 61.8529 435.472H398.689C393.852 428.878 398.644 419.382 405.394 414.6C412.155 409.83 420.617 407.606 427.111 402.501C444.314 388.991 440.433 362.458 430.737 343.199C421.04 323.939 406.773 305.112 407.952 283.729C409.231 260.366 428.379 242.229 444.592 224.848Z" fill="#FDEEEF"/>
<path d="M29.8274 241.128C66.1676 206.133 63.3876 187.518 55.9372 140.892C52.301 118.141 23.3667 140.436 13.0474 174.92C2.21648 211.115 10.4898 259.754 29.8274 241.128Z" fill="#FDEEEF"/>
<path d="M148.244 417.936C143.44 426.487 77.1536 444.769 76.6644 419.582C76.2529 398.376 124.447 404.692 142.128 412.131C136.857 406.972 131.808 401.656 126.96 396.363C122.323 391.292 117.864 386.077 113.583 380.729C103.186 387.356 39.3234 388.957 44.4386 365.194C48.5308 346.179 87.106 359.067 105.432 370.042C98.9933 361.268 92.9885 352.183 87.4174 342.832C79.7446 349.448 11.7124 347.157 18.6736 323.071C24.5004 302.955 67.6238 322.526 82.836 334.914C77.1425 324.773 71.9272 314.353 67.1901 303.711C57.4935 308.827 -8.00332 297.662 1.92684 274.966C10.1445 256.196 48.8088 279.748 63.0868 294.137C60.6071 288.132 58.283 282.05 56.0812 275.934C45.862 271.764 12.0016 214.762 35.6983 207.623C58.094 200.874 64.21 260.043 59.5062 273.487C61.9637 280.415 64.6214 287.254 67.4681 294.026C68.3021 275.122 83.9813 227.339 102.919 237.892C124.247 249.779 81.635 298.919 70.6262 301.387C75.2855 311.873 80.434 322.126 86.0385 332.123C84.9154 312.396 94.2451 265.336 113.95 273.154C136.345 282.038 101.762 334.992 90.6644 340.129C97.4254 351.483 104.82 362.458 112.86 372.978C109.035 356.387 114.461 301.899 135.978 308.738C159.697 316.277 126.026 375.024 116.418 377.593C120.811 383.13 125.37 388.546 130.129 393.817C134.399 398.532 138.859 403.269 143.507 407.872C136.646 389.124 131.808 342.031 152.803 343.643C176.811 345.478 159.531 406.249 150.457 414.5C159.119 422.451 168.382 429.768 178.268 435.595C180.547 436.94 178.09 440.232 175.833 438.897C166.014 433.081 156.84 425.82 148.244 417.936Z" fill="#F7B9BB"/>
<path d="M249.503 438.275C251.838 422.973 255.052 407.806 259.111 392.86C263.158 377.949 268.073 363.281 273.767 348.914C279.483 334.525 285.988 320.447 293.26 306.781C300.511 293.136 308.528 279.903 317.268 267.16C325.986 254.45 335.416 242.24 345.513 230.597C346.792 229.118 348.082 227.651 349.383 226.194C351.084 224.292 348.026 221.768 346.336 223.658C335.939 235.323 326.198 247.578 317.202 260.343C308.228 273.087 299.955 286.331 292.449 299.986C284.954 313.619 278.215 327.664 272.288 342.042C266.317 356.52 261.168 371.332 256.842 386.377C252.55 401.323 249.092 416.513 246.523 431.858C246.2 433.782 245.889 435.717 245.6 437.641C245.2 440.176 249.114 440.799 249.503 438.275Z" fill="#FAD1D3"/>
<path d="M312.442 274.822C309.54 244.575 317.546 199.762 318.258 169.971C319.047 137.1 323.64 101.772 351.429 82.7236C358.679 77.753 367.92 74.05 378.172 75.4178C392.573 77.3415 405.149 89.1176 410.031 101.25C414.913 113.381 413.623 125.725 411.299 137.301C399.934 193.824 364.495 243.118 312.442 274.822Z" fill="#FAD1D3"/>
<path d="M268.762 356.809C248.813 335.904 228.764 297.773 211.884 275.111C193.258 250.102 176.122 221.034 186.397 190.677C189.077 182.759 194.036 174.619 202.743 169.693C214.975 162.765 231.566 164.267 242.43 170.494C253.295 176.721 259.533 186.696 264.504 196.692C288.823 245.509 290.346 302.911 268.762 356.809Z" fill="#FAD1D3"/>
<path d="M253.539 400.811C269.241 371.999 303.123 333.791 321.671 306.725C342.143 276.857 367.363 246.099 402.814 238.715C412.055 236.791 422.263 236.747 430.291 241.728C441.556 248.734 445.326 264.113 442.234 277.012C439.143 289.911 430.603 300.776 421.629 310.55C377.805 358.288 317.546 390.648 253.539 400.811Z" fill="#FAD1D3"/>
<path d="M241.841 439.798C260.778 434.594 279.138 424.775 296.007 414.044C296.741 414.544 297.819 415.234 299.187 415.99C301.978 417.58 305.992 419.56 310.818 421.372C315.645 423.174 321.305 424.83 327.365 425.998C333.448 427.188 339.942 427.877 346.436 428.133C352.952 428.322 359.468 428.055 365.607 427.266C368.687 426.877 371.645 426.365 374.469 425.776C377.283 425.186 379.94 424.441 382.42 423.718C384.889 422.973 387.135 422.173 389.181 421.383C391.183 420.583 392.94 419.804 394.374 419.092C397.276 417.68 398.944 416.579 398.944 416.579C398.944 416.579 397.354 415.356 394.552 413.777C393.151 412.965 391.438 412.076 389.481 411.153C387.535 410.23 385.311 409.307 382.909 408.384C380.496 407.505 377.883 406.582 375.103 405.826C372.323 405.048 369.399 404.336 366.352 403.758C360.28 402.557 353.786 401.879 347.281 401.656C340.776 401.49 334.237 401.745 328.11 402.557C321.972 403.324 316.234 404.614 311.285 406.104C308.861 406.838 306.637 407.628 304.647 408.406C305.903 407.55 307.171 406.705 308.417 405.849C320.493 397.609 332.013 388.668 343.055 379.194C343.634 379.539 344.301 379.928 345.068 380.373C347.87 381.974 351.885 383.953 356.711 385.744C361.537 387.545 367.186 389.202 373.257 390.381C379.318 391.57 385.823 392.271 392.328 392.516C398.844 392.716 405.361 392.46 411.488 391.648C414.557 391.259 417.526 390.759 420.362 390.147C423.175 389.558 425.844 388.813 428.312 388.09C430.792 387.345 433.038 386.544 435.062 385.766C437.064 384.954 438.821 384.176 440.277 383.464C443.18 382.052 444.848 380.951 444.848 380.951C444.848 380.951 443.247 379.728 440.467 378.149C439.043 377.337 437.342 376.447 435.396 375.524C433.439 374.601 431.226 373.667 428.802 372.755C426.389 371.877 423.787 370.965 421.007 370.198C418.227 369.419 415.291 368.73 412.255 368.141C406.184 366.951 399.689 366.261 393.184 366.05C386.668 365.872 380.141 366.128 374.013 366.929C367.875 367.718 362.126 368.997 357.189 370.487C354.609 371.265 352.252 372.11 350.15 372.922C360.725 363.426 370.811 353.429 380.43 342.954C381.119 343.121 381.909 343.321 382.82 343.521C385.99 344.177 390.415 344.855 395.553 345.111C400.701 345.378 406.584 345.245 412.733 344.522C418.871 343.821 425.277 342.52 431.559 340.774C437.831 338.995 443.969 336.771 449.574 334.147C452.387 332.857 455.056 331.478 457.558 330.044C460.071 328.631 462.384 327.119 464.519 325.685C466.632 324.206 468.567 322.782 470.246 321.414C471.914 320.036 473.371 318.768 474.516 317.656C476.851 315.443 478.108 313.875 478.108 313.875C478.108 313.875 476.228 313.197 473.07 312.518C471.491 312.185 469.601 311.851 467.444 311.562C465.309 311.273 462.918 311.051 460.338 310.895C457.769 310.806 454.989 310.717 452.12 310.828C449.24 310.928 446.238 311.151 443.158 311.495C437.019 312.207 430.614 313.519 424.354 315.276C418.082 317.066 411.966 319.302 406.35 321.926C400.846 324.472 395.864 327.375 391.672 330.221C399.423 321.136 406.851 311.773 413.968 302.155C416.514 300.564 419.583 298.418 422.864 295.694C426.822 292.38 431.048 288.288 435.073 283.595C439.132 278.914 442.946 273.621 446.371 268.072C449.774 262.523 452.776 256.718 455.123 250.98C456.301 248.122 457.324 245.298 458.203 242.551C459.081 239.816 459.76 237.125 460.36 234.612C460.927 232.099 461.361 229.73 461.661 227.595C461.961 225.449 462.162 223.547 462.251 221.935C462.484 218.721 462.317 216.72 462.317 216.72C462.317 216.72 460.483 217.498 457.714 219.144C456.313 219.967 454.7 221.001 452.932 222.246C451.164 223.481 449.24 224.937 447.261 226.594C445.293 228.262 443.213 230.075 441.167 232.11C439.121 234.134 437.064 236.335 435.051 238.671C431.003 243.352 427.2 248.667 423.775 254.205C420.417 259.765 417.415 265.581 415.068 271.308C412.7 277.035 410.976 282.65 409.831 287.676C408.674 292.703 408.118 297.139 407.907 300.353C407.829 301.443 407.807 302.377 407.796 303.167C396.276 318.512 383.888 333.235 370.644 347.09C371.745 344.277 372.957 340.641 373.991 336.438C375.214 331.422 376.182 325.618 376.649 319.457C377.116 313.286 377.038 306.758 376.515 300.275C375.948 293.781 374.925 287.343 373.391 281.349C372.635 278.336 371.789 275.444 370.866 272.72C369.943 269.996 368.909 267.427 367.897 265.058C366.841 262.701 365.796 260.544 364.773 258.642C363.739 256.74 362.76 255.084 361.881 253.727C360.158 251.025 358.857 249.501 358.857 249.501C358.857 249.501 357.823 251.214 356.577 254.183C355.932 255.673 355.254 257.474 354.553 259.521C353.875 261.578 353.208 263.88 352.574 266.37C351.996 268.884 351.384 271.586 350.951 274.432C350.506 277.268 350.15 280.27 349.927 283.351C349.46 289.533 349.538 296.061 350.094 302.544C350.684 309.038 351.729 315.476 353.241 321.481C354.731 327.475 356.688 333.035 358.757 337.772C360.814 342.498 363.005 346.401 364.739 349.103C365.351 350.06 365.907 350.882 366.385 351.516C352.919 365.216 338.607 378.037 323.373 389.68C323.618 389.124 323.896 388.512 324.196 387.812C325.441 384.843 326.92 380.628 328.143 375.613C329.378 370.598 330.345 364.805 330.812 358.633C331.279 352.461 331.213 345.934 330.679 339.429C330.112 332.935 329.077 326.496 327.554 320.48C326.809 317.5 325.964 314.598 325.03 311.873C324.118 309.149 323.062 306.58 322.061 304.212C321.015 301.843 319.97 299.686 318.936 297.796C317.913 295.894 316.934 294.237 316.045 292.869C314.31 290.178 313.009 288.644 313.009 288.644C313.009 288.644 311.986 290.356 310.741 293.325C310.107 294.804 309.428 296.606 308.728 298.663C308.05 300.72 307.371 303.022 306.76 305.524C306.159 308.026 305.559 310.728 305.136 313.575C304.68 316.422 304.324 319.424 304.102 322.504C303.646 328.665 303.724 335.192 304.269 341.686C304.847 348.18 305.892 354.63 307.405 360.635C308.906 366.628 310.852 372.188 312.92 376.903C314.988 381.629 317.168 385.521 318.903 388.234C319.759 389.58 320.515 390.636 321.049 391.359C315.189 395.785 309.206 400.044 303.068 404.092C295.551 409.062 287.7 414.044 279.593 418.637C279.927 417.947 280.316 417.102 280.728 416.101C281.995 413.121 283.474 408.918 284.675 403.914C285.921 398.91 286.899 393.094 287.344 386.945C287.822 380.762 287.756 374.234 287.211 367.74C286.655 361.246 285.632 354.819 284.119 348.814C283.374 345.801 282.507 342.909 281.573 340.185C280.661 337.461 279.605 334.892 278.604 332.523C277.57 330.177 276.513 328.009 275.479 326.107C274.445 324.206 273.466 322.549 272.599 321.203C270.864 318.49 269.563 316.966 269.563 316.966C269.563 316.966 268.54 318.679 267.273 321.648C266.65 323.138 265.96 324.939 265.271 326.986C264.581 329.043 263.925 331.345 263.28 333.847C262.702 336.349 262.091 339.073 261.679 341.897C261.223 344.744 260.867 347.735 260.645 350.816C260.178 356.998 260.267 363.515 260.812 370.009C261.412 376.492 262.424 382.941 263.959 388.957C265.449 394.951 267.417 400.5 269.463 405.226C271.531 409.963 273.722 413.844 275.468 416.568C276.335 417.947 277.103 419.015 277.647 419.749C265.749 426.365 253.306 432.081 240.496 435.595C237.827 436.329 239.106 440.554 241.841 439.798Z" fill="#F7B9BB"/>
<path d="M159.03 49.6416C164.301 49.6416 168.582 53.9117 168.582 59.1937C168.582 60.9507 170.005 62.374 171.762 62.374C173.519 62.374 174.943 60.9507 174.943 59.1937C174.943 50.4089 167.815 43.281 159.03 43.281C157.273 43.281 155.85 44.7043 155.85 46.4613C155.85 48.2183 157.273 49.6416 159.03 49.6416Z" fill="#AD131A"/>
<path d="M159.03 36.9092C171.34 36.9092 181.314 46.8838 181.314 59.1826C181.314 60.9395 182.738 62.3629 184.495 62.3629C186.252 62.3629 187.675 60.9395 187.675 59.1826C187.675 43.3588 174.854 30.5374 159.03 30.5374C157.273 30.5374 155.85 31.9608 155.85 33.7178C155.85 35.4858 157.273 36.9092 159.03 36.9092Z" fill="#AD131A"/>
<path d="M186.875 74.8173C186.519 73.7831 185.651 72.9936 184.584 72.749L165.491 68.3899C164.435 68.1564 163.334 68.4678 162.566 69.2128C162.122 69.6242 162.088 69.6576 160.02 73.6052C153.159 70.4471 147.654 64.9205 144.519 58.0372C148.555 56.0022 148.588 56.0022 149.011 55.5241C149.767 54.7568 150.079 53.6448 149.834 52.5995L145.475 33.7289C145.23 32.6614 144.441 31.794 143.407 31.4382C142.662 31.1713 141.894 30.9822 141.116 30.8599C140.315 30.6709 139.492 30.5708 138.669 30.5374C130.585 30.5374 124.024 37.0871 124.024 45.1825C124.058 72.2374 145.986 94.1661 173.041 94.1994C181.126 94.1994 187.686 87.6498 187.686 79.5544C187.686 78.7426 187.62 77.9309 187.497 77.1302C187.353 76.3518 187.142 75.5734 186.875 74.8173Z" fill="#E61D25"/>
<path d="M342.832 58.571H303.723C295.617 58.571 288.989 51.9434 288.989 43.837C288.989 35.7305 295.617 29.103 303.723 29.103H342.832C350.939 29.103 357.566 35.7305 357.566 43.837C357.566 51.9434 350.939 58.571 342.832 58.571Z" fill="#E61D25"/>
<path d="M346.502 63.0968C346.502 64.8983 345.045 66.355 343.244 66.355C341.442 66.355 339.985 64.8983 339.985 63.0968C339.985 61.2954 341.442 59.8387 343.244 59.8387C345.045 59.8387 346.502 61.2954 346.502 63.0968Z" fill="#E61D25"/>
<path d="M314.733 43.4366C314.733 45.7941 312.82 47.7067 310.462 47.7067C308.105 47.7067 306.192 45.7941 306.192 43.4366C306.192 41.0792 308.105 39.1666 310.462 39.1666C312.82 39.1666 314.733 41.0792 314.733 43.4366Z" fill="white"/>
<path d="M327.554 43.4366C327.554 45.7941 325.641 47.7067 323.284 47.7067C320.926 47.7067 319.014 45.7941 319.014 43.4366C319.014 41.0792 320.926 39.1666 323.284 39.1666C325.641 39.1666 327.554 41.0792 327.554 43.4366Z" fill="white"/>
<path d="M340.375 43.4366C340.375 45.7941 338.462 47.7067 336.105 47.7067C333.748 47.7067 331.835 45.7941 331.835 43.4366C331.835 41.0792 333.748 39.1666 336.105 39.1666C338.462 39.1666 340.375 41.0792 340.375 43.4366Z" fill="white"/>
<path d="M285.832 92.8094H324.941C333.047 92.8094 339.675 86.1819 339.675 78.0754C339.675 69.969 333.047 63.3414 324.941 63.3414H285.832C277.725 63.3414 271.098 69.969 271.098 78.0754C271.098 86.1819 277.725 92.8094 285.832 92.8094Z" fill="#AD131A"/>
<path d="M282.151 97.3353C282.151 99.1367 283.608 100.593 285.41 100.593C287.211 100.593 288.668 99.1367 288.668 97.3353C288.668 95.5338 287.211 94.0771 285.41 94.0771C283.608 94.0771 282.151 95.5338 282.151 97.3353Z" fill="#AD131A"/>
<path d="M296.829 77.8086C296.829 80.166 294.917 82.0786 292.559 82.0786C290.202 82.0786 288.289 80.166 288.289 77.8086C288.289 75.4511 290.202 73.5385 292.559 73.5385C294.917 73.5385 296.829 75.4511 296.829 77.8086Z" fill="white"/>
<path d="M309.651 77.8086C309.651 80.166 307.738 82.0786 305.38 82.0786C303.023 82.0786 301.11 80.166 301.11 77.8086C301.11 75.4511 303.023 73.5385 305.38 73.5385C307.738 73.5385 309.651 75.4511 309.651 77.8086Z" fill="white"/>
<path d="M322.472 77.8086C322.472 80.166 320.559 82.0786 318.202 82.0786C315.844 82.0786 313.932 80.166 313.932 77.8086C313.932 75.4511 315.844 73.5385 318.202 73.5385C320.559 73.5385 322.472 75.4511 322.472 77.8086Z" fill="white"/>
<path d="M228.252 180.746C226.895 184.238 224.627 187.04 221.958 188.853C218.544 191.199 214.474 191.944 210.794 190.521C204.233 187.986 201.408 179.468 204.5 171.528C207.569 163.588 215.386 159.207 221.958 161.753C221.991 161.765 222.036 161.776 222.069 161.798C228.541 164.4 231.31 172.851 228.252 180.746Z" fill="#F49EA1"/>
<path d="M67.3241 168.892C74.1962 179.368 94.2011 209.792 105.421 226.283C96.9144 242.207 79.1002 251.014 79.1002 251.014C79.1002 251.014 69.8928 226.372 65.0445 213.028C60.1962 199.684 56.4376 189.298 56.5822 182.481C56.6044 181.536 57.3717 181.225 57.8943 181.113L57.1604 179.79C56.2708 178.178 56.9046 176.143 58.5615 175.32C59.6179 174.797 60.8078 174.942 61.7307 175.542L60.3741 173.34C59.251 171.528 59.6958 169.148 61.4082 167.869C63.3209 166.446 66.023 166.902 67.3241 168.892Z" fill="#DB8A8D"/>
<path d="M73.707 211.204C73.9183 202.92 81.3353 196.381 84.1709 194.557L85.1606 196.092C81.5244 198.427 75.6975 204.599 75.5307 211.249L73.707 211.204Z" fill="#C65358"/>
<path d="M61.8375 175.527L61.0498 175.986L71.7592 194.354L72.5469 193.895L61.8375 175.527Z" fill="#C65358"/>
<path d="M57.9753 181.214L57.1533 181.609L65.6651 199.342L66.4871 198.948L57.9753 181.214Z" fill="#C65358"/>
<path d="M254.74 196.003L254.784 196.704L255.196 218.076L256.241 272.353L191.256 254.883L222.559 234.289L222.247 226.116L221.191 197.727C220.813 188.508 227.952 180.702 237.17 180.235C246.389 179.801 254.195 186.885 254.74 196.003Z" fill="#DB8A8D"/>
<path d="M254.74 196.003L254.785 196.704L255.196 218.076C251.838 219.878 248.346 221.434 244.843 222.836C239.205 225.093 234.202 226.683 228.108 226.694C226.151 226.694 224.116 226.672 222.248 226.116L221.191 197.727C220.813 188.508 227.952 180.702 237.171 180.235C246.389 179.801 254.195 186.885 254.74 196.003Z" fill="#C65358"/>
<path d="M268.584 184.883C263.769 196.537 260.144 201.074 256.185 199.828C244.787 219.344 229.108 226.694 215.119 222.902C203.766 219.855 204.355 203.32 207.535 188.341C208.292 184.883 209.17 181.48 210.06 178.367C211.539 173.296 213.974 166.324 217.377 158.506C208.392 130.651 235.369 124.546 253.172 144.84C254.117 144.139 255.14 143.617 256.196 143.35C260.9 142.015 266.182 145.518 270.141 158.484C278.292 167.425 273.421 173.218 268.584 184.883Z" fill="#E61D25"/>
<path d="M262.235 157.739C260.756 155.004 258.021 151.612 253.184 144.84C254.129 144.139 255.152 143.617 256.208 143.35C258.543 147.731 261.868 154.559 262.235 157.739Z" fill="#E50F17"/>
<path d="M264.859 188.897C259.399 199.895 250.937 194.947 250.181 190.532C245.755 196.982 242.886 198.638 240.918 198.839C238.95 199.039 233.468 195.58 231.11 194.824C228.73 194.035 216.865 197.482 207.58 188.364L207.547 188.341C208.303 184.883 209.182 181.48 210.071 178.367C211.55 173.296 213.985 166.324 217.388 158.506C222.425 152.112 237.804 139.791 255.808 171.506C254.362 177.622 253.339 182.325 252.038 185.461C260.812 174.853 270.319 177.922 264.859 188.897Z" fill="#DB8A8D"/>
<path d="M253.384 187.396C253.784 186.34 254.385 185.361 255.163 184.527C255.908 183.671 256.831 182.948 257.865 182.414C258.899 181.881 260.078 181.514 261.323 181.58C261.935 181.592 262.58 181.758 263.125 182.114C263.67 182.459 264.07 183.093 263.981 183.682C263.648 183.193 263.203 182.993 262.758 182.937C262.313 182.859 261.857 182.915 261.39 183.004C260.467 183.215 259.566 183.593 258.688 184.038C257.81 184.483 256.942 185.028 256.075 185.595C255.207 186.162 254.373 186.818 253.384 187.396Z" fill="#C65358"/>
<path d="M254.484 186.173C254.896 185.673 255.519 185.328 256.164 185.161C256.808 184.994 257.509 184.983 258.187 185.15C258.855 185.328 259.511 185.695 259.922 186.295C260.345 186.885 260.434 187.63 260.267 188.252C259.889 186.985 259.044 186.295 257.954 186.04C257.42 185.895 256.853 185.85 256.264 185.873C255.696 185.895 255.107 185.962 254.484 186.173Z" fill="#C65358"/>
<path d="M222.703 174.931C217.254 182.07 210.782 185.083 209.959 186.985C209.136 188.886 211.972 192.623 219.011 193.901C223.181 191.266 219.801 186.94 222.703 174.931Z" fill="#C65358"/>
<path d="M233.662 181.014C235.023 180.932 236.045 179.51 235.944 177.836C235.844 176.162 234.659 174.872 233.298 174.954C231.937 175.035 230.915 176.458 231.016 178.132C231.116 179.805 232.301 181.096 233.662 181.014Z" fill="#E61D25"/>
<path d="M218.31 176.187C217.999 177.833 216.654 178.956 215.308 178.7C213.974 178.445 213.14 176.899 213.451 175.253C213.762 173.607 215.108 172.484 216.442 172.74C217.788 173.007 218.622 174.541 218.31 176.187Z" fill="#E61D25"/>
<path d="M236.525 162.754C241.44 162.899 243.764 168.703 244.509 171.862C244.876 173.418 243.842 173.841 243.019 172.384C241.996 170.594 239.227 167.358 236.102 166.124C233.878 165.234 234.624 162.699 236.525 162.754Z" fill="#E61D25"/>
<path d="M222.481 160.341C218.333 158.64 214.864 161.587 213.107 164.044C212.184 165.345 212.873 166.635 214.275 165.723C215.998 164.6 217.977 163.21 221.336 163.533C223.704 163.766 224.249 161.075 222.481 160.341Z" fill="#E61D25"/>
<path d="M177.756 404.826C192.656 410.063 208.024 413.221 233.545 410.819C248.457 362.658 250.847 246.977 251.337 240.528C239.65 245.02 225.216 247.633 219.111 233.411C189.876 266.382 177.589 316.755 177.756 404.826Z" fill="white"/>
<path d="M255.385 228.195C239.583 237.314 229.631 265.014 227.007 307.325C224.382 349.637 221.135 388.301 222.203 400.922C223.281 413.544 227.04 433.927 249.658 435.739C272.276 437.552 305.636 438.719 305.636 438.719C305.636 438.719 279.037 275.444 278.136 265.67C277.236 255.895 273.977 240.561 255.385 228.195Z" fill="#AD131A"/>
<path d="M443.479 410.374C433.071 403.413 402.813 383.142 386.422 371.777C370.432 380.139 361.458 397.876 361.458 397.876C361.458 397.876 386.022 407.305 399.322 412.276C412.621 417.247 422.974 421.094 429.79 421.005C430.736 420.994 431.058 420.227 431.169 419.704L432.493 420.449C434.105 421.361 436.14 420.738 436.974 419.081C437.497 418.036 437.374 416.835 436.785 415.901L438.976 417.28C440.788 418.414 443.157 417.992 444.458 416.29C445.892 414.4 445.447 411.698 443.479 410.374Z" fill="#DB8A8D"/>
<path d="M394.907 378.538L432.137 388.134C434.294 388.69 435.606 390.848 435.117 393.016C434.605 395.285 432.315 396.675 430.068 396.085L407.817 390.292C407.839 390.292 390.214 387.267 394.907 378.538Z" fill="#DB8A8D"/>
<path d="M405.682 402.857C404.27 403.313 402.78 403.591 401.223 403.613L401.189 401.79C407.839 401.679 414.066 395.907 416.424 392.304L417.947 393.305C416.468 395.596 411.82 400.878 405.682 402.857Z" fill="#C65358"/>
<path d="M418.525 404.915L418.059 405.698L436.331 416.569L436.797 415.786L418.525 404.915Z" fill="#C65358"/>
<path d="M413.4 410.946L412.998 411.765L430.657 420.432L431.059 419.613L413.4 410.946Z" fill="#C65358"/>
<path d="M255.385 228.195C275.812 242.663 282.15 253.06 288.289 265.692C294.438 278.324 317.534 319.746 324.395 328.52C331.267 337.305 386.423 371.766 386.423 371.766L356.966 404.281C356.966 404.281 300.498 379.405 289.656 367.696C278.803 355.998 254.829 312.418 255.385 228.195Z" fill="#AD131A"/>
<path d="M222.403 230.831L222.614 236.246C210.282 249.813 200.719 273.71 195.448 304.379C189.454 339.106 187.153 376.036 186.919 406.605C186.786 427.633 167.348 427.366 157.74 420.193C159.786 392.516 167.793 325.718 172.13 305.313C176.277 285.753 184.706 228.952 222.403 230.831Z" fill="#AD131A"/>
<path d="M222.425 231.176L222.492 232.721C202.976 240.361 192.568 277.279 192.568 277.279C192.568 277.279 180.414 315.432 169.26 324.239C147.621 341.353 131.486 336.816 119.298 323.872C112.86 317.033 72.2383 252.204 72.2383 252.204L105.465 225.849L143.095 276.39C143.095 276.39 175.02 253.605 187.052 244.742C197.917 236.724 207.168 231.042 222.425 231.176Z" fill="#AD131A"/>
<path d="M261.267 303.286L259.567 303.948L280.034 356.465L281.733 355.803L261.267 303.286Z" fill="#9D0006"/>
<path d="M179.055 281.658L170.162 309.809L171.901 310.358L180.794 282.208L179.055 281.658Z" fill="#9D0006"/>
<path d="M70.4707 189.909L36.3545 155.793V185.016C36.3545 190.665 40.9359 195.247 46.5849 195.247H94.3453C99.9943 195.247 104.576 190.665 104.576 185.016V155.793L70.4707 189.909Z" fill="#E5141C"/>
<path d="M104.586 155.804V150.911C104.586 145.262 100.005 140.681 94.356 140.681H46.5956C40.9467 140.681 36.3652 145.262 36.3652 150.911V155.804L70.4814 189.92L104.586 155.804Z" fill="#E61D25"/>
<path d="M98.048 159.863C104.988 159.863 110.614 154.237 110.614 147.297C110.614 140.358 104.988 134.732 98.048 134.732C91.1082 134.732 85.4824 140.358 85.4824 147.297C85.4824 154.237 91.1082 159.863 98.048 159.863Z" fill="#AD131A"/>
<path d="M66.5568 172.584H44.1611V177.588H66.5568V172.584Z" fill="#F49EA1"/>
<path d="M98.7266 217.743L89.4637 180.424C88.9299 178.267 86.7726 176.921 84.6042 177.399C82.3357 177.889 80.9235 180.168 81.4906 182.414L87.0951 204.71C87.084 204.71 89.9529 222.357 98.7266 217.743Z" fill="#DB8A8D"/>
<path d="M223.349 197.893C223.337 197.949 223.337 198.016 223.326 198.071C221.97 208.858 209.115 209.959 208.17 196.781C208.103 196.103 208.081 195.369 208.103 194.613C211.65 194.746 220.191 196.926 223.349 197.893Z" fill="#C65358"/>
<path d="M223.349 197.893C223.337 197.949 223.337 198.016 223.326 198.071C221.87 198.438 220.291 198.672 218.611 198.761C214.397 198.972 210.583 198.182 208.17 196.792C208.103 196.114 208.081 195.38 208.103 194.624C211.65 194.746 220.191 196.926 223.349 197.893Z" fill="#FDEEEF"/>
<path d="M270.72 190.677C269.363 194.168 267.095 196.97 264.426 198.783C261.012 201.129 256.942 201.874 253.261 200.451C246.701 197.916 243.876 189.398 246.967 181.458C250.037 173.518 257.854 169.137 264.426 171.684C264.459 171.695 264.504 171.706 264.537 171.728C271.009 174.33 273.778 182.781 270.72 190.677Z" fill="#F49EA1"/>
<path d="M260.356 171.873C265.36 164.834 259.689 151.223 253.172 144.84C253.172 144.84 250.815 142.271 250.025 141.648C251.493 141.671 252.027 141.926 253.517 143.072C255.007 144.206 274.801 156.182 267.228 174.541C267.228 174.53 260.756 173.474 260.356 171.873Z" fill="#F49EA1"/>
<path d="M270.72 190.677C269.363 194.168 267.094 196.97 264.426 198.783C255.252 200.851 248.046 191.655 254.329 180.802C257.086 176.054 260.745 173.14 264.515 171.728C271.009 174.33 273.778 182.781 270.72 190.677Z" fill="#F7B6B9"/>
<path d="M252.105 193.868C246.556 199.417 235.659 200.017 227.041 200.151C226.207 200.162 225.528 200.807 225.473 201.641C225.406 202.597 226.195 203.387 227.152 203.342C240.251 202.619 248.391 201.785 253.951 195.825L252.105 193.868Z" fill="#F49EA1"/>
<path d="M227.084 205.055C228.945 205.055 230.454 203.546 230.454 201.685C230.454 199.825 228.945 198.316 227.084 198.316C225.223 198.316 223.715 199.825 223.715 201.685C223.715 203.546 225.223 205.055 227.084 205.055Z" fill="#AD131A"/>
<path d="M121.056 101.405C127.928 101.405 133.499 95.8342 133.499 88.9619C133.499 82.0897 127.928 76.5186 121.056 76.5186C114.183 76.5186 108.612 82.0897 108.612 88.9619C108.612 95.8342 114.183 101.405 121.056 101.405Z" fill="#FAD1D3"/>
<path d="M251.904 49.8418C251.904 52.6551 249.625 54.9459 246.8 54.9459C243.987 54.9459 241.696 52.6663 241.696 49.8418C241.696 47.0284 243.976 44.7377 246.8 44.7377C249.614 44.7377 251.904 47.0173 251.904 49.8418Z" fill="#FAD1D3"/>
<path d="M195.159 125.424C197.173 125.424 198.806 123.791 198.806 121.777C198.806 119.763 197.173 118.13 195.159 118.13C193.145 118.13 191.512 119.763 191.512 121.777C191.512 123.791 193.145 125.424 195.159 125.424Z" fill="#FAD1D3"/>
<path d="M300.588 236.902C300.588 239.115 298.798 240.917 296.574 240.917C294.361 240.917 292.56 239.126 292.56 236.902C292.56 234.69 294.35 232.888 296.574 232.888C298.798 232.888 300.588 234.69 300.588 236.902Z" fill="#FAD1D3"/>
<path d="M320.848 311.84V389.046C320.848 396.675 314.666 402.868 307.026 402.868H170.017C162.388 402.868 156.217 396.675 156.217 389.046V311.84C156.217 304.212 162.4 298.018 170.017 298.018H307.026C314.666 298.029 320.848 304.212 320.848 311.84Z" fill="#E61D25"/>
<path d="M274.634 402.868H225.005L223.248 344.811H253.806L274.634 402.868Z" fill="#E40D15"/>
<path d="M290.424 427.344H264.514L253.806 344.811H223.248L212.539 427.344H186.63C184.484 427.344 182.749 429.078 182.749 431.224V435.039H294.283V431.224C294.294 429.078 292.559 427.344 290.424 427.344ZM249.725 386.177C249.725 392.36 244.71 397.375 238.527 397.375C232.344 397.375 227.329 392.36 227.329 386.177V381.507C227.329 375.324 232.344 370.309 238.527 370.309C244.71 370.309 249.725 375.324 249.725 381.507V386.177Z" fill="#F49EA1"/>
<path d="M238.394 384.498C212.584 384.498 221.591 416.401 221.591 434.282" stroke="#FDEEEF" stroke-width="2.1742" stroke-miterlimit="10"/>
<path d="M366.151 139.224C360.28 139.224 354.731 139.958 349.805 141.248C347.281 141.915 345.513 144.184 345.513 146.797V184.839V189.731C345.513 193.379 348.882 196.07 352.452 195.314C356.688 194.413 361.314 193.912 366.163 193.912C373.802 193.912 380.919 195.147 386.824 197.271V184.85V142.583C380.908 140.47 373.791 139.224 366.151 139.224Z" fill="#E61D25"/>
<path d="M407.462 139.224C399.822 139.224 392.706 140.459 386.801 142.583V184.85V197.271C392.706 195.147 399.822 193.912 407.462 193.912C412.299 193.912 416.925 194.413 421.173 195.314C424.742 196.07 428.112 193.39 428.112 189.731V184.839V146.797C428.112 144.184 426.344 141.915 423.819 141.248C418.882 139.958 413.333 139.224 407.462 139.224Z" fill="#E5141C"/>
<path d="M426.978 440.298H34.6979C33.2189 440.298 32.0068 439.086 32.0068 437.618C32.0068 436.139 33.2189 434.927 34.6979 434.927H426.978C428.457 434.927 429.669 436.139 429.669 437.618C429.658 439.086 428.446 440.298 426.978 440.298Z" fill="#E61D25"/>
</svg>
