<svg width="33" height="32" viewBox="0 0 33 32" fill="none" xmlns="http://www.w3.org/2000/svg">
<path d="M29.7422 32H2.99862C1.52371 32 0.324265 30.8006 0.324265 29.3256V9.26798C0.324265 7.79308 1.52371 6.59363 2.99862 6.59363H16.3704C16.5477 6.59363 16.7178 6.66407 16.8432 6.78945C16.9685 6.91484 17.039 7.0849 17.039 7.26222C17.039 7.43954 16.9685 7.6096 16.8432 7.73498C16.7178 7.86037 16.5477 7.93081 16.3704 7.93081H2.99862C2.26117 7.93081 1.66144 8.53053 1.66144 9.26798V29.3256C1.66144 30.0631 2.26117 30.6628 2.99862 30.6628H29.7422C30.4796 30.6628 31.0794 30.0631 31.0794 29.3256V9.26798C31.0794 8.53053 30.4796 7.93081 29.7422 7.93081C29.5649 7.93081 29.3948 7.86037 29.2694 7.73498C29.144 7.6096 29.0736 7.43954 29.0736 7.26222C29.0736 7.0849 29.144 6.91484 29.2694 6.78945C29.3948 6.66407 29.5649 6.59363 29.7422 6.59363C31.2171 6.59363 32.4165 7.79308 32.4165 9.26798V29.3256C32.4165 30.8006 31.2171 32 29.7422 32Z" fill="#D80808"/>
<path d="M29.7422 29.3256H7.01015V9.26794H13.696C13.8734 9.26794 14.0434 9.33838 14.1688 9.46377C14.2942 9.58915 14.3646 9.75921 14.3646 9.93653C14.3646 10.1139 14.2942 10.2839 14.1688 10.4093C14.0434 10.5347 13.8734 10.6051 13.696 10.6051H8.34733V27.9884H28.405V10.6051H27.0678C26.8905 10.6051 26.7204 10.5347 26.5951 10.4093C26.4697 10.2839 26.3992 10.1139 26.3992 9.93653C26.3992 9.75921 26.4697 9.58915 26.5951 9.46377C26.7204 9.33838 26.8905 9.26794 27.0678 9.26794H29.7422V29.3256ZM5.67298 27.9884H0.324265V10.6051H5.67298V27.9884ZM1.66144 26.6513H4.3358V11.9423H1.66144V26.6513Z" fill="#D80808"/>
<path d="M11.9845 18.334L13.7489 12.7868L25.7781 0.75818C26.7884 -0.252727 28.5501 -0.252727 29.5604 0.75818C30.0612 1.25996 30.3425 1.93997 30.3425 2.64895C30.3425 3.35793 30.0612 4.03794 29.5604 4.53972L17.5318 16.569L11.9845 18.334ZM14.9249 13.5022L14.0424 16.2755L16.8157 15.3929L28.615 3.595C29.1365 3.0735 29.1365 2.22573 28.615 1.70423C28.1095 1.19878 27.229 1.19878 26.7235 1.70423L14.9249 13.5022ZM0.992886 15.9539H5.00442V17.291H0.992886V15.9539ZM0.992886 21.3026H5.00442V22.6398H0.992886V21.3026Z" fill="#D80808"/>
<path d="M28.1416 5.68165C28.0538 5.68174 27.9668 5.66448 27.8857 5.63086C27.8046 5.59725 27.7309 5.54793 27.6689 5.48575L24.8321 2.64893C24.77 2.58686 24.7207 2.51316 24.6872 2.43206C24.6536 2.35095 24.6363 2.26403 24.6363 2.17624C24.6363 2.08845 24.6536 2.00152 24.6872 1.92042C24.7207 1.83932 24.77 1.76562 24.8321 1.70355C24.8941 1.64147 24.9678 1.59223 25.0489 1.55864C25.13 1.52504 25.217 1.50775 25.3048 1.50775C25.3925 1.50775 25.4795 1.52504 25.5606 1.55864C25.6417 1.59223 25.7154 1.64147 25.7774 1.70355L28.6143 4.54037C28.7081 4.63375 28.772 4.75289 28.798 4.88267C28.824 5.01246 28.8108 5.14703 28.7601 5.26932C28.7095 5.3916 28.6237 5.49608 28.5135 5.56949C28.4034 5.64291 28.2739 5.68194 28.1416 5.68165ZM24.36 9.46386C24.2722 9.46395 24.1853 9.44669 24.1041 9.41307C24.023 9.37945 23.9493 9.33014 23.8873 9.26796L21.0505 6.43114C20.9884 6.36906 20.9392 6.29537 20.9056 6.21427C20.872 6.13316 20.8547 6.04623 20.8547 5.95845C20.8547 5.87066 20.872 5.78373 20.9056 5.70263C20.9392 5.62152 20.9884 5.54783 21.0505 5.48575C21.1126 5.42368 21.1863 5.37444 21.2674 5.34084C21.3485 5.30725 21.4354 5.28996 21.5232 5.28996C21.611 5.28996 21.6979 5.30725 21.779 5.34084C21.8601 5.37444 21.9338 5.42368 21.9959 5.48575L24.8327 8.32258C24.9265 8.41595 24.9905 8.5351 25.0164 8.66488C25.0424 8.79466 25.0292 8.92924 24.9786 9.05152C24.928 9.17381 24.8421 9.27828 24.732 9.3517C24.6219 9.42511 24.4924 9.46415 24.36 9.46386ZM17.174 16.6499C17.0862 16.6499 16.9993 16.6327 16.9182 16.5991C16.837 16.5654 16.7634 16.5161 16.7014 16.454L13.8645 13.6171C13.7392 13.4918 13.6687 13.3217 13.6687 13.1444C13.6687 12.9671 13.7392 12.7971 13.8645 12.6717C13.9899 12.5464 14.1599 12.476 14.3372 12.476C14.5145 12.476 14.6845 12.5464 14.8099 12.6717L17.6467 15.5086C17.7405 15.6019 17.8045 15.7211 17.8305 15.8509C17.8564 15.9807 17.8433 16.1152 17.7926 16.2375C17.742 16.3598 17.6561 16.4643 17.546 16.5377C17.4359 16.6111 17.3064 16.6501 17.174 16.6499ZM11.6903 19.2968C11.5579 19.2971 11.4285 19.258 11.3183 19.1846C11.2082 19.1112 11.1224 19.0067 11.0717 18.8845C11.0211 18.7622 11.0079 18.6276 11.0339 18.4978C11.0598 18.368 11.1238 18.2489 11.2176 18.1555L12.5407 16.8324C12.6661 16.707 12.8361 16.6366 13.0134 16.6366C13.1907 16.6366 13.3607 16.707 13.4861 16.8324C13.6115 16.9577 13.6819 17.1278 13.6819 17.3051C13.6819 17.4824 13.6115 17.6524 13.4861 17.7778L12.163 19.1009C12.101 19.1631 12.0273 19.2124 11.9462 19.246C11.865 19.2796 11.7781 19.2969 11.6903 19.2968Z" fill="#D80808"/>
</svg>
