<svg width="407" height="366" viewBox="0 0 407 366" fill="none" xmlns="http://www.w3.org/2000/svg">
<path d="M175.917 365.231C253.034 365.231 315.55 302.715 315.55 225.598C315.55 148.481 253.034 85.9646 175.917 85.9646C98.7995 85.9646 36.2834 148.481 36.2834 225.598C36.2834 302.715 98.7995 365.231 175.917 365.231Z" fill="#FFCCCC"/>
<path d="M20.9639 195.23C32.469 195.23 41.7957 185.903 41.7957 174.398C41.7957 162.893 32.469 153.566 20.9639 153.566C9.45891 153.566 0.132233 162.893 0.132233 174.398C0.132233 185.903 9.45891 195.23 20.9639 195.23Z" fill="#700B0B"/>
<path d="M33.9837 136.928C40.0724 136.928 45.0083 131.992 45.0083 125.903C45.0083 119.815 40.0724 114.879 33.9837 114.879C27.895 114.879 22.9592 119.815 22.9592 125.903C22.9592 131.992 27.895 136.928 33.9837 136.928Z" fill="#EA1717"/>
<path d="M56.0668 162.258C58.0839 162.258 59.7191 160.622 59.7191 158.605C59.7191 156.588 58.0839 154.953 56.0668 154.953C54.0497 154.953 52.4145 156.588 52.4145 158.605C52.4145 160.622 54.0497 162.258 56.0668 162.258Z" fill="#700B0B"/>
<mask id="mask0_12_676" style="mask-type:luminance" maskUnits="userSpaceOnUse" x="36" y="15" width="340" height="351">
<path d="M315.55 225.598C315.55 302.702 253.021 365.231 175.917 365.231C98.8124 365.231 36.3172 302.702 36.3172 225.598C36.3172 148.494 89.4787 15.2179 166.583 15.2179C223.803 15.2179 350.078 16.6044 374.292 85.9646C382.712 110.11 315.55 205.713 315.55 225.598Z" fill="white"/>
</mask>
<g mask="url(#mask0_12_676)">
<path d="M118.19 89.5831C118.19 89.5831 114.673 61.2776 123.533 48.3593C135.099 31.5518 167.902 26.8512 183.56 36.1172C200.874 46.364 214.672 72.8095 208.619 95.9746C234.354 103.381 240.509 132.633 222.416 140.141L237.905 173.316C247.543 193.945 237.702 218.598 215.585 229.25L175.984 248.323C175.984 248.323 102.904 259.822 88.4303 225.97C73.9564 192.118 102.296 167.431 102.296 167.431C102.296 167.431 79.1643 141.73 90.1889 116.671C101.247 91.6121 118.19 89.5831 118.19 89.5831Z" fill="#700B0B"/>
<path d="M230.566 186.572C230.566 186.572 296.984 197.09 314.975 196.312C329.077 197.09 352.31 119.884 354.339 115.149C365.6 108.081 368.407 98.4095 368.238 93.0663C368.069 87.7231 353.697 83.2254 352.31 85.9308C354.677 78.8629 355.218 76.6309 355.861 74.196C357.214 69.1572 353.358 65.3358 347.846 84.3075C342.402 103.009 342.943 99.9313 341.624 106.526C332.73 123.604 309.801 163.441 308.246 169.461C278.52 168.75 228.165 157.185 228.165 157.185L230.566 186.572ZM97.5611 168.548C97.5611 168.548 66.0768 227.627 59.9558 244.13C53.8686 256.406 117.108 312.949 120.659 317.041C122.857 330.467 128.673 335.1 133.611 337.501C138.548 339.868 148.119 329.148 146.191 326.645C151.771 332.124 153.597 333.646 155.559 335.404C159.65 338.989 164.622 337.366 149.37 323.433C134.321 309.669 136.959 311.63 131.413 307.302C119.171 291.238 91.4401 251.807 86.5365 247.546C98.4742 221.269 128.234 181.601 128.234 181.601L97.5611 168.548Z" fill="#FDB2B2"/>
<path d="M169.694 365.231L188.057 285.557L219.339 304.292C219.339 304.292 221.875 327.22 225.122 356.946C225.122 356.946 200.638 365.806 169.694 365.231Z" fill="#700B0B"/>
<path d="M201.246 362.797C206.251 332.563 210.242 308.215 210.242 308.215C210.242 308.215 124.649 296.311 124.345 319.713C124.243 326.882 125.089 340.68 127.084 356.439C172.095 370.913 201.246 362.797 201.246 362.797Z" fill="#8C0E0E"/>
<path d="M201.889 208.689C199.352 214.573 218.595 296.277 221.807 315.114C221.807 315.114 221.402 315.046 220.624 314.911C212.271 313.659 161.172 306.93 119.881 324.143L116.093 208.723L115.924 204.428C115.924 204.428 115.924 200.066 116.33 193.404V193.336C117.277 179.606 120.118 156.441 128.944 141.561C133.509 133.851 139.563 128.338 147.848 127.527C173.516 124.99 173.38 135.508 197.222 141.392L235.909 150.996C235.909 150.996 231.581 180.992 235.909 189.92H209.058C209.058 189.886 204.391 202.737 201.889 208.689Z" fill="#E31B22"/>
<path d="M187.144 50.5236C187.144 50.5236 210.681 85.8293 198.338 103.076C189.106 115.995 173.617 122.758 173.617 122.758V141.358C173.617 141.358 171.757 143.015 168.511 143.184C162.863 143.489 147.848 134.425 147.848 134.425V61.1761L187.144 50.5236Z" fill="#FFCACA"/>
<path d="M116.026 213.457C116.026 213.457 151.534 172.301 145.887 152.484C140.239 132.667 113.388 139.464 98.3727 162.291C83.3576 185.118 77.4057 192.93 77.4057 192.93C77.4057 192.93 92.8604 213.829 116.026 213.457Z" fill="#E31B22"/>
<path d="M187.077 47.1757C187.077 47.1757 188.903 83.9355 171.182 92.8296C153.462 101.724 166.854 123.638 149.979 140.005C144.974 144.841 137.534 144.03 131.819 142.339C123.635 139.904 114.267 141.662 108.552 147.581C108.011 148.155 107.504 148.764 107.098 149.373C85.1839 134.899 140.713 54.4465 140.713 54.4465L187.077 47.1757Z" fill="#700B0B"/>
</g>
<path d="M251.432 248.155C243.755 260.025 239.291 274.16 239.291 289.345C239.291 331.245 273.278 365.232 315.178 365.232C357.078 365.232 391.065 331.245 391.065 289.345C391.065 247.444 357.078 213.458 315.178 213.458C296.68 213.458 279.703 220.086 266.548 231.11L240.813 224.313L251.432 248.155ZM340.508 20.8317C340.508 32.3298 331.174 47.1757 319.676 47.1757C308.178 47.1757 298.844 32.3298 298.844 20.8317C298.844 9.33369 308.144 0 319.676 0C331.208 0 340.508 9.33369 340.508 20.8317Z" fill="#EA1717"/>
<path d="M280.187 265.991L275.642 282.786H269.953L267.305 271.89L264.566 282.786H258.907L254.332 265.991H259.479L261.857 278L264.686 265.991H270.134L272.993 277.94L275.341 265.991H280.187ZM292.474 265.81C294.401 265.81 295.946 266.452 297.109 267.737C298.273 269.001 298.855 270.746 298.855 272.974V282.786H293.738V273.666C293.738 272.542 293.447 271.67 292.865 271.047C292.284 270.425 291.501 270.114 290.518 270.114C289.534 270.114 288.752 270.425 288.17 271.047C287.588 271.67 287.297 272.542 287.297 273.666V282.786H282.15V260.513H287.297V268.248C287.819 267.506 288.531 266.914 289.434 266.472C290.337 266.031 291.35 265.81 292.474 265.81ZM310.077 283.027C308.432 283.027 306.947 282.676 305.622 281.974C304.318 281.271 303.285 280.268 302.522 278.964C301.78 277.659 301.409 276.134 301.409 274.388C301.409 272.663 301.79 271.148 302.552 269.843C303.315 268.519 304.358 267.506 305.683 266.803C307.007 266.101 308.492 265.75 310.137 265.75C311.783 265.75 313.268 266.101 314.592 266.803C315.916 267.506 316.96 268.519 317.722 269.843C318.485 271.148 318.866 272.663 318.866 274.388C318.866 276.114 318.475 277.639 317.692 278.964C316.93 280.268 315.876 281.271 314.532 281.974C313.208 282.676 311.723 283.027 310.077 283.027ZM310.077 278.572C311.06 278.572 311.893 278.211 312.575 277.489C313.278 276.766 313.629 275.733 313.629 274.388C313.629 273.044 313.288 272.011 312.606 271.288C311.943 270.566 311.121 270.205 310.137 270.205C309.134 270.205 308.301 270.566 307.639 271.288C306.977 271.991 306.646 273.024 306.646 274.388C306.646 275.733 306.967 276.766 307.609 277.489C308.271 278.211 309.094 278.572 310.077 278.572ZM255.054 305.358C255.054 303.633 255.375 302.118 256.017 300.813C256.68 299.509 257.572 298.506 258.696 297.803C259.82 297.101 261.074 296.75 262.459 296.75C263.643 296.75 264.676 296.991 265.559 297.472C266.462 297.954 267.154 298.586 267.636 299.369V296.991H272.783V313.786H267.636V311.408C267.134 312.191 266.432 312.823 265.529 313.305C264.646 313.786 263.612 314.027 262.429 314.027C261.064 314.027 259.82 313.676 258.696 312.974C257.572 312.251 256.68 311.238 256.017 309.934C255.375 308.609 255.054 307.084 255.054 305.358ZM267.636 305.388C267.636 304.104 267.275 303.091 266.552 302.348C265.85 301.606 264.987 301.235 263.964 301.235C262.94 301.235 262.067 301.606 261.345 302.348C260.643 303.071 260.291 304.074 260.291 305.358C260.291 306.643 260.643 307.666 261.345 308.429C262.067 309.171 262.94 309.542 263.964 309.542C264.987 309.542 265.85 309.171 266.552 308.429C267.275 307.686 267.636 306.673 267.636 305.388ZM281.653 299.79C282.255 298.867 283.008 298.145 283.911 297.623C284.814 297.081 285.817 296.81 286.921 296.81V302.258H285.506C284.222 302.258 283.259 302.539 282.617 303.101C281.974 303.643 281.653 304.606 281.653 305.99V313.786H276.506V296.991H281.653V299.79ZM305.213 305.118C305.213 305.599 305.183 306.101 305.123 306.623H293.474C293.555 307.666 293.886 308.469 294.468 309.031C295.07 309.572 295.802 309.843 296.665 309.843C297.949 309.843 298.842 309.301 299.344 308.218H304.822C304.541 309.321 304.029 310.315 303.287 311.198C302.565 312.081 301.652 312.773 300.548 313.275C299.444 313.776 298.21 314.027 296.846 314.027C295.2 314.027 293.735 313.676 292.451 312.974C291.167 312.271 290.164 311.268 289.441 309.964C288.719 308.659 288.358 307.134 288.358 305.388C288.358 303.643 288.709 302.118 289.411 300.813C290.133 299.509 291.137 298.506 292.421 297.803C293.705 297.101 295.18 296.75 296.846 296.75C298.471 296.75 299.916 297.091 301.18 297.773C302.444 298.456 303.427 299.429 304.13 300.693C304.852 301.957 305.213 303.432 305.213 305.118ZM299.946 303.763C299.946 302.88 299.645 302.178 299.043 301.656C298.441 301.134 297.688 300.874 296.785 300.874C295.923 300.874 295.19 301.124 294.588 301.626C294.006 302.128 293.645 302.84 293.505 303.763H299.946ZM338.417 296.991L333.872 313.786H328.183L325.534 302.89L322.795 313.786H317.136L312.561 296.991H317.708L320.086 309L322.916 296.991H328.364L331.223 308.94L333.571 296.991H338.417ZM356.212 305.118C356.212 305.599 356.182 306.101 356.122 306.623H344.473C344.553 307.666 344.884 308.469 345.466 309.031C346.068 309.572 346.801 309.843 347.664 309.843C348.948 309.843 349.841 309.301 350.343 308.218H355.821C355.54 309.321 355.028 310.315 354.286 311.198C353.563 312.081 352.65 312.773 351.546 313.275C350.443 313.776 349.209 314.027 347.844 314.027C346.199 314.027 344.734 313.676 343.45 312.974C342.165 312.271 341.162 311.268 340.44 309.964C339.717 308.659 339.356 307.134 339.356 305.388C339.356 303.643 339.707 302.118 340.41 300.813C341.132 299.509 342.135 298.506 343.42 297.803C344.704 297.101 346.179 296.75 347.844 296.75C349.47 296.75 350.914 297.091 352.179 297.773C353.443 298.456 354.426 299.429 355.128 300.693C355.851 301.957 356.212 303.432 356.212 305.118ZM350.944 303.763C350.944 302.88 350.644 302.178 350.042 301.656C349.44 301.134 348.687 300.874 347.784 300.874C346.921 300.874 346.189 301.124 345.587 301.626C345.005 302.128 344.644 302.84 344.503 303.763H350.944ZM365.098 291.483C367.245 291.483 368.96 292.044 370.245 293.168C371.549 294.292 372.201 295.877 372.201 297.924C372.201 299.81 371.579 301.285 370.335 302.348C369.111 303.392 367.485 303.924 365.459 303.944L365.308 306.201H360.793L360.643 300.603H362.449C363.994 300.603 365.168 300.412 365.97 300.031C366.793 299.65 367.205 298.957 367.205 297.954C367.205 297.252 367.014 296.7 366.633 296.298C366.251 295.897 365.72 295.696 365.037 295.696C364.315 295.696 363.753 295.907 363.352 296.329C362.951 296.73 362.75 297.282 362.75 297.984H357.904C357.864 296.76 358.115 295.656 358.656 294.673C359.218 293.69 360.041 292.917 361.124 292.355C362.228 291.773 363.552 291.483 365.098 291.483ZM363.111 314.027C362.208 314.027 361.466 313.766 360.884 313.244C360.322 312.703 360.041 312.04 360.041 311.258C360.041 310.455 360.322 309.783 360.884 309.241C361.466 308.699 362.208 308.429 363.111 308.429C363.994 308.429 364.716 308.699 365.278 309.241C365.86 309.783 366.151 310.455 366.151 311.258C366.151 312.04 365.86 312.703 365.278 313.244C364.716 313.766 363.994 314.027 363.111 314.027Z" fill="white"/>
<path d="M320.319 56.6109C318.188 56.6109 316.193 55.1229 314.434 52.1807C313.183 50.084 314.13 43.7601 315.144 37.0642C315.415 35.3057 315.652 33.581 315.888 32.0254C314.4 27.3923 314.739 24.3826 315.381 23.5033C315.618 23.1651 315.956 23.0637 316.26 23.1989C316.869 23.5033 317.207 24.7884 317.207 26.8513C317.207 28.204 317.038 29.9287 316.801 31.8563C316.903 32.1945 317.038 32.5326 317.173 32.9046C318.391 36.1511 319.608 35.441 320.014 35.1704C320.995 34.5955 321.942 32.9723 322.652 31.1123C322.381 26.9189 322.686 23.9091 323.159 23.0298C323.396 22.5564 323.7 22.5226 323.836 22.5226C324.309 22.5564 324.546 23.1989 324.613 23.4018C325.222 25.0251 324.681 28.4407 323.565 31.349C323.903 36.2526 325.053 42.9823 327.894 50.0502L328.029 50.3546L327.86 50.6251C327.725 50.8618 324.58 56.4418 320.42 56.5094C320.386 56.6109 320.352 56.6109 320.319 56.6109ZM316.497 33.8177C316.328 34.9337 316.159 36.0835 315.99 37.2671C315.111 43.1514 314.096 49.7797 315.111 51.4706C316.734 54.1422 318.492 55.4949 320.352 55.4611C323.565 55.3934 326.237 51.4029 326.913 50.3208C324.444 44.0983 323.227 38.0111 322.753 33.1414C322.043 34.5617 321.198 35.7115 320.319 36.2188C319.507 36.7598 317.884 37.098 316.497 33.8177ZM315.956 24.3487C315.719 24.7884 315.415 26.5807 316.125 29.6581C316.227 28.6098 316.294 27.6629 316.294 26.8851C316.294 25.2956 316.058 24.5855 315.956 24.3487ZM323.768 23.9429C323.565 24.6193 323.362 26.3102 323.396 28.745C323.937 26.7836 324.14 24.8898 323.768 23.9429Z" fill="white"/>
<path d="M319.676 59.4516C315.483 59.4516 311.999 56.2728 311.661 52.1132L310.951 44.1322L313.082 44.9438C317.444 46.6009 322.246 46.5671 326.575 44.8424L328.367 44.1322L327.657 52.1132C327.319 56.2728 323.836 59.4516 319.676 59.4516Z" fill="#700B0B"/>
<path d="M405.81 60.6351C403.375 66.418 395.529 71.9303 389.746 69.4954C383.964 67.0605 382.408 57.6254 384.843 51.8087C387.278 46.0259 393.94 43.2866 399.756 45.7215C405.573 48.1564 408.245 54.8185 405.81 60.6351Z" fill="#EA1717"/>
<path d="M388.055 74.3651C386.973 73.9254 386.297 72.7418 386.026 70.8818C385.823 69.563 387.65 66.587 389.577 63.4419C390.084 62.6303 390.558 61.8187 390.998 61.0747C391.234 58.4369 392.046 56.9828 392.553 56.6784C392.756 56.5431 392.925 56.5769 393.06 56.7122C393.297 56.9828 393.196 57.7267 392.756 58.7413C392.486 59.4176 392.012 60.2631 391.471 61.1762C391.471 61.3791 391.437 61.582 391.437 61.7849C391.37 63.6787 392.114 63.5772 392.384 63.5434C392.993 63.4419 393.804 62.8332 394.582 62.0554C395.326 59.8911 396.138 58.4369 396.544 58.0987C396.747 57.9297 396.916 57.9635 396.983 57.9973C397.22 58.1326 397.186 58.4707 397.186 58.606C397.152 59.5529 396.138 61.1423 394.954 62.3936C394.075 64.9299 393.23 68.5484 393.196 72.708V72.8771L393.06 72.9785C392.959 73.08 390.186 75.2105 388.089 74.3651H388.055ZM390.964 62.0892C390.659 62.6303 390.321 63.1714 389.983 63.7125C388.292 66.4855 386.398 69.6306 386.534 70.6789C386.77 72.3698 387.379 73.4182 388.326 73.7902C389.949 74.4327 392.147 72.9785 392.722 72.5727C392.79 68.9204 393.466 65.6063 394.278 63.0361C393.635 63.611 392.959 63.983 392.418 64.0845C391.843 64.1859 390.964 64.0168 390.964 62.0892ZM392.688 57.1857C392.486 57.3548 391.944 58.2002 391.674 59.8911C391.944 59.3838 392.181 58.9104 392.35 58.5384C392.655 57.7606 392.722 57.3548 392.688 57.1857ZM396.713 58.6398C396.476 58.9442 396.003 59.7558 395.529 60.9733C396.205 60.1278 396.713 59.2147 396.713 58.6398Z" fill="white"/>
<path d="M387.142 75.6501C385.046 74.7709 383.963 72.4374 384.64 70.2731L385.992 66.1135L386.906 66.959C388.732 68.7175 391.167 69.6982 393.703 69.7658L394.751 69.7997L392.722 73.6549C391.674 75.6839 389.239 76.5294 387.142 75.6501Z" fill="#700B0B"/>
<path d="M324.749 93.7089C325.154 98.3757 321.942 104.733 317.275 105.139C312.608 105.545 308.279 99.8975 307.874 95.2307C307.468 90.5638 310.883 86.438 315.55 86.0322C320.217 85.6264 324.309 89.042 324.749 93.7089Z" fill="#EA1717"/>
<path d="M317.85 108.927C316.971 108.995 316.125 108.487 315.314 107.337C314.739 106.526 314.874 103.922 315.043 101.183C315.077 100.472 315.111 99.7623 315.144 99.1198C314.367 97.2936 314.4 96.0762 314.637 95.7042C314.739 95.5689 314.84 95.5013 314.975 95.5351C315.246 95.6366 315.415 96.1438 315.483 96.9893C315.516 97.5303 315.516 98.2405 315.483 99.0521L315.686 99.458C316.294 100.743 316.768 100.405 316.903 100.27C317.275 99.999 317.613 99.3227 317.816 98.5449C317.546 96.854 317.579 95.6366 317.715 95.2646C317.782 95.0617 317.917 95.0278 317.985 95.0278C318.188 95.0278 318.289 95.2646 318.323 95.366C318.628 96.0085 318.526 97.3951 318.188 98.6463C318.492 100.608 319.203 103.313 320.623 106.052L320.691 106.188L320.623 106.323C320.589 106.424 319.507 108.792 317.816 108.995C317.884 108.927 317.884 108.927 317.85 108.927ZM315.483 99.83C315.449 100.27 315.415 100.777 315.415 101.25C315.28 103.651 315.111 106.391 315.584 107.033C316.328 108.048 317.106 108.555 317.85 108.453C319.135 108.318 320.082 106.593 320.319 106.12C319.101 103.685 318.391 101.25 317.985 99.2889C317.748 99.8976 317.444 100.371 317.106 100.642C316.802 100.912 316.159 101.115 315.483 99.83ZM314.908 96.0085C314.806 96.2115 314.772 96.9554 315.178 98.1391C315.178 97.6994 315.178 97.3274 315.144 97.0231C315.077 96.3805 314.975 96.11 314.908 96.0085ZM318.087 95.5689C318.019 95.8395 318.019 96.5496 318.12 97.5303C318.256 96.7187 318.256 95.9409 318.087 95.5689Z" fill="white"/>
<path d="M317.715 110.11C316.024 110.28 314.502 109.096 314.198 107.439L313.623 104.226L314.502 104.463C316.328 104.97 318.29 104.767 319.98 103.922L320.691 103.55V106.796C320.691 108.555 319.406 109.975 317.715 110.11Z" fill="#700B0B"/>
</svg>
