<svg width="28" height="28" viewBox="0 0 28 28" fill="none" xmlns="http://www.w3.org/2000/svg">
<path d="M18.6576 6.5726L20.5669 4.66277L21.2034 5.29923L19.294 7.20906L18.6576 6.5726ZM19.93 8.03187H22.4763V8.93209H19.93V8.03187ZM16.9341 3.3894H17.8343V5.93569H16.9341V3.3894ZM18.4249 16.1073C18.7039 16.1073 18.875 16.2527 18.875 16.3324H19.7752C19.7622 16.0816 19.667 15.842 19.5043 15.6507C19.3416 15.4593 19.1204 15.3269 18.875 15.2737V14.757H17.9747V15.2737C17.7293 15.3269 17.5081 15.4593 17.3454 15.6507C17.1827 15.842 17.0875 16.0816 17.0745 16.3324C17.0889 16.4951 17.1352 16.6534 17.211 16.7981C17.2867 16.9428 17.3903 17.0712 17.5158 17.1758C17.6412 17.2803 17.7862 17.3591 17.9422 17.4074C18.0982 17.4558 18.2622 17.4729 18.4249 17.4577C18.7039 17.4577 18.875 17.6031 18.875 17.6827C18.875 17.7624 18.7039 17.9078 18.4249 17.9078C18.1458 17.9078 17.9747 17.7624 17.9747 17.6827H17.0745C17.0875 17.9336 17.1827 18.1731 17.3454 18.3645C17.5081 18.5558 17.7293 18.6883 17.9747 18.7414V19.2581H18.875V18.7414C19.1204 18.6883 19.3416 18.5558 19.5043 18.3645C19.667 18.1731 19.7622 17.9336 19.7752 17.6827C19.7608 17.52 19.7145 17.3617 19.6387 17.217C19.563 17.0723 19.4594 16.9439 19.334 16.8394C19.2085 16.7348 19.0636 16.6561 18.9075 16.6077C18.7515 16.5593 18.5875 16.5422 18.4249 16.5574C18.1458 16.5574 17.9747 16.4121 17.9747 16.3324C17.9747 16.2527 18.1458 16.1073 18.4249 16.1073Z" fill="white"/>
<path d="M20.3573 13.9741L21.0644 13.6716C21.132 13.6427 21.1915 13.5975 21.2376 13.5403C21.2837 13.483 21.3151 13.4153 21.329 13.3431C21.3429 13.2709 21.3389 13.1963 21.3173 13.126C21.2958 13.0557 21.2573 12.9918 21.2053 12.9398L18.3129 10.0473C18.9201 9.20338 18.9534 8.14156 18.339 7.52671C18.1508 7.34832 17.9234 7.21651 17.6751 7.14186C17.4267 7.06722 17.1644 7.0518 16.909 7.09685C16.5141 7.15935 16.1402 7.31657 15.8193 7.55507L12.9278 4.66399C12.8757 4.61202 12.8117 4.57358 12.7414 4.55206C12.6711 4.53053 12.5965 4.52657 12.5243 4.54051C12.4521 4.55446 12.3844 4.58589 12.3271 4.63206C12.2699 4.67822 12.2248 4.73771 12.1959 4.80533L9.36737 11.4076L4.65154 16.1221C4.56715 16.2065 4.51975 16.3209 4.51975 16.4403C4.51975 16.5596 4.56715 16.6741 4.65154 16.7585L5.2871 17.3945L4.47374 18.2083C4.3299 18.3521 4.21579 18.5228 4.13794 18.7106C4.06009 18.8985 4.02002 19.0999 4.02002 19.3032C4.02002 19.5066 4.06009 19.708 4.13794 19.8958C4.21579 20.0837 4.3299 20.2544 4.47374 20.3981L5.46624 21.3884C5.61003 21.5322 5.78075 21.6464 5.96866 21.7242C6.15656 21.8021 6.35797 21.8421 6.56136 21.8421C6.76476 21.8421 6.96616 21.8021 7.15407 21.7242C7.34197 21.6464 7.5127 21.5322 7.65649 21.3884L8.47029 20.575L9.10765 21.2146C9.19202 21.2987 9.3063 21.346 9.42543 21.346C9.54456 21.346 9.65884 21.2987 9.74321 21.2146L10.3815 20.5764L12.2904 22.4853C12.3199 22.5149 12.3534 22.5402 12.3899 22.5605L15.2544 24.1516C15.3399 24.1992 15.4386 24.2175 15.5355 24.204C15.6324 24.1904 15.7222 24.1456 15.7914 24.0765L17.0643 22.8035C17.1135 22.7543 17.1507 22.6943 17.1728 22.6282C17.1949 22.5622 17.2014 22.4919 17.1918 22.4229C17.1821 22.354 17.1566 22.2882 17.1172 22.2307C17.0779 22.1733 17.0257 22.1258 16.9648 22.0919L14.1566 20.5318L12.2926 18.6679L14.4595 16.5006L14.8925 16.3161C14.8473 16.5437 14.8243 16.7753 14.8241 17.0074C14.8232 17.6332 14.9854 18.2484 15.2947 18.7924C15.6039 19.3364 16.0497 19.7904 16.5879 20.1097C17.1261 20.4289 17.7382 20.6024 18.3639 20.613C18.9896 20.6236 19.6072 20.471 20.1559 20.1702C20.7047 19.8694 21.1655 19.4308 21.4931 18.8976C21.8207 18.3644 22.0036 17.755 22.024 17.1296C22.0443 16.5042 21.9013 15.8842 21.609 15.3309C21.3168 14.7775 20.8854 14.3099 20.3573 13.9741ZM17.0364 7.98763C17.1534 7.96438 17.2742 7.96807 17.3896 7.9984C17.5051 8.02874 17.6121 8.08493 17.7025 8.16272C17.83 8.3449 17.8949 8.56348 17.8876 8.78567C17.8803 9.00787 17.8011 9.2217 17.662 9.39513L16.4706 8.20368C16.643 8.09508 16.8354 8.02194 17.0364 7.98853V7.98763ZM7.02138 20.7542C6.8979 20.8723 6.7336 20.9382 6.56271 20.9382C6.39182 20.9382 6.22753 20.8723 6.10405 20.7542L5.1138 19.7639C4.99228 19.6423 4.92403 19.4774 4.92403 19.3055C4.92403 19.1336 4.99228 18.9687 5.1138 18.847L5.92716 18.0332L7.83743 19.9431L7.02138 20.7542ZM9.42813 20.259L8.79257 19.6271L8.78897 19.6217L6.24403 17.0749L6.23863 17.0718L5.60848 16.4416L8.15566 13.8945L11.9758 17.7146L11.3456 18.3447C11.3429 18.3474 11.3398 18.3479 11.3371 18.3501L10.0641 19.6235C10.061 19.6262 10.0601 19.6302 10.0574 19.6334L9.42813 20.259ZM13.5647 21.211C13.5943 21.2405 13.6277 21.2657 13.6641 21.2862L16.0074 22.5888L15.3962 23.201L12.8836 21.8056L11.0193 19.9417L11.6562 19.303L13.5647 21.211ZM14.026 15.7066C13.9733 15.7295 13.9254 15.762 13.8847 15.8025L12.6109 17.0767L8.79257 13.2566L10.0664 11.9828C10.1071 11.9423 10.1397 11.8943 10.1623 11.8415L12.7626 5.76902L20.0994 13.1059L19.1992 13.4921C18.4664 13.3289 17.7009 13.4003 17.0109 13.6961C16.3209 13.9919 15.7414 14.4972 15.3543 15.1404L14.026 15.7066ZM18.425 19.7081C17.8908 19.7081 17.3687 19.5497 16.9246 19.253C16.4804 18.9562 16.1343 18.5344 15.9299 18.0409C15.7255 17.5475 15.672 17.0044 15.7762 16.4806C15.8804 15.9567 16.1376 15.4755 16.5153 15.0978C16.893 14.7201 17.3742 14.4629 17.8981 14.3586C18.422 14.2544 18.965 14.3079 19.4585 14.5123C19.952 14.7167 20.3738 15.0629 20.6705 15.507C20.9673 15.9511 21.1257 16.4733 21.1257 17.0074C21.1249 17.7235 20.8402 18.41 20.3339 18.9163C19.8275 19.4226 19.141 19.7074 18.425 19.7081Z" fill="white"/>
<path d="M26.7263 13.2085C26.5755 13.0899 26.4431 12.9496 26.3334 12.7922C26.4003 12.6035 26.4978 12.4271 26.6219 12.27C26.7722 12.1077 26.8868 11.9157 26.9584 11.7064C27.0301 11.4971 27.0571 11.2751 27.0378 11.0547C26.9271 10.6019 26.4869 10.367 26.098 10.1595C25.9224 10.0807 25.7597 9.97586 25.6155 9.84844C25.6352 9.65008 25.6875 9.45632 25.7703 9.275C25.8777 9.08053 25.9433 8.86573 25.9627 8.64441C25.9822 8.4231 25.9551 8.20016 25.8833 7.98993C25.7516 7.80972 25.5832 7.65944 25.3893 7.54896C25.1953 7.43849 24.9802 7.37033 24.758 7.34897C24.5685 7.31483 24.3852 7.25231 24.2143 7.16352C24.1871 6.96687 24.1921 6.76711 24.2291 6.57207C24.2874 6.35715 24.3001 6.13239 24.2662 5.91229C24.2323 5.69219 24.1527 5.48163 24.0324 5.2942C23.8619 5.15105 23.663 5.04566 23.4488 4.98499C23.2345 4.92432 23.0099 4.90974 22.7896 4.94221C22.5973 4.95448 22.4041 4.93795 22.2167 4.89315C22.1447 4.70928 22.1028 4.51507 22.0924 4.31791C22.0985 4.09477 22.0576 3.87286 21.9722 3.66658C21.8869 3.4603 21.7592 3.27428 21.5973 3.12061C21.3979 3.0221 21.1798 2.96714 20.9576 2.95938C20.7353 2.95162 20.514 2.99123 20.3082 3.0756C20.1241 3.13467 19.9321 3.16503 19.7388 3.16562C19.626 3.00542 19.5398 2.82804 19.4836 2.64034C19.3265 2.22758 19.1482 1.75947 18.7148 1.59383C18.4976 1.54648 18.2728 1.54609 18.0554 1.59266C17.8381 1.63924 17.6332 1.73171 17.4545 1.86389C17.2888 1.96513 17.1088 2.04099 16.9206 2.08895C16.7746 1.96081 16.6497 1.81042 16.5506 1.64334C16.2986 1.2792 16.0105 0.866445 15.5496 0.810181C15.3287 0.817922 15.1119 0.872059 14.9133 0.969071C14.7147 1.06608 14.5387 1.2038 14.3969 1.37327C14.2589 1.5139 14.0997 1.63206 13.9251 1.72346C13.7475 1.63403 13.5859 1.51569 13.4471 1.37327C13.3051 1.20395 13.1291 1.06634 12.9305 0.969339C12.732 0.87234 12.5152 0.818118 12.2944 0.810181C11.8312 0.866445 11.5454 1.2792 11.2933 1.64334C11.1953 1.80746 11.074 1.9565 10.9332 2.0858C10.742 2.0412 10.5594 1.96514 10.3931 1.86074C10.2142 1.72882 10.0093 1.63651 9.79204 1.58994C9.57473 1.54338 9.34999 1.54363 9.13279 1.59068C8.69888 1.75677 8.52108 2.22488 8.364 2.63764C8.30796 2.82303 8.22484 2.99912 8.11733 3.16022C7.92155 3.16435 7.72646 3.13544 7.54029 3.0747C7.33454 2.99057 7.11327 2.95108 6.89112 2.95884C6.66897 2.9666 6.451 3.02143 6.25162 3.11971C6.08977 3.27342 5.96205 3.45944 5.87675 3.66571C5.79145 3.87198 5.75048 4.09388 5.75649 4.31701C5.74554 4.51182 5.70548 4.7039 5.63766 4.88685C5.44897 4.93643 5.25345 4.95482 5.05882 4.94131C4.83853 4.9087 4.61382 4.92325 4.39957 4.98401C4.18533 5.04476 3.98643 5.15034 3.81606 5.29375C3.69586 5.48129 3.61626 5.69192 3.58238 5.91209C3.54851 6.13225 3.5611 6.35707 3.61936 6.57207C3.65558 6.765 3.66195 6.96235 3.63826 7.15722C3.46715 7.25095 3.28178 7.31588 3.08958 7.34941C2.86738 7.3705 2.65218 7.4385 2.4582 7.54891C2.26422 7.65932 2.09588 7.80964 1.9643 7.98993C1.89214 8.20016 1.86488 8.42319 1.88426 8.64462C1.90365 8.86604 1.96924 9.08094 2.07682 9.27545C2.1582 9.45523 2.21119 9.64656 2.23391 9.84259C2.09031 9.97299 1.92662 10.0794 1.74914 10.1577C1.36025 10.3652 0.919585 10.6001 0.808857 11.0529C0.789605 11.2733 0.816661 11.4953 0.888287 11.7046C0.959913 11.9139 1.07453 12.1059 1.22476 12.2682C1.34709 12.4242 1.4447 12.598 1.51418 12.7836C1.40611 12.9446 1.27318 13.0874 1.12034 13.2067C0.932985 13.3307 0.773836 13.4927 0.653244 13.6822C0.532652 13.8718 0.45332 14.0846 0.42041 14.3068C0.453664 14.5288 0.533247 14.7413 0.653987 14.9305C0.774727 15.1197 0.933924 15.2814 1.12124 15.4051C1.27206 15.5237 1.40448 15.664 1.51418 15.8214C1.44723 16.0101 1.34976 16.1865 1.22566 16.3436C1.0754 16.5059 0.960775 16.6979 0.889147 16.9072C0.81752 17.1165 0.790477 17.3385 0.809757 17.5589C0.920485 18.0117 1.3607 18.2466 1.74959 18.4541C1.9252 18.5329 2.08788 18.6377 2.23211 18.7652C2.2124 18.9635 2.16008 19.1573 2.07727 19.3386C1.96984 19.5331 1.90429 19.7479 1.88484 19.9692C1.86538 20.1905 1.89245 20.4135 1.9643 20.6237C2.096 20.8039 2.26436 20.9542 2.45831 21.0646C2.65226 21.1751 2.8674 21.2433 3.08958 21.2646C3.27906 21.299 3.46233 21.3615 3.63331 21.4501C3.6605 21.6467 3.65548 21.8465 3.61846 22.0415C3.56013 22.2565 3.54749 22.4812 3.58137 22.7013C3.61525 22.9214 3.69489 23.132 3.81516 23.3194C3.98567 23.4626 4.18459 23.5679 4.39881 23.6286C4.61302 23.6893 4.83766 23.7039 5.05792 23.6714C5.25029 23.6594 5.44339 23.6759 5.63091 23.7205C5.70283 23.9043 5.74477 24.0985 5.75514 24.2957C5.74907 24.5188 5.79002 24.7408 5.87532 24.947C5.96062 25.1533 6.08837 25.3393 6.25027 25.493C6.44966 25.5915 6.66772 25.6465 6.88998 25.6542C7.11225 25.662 7.33361 25.6224 7.53939 25.538C7.72338 25.4787 7.91547 25.4483 8.10878 25.448C8.2216 25.6082 8.30779 25.7856 8.364 25.9733C8.52108 26.386 8.69933 26.8541 9.13279 27.0198C9.34998 27.067 9.57476 27.0674 9.7921 27.0208C10.0094 26.9742 10.2143 26.8818 10.3931 26.7497C10.5619 26.6546 10.741 26.5791 10.9269 26.5247C11.073 26.6528 11.1978 26.8032 11.2969 26.9703C11.549 27.3344 11.8371 27.7472 12.298 27.8034C12.519 27.7961 12.7359 27.7422 12.9346 27.6452C13.1332 27.5481 13.3091 27.4102 13.4507 27.2403C13.5887 27.0997 13.7479 26.9815 13.9224 26.8902C14.1001 26.9796 14.2616 27.0979 14.4005 27.2403C14.6707 27.55 15.0432 27.7522 15.4501 27.8102C15.484 27.8098 15.5178 27.8077 15.5514 27.8039C16.0146 27.7476 16.3004 27.3349 16.5524 26.9707C16.6504 26.8066 16.7717 26.6576 16.9125 26.5283C17.1045 26.5707 17.2874 26.6469 17.4527 26.7533C17.6316 26.8851 17.8365 26.9773 18.0538 27.0239C18.2711 27.0704 18.4958 27.0703 18.713 27.0234C19.1469 26.8573 19.3247 26.3892 19.4818 25.9764C19.5384 25.7914 19.6219 25.6158 19.7298 25.4552C19.9255 25.4521 20.1204 25.481 20.3068 25.5407C20.5126 25.625 20.7338 25.6645 20.956 25.6567C21.1782 25.649 21.3962 25.5941 21.5955 25.4957C21.7574 25.342 21.8851 25.156 21.9704 24.9497C22.0557 24.7434 22.0966 24.5215 22.0906 24.2984C22.1016 24.1036 22.1416 23.9115 22.2095 23.7286C22.399 23.6785 22.5955 23.66 22.791 23.6736C23.0113 23.7063 23.236 23.6917 23.4502 23.631C23.6645 23.5702 23.8634 23.4646 24.0338 23.3212C24.1539 23.1337 24.2335 22.9232 24.2674 22.7031C24.3013 22.483 24.2887 22.2583 24.2305 22.0433C24.1943 21.8504 24.1879 21.6531 24.2116 21.4582C24.3827 21.3645 24.568 21.2995 24.7602 21.266C24.9824 21.2449 25.1976 21.1769 25.3916 21.0665C25.5856 20.9561 25.7539 20.8058 25.8855 20.6255C25.9577 20.4152 25.9849 20.1922 25.9656 19.9708C25.9462 19.7494 25.8806 19.5345 25.773 19.34C25.6916 19.1602 25.6386 18.9689 25.6159 18.7728C25.7595 18.6424 25.9232 18.536 26.1007 18.4577C26.4896 18.2502 26.9302 18.0153 27.041 17.5625C27.0602 17.3421 27.0332 17.1201 26.9615 16.9108C26.8899 16.7015 26.7753 16.5095 26.6251 16.3472C26.5027 16.1912 26.4051 16.0174 26.3356 15.8318C26.4437 15.6708 26.5766 15.528 26.7295 15.4087C26.9166 15.2843 27.0755 15.1219 27.1957 14.932C27.3159 14.7422 27.3948 14.5292 27.4272 14.3068C27.3939 14.0848 27.3143 13.8723 27.1936 13.6831C27.0728 13.4939 26.9136 13.3322 26.7263 13.2085ZM26.1241 14.7358C25.7845 14.9693 25.5411 15.3181 25.439 15.7175C25.4462 16.1351 25.6018 16.5365 25.8779 16.8499C25.9927 17.0006 26.0895 17.1642 26.1664 17.3374C26.0216 17.4722 25.8551 17.5818 25.674 17.6615C25.2891 17.8092 24.9698 18.0897 24.7737 18.4523C24.6809 18.8584 24.7355 19.2842 24.9277 19.6537C25.0039 19.8287 25.0592 20.0121 25.0924 20.2001C24.9203 20.2942 24.7339 20.3595 24.5406 20.3932C24.1295 20.4431 23.7501 20.6391 23.4716 20.9455C23.2855 21.3173 23.2377 21.7431 23.3365 22.1469C23.3689 22.3356 23.3792 22.5274 23.3671 22.7185C23.1783 22.7683 22.9827 22.7868 22.7879 22.7734C22.3767 22.723 21.9611 22.8228 21.6176 23.0543C21.3485 23.3704 21.2012 23.7721 21.2021 24.1872C21.1883 24.3783 21.1531 24.5671 21.0972 24.7503C20.9029 24.7523 20.7094 24.7233 20.5242 24.6643C20.136 24.5162 19.7073 24.5132 19.317 24.6558C18.9796 24.8964 18.7409 25.2513 18.6455 25.6546C18.587 25.8369 18.5082 26.012 18.4105 26.1767C18.2215 26.134 18.0412 26.0591 17.8776 25.9553C17.5358 25.7164 17.1191 25.6094 16.7046 25.6541C16.3196 25.8053 16.003 26.0918 15.8143 26.4598C15.7135 26.6226 15.5948 26.7736 15.4605 26.91C15.2891 26.8209 15.133 26.7053 14.9978 26.5674C14.721 26.252 14.3396 26.0472 13.9238 25.9908C13.5088 26.0479 13.1283 26.2526 12.8521 26.5674C12.7192 26.6978 12.5728 26.8136 12.4155 26.9131C12.2648 26.7839 12.1364 26.6308 12.0356 26.4598C11.8469 26.0924 11.5309 25.8061 11.1466 25.6546C11.0762 25.6373 11.0039 25.6285 10.9314 25.6285C10.591 25.6607 10.263 25.7728 9.97405 25.9557C9.81296 26.0506 9.64213 26.1278 9.46452 26.1862C9.34993 26.0244 9.26251 25.845 9.20571 25.655C9.10998 25.2519 8.8714 24.897 8.53414 24.6562C8.14379 24.5139 7.71523 24.5169 7.32694 24.6648C7.14666 24.7178 6.96119 24.7511 6.77375 24.7643C6.70119 24.5801 6.65893 24.3854 6.64862 24.1877C6.64941 23.7726 6.50228 23.3707 6.23361 23.0543C5.88999 22.823 5.4745 22.7233 5.06332 22.7734C4.87453 22.7831 4.68525 22.7707 4.49933 22.7365C4.47256 22.5406 4.47773 22.3416 4.51463 22.1473C4.61328 21.7435 4.56543 21.3178 4.3796 20.946C4.10117 20.6397 3.72193 20.4437 3.31103 20.3937C3.12476 20.3575 2.94344 20.2993 2.7709 20.2204C2.79159 20.0246 2.84372 19.8334 2.92529 19.6541C3.11665 19.284 3.17009 18.8578 3.07607 18.4519C2.87974 18.0895 2.56052 17.8091 2.17585 17.661C2.00133 17.581 1.83756 17.4794 1.68838 17.3586C1.75527 17.175 1.85099 17.0033 1.97195 16.8499C2.24788 16.5364 2.40342 16.135 2.41081 15.7175C2.30876 15.3181 2.06536 14.9693 1.72574 14.7358C1.57239 14.6145 1.43613 14.4731 1.32064 14.3154C1.34134 14.2222 1.5907 13.9976 1.72574 13.8778C2.06536 13.6443 2.30876 13.2955 2.41081 12.8962C2.40362 12.4785 2.24805 12.0771 1.97195 11.7637C1.85616 11.6131 1.75842 11.4495 1.68073 11.2762C1.82557 11.1414 1.99202 11.0318 2.17315 10.9521C2.55799 10.8044 2.87729 10.5239 3.07337 10.1613C3.16621 9.75524 3.11164 9.32943 2.91943 8.95992C2.84322 8.78489 2.78793 8.60147 2.75469 8.41348C2.92684 8.31937 3.11326 8.25414 3.30653 8.22038C3.71759 8.1705 4.09701 7.97448 4.37555 7.66809C4.56161 7.29633 4.60947 6.87054 4.51058 6.46674C4.47817 6.27804 4.4679 6.08619 4.47997 5.8951C4.66878 5.84532 4.86447 5.82677 5.05927 5.84019C5.47046 5.89056 5.88602 5.79083 6.22956 5.55932C6.49861 5.24323 6.64594 4.84147 6.64502 4.42638C6.66019 4.2355 6.69673 4.04693 6.75394 3.86419C6.94833 3.86178 7.14182 3.89082 7.32694 3.95017C7.71523 4.09802 8.14379 4.10106 8.53414 3.95872C8.87161 3.71814 9.11025 3.36322 9.20571 2.95992C9.26418 2.77761 9.343 2.60246 9.44067 2.43779C9.6297 2.48047 9.80998 2.55539 9.9736 2.65924C10.3154 2.89798 10.7321 3.00494 11.1466 2.96037C11.5312 2.80872 11.8473 2.52191 12.0356 2.15377C12.1363 1.991 12.255 1.84002 12.3894 1.70365C12.5607 1.79274 12.7168 1.90834 12.8521 2.04619C13.1282 2.36115 13.5088 2.56588 13.9238 2.62278C14.3387 2.56572 14.7192 2.36102 14.9955 2.04619C15.1284 1.91585 15.2748 1.79997 15.4321 1.7005C15.5836 1.8295 15.7127 1.98265 15.8143 2.15377C16.0022 2.52118 16.3174 2.8077 16.701 2.95992C17.1146 3.00333 17.53 2.89645 17.8713 2.65879C18.0324 2.56393 18.2032 2.48667 18.3808 2.42834C18.4954 2.59012 18.5828 2.76952 18.6396 2.95947C18.7353 3.36265 18.9739 3.71749 19.3112 3.95827C19.7015 4.10105 20.1302 4.09801 20.5184 3.94972C20.6986 3.8965 20.8841 3.86314 21.0716 3.85024C21.1441 4.03442 21.1864 4.22914 21.1967 4.42683C21.1959 4.84195 21.343 5.24377 21.6117 5.56022C21.9553 5.79154 22.3708 5.89126 22.782 5.84109C22.9708 5.83144 23.1601 5.84382 23.346 5.878C23.3728 6.07393 23.3676 6.27291 23.3307 6.46719C23.232 6.871 23.2799 7.29671 23.4657 7.66855C23.7441 7.97483 24.1234 8.17085 24.5343 8.22083C24.7206 8.25699 24.9019 8.31516 25.0744 8.39413C25.0537 8.58995 25.0016 8.78115 24.92 8.96037C24.7277 9.32982 24.673 9.75563 24.7656 10.1617C24.962 10.5241 25.2812 10.8046 25.6659 10.9526C25.8404 11.0326 26.0042 11.1342 26.1533 11.255C26.0864 11.4386 25.9907 11.6103 25.8698 11.7637C25.5938 12.0772 25.4383 12.4786 25.4309 12.8962C25.533 13.2955 25.7764 13.6443 26.116 13.8778C26.2739 13.9992 26.4124 14.1439 26.5269 14.3068C26.4149 14.4692 26.2791 14.6138 26.1241 14.7358Z" fill="white"/>
</svg>
