<svg width="46" height="44" viewBox="0 0 46 44" fill="none" xmlns="http://www.w3.org/2000/svg">
<path d="M32.3193 38.8986H13.335M18.2568 33.51H27.3975V38.8986H18.2568V33.51Z" stroke="#EA1717" stroke-miterlimit="10" stroke-linecap="square"/>
<path d="M5.95215 29.796V33.8468H39.7021V29.796H5.95215ZM24.585 32.4902H21.0693V31.1431H24.585V32.4902Z" fill="#D80808"/>
<path d="M25.9912 7.91441H22.4756V4.54657L25.9912 7.91441Z" stroke="#EA1717" stroke-miterlimit="10" stroke-linecap="round" stroke-linejoin="round"/>
<path d="M24.2334 7.91445H22.4756V6.23053" stroke="#EA1717" stroke-miterlimit="10" stroke-linecap="square"/>
<path d="M37.9443 16.132L37.0373 15.9144L37.5182 15.1466L36.7223 14.3847L35.9207 14.8455L35.6943 13.9766H34.5693L34.3422 14.8455L33.5407 14.3847L32.7454 15.1466L33.2264 15.9144L32.3193 16.132V17.2097L33.2264 17.4266L32.7454 18.1951L33.5407 18.9569L34.3422 18.4962L34.5693 19.3651H35.6943L35.9207 18.4962L36.7223 18.9569L37.5182 18.1951L37.0373 17.4266L37.9443 17.2097V16.132Z" stroke="#EA1717" stroke-miterlimit="10"/>
<path d="M37.9443 16.132L37.0373 15.9144L37.5182 15.1466L36.7223 14.3847L35.9207 14.8455L35.6943 13.9766H34.5693L34.3422 14.8455L33.5407 14.3847L32.7454 15.1466L33.2264 15.9144L32.3193 16.132V17.2097L33.2264 17.4266L32.7454 18.1951L33.5407 18.9569L34.3422 18.4962L34.5693 19.3651H35.6943L35.9207 18.4962L36.7223 18.9569L37.5182 18.1951L37.0373 17.4266L37.9443 17.2097V16.132Z" stroke="#EA1717" stroke-miterlimit="10"/>
<path d="M27.0459 10.2719V12.9662H36.8896V14.5444L37.2405 14.8811L37.5182 15.1465L37.2412 15.5891V15.9636L37.9443 16.132V17.2097L37.2412 17.3781V17.7526L37.5182 18.1951L37.2412 18.4605L36.8896 18.7966V27.1111H8.76465V12.9662H9.46777V10.2719H5.95215V29.1224H39.7021V10.2719H27.0459Z" fill="#D80808"/>
<path d="M26.6943 18.3258L31.9221 15.3163M35.1318 20.0387L30.3225 23.7675" stroke="#EA1717" stroke-miterlimit="10" stroke-dasharray="1 1"/>
<path d="M25.9912 23.4065C26.3795 23.4065 26.6943 23.105 26.6943 22.733C26.6943 22.361 26.3795 22.0594 25.9912 22.0594C25.6029 22.0594 25.2881 22.361 25.2881 22.733C25.2881 23.105 25.6029 23.4065 25.9912 23.4065Z" stroke="#EA1717" stroke-miterlimit="10"/>
<path d="M35.1318 17.3444C35.5202 17.3444 35.835 17.0428 35.835 16.6708C35.835 16.2988 35.5202 15.9973 35.1318 15.9973C34.7435 15.9973 34.4287 16.2988 34.4287 16.6708C34.4287 17.0428 34.7435 17.3444 35.1318 17.3444Z" stroke="#EA1717" stroke-miterlimit="10"/>
<path d="M15.0928 13.6384L17.9053 15.1944V12.1633L15.0928 10.608V13.6384ZM18.6084 15.1944L21.4209 13.6384V10.608L18.6084 12.1633V15.1944Z" fill="#D80808"/>
<path d="M21.6283 8.92476H21.4209V4.20978H10.1709V24.4168H22.7667V24.08L22.465 23.3566L23.4129 22.7019L22.4826 22.0236L23.0374 20.7856L24.1912 20.9648L24.0337 19.8554L25.3394 19.3556L25.9905 20.2198H26.058L26.3428 19.8622V8.92476H21.6283ZM15.0928 20.0386C15.0928 19.9255 15.0991 19.8137 15.1118 19.7032L15.8107 19.78C15.788 19.9754 15.7911 20.1727 15.8198 20.3673L15.1237 20.4603C15.1034 20.3206 15.0931 20.1797 15.0928 20.0386ZM16.2438 18.6908C16.1252 18.8517 16.0281 19.0262 15.9548 19.2101L15.2981 18.9697C15.3923 18.7333 15.5175 18.509 15.6693 18.3028L16.2438 18.6908ZM16.1981 17.7431C16.3992 17.5767 16.6207 17.436 16.8548 17.3248L17.1677 17.9277C16.984 18.0158 16.8123 18.1253 16.6565 18.2537L16.1981 17.7431ZM15.3332 21.1911L15.9829 20.9318C16.061 21.1123 16.1636 21.2841 16.2874 21.443L15.7242 21.8458C15.5662 21.6439 15.4349 21.424 15.3332 21.1911ZM16.9364 22.7908C16.6975 22.6841 16.4731 22.5498 16.2684 22.3907L16.7121 21.868C16.8717 21.9927 17.0475 22.0977 17.2331 22.1799L16.9364 22.7908ZM18.2568 23.0697C18.067 23.0697 17.8771 23.0535 17.6901 23.0205L17.8167 22.3584C18.015 22.3934 18.2259 22.4049 18.4291 22.3907L18.4769 23.063C18.4052 23.067 18.3314 23.0697 18.2568 23.0697ZM18.6084 21.3016H17.9053V19.5887L17.4511 20.0238L16.9539 19.5476L18.2575 18.2988L19.5611 19.5476L19.064 20.0238L18.6084 19.5887V21.3016ZM19.2532 22.9141L19.0296 22.2762C19.2229 22.2136 19.4093 22.1274 19.5815 22.0209L19.9633 22.5867C19.7416 22.7235 19.5031 22.8335 19.2532 22.9141ZM20.5659 22.1031L20.0526 21.6424C20.1932 21.4989 20.3149 21.3386 20.4147 21.1655L21.03 21.4915C20.9021 21.7129 20.7462 21.9183 20.5659 22.1031ZM21.3211 20.789L20.6397 20.6199C20.6918 20.4307 20.7178 20.2353 20.7178 20.0386C20.7178 19.4183 20.4548 18.8107 19.9971 18.3716C19.7079 18.0927 19.3501 17.888 18.9566 17.7764C18.5632 17.6648 18.1467 17.6499 17.7457 17.733L17.5987 17.0743C17.8139 17.0298 18.0354 17.0076 18.2568 17.0076C18.6725 17.0065 19.0843 17.0844 19.4683 17.2367C19.8524 17.3891 20.2011 17.613 20.4942 17.8953C21.0855 18.4651 21.4185 19.2352 21.4209 20.0386C21.4209 20.2919 21.3871 20.5445 21.3211 20.789ZM22.124 14.027L18.2568 16.1656L14.3896 14.027V9.86977L18.2568 7.73119L22.124 9.86977V14.027Z" fill="#D80808"/>
<path d="M15.4802 10.0443L18.2568 11.58L21.0335 10.0443L18.2568 8.50854L15.4802 10.0443Z" fill="#D80808"/>
<path d="M28.9949 20.8584L27.8369 21.0093L28.0239 19.9039L26.7316 19.3725L26.0235 20.2636L25.3401 19.3557L24.0344 19.8548L24.1912 20.9641L23.0381 20.7856L22.4833 22.0237L23.4128 22.7013L22.465 23.356L22.9867 24.6075L24.1448 24.4566L23.9578 25.5619L25.2501 26.0934L25.9582 25.2022L26.6416 26.1102L27.948 25.6111L27.7905 24.501L28.9443 24.6802L29.4991 23.4422L28.5689 22.7646L29.5167 22.1092L28.9949 20.8584Z" stroke="#EA1717" stroke-miterlimit="10"/>
<path d="M28.9949 20.8584L27.8369 21.0093L28.0239 19.9039L26.7316 19.3725L26.0235 20.2636L25.3401 19.3557L24.0344 19.8548L24.1912 20.9641L23.0381 20.7856L22.4833 22.0237L23.4128 22.7013L22.465 23.356L22.9867 24.6075L24.1448 24.4566L23.9578 25.5619L25.2501 26.0934L25.9582 25.2022L26.6416 26.1102L27.948 25.6111L27.7905 24.501L28.9443 24.6802L29.4991 23.4422L28.5689 22.7646L29.5167 22.1092L28.9949 20.8584Z" stroke="#EA1717" stroke-miterlimit="10"/>
</svg>
