<svg width="369" height="369" viewBox="0 0 369 369" fill="none" xmlns="http://www.w3.org/2000/svg">
<g opacity="0.6">
<path d="M179.703 185.895C179.637 190.714 171.46 205.216 165.26 207.297C159.061 209.371 151.12 208.072 151.12 208.072C151.12 208.072 148.006 222.876 139.283 224.714C130.552 226.551 120.338 223.614 117.268 222.116C114.715 220.861 111.047 215.791 109.918 214.168C109.696 213.85 109.571 213.666 109.571 213.666C109.571 213.666 109.387 214.367 108.981 215.474C108.981 215.474 108.981 215.481 108.973 215.489C108.235 217.518 106.774 220.883 104.457 223.614C103.505 224.728 102.412 225.732 101.165 226.5C95.2022 230.16 72.0437 230.101 65.0549 226.418C59.7265 223.599 56.9221 218.33 55.8815 215.998C55.8815 215.99 55.8815 215.99 55.8815 215.99C55.5863 215.319 55.4387 214.898 55.4166 214.839C55.3797 214.876 55.2542 215.038 55.0476 215.267C53.8077 216.684 49.7266 221.046 46.044 221.644C41.6381 222.352 36.1253 218.374 35.033 216.013C33.9408 213.658 34.4057 208.677 34.4057 208.677C34.4057 208.677 23.5497 210.205 18.4059 203.902C13.262 197.607 12.8266 190.279 16.8487 186.227C20.8044 182.249 30.3246 180.758 39.3946 181.578C39.557 181.592 39.7119 181.607 39.8743 181.622C39.8743 181.622 39.8005 181.304 39.7193 180.736C39.2839 177.71 38.5385 167.563 46.4351 159.998C52.9886 153.718 63.291 148.803 71.6969 147.703C75.3278 147.231 78.8038 147.142 81.0769 148.596C89.8664 154.227 90.6635 167.474 90.6635 167.474C90.6635 167.474 95.9771 162.021 99.9844 159.401C104.759 156.286 114.065 157.541 116.929 159.128C119.652 160.626 122.796 165.356 124.257 168.854C124.331 169.039 124.397 169.223 124.471 169.393C124.471 169.393 124.73 169.039 125.231 168.493C126.626 166.943 129.851 163.851 134.132 162.921C139.563 161.74 145.076 165.179 151.674 171.194C151.681 171.194 151.681 171.201 151.681 171.201C152.109 171.6 152.552 172.006 152.995 172.426L153.054 172.404C153.991 172.072 164.803 168.419 171.105 172.013C177.696 175.777 179.762 181.076 179.703 185.895Z" fill="#C37A81"/>
<path d="M314.366 57.7633C314.3 62.5824 306.123 77.0841 299.924 79.1653C293.724 81.2391 285.783 79.9402 285.783 79.9402C285.783 79.9402 282.669 94.7445 273.946 96.5821C265.215 98.4197 255.002 95.4825 251.931 93.9843C249.378 92.7297 245.71 87.6597 244.581 86.0361C244.36 85.7187 244.234 85.5342 244.234 85.5342C244.234 85.5342 244.05 86.2353 243.644 87.3423C243.644 87.3423 243.644 87.3497 243.636 87.3571C242.898 89.3866 241.437 92.7519 239.12 95.4825C238.168 96.5968 237.076 97.6005 235.828 98.368C229.865 102.029 206.707 101.969 199.718 98.2869C194.39 95.4677 191.585 90.1984 190.545 87.8663C190.545 87.8589 190.545 87.8589 190.545 87.8589C190.249 87.1873 190.102 86.7667 190.08 86.7076C190.043 86.7445 189.917 86.9069 189.711 87.1357C188.471 88.5526 184.39 92.9142 180.707 93.512C176.301 94.2205 170.788 90.2427 169.696 87.8811C168.604 85.5268 169.069 80.5453 169.069 80.5453C169.069 80.5453 158.213 82.073 153.069 75.7705C147.925 69.4753 147.49 62.147 151.512 58.0954C155.467 54.1176 164.988 52.6268 174.058 53.446C174.22 53.4607 174.375 53.4755 174.537 53.4903C174.537 53.4903 174.464 53.1729 174.382 52.6047C173.947 49.5789 173.202 39.4314 181.098 31.8669C187.652 25.5865 197.954 20.6714 206.36 19.5718C209.991 19.0995 213.474 19.0109 215.74 20.4648C224.53 26.0957 225.327 39.3428 225.327 39.3428C225.327 39.3428 230.64 33.889 234.647 31.2691C239.422 28.1547 248.729 29.4093 251.592 30.996C254.315 32.4942 257.459 37.2247 258.92 40.7229C258.994 40.9074 259.061 41.0919 259.134 41.2616C259.134 41.2616 259.393 40.9074 259.894 40.3612C261.289 38.8114 264.514 35.7192 268.795 34.7893C274.226 33.6085 279.739 37.055 286.337 43.0623C286.344 43.0623 286.344 43.0697 286.344 43.0697C286.772 43.4682 287.215 43.8741 287.658 44.2948L287.717 44.2726C288.654 43.9405 299.466 40.2874 305.769 43.8815C312.366 47.6379 314.425 52.9368 314.366 57.7633Z" fill="#C37A81"/>
<path d="M213.976 283.148C214.028 279.584 220.072 268.861 224.655 267.326C229.238 265.791 235.105 266.757 235.105 266.757C235.105 266.757 237.408 255.813 243.858 254.455C250.315 253.097 257.865 255.267 260.131 256.381C262.02 257.311 264.728 261.053 265.57 262.256C265.732 262.492 265.821 262.632 265.821 262.632C265.821 262.632 265.961 262.115 266.256 261.296C266.256 261.296 266.256 261.289 266.263 261.289C266.809 259.791 267.894 257.304 269.606 255.282C270.315 254.462 271.119 253.717 272.042 253.149C276.448 250.44 293.577 250.485 298.743 253.208C302.684 255.289 304.757 259.193 305.525 260.913C305.525 260.92 305.525 260.92 305.525 260.92C305.746 261.414 305.857 261.732 305.872 261.776C305.901 261.746 305.997 261.628 306.145 261.459C307.06 260.411 310.078 257.186 312.802 256.743C316.056 256.219 320.137 259.163 320.942 260.905C321.746 262.647 321.407 266.329 321.407 266.329C321.407 266.329 329.429 265.2 333.237 269.857C337.038 274.514 337.362 279.931 334.388 282.927C331.466 285.872 324.425 286.971 317.724 286.366C317.606 286.359 317.488 286.344 317.37 286.337C317.37 286.337 317.421 286.573 317.481 286.993C317.805 289.23 318.359 296.735 312.514 302.329C307.665 306.979 300.049 310.602 293.835 311.421C291.149 311.776 288.58 311.835 286.898 310.757C280.396 306.595 279.806 296.801 279.806 296.801C279.806 296.801 275.872 300.838 272.913 302.772C269.385 305.074 262.5 304.145 260.381 302.979C258.367 301.872 256.042 298.373 254.965 295.783C254.906 295.643 254.861 295.51 254.81 295.385C254.81 295.385 254.618 295.65 254.249 296.049C253.215 297.193 250.832 299.48 247.666 300.167C243.651 301.038 239.57 298.492 234.699 294.049C234.692 294.049 234.692 294.041 234.692 294.041C234.374 293.746 234.05 293.444 233.718 293.141L233.673 293.156C232.98 293.399 224.987 296.1 220.33 293.444C215.459 290.632 213.932 286.72 213.976 283.148Z" fill="#C37A81"/>
</g>
<path d="M307.067 82.9586L304.344 90.9142C303.17 94.3386 299.717 96.0286 296.292 94.8552C293.112 93.7629 291.178 90.2279 292.351 86.8036L296.713 74.0731C296.757 73.955 296.875 73.9993 296.92 73.8738C296.838 73.7115 296.838 73.7115 296.875 73.586C297.968 70.3978 301.746 68.5528 304.927 69.6377C312.639 72.2797 320.986 68.3019 323.584 60.7079C326.226 52.9958 322.034 44.8557 314.322 42.2136C309.303 40.4941 303.975 41.6823 300.263 44.9221C297.547 47.2763 293.54 46.9959 291.185 44.2726C288.957 41.6011 289.193 37.7118 291.916 35.365C298.92 29.2839 309.008 26.9887 318.432 30.2211C332.639 35.0845 340.321 50.5752 335.458 64.7743C331.296 76.8922 319.37 84.1615 307.067 82.9586ZM297.879 109.763L297.126 111.969C295.953 115.401 292.499 117.091 289.067 115.918C285.887 114.825 283.953 111.29 285.126 107.866L285.879 105.659C287.008 102.353 290.75 100.626 293.931 101.719C297.362 102.885 299.016 106.457 297.879 109.763Z" fill="#E31B22"/>
<path d="M37.7339 168.618L35.9775 159.135C35.2247 155.054 37.7192 151.423 41.8003 150.67C45.5863 149.969 49.5124 152.412 50.2652 156.493L53.077 171.666C53.1065 171.806 52.9515 171.836 52.981 171.984C53.1581 172.102 53.1581 172.102 53.1803 172.249C53.8814 176.043 51.1508 180.02 47.3648 180.721C38.1767 182.426 32.0882 191.098 33.7635 200.138C35.4683 209.326 44.2283 215.09 53.4238 213.393C59.4016 212.286 64.0584 208.101 65.9403 202.78C67.3277 198.898 71.4901 196.928 75.3719 198.315C79.1062 199.732 81.0545 203.747 79.6597 207.622C76.0878 217.636 67.3056 225.599 56.0806 227.68C39.1583 230.817 22.7673 219.673 19.6308 202.758C16.9445 188.308 24.7673 174.338 37.7339 168.618ZM31.8152 136.678L31.3281 134.05C30.568 129.962 33.0698 126.331 37.1509 125.578C40.9369 124.877 44.863 127.32 45.6158 131.401L46.1029 134.028C46.8335 137.962 44.0734 141.792 40.2874 142.493C36.1989 143.253 32.5458 140.619 31.8152 136.678Z" fill="#E31B22"/>
<path d="M309.089 285.016L307.835 292.263C307.296 295.377 304.543 297.311 301.429 296.772C298.536 296.27 296.381 293.48 296.92 290.366L298.934 278.772C298.957 278.661 299.067 278.684 299.089 278.573C298.994 278.447 298.994 278.447 299.016 278.329C299.518 275.429 302.529 273.311 305.422 273.813C312.447 275.03 319.097 270.447 320.292 263.54C321.51 256.521 316.772 250.071 309.754 248.854C305.185 248.064 300.75 249.82 297.99 253.127C295.968 255.533 292.47 255.842 290.064 253.813C287.769 251.813 287.444 248.426 289.466 246.02C294.676 239.806 303.067 236.44 311.643 237.931C324.573 240.175 333.34 252.485 331.097 265.414C329.17 276.455 319.872 284.366 309.089 285.016ZM304.853 309.421L304.506 311.429C303.968 314.55 301.215 316.484 298.093 315.945C295.2 315.443 293.045 312.654 293.584 309.539L293.931 307.532C294.455 304.521 297.444 302.521 300.337 303.023C303.458 303.554 305.37 306.41 304.853 309.421Z" fill="#E31B22"/>
<path d="M269.112 289.584C273.201 318.587 252.057 316.078 252.057 316.078C252.057 316.078 253.806 320.838 247.836 325.406C242.588 329.428 228.168 327.893 228.168 327.893C226.013 333.089 222.544 338.712 217.386 339.938C207.297 342.336 195.475 338.58 191.962 336.602C184.951 332.668 183.084 325.665 183.084 325.665C183.084 325.665 180.154 336.941 163.268 342.27C155.283 344.786 124.162 348.698 109.217 341.384C91.2837 332.609 91.7855 323.03 91.7855 323.03C91.7855 323.03 82.2579 322.919 76.3318 314.764C70.3983 306.617 71.3651 295.539 76.0219 290.285C80.5975 285.119 91.5936 283.178 102.073 284.226C102.265 284.248 102.442 284.263 102.627 284.285C102.627 284.285 102.546 283.879 102.45 283.134C101.948 279.215 101.106 266.064 110.243 256.256C117.822 248.108 130.346 245.193 140.036 243.599C154.014 241.289 167.017 257.186 167.017 257.186C172.537 253.149 185.371 251.053 191.681 255.009C196.264 257.879 200.301 268.079 200.375 268.3C200.375 268.3 206.604 261.104 211.541 259.901C217.814 258.366 224.183 262.817 231.792 270.588C231.799 270.588 231.799 270.595 231.799 270.595C232.293 271.112 232.803 271.636 233.312 272.174L233.386 272.145C234.47 271.724 265.562 264.418 269.112 289.584Z" fill="#D44248"/>
<g opacity="0.9">
<path d="M269.112 289.584C273.201 318.587 252.057 316.078 252.057 316.078C252.057 316.078 253.806 320.838 247.836 325.406C242.588 329.428 228.168 327.893 228.168 327.893C226.013 333.089 222.544 338.712 217.386 339.938C207.297 342.336 195.475 338.58 191.962 336.602C184.951 332.668 183.084 325.665 183.084 325.665C183.084 325.665 180.154 336.941 163.268 342.27C155.283 344.786 124.162 348.698 109.217 341.384C91.2837 332.609 91.7855 323.03 91.7855 323.03C91.7855 323.03 82.2579 322.919 76.3318 314.764C70.3983 306.617 71.3651 295.539 76.0219 290.285C80.5975 285.119 91.5936 283.178 102.073 284.226C102.265 284.248 102.442 284.263 102.627 284.285C102.627 284.285 102.546 283.879 102.45 283.134C101.948 279.215 101.106 266.064 110.243 256.256C117.822 248.108 130.346 245.193 140.036 243.599C154.014 241.289 167.017 257.186 167.017 257.186C172.537 253.149 185.371 251.053 191.681 255.009C196.264 257.879 200.301 268.079 200.375 268.3C200.375 268.3 206.604 261.104 211.541 259.901C217.814 258.366 224.183 262.817 231.792 270.588C231.799 270.588 231.799 270.595 231.799 270.595C232.293 271.112 232.803 271.636 233.312 272.174L233.386 272.145C234.47 271.724 265.562 264.418 269.112 289.584Z" fill="white"/>
</g>
<path opacity="0.1" d="M252.057 316.078C252.057 316.078 253.806 320.831 247.835 325.406C242.588 329.428 228.168 327.893 228.168 327.893C226.013 333.089 222.544 338.705 217.393 339.938C207.297 342.329 195.482 338.58 191.961 336.602C184.95 332.668 183.083 325.665 183.083 325.665C183.083 325.665 180.146 336.949 163.261 342.27C155.275 344.786 124.154 348.698 109.209 341.384C91.2835 332.609 91.7779 323.03 91.7779 323.03C91.7779 323.03 82.2504 322.927 76.3168 314.764C70.959 307.392 71.2246 297.628 74.7744 291.945C72.1988 301.857 82.1028 314.27 96.4569 315.237C96.4569 315.237 103.829 331.606 134.065 333.628C165.401 335.724 182.375 318.181 182.375 318.181C182.375 318.181 188.065 330.89 200.426 332.986C212.795 335.082 224.861 320.558 224.861 320.558C224.861 320.558 236.374 323.783 242.013 320.558C247.644 317.333 249.621 310.705 249.621 310.705C249.621 310.705 266.248 313.111 269.614 295.628C270.123 318.226 252.057 316.078 252.057 316.078Z" fill="#D44248"/>
<path opacity="0.8" d="M269.105 289.554C268.957 289.104 266.507 281.783 257.976 276.462C249.164 270.971 232.153 275.252 232.153 275.252C232.153 275.252 220.219 262.639 213.452 262.639C206.685 262.639 199.356 270.706 199.356 270.706C199.356 270.706 190.847 256.986 183.179 256.536C175.511 256.079 165.393 261.459 165.393 261.459C165.393 261.459 156.958 253.451 151.157 251.186C145.349 248.927 135.504 247.636 120.826 254.573C106.139 261.51 103.195 286.558 103.195 286.558C90.479 282.839 78.0142 288.676 77.4238 288.957C82.5972 284.794 92.5454 283.274 102.066 284.226C102.25 284.248 102.427 284.263 102.619 284.285C102.619 284.285 102.538 283.879 102.442 283.134C101.94 279.215 101.099 266.071 110.235 256.256C117.822 248.101 130.346 245.201 140.028 243.599C154.006 241.289 167.01 257.186 167.01 257.186C172.53 253.149 185.364 251.045 191.681 255.009C196.264 257.879 200.301 268.079 200.375 268.3C200.375 268.3 206.603 261.104 211.541 259.901C217.806 258.366 224.182 262.809 231.791 270.588C231.799 270.588 231.799 270.595 231.799 270.595C232.293 271.112 232.795 271.636 233.312 272.174L233.385 272.138C234.47 271.724 265.54 264.425 269.105 289.554Z" fill="white"/>
<path d="M338.491 133.541C338.432 138.006 336.004 149.12 325.908 153.371C320.624 155.593 313.606 154.094 313.606 154.094C313.606 154.094 310.883 167.806 303.296 169.519C295.702 171.223 289.894 170.537 284.145 167.127C281.99 165.851 277.451 159.305 277.451 159.305C277.451 159.305 276.876 167.231 270.13 171.194C261.459 176.286 244.787 174.552 238.714 171.15C234.079 168.544 231.762 161.644 231.747 161.585C231.747 161.585 229.452 165.637 222.175 166.744C218.33 167.327 213.983 164.751 212.603 161.533C211.267 158.426 212.064 154.744 212.064 154.744C212.064 154.744 202.618 156.168 198.146 150.331C193.673 144.5 193.297 137.711 196.803 133.962C200.249 130.272 208.529 128.892 216.419 129.644C216.559 129.659 216.699 129.674 216.839 129.689C216.839 129.689 216.773 129.394 216.706 128.87C216.33 126.065 214.337 116.781 221.216 109.77C226.92 103.947 236.463 99.4529 243.843 99.7112C260.595 100.309 261.038 116.545 261.038 116.545C261.038 116.545 262.743 112.582 269.149 109.062C273.584 106.626 281.222 107.696 283.894 108.796C289.798 111.231 290.388 118.139 290.447 118.301C290.447 118.301 295.141 113.209 298.853 112.301C310.861 109.364 314.868 120.707 315.259 121.091L315.311 121.069C316.122 120.766 325.532 117.372 331.015 120.693C336.757 124.169 338.55 129.076 338.491 133.541Z" fill="#D44248"/>
<g opacity="0.9">
<path d="M338.491 133.541C338.432 138.006 336.004 149.12 325.908 153.371C320.624 155.593 313.606 154.094 313.606 154.094C313.606 154.094 310.883 167.806 303.296 169.519C295.702 171.223 289.894 170.537 284.145 167.127C281.99 165.851 277.451 159.305 277.451 159.305C277.451 159.305 276.876 167.231 270.13 171.194C261.459 176.286 244.787 174.552 238.714 171.15C234.079 168.544 231.762 161.644 231.747 161.585C231.747 161.585 229.452 165.637 222.175 166.744C218.33 167.327 213.983 164.751 212.603 161.533C211.267 158.426 212.064 154.744 212.064 154.744C212.064 154.744 202.618 156.168 198.146 150.331C193.673 144.5 193.297 137.711 196.803 133.962C200.249 130.272 208.529 128.892 216.419 129.644C216.559 129.659 216.699 129.674 216.839 129.689C216.839 129.689 216.773 129.394 216.706 128.87C216.33 126.065 214.337 116.781 221.216 109.77C226.92 103.947 236.463 99.4529 243.843 99.7112C260.595 100.309 261.038 116.545 261.038 116.545C261.038 116.545 262.743 112.582 269.149 109.062C273.584 106.626 281.222 107.696 283.894 108.796C289.798 111.231 290.388 118.139 290.447 118.301C290.447 118.301 295.141 113.209 298.853 112.301C310.861 109.364 314.868 120.707 315.259 121.091L315.311 121.069C316.122 120.766 325.532 117.372 331.015 120.693C336.757 124.169 338.55 129.076 338.491 133.541Z" fill="white"/>
</g>
<path opacity="0.1" d="M337.524 139.423C336.1 144.412 332.779 150.478 325.908 153.371C320.631 155.585 313.613 154.094 313.613 154.094C313.613 154.094 310.89 167.806 303.303 169.519C295.709 171.223 289.901 170.53 284.152 167.12C281.997 165.843 277.466 159.297 277.466 159.297C277.466 159.297 276.883 167.223 270.145 171.179C261.473 176.271 244.802 174.544 238.721 171.135C234.094 168.522 231.769 161.629 231.747 161.57C231.747 161.57 229.459 165.622 222.182 166.729C218.337 167.312 213.99 164.736 212.61 161.519C211.267 158.419 212.064 154.729 212.064 154.729C212.064 154.729 202.625 156.153 198.153 150.323C195.703 147.135 194.485 143.659 194.456 140.537C195.223 148.397 210.802 152.404 215.452 150.958C215.452 150.958 214.957 159.799 221.23 160.434C227.488 161.076 231.902 156.736 231.902 156.736C231.902 156.736 242.485 168.271 256.307 169.725C270.145 171.172 277.318 155.12 277.318 155.12C277.318 155.12 288.543 164.928 297.857 164.449C307.178 163.969 313.126 151.283 313.126 151.283C313.126 151.283 331.104 154.67 337.524 139.423Z" fill="#D44248"/>
<path opacity="0.8" d="M336.941 126.766C330.477 116.855 314.122 122.737 314.122 122.737C314.122 122.737 310.351 114.501 303.458 114.301C296.551 114.102 289.828 120.095 289.828 120.095C289.828 120.095 288.61 112.921 279.702 111.062C270.802 109.209 260.411 118.36 260.411 118.36C257.503 108.722 252.071 100.375 234.404 105.999C216.729 111.623 218.544 132.825 218.544 132.825C206.212 129.615 196.817 133.969 196.817 133.969C200.256 130.279 208.544 128.899 216.433 129.652C216.581 129.667 216.706 129.681 216.854 129.696C216.854 129.696 216.788 129.401 216.714 128.87C216.337 126.065 214.352 116.781 221.23 109.778C226.935 103.955 236.477 99.4603 243.857 99.7186C260.603 100.316 261.053 116.552 261.053 116.552C261.053 116.552 262.758 112.589 269.171 109.076C273.606 106.641 281.245 107.704 283.909 108.811C289.813 111.246 290.411 118.161 290.47 118.316C290.47 118.316 295.163 113.224 298.875 112.316C310.875 109.372 314.89 120.722 315.274 121.106L315.333 121.084C316.145 120.781 325.561 117.386 331.037 120.707C333.901 122.442 335.79 124.538 336.941 126.766Z" fill="white"/>
<path d="M162.5 72.0363C160.19 75.564 153.917 76.7522 153.917 76.7522C153.917 76.7522 154.862 89.49 148.139 93.4162C133.224 102.139 125.682 89.4015 125.682 89.4015C125.682 89.4015 122.294 103.512 104.494 109.792C90.6413 114.685 76.6636 108.767 72.2061 105.379C67.0622 101.475 63.97 95.9106 62.9368 94.3239C62.7892 94.1025 62.7154 93.9771 62.7154 93.9771C62.7154 93.9771 57.8372 98.501 48.7746 99.6744C40.8337 100.7 34.6566 97.2612 31.3578 93.7557C26.6862 88.8037 28.0441 82.0067 28.0441 82.0067C28.0441 82.0067 27.8818 82.0436 27.5866 82.0731C25.9261 82.2576 20.0516 82.575 15.5941 78.3758C10.3395 73.4312 10.8635 61.7265 17.4538 56.0808C25.867 48.8927 37.7341 50.3096 37.7341 50.3096C37.7341 50.3096 37.1806 36.4574 46.9812 28.2065C56.7892 19.9483 76.6193 15.9188 86.5233 21.0184C98.073 26.9667 101.704 40.6049 101.564 41.0625C101.962 40.6935 112.132 32.3467 126.892 35.0699C141.851 37.83 140.87 57.9036 140.87 57.9036C140.87 57.9036 147.696 54.4129 155.785 55.7634C163.888 57.114 164.81 68.5013 162.5 72.0363Z" fill="#D44248"/>
<g opacity="0.9">
<path d="M162.5 72.0363C160.19 75.564 153.917 76.7522 153.917 76.7522C153.917 76.7522 154.862 89.49 148.139 93.4162C133.224 102.139 125.682 89.4015 125.682 89.4015C125.682 89.4015 122.294 103.512 104.494 109.792C90.6413 114.685 76.6636 108.767 72.2061 105.379C67.0622 101.475 63.97 95.9106 62.9368 94.3239C62.7892 94.1025 62.7154 93.9771 62.7154 93.9771C62.7154 93.9771 57.8372 98.501 48.7746 99.6744C40.8337 100.7 34.6566 97.2612 31.3578 93.7557C26.6862 88.8037 28.0441 82.0067 28.0441 82.0067C28.0441 82.0067 27.8818 82.0436 27.5866 82.0731C25.9261 82.2576 20.0516 82.575 15.5941 78.3758C10.3395 73.4312 10.8635 61.7265 17.4538 56.0808C25.867 48.8927 37.7341 50.3096 37.7341 50.3096C37.7341 50.3096 37.1806 36.4574 46.9812 28.2065C56.7892 19.9483 76.6193 15.9188 86.5233 21.0184C98.073 26.9667 101.704 40.6049 101.564 41.0625C101.962 40.6935 112.132 32.3467 126.892 35.0699C141.851 37.83 140.87 57.9036 140.87 57.9036C140.87 57.9036 147.696 54.4129 155.785 55.7634C163.888 57.114 164.81 68.5013 162.5 72.0363Z" fill="white"/>
</g>
<path opacity="0.1" d="M162.5 72.0362C160.19 75.5638 153.917 76.752 153.917 76.752C153.917 76.752 154.862 89.4825 148.139 93.4161C133.216 102.139 125.681 89.394 125.681 89.394C125.681 89.394 122.294 103.505 104.493 109.792C90.6486 114.685 76.6635 108.766 72.206 105.379C67.0621 101.475 63.9699 95.9105 62.9367 94.3312C62.7891 94.1098 62.7153 93.9769 62.7153 93.9769C62.7153 93.9769 57.8297 98.5083 48.7745 99.6743C40.841 100.693 34.6565 97.261 31.3577 93.7629C26.6861 88.8036 28.0367 82.0066 28.0367 82.0066C28.0367 82.0066 27.8743 82.0435 27.5791 82.0804C25.9186 82.2723 20.0515 82.5822 15.5866 78.383C11.0922 74.1616 10.8265 64.9809 14.9741 58.8924C12.6494 67.1137 17.8375 77.3424 31.0846 76.8553C31.0846 76.8553 30.3614 90.1541 43.3723 92.8404C56.3906 95.5341 63.4976 88.5453 63.4976 88.5453C63.4976 88.5453 76.1469 105.903 94.3386 104.575C112.538 103.246 124.825 85.704 124.825 85.704C124.825 85.704 134.346 93.6079 142.899 90.3534C151.46 87.0988 151.209 73.7188 151.209 73.7188C151.209 73.7188 164.84 73.5196 163.142 63.4975C163.969 66.8333 163.607 70.3388 162.5 72.0362Z" fill="#D44248"/>
<path opacity="0.8" d="M160.212 57.9994C152.522 54.6489 139.814 59.4016 139.814 59.4016C139.814 59.4016 137.725 39.8594 125.844 37.4461C113.954 35.0403 100.102 43.7191 100.102 43.7191C100.102 43.7191 92.9879 21.4611 67.7187 25.2322C41.0548 29.2101 40.5382 52.6489 40.5382 52.6489C34.1102 50.6563 22.5974 52.826 17.4609 56.0806C25.8741 48.8925 37.7412 50.3095 37.7412 50.3095C37.7412 50.3095 37.1803 36.4572 46.9883 28.199C56.8037 19.9482 76.6264 15.9113 86.5303 21.0109C98.0801 26.9592 101.711 40.5974 101.578 41.055C101.977 40.686 112.146 32.3392 126.906 35.0624C141.873 37.8225 140.884 57.8961 140.884 57.8961C140.884 57.8961 147.711 54.4128 155.799 55.7559C157.615 56.0733 159.068 56.8777 160.212 57.9994Z" fill="white"/>
<path opacity="0.5" d="M268.256 206.943C267.466 214.101 264.64 227.525 254.514 236.367C246.227 243.614 237.673 246.389 232.249 247.451C229.4 249.983 225.348 252.787 220.256 254.248C217.762 254.964 215.275 255.4 212.862 255.547C211.548 262.713 210.456 269.842 210.079 272.388H140.442C140.065 269.842 138.973 262.713 137.659 255.547C135.239 255.4 132.759 254.972 130.265 254.248C125.172 252.787 121.121 249.983 118.272 247.451C112.848 246.381 104.294 243.614 96.0066 236.367C85.8812 227.525 83.0473 214.109 82.265 206.95C77.254 200.308 74.767 193.245 74.8703 185.917C74.9367 181.009 76.2503 176.065 78.6119 171.674C77.3426 166.751 77.9035 162.146 78.7522 158.825C77.6452 155.364 77.5123 151.762 78.3905 148.264C79.5049 143.888 81.992 140.419 84.5455 137.844C83.837 129.239 86.7373 121.29 92.9218 115.128C94.1247 113.918 95.4531 112.796 96.8774 111.763C96.9512 103.423 100.804 96.1393 107.697 91.357C110.043 83.9623 115.32 78.1099 122.833 74.7004C125.77 73.372 128.597 72.6045 130.862 72.1543C135.763 68.1469 142.486 66.0436 150.464 66.0436C151.46 66.0436 152.375 66.0805 153.172 66.1248C155.947 65.04 158.803 64.5012 161.703 64.5012C166.626 64.5012 171.349 66.0879 175.26 68.9292C179.172 66.0879 183.895 64.5012 188.817 64.5012C191.71 64.5012 194.574 65.0473 197.349 66.1248C198.146 66.0732 199.061 66.0436 200.057 66.0436C208.042 66.0436 214.758 68.1469 219.659 72.1543C221.917 72.6045 224.743 73.3646 227.673 74.693C235.193 78.1099 240.477 83.9623 242.817 91.357C249.717 96.1319 253.57 103.423 253.643 111.763C255.068 112.796 256.389 113.918 257.599 115.128C263.784 121.29 266.684 129.239 265.983 137.844C268.536 140.412 271.016 143.88 272.123 148.257C273.016 151.762 272.883 155.364 271.769 158.825C272.617 162.153 273.178 166.759 271.909 171.681C276.854 180.862 278.005 193.991 268.256 206.943Z" fill="#D44248"/>
<path opacity="0.7" d="M261.577 204.278C261.23 209.216 259.429 222.92 249.983 231.171C241.717 238.396 233.171 240.433 229.038 240.994C227.038 243.023 223.289 246.204 218.367 247.621C215.872 248.337 213.422 248.706 211.083 248.706C209.651 248.706 208.367 248.566 207.245 248.359C205.039 259.06 203.112 272.388 203.112 272.388H147.415C147.415 272.388 145.489 259.06 143.283 248.359C142.161 248.566 140.877 248.706 139.445 248.706C137.106 248.706 134.663 248.337 132.161 247.621C127.239 246.204 123.49 243.023 121.49 240.994C117.349 240.426 108.811 238.396 100.545 231.171C91.0987 222.928 89.2906 209.216 88.9511 204.278C78.1542 191.275 81.5195 179.157 86.1984 172.508C83.977 167.578 84.715 162.257 86.0508 158.522C84.7002 155.733 84.3608 152.81 85.084 149.947C86.1689 145.689 89.3496 142.493 91.9031 140.545C89.8072 130.633 93.8145 123.977 97.7997 120.006C99.8957 117.918 102.154 116.412 104.043 115.372C102.397 104.575 108.737 98.4418 113.689 95.7629C114.995 89.1209 119.172 83.9401 125.696 80.9734C128.855 79.549 131.917 78.907 133.991 78.6265C137.666 74.8996 143.29 72.9366 150.471 72.9366C151.991 72.9366 153.327 73.0251 154.338 73.1284C156.7 71.9919 159.216 71.3941 161.711 71.3941C167.231 71.3941 172.286 74.2871 175.268 78.7225C178.249 74.2871 183.297 71.3941 188.825 71.3941C191.319 71.3941 193.828 71.9919 196.197 73.1284C197.208 73.0251 198.551 72.9366 200.064 72.9366C207.245 72.9366 212.869 74.8923 216.544 78.6265C218.618 78.8996 221.68 79.5417 224.839 80.9734C231.363 83.9401 235.54 89.1209 236.846 95.7629C241.798 98.4418 248.138 104.575 246.492 115.372C248.381 116.412 250.64 117.918 252.735 120.006C256.721 123.977 260.728 130.633 258.632 140.545C261.186 142.493 264.366 145.689 265.451 149.947C266.174 152.818 265.835 155.733 264.484 158.522C265.82 162.249 266.566 167.578 264.337 172.508C269.008 179.157 272.374 191.275 261.577 204.278Z" fill="#E31B22"/>
<path d="M168.958 99.0692C168.958 99.0692 173.91 93.1651 172.722 85.9475C171.541 78.7225 163.357 73.2318 155.394 78.2133C155.394 78.2133 141.94 75.7705 136.663 83.2981C136.663 83.2981 119.438 83.6007 118.471 99.0692C118.471 99.0692 105.232 102.833 109.97 118.095C109.97 118.095 91.564 123.999 97.8075 142.619C97.8075 142.619 85.2172 149.128 91.778 158.183C91.778 158.183 87.2541 166.626 92.4275 172.936C92.4275 172.936 79.077 185.858 94.0437 202.441C94.0437 202.441 94.1544 218.92 104.051 227.57C113.955 236.219 124.073 236.322 124.073 236.322C124.073 236.322 128.014 241.311 133.667 242.935C141.689 245.245 145.925 242.226 145.925 242.226C145.925 242.226 149.372 247.009 156.154 246.706C162.936 246.403 169.932 237.547 169.608 221.068C169.608 221.068 175.74 204.891 164.552 190.138C164.552 190.138 176.39 175.998 166.493 160.124C166.493 160.124 170.796 157.482 171.445 150.456C172.095 143.438 164.988 136.213 164.988 136.213C164.988 136.213 168.648 126.242 164.988 120.235C164.973 120.235 173.799 113.01 168.958 99.0692Z" fill="#D44248"/>
<path opacity="0.4" d="M168.958 99.0692C168.958 99.0692 173.91 93.1651 172.722 85.9475C171.541 78.7225 163.357 73.2318 155.394 78.2133C155.394 78.2133 141.94 75.7705 136.663 83.2981C136.663 83.2981 119.438 83.6007 118.471 99.0692C118.471 99.0692 105.232 102.833 109.97 118.095C109.97 118.095 91.564 123.999 97.8075 142.619C97.8075 142.619 85.2172 149.128 91.778 158.183C91.778 158.183 87.2541 166.626 92.4275 172.936C92.4275 172.936 79.077 185.858 94.0437 202.441C94.0437 202.441 94.1544 218.92 104.051 227.57C113.955 236.219 124.073 236.322 124.073 236.322C124.073 236.322 128.014 241.311 133.667 242.935C141.689 245.245 145.925 242.226 145.925 242.226C145.925 242.226 149.372 247.009 156.154 246.706C162.936 246.403 169.932 237.547 169.608 221.068C169.608 221.068 175.74 204.891 164.552 190.138C164.552 190.138 176.39 175.998 166.493 160.124C166.493 160.124 170.796 157.482 171.445 150.456C172.095 143.438 164.988 136.213 164.988 136.213C164.988 136.213 168.648 126.242 164.988 120.235C164.973 120.235 173.799 113.01 168.958 99.0692Z" fill="white"/>
<path opacity="0.3" d="M164.973 136.205C164.973 136.205 172.08 143.43 171.43 150.456C170.788 157.474 166.486 160.117 166.486 160.117C176.39 175.991 164.545 190.131 164.545 190.131C175.74 204.891 169.607 221.068 169.607 221.068C169.932 237.547 162.936 246.396 156.146 246.706C149.372 247.016 145.925 242.234 145.925 242.234C145.925 242.234 141.696 245.252 133.674 242.95C128.021 241.319 124.08 236.337 124.08 236.337C124.08 236.337 113.962 236.234 104.058 227.584C98.7964 222.987 96.2946 216.182 95.1138 210.817C96.4348 214.396 98.4421 218.013 101.497 220.832C110.752 229.378 120.457 229.732 120.457 229.732C120.457 229.732 124.095 234.618 129.475 236.322C137.106 238.743 141.254 235.953 141.254 235.953C141.254 235.953 144.427 240.632 150.936 240.507C157.453 240.389 164.412 232.079 164.574 216.256C164.574 216.256 170.921 200.884 160.604 186.448C160.604 186.448 172.368 173.179 163.312 157.696C163.312 157.696 167.519 155.275 168.338 148.552C169.165 141.836 162.545 134.722 162.545 134.722C162.545 134.722 166.338 125.246 163.002 119.394C163.002 119.394 171.681 112.685 167.43 99.1946C167.43 99.1946 172.345 93.6596 171.423 86.6929C170.493 79.7335 162.803 74.2576 155.017 78.8332C155.017 78.8332 142.176 76.1469 136.899 83.2317C136.899 83.2317 136.84 83.2317 136.722 83.239C142.036 75.8 155.394 78.228 155.394 78.228C163.357 73.2391 171.541 78.7299 172.729 85.9623C173.91 93.1799 168.958 99.0839 168.958 99.0839C173.799 113.025 164.973 120.25 164.973 120.25C168.633 126.235 164.973 136.205 164.973 136.205Z" fill="white"/>
<path d="M91.7778 158.183C95.8221 160.235 100.553 159.164 104.176 156.877C105.401 156.102 106.523 155.15 107.674 154.08C106.759 157.002 104.11 159.467 100.885 160.426C97.8147 161.386 93.6302 160.906 91.7778 158.183Z" fill="#D44248"/>
<path d="M169.6 221.061C161.991 227.466 153.061 226.684 146.707 219.193C155.858 224.47 159.652 224.839 169.6 221.061Z" fill="#D44248"/>
<path d="M124.072 236.322C118.788 233.363 117.275 226.337 119.157 221.097C120.08 226.337 121.01 231.762 124.072 236.322Z" fill="#D44248"/>
<path d="M92.4272 172.936C97.2021 176.463 103.099 180.537 109.401 178.626C109.91 178.478 110.479 178.197 110.951 177.969C111.165 177.843 111.615 177.541 111.837 177.415C109.807 180.84 104.685 181.378 101.069 180.065C97.3423 178.81 94.3091 176.153 92.4272 172.936Z" fill="#D44248"/>
<path d="M118.471 99.0691C119.062 100.818 119.586 102.663 120.84 104.043L120.567 104.575C118.641 108.25 118.176 112.552 119.873 116.412C117.069 114.102 116.449 110.102 117.586 106.855C117.962 105.748 118.449 104.73 119.18 103.733L119.195 104.604C118.25 102.907 118.11 100.922 118.471 99.0691Z" fill="#D44248"/>
<path d="M109.969 118.095C111.667 120.611 113.364 122.7 115.563 124.914C112.39 124.235 109.896 121.165 109.969 118.095Z" fill="#D44248"/>
<path d="M136.663 83.2981C135.467 86.8774 133.844 90.2648 132.678 93.881C132.043 90.0508 133.903 86.0508 136.663 83.2981Z" fill="#D44248"/>
<path d="M151.246 92.8626C148.397 88.036 149.918 80.7446 155.394 78.2133C154.641 79.4162 153.859 80.4494 153.349 81.6302C151.608 85.1652 151.349 88.9807 151.246 92.8626Z" fill="#D44248"/>
<path d="M160.936 104.648C163.799 103.054 166.633 101.342 168.958 99.0691C168.139 102.368 164.434 104.678 160.936 104.648Z" fill="#D44248"/>
<path d="M164.972 120.235C163.688 122.146 161.43 123.423 159.054 123.645C160.596 121.932 162.67 120.774 164.972 120.235Z" fill="#D44248"/>
<path d="M164.973 136.205C163.548 139.393 159.895 141.696 156.36 142.309C157.578 141.312 159.364 140.131 160.663 139.224C161.962 138.338 163.703 137.15 164.973 136.205Z" fill="#D44248"/>
<path d="M166.478 160.117C163.607 162.921 159.438 164.375 155.394 164.795C158.877 162.759 162.663 161.489 166.478 160.117Z" fill="#D44248"/>
<path d="M103.542 157.903C105.711 161.666 108.678 164.995 112.479 167.305C119.822 171.733 130.124 171.415 136.685 165.74C140.065 162.928 142.655 159.297 144.596 155.423C143.608 159.762 141.349 163.873 138.058 167.105C133.025 172.286 124.84 173.902 117.8 171.969C110.833 170.116 105.364 164.426 103.542 157.903Z" fill="#D44248"/>
<path d="M124.892 155.297C119.113 148.154 119.039 137.238 125.445 130.412C127.482 128.139 129.955 126.272 132.678 124.907C130.427 126.892 128.346 128.973 126.648 131.275C121.231 138.301 121.386 147.489 124.892 155.297Z" fill="#D44248"/>
<path d="M106.095 131.829C112.088 127.969 120.523 130.87 122.368 137.541C121.505 136.759 120.73 135.881 119.837 135.165C116.154 131.836 111.018 131.15 106.095 131.829Z" fill="#D44248"/>
<path d="M137.63 101.106C145.829 105.541 151.113 115.113 148.087 123.932C147.143 126.781 145.549 129.379 143.519 131.563C144.884 128.958 145.999 126.301 146.619 123.578C148.678 115.084 143.977 106.914 137.63 101.106Z" fill="#D44248"/>
<path d="M146.914 112.803C146.36 108.456 150.811 104.272 155.386 104.648C153.726 105.8 152.021 106.84 150.619 108.235C149.165 109.608 148.073 111.113 146.914 112.803Z" fill="#D44248"/>
<path d="M149.578 206.411C160.22 201.57 165.113 193.172 160.478 182.426C159.135 179.386 157.209 176.507 154.847 173.858C157.209 175.246 159.202 177.194 160.847 179.312C169.165 190.36 163.851 203.873 149.578 206.411Z" fill="#D44248"/>
<path d="M96.9293 190.611C93.8961 197.186 93.7854 203.946 100.007 208.795C101.815 210.249 103.918 211.422 106.103 212.588C100.516 211.636 94.7522 208.116 93.4681 202.522C92.3759 198.352 94.0437 193.755 96.9293 190.611Z" fill="#D44248"/>
<path d="M108.25 194.205C116.862 190.087 128.375 191.415 134.228 199.127C136.146 201.555 137.394 204.36 138.065 207.23C136.633 204.611 135.062 202.138 133.062 200.035C126.892 193.29 117.032 192.323 108.25 194.205Z" fill="#D44248"/>
<path d="M129.438 195.895C126.981 189.09 130.265 179.88 138.058 177.821C131.955 182.279 129.984 188.891 129.438 195.895Z" fill="#D44248"/>
<path d="M142.095 140.869C151.785 136.515 161.497 142.338 162.013 152.375C161.113 150.412 160.161 148.537 158.951 146.869C155.246 141.43 148.597 140.05 142.095 140.869Z" fill="#D44248"/>
<path d="M147.91 211.754C150.656 222.219 142.693 229.533 131.874 225.179C134.102 225.275 136.279 225.326 138.338 224.994C145.49 224.086 147.416 217.703 147.91 211.754Z" fill="#D44248"/>
<path d="M145.917 242.226C147.637 240.507 148.965 238.374 149.593 236.101L150.936 237.009C149.666 237.813 148.353 238.256 146.862 238.426C143.969 238.773 141.083 237.54 139.209 235.496C138.301 234.536 137.622 233.415 137.083 232.256C137.585 232.677 138.058 233.112 138.515 233.54C141.792 236.404 145.807 237.717 149.932 235.636L152.035 234.522L151.275 236.544C150.316 238.994 148.463 241.164 145.917 242.226Z" fill="#D44248"/>
<path d="M181.563 99.0692C181.563 99.0692 176.611 93.1651 177.799 85.9475C178.98 78.7225 187.165 73.2318 195.128 78.2133C195.128 78.2133 208.581 75.7705 213.858 83.2981C213.858 83.2981 231.083 83.6007 232.05 99.0692C232.05 99.0692 245.289 102.833 240.551 118.095C240.551 118.095 258.957 123.999 252.714 142.619C252.714 142.619 265.304 149.128 258.743 158.183C258.743 158.183 263.267 166.626 258.094 172.936C258.094 172.936 271.444 185.858 256.478 202.441C256.478 202.441 256.367 218.92 246.47 227.57C236.566 236.219 226.448 236.322 226.448 236.322C226.448 236.322 222.507 241.311 216.854 242.935C208.832 245.245 204.596 242.226 204.596 242.226C204.596 242.226 201.15 247.009 194.367 246.706C187.585 246.403 180.589 237.547 180.914 221.068C180.914 221.068 174.781 204.891 185.969 190.138C185.969 190.138 174.131 175.998 184.028 160.124C184.028 160.124 179.726 157.482 179.076 150.456C178.427 143.438 185.534 136.213 185.534 136.213C185.534 136.213 181.873 126.242 185.534 120.235C185.548 120.235 176.722 113.01 181.563 99.0692Z" fill="#D44248"/>
<path opacity="0.4" d="M181.563 99.0692C181.563 99.0692 176.611 93.1651 177.799 85.9475C178.98 78.7225 187.165 73.2318 195.128 78.2133C195.128 78.2133 208.581 75.7705 213.858 83.2981C213.858 83.2981 231.083 83.6007 232.05 99.0692C232.05 99.0692 245.289 102.833 240.551 118.095C240.551 118.095 258.957 123.999 252.714 142.619C252.714 142.619 265.304 149.128 258.743 158.183C258.743 158.183 263.267 166.626 258.094 172.936C258.094 172.936 271.444 185.858 256.478 202.441C256.478 202.441 256.367 218.92 246.47 227.57C236.566 236.219 226.448 236.322 226.448 236.322C226.448 236.322 222.507 241.311 216.854 242.935C208.832 245.245 204.596 242.226 204.596 242.226C204.596 242.226 201.15 247.009 194.367 246.706C187.585 246.403 180.589 237.547 180.914 221.068C180.914 221.068 174.781 204.891 185.969 190.138C185.969 190.138 174.131 175.998 184.028 160.124C184.028 160.124 179.726 157.482 179.076 150.456C178.427 143.438 185.534 136.213 185.534 136.213C185.534 136.213 181.873 126.242 185.534 120.235C185.548 120.235 176.722 113.01 181.563 99.0692Z" fill="white"/>
<g opacity="0.3">
<path d="M194.065 77.9107C193.283 77.4015 192.501 77.003 191.718 76.693C192.641 76.9439 193.571 77.3203 194.508 77.8517C194.22 77.8886 194.065 77.9107 194.065 77.9107Z" fill="white"/>
<path d="M256.485 202.448C256.485 202.448 256.374 218.928 246.478 227.577C236.574 236.226 226.456 236.33 226.456 236.33C226.456 236.33 222.515 241.319 216.862 242.942C208.84 245.245 204.611 242.226 204.611 242.226C204.611 242.226 201.165 247.009 194.382 246.699C189.814 246.492 185.15 242.418 182.692 234.736C184.818 237.385 187.371 238.817 189.925 238.979C196.404 239.4 199.792 234.891 199.792 234.891C199.792 234.891 203.777 237.85 211.497 235.798C216.936 234.345 220.803 229.651 220.803 229.651C220.803 229.651 230.478 229.739 240.124 221.644C249.762 213.555 250.205 197.806 250.205 197.806C264.847 182.22 252.345 169.622 252.345 169.622C257.415 163.681 253.267 155.526 253.267 155.526C259.725 146.988 247.814 140.537 247.814 140.537C254.16 122.855 236.692 116.877 236.692 116.877C241.533 102.375 228.943 98.5304 228.943 98.5304C228.338 83.7188 211.873 83.121 211.873 83.121C209.652 79.8 205.77 78.4273 202.198 77.9181C206.294 78.2059 211.15 79.4457 213.858 83.3055C213.858 83.3055 231.083 83.6081 232.05 99.0765C232.05 99.0765 245.282 102.84 240.552 118.102C240.552 118.102 258.957 124.006 252.714 142.626C252.714 142.626 265.311 149.135 258.743 158.19C258.743 158.19 263.26 166.633 258.094 172.943C258.094 172.936 271.437 185.858 256.485 202.448Z" fill="white"/>
<path opacity="0.4" d="M194.065 77.9107C193.283 77.4015 192.501 77.003 191.718 76.693C192.641 76.9439 193.571 77.3203 194.508 77.8517C194.22 77.8886 194.065 77.9107 194.065 77.9107Z" fill="white"/>
<path opacity="0.3" d="M256.485 202.448C256.485 202.448 256.374 218.928 246.478 227.577C236.574 236.226 226.456 236.33 226.456 236.33C226.456 236.33 222.515 241.319 216.862 242.942C208.84 245.245 204.611 242.226 204.611 242.226C204.611 242.226 201.165 247.009 194.382 246.699C189.814 246.492 185.15 242.418 182.692 234.736C184.818 237.385 187.371 238.817 189.925 238.979C196.404 239.4 199.792 234.891 199.792 234.891C199.792 234.891 203.777 237.85 211.497 235.798C216.936 234.345 220.803 229.651 220.803 229.651C220.803 229.651 230.478 229.739 240.124 221.644C249.762 213.555 250.205 197.806 250.205 197.806C264.847 182.22 252.345 169.622 252.345 169.622C257.415 163.681 253.267 155.526 253.267 155.526C259.725 146.988 247.814 140.537 247.814 140.537C254.16 122.855 236.692 116.877 236.692 116.877C241.533 102.375 228.943 98.5304 228.943 98.5304C228.338 83.7188 211.873 83.121 211.873 83.121C209.652 79.8 205.77 78.4273 202.198 77.9181C206.294 78.2059 211.15 79.4457 213.858 83.3055C213.858 83.3055 231.083 83.6081 232.05 99.0765C232.05 99.0765 245.282 102.84 240.552 118.102C240.552 118.102 258.957 124.006 252.714 142.626C252.714 142.626 265.311 149.135 258.743 158.19C258.743 158.19 263.26 166.633 258.094 172.943C258.094 172.936 271.437 185.858 256.485 202.448Z" fill="white"/>
</g>
<path d="M202.198 77.9107C198.316 77.6376 195.128 78.2133 195.128 78.2133C194.921 78.0804 194.714 77.9623 194.508 77.8516C195.63 77.7114 198.773 77.4088 202.198 77.9107Z" fill="#D44248"/>
<path opacity="0.4" d="M202.198 77.9107C198.316 77.6376 195.128 78.2133 195.128 78.2133C194.921 78.0804 194.714 77.9623 194.508 77.8516C195.63 77.7114 198.773 77.4088 202.198 77.9107Z" fill="white"/>
<path d="M258.743 158.183C256.898 160.906 252.714 161.386 249.644 160.426C246.419 159.467 243.762 157.002 242.854 154.08C244.013 155.15 245.127 156.102 246.352 156.877C249.968 159.164 254.699 160.242 258.743 158.183Z" fill="#D44248"/>
<path d="M180.921 221.061C190.877 224.846 194.677 224.463 203.814 219.193C197.452 226.691 188.522 227.466 180.921 221.061Z" fill="#D44248"/>
<path d="M226.448 236.322C229.511 231.762 230.441 226.33 231.363 221.097C233.245 226.337 231.732 233.37 226.448 236.322Z" fill="#D44248"/>
<path d="M258.093 172.936C256.212 176.153 253.171 178.803 249.451 180.065C245.843 181.378 240.714 180.832 238.684 177.415C238.913 177.541 239.356 177.843 239.57 177.969C240.042 178.197 240.61 178.485 241.119 178.626C247.429 180.537 253.311 176.463 258.093 172.936Z" fill="#D44248"/>
<path d="M232.05 99.0691C232.419 100.922 232.271 102.907 231.326 104.604L231.341 103.733C232.072 104.73 232.559 105.748 232.935 106.855C234.072 110.102 233.452 114.102 230.647 116.412C232.345 112.552 231.88 108.25 229.954 104.575L229.681 104.043C230.928 102.663 231.452 100.818 232.05 99.0691Z" fill="#D44248"/>
<path d="M240.551 118.095C240.625 121.165 238.13 124.228 234.957 124.914C237.149 122.7 238.846 120.611 240.551 118.095Z" fill="#D44248"/>
<path d="M213.858 83.2981C216.618 86.0508 218.485 90.0508 217.843 93.881C216.677 90.2648 215.046 86.8774 213.858 83.2981Z" fill="#D44248"/>
<path d="M199.275 92.8626C199.26 87.5932 198.412 82.5822 195.127 78.2133C200.603 80.7446 202.116 88.036 199.275 92.8626Z" fill="#D44248"/>
<path d="M189.585 104.648C186.087 104.678 182.382 102.368 181.563 99.0691C183.888 101.342 186.722 103.054 189.585 104.648Z" fill="#D44248"/>
<path d="M185.548 120.235C187.851 120.774 189.925 121.932 191.467 123.645C189.091 123.423 186.832 122.146 185.548 120.235Z" fill="#D44248"/>
<path d="M185.548 136.205C186.81 137.143 188.559 138.338 189.858 139.224C191.157 140.139 192.928 141.305 194.161 142.309C190.626 141.703 186.973 139.393 185.548 136.205Z" fill="#D44248"/>
<path d="M184.042 160.117C187.858 161.489 191.644 162.759 195.127 164.795C191.083 164.375 186.906 162.921 184.042 160.117Z" fill="#D44248"/>
<path d="M246.979 157.902C245.156 164.426 239.688 170.116 232.721 171.976C225.673 173.91 217.496 172.286 212.463 167.113C209.179 163.88 206.921 159.77 205.924 155.43C207.865 159.305 210.456 162.936 213.836 165.747C220.396 171.423 230.706 171.74 238.042 167.312C241.843 164.995 244.81 161.674 246.979 157.902Z" fill="#D44248"/>
<path d="M225.621 155.297C229.127 147.482 229.289 138.294 223.865 131.283C222.167 128.98 220.086 126.899 217.835 124.914C220.559 126.279 223.031 128.139 225.068 130.419C231.481 137.238 231.4 148.161 225.621 155.297Z" fill="#D44248"/>
<path d="M244.426 131.829C239.503 131.15 234.367 131.836 230.684 135.165C229.791 135.881 229.024 136.759 228.153 137.541C229.998 130.877 238.433 127.969 244.426 131.829Z" fill="#D44248"/>
<path d="M212.891 101.106C206.552 106.914 201.843 115.084 203.895 123.578C204.515 126.301 205.637 128.958 206.995 131.563C204.958 129.386 203.371 126.788 202.426 123.932C199.401 115.113 204.692 105.541 212.891 101.106Z" fill="#D44248"/>
<path d="M203.6 112.803C202.448 111.113 201.349 109.608 199.895 108.235C198.485 106.833 196.788 105.792 195.127 104.648C199.703 104.272 204.161 108.456 203.6 112.803Z" fill="#D44248"/>
<path d="M200.943 206.411C186.662 203.865 181.364 190.36 189.673 179.312C191.319 177.186 193.304 175.238 195.673 173.858C193.319 176.507 191.386 179.386 190.042 182.426C185.408 193.179 190.301 201.57 200.943 206.411Z" fill="#D44248"/>
<path d="M253.592 190.611C256.477 193.755 258.145 198.352 257.053 202.522C255.769 208.116 250.005 211.636 244.418 212.588C246.603 211.422 248.699 210.249 250.514 208.795C256.743 203.946 256.625 197.179 253.592 190.611Z" fill="#D44248"/>
<path d="M242.271 194.205C233.481 192.323 223.629 193.297 217.459 200.035C215.459 202.131 213.887 204.61 212.456 207.23C213.127 204.36 214.374 201.555 216.293 199.127C222.145 191.408 233.658 190.087 242.271 194.205Z" fill="#D44248"/>
<path d="M221.075 195.895C220.529 188.891 218.566 182.279 212.456 177.821C220.249 179.88 223.533 189.09 221.075 195.895Z" fill="#D44248"/>
<path d="M208.426 140.869C201.924 140.058 195.267 141.438 191.563 146.877C190.352 148.545 189.4 150.419 188.5 152.382C189.031 142.331 198.743 136.515 208.426 140.869Z" fill="#D44248"/>
<path d="M202.611 211.754C203.105 217.703 205.032 224.086 212.183 224.994C214.242 225.326 216.419 225.275 218.648 225.179C207.814 229.533 199.866 222.204 202.611 211.754Z" fill="#D44248"/>
<path d="M204.596 242.226C202.05 241.164 200.198 238.994 199.231 236.551L198.471 234.529L200.574 235.643C204.707 237.725 208.722 236.404 211.991 233.547C212.448 233.119 212.913 232.684 213.423 232.263C212.884 233.422 212.205 234.544 211.297 235.503C209.423 237.547 206.537 238.78 203.644 238.433C202.161 238.263 200.847 237.828 199.57 237.016L200.913 236.108C201.556 238.374 202.884 240.507 204.596 242.226Z" fill="#D44248"/>
<g opacity="0.7">
<path d="M106.309 142.633C109.106 143.098 112.73 128.67 128.25 111.955C135.143 104.53 161.305 95.2463 159.423 86.6781C157.541 78.1099 134.198 86.9217 122.464 100.523C103.564 122.412 103.734 142.205 106.309 142.633Z" fill="white"/>
<path d="M248.249 170.183C253.393 170.397 253.732 162.412 248.581 162.19C243.444 161.976 243.098 169.961 248.249 170.183Z" fill="white"/>
<path d="M218.101 225.385C220.825 227.644 237.481 219.452 244.256 204.692C249.88 192.441 251.525 176.279 248.027 175.659C242.854 174.744 240.884 190.131 236.271 201.518C232.005 212.02 215.186 222.972 218.101 225.385Z" fill="white"/>
</g>
<path d="M143.974 181.411L141.123 181.943L159.023 277.834L161.874 277.302L143.974 181.411Z" fill="white"/>
<path d="M206.529 181.386L188.668 277.286L191.519 277.817L209.38 181.917L206.529 181.386Z" fill="white"/>
<path d="M175.26 213.872C170.419 213.872 165.556 210.064 161.556 203.149C161.452 202.965 161.342 202.78 161.238 202.588C159.689 204.205 157.954 205.194 156.131 205.194C146.833 205.194 143.165 186.338 143.017 185.533L145.157 185.127C146.102 190.101 149.91 203.016 156.139 203.016C157.504 203.016 158.899 202.072 160.19 200.544C156.36 192.699 154.183 182.515 157.002 177.637C157.984 175.932 159.526 175.031 161.452 175.031C165.629 175.031 168.021 178.33 168.021 184.072C168.021 189.312 165.925 196.293 162.736 200.773C162.965 201.208 163.201 201.636 163.445 202.057C166.98 208.182 171.29 211.695 175.268 211.695C178.891 211.695 182.552 208.802 185.585 203.555C185.806 203.179 186.013 202.788 186.22 202.397C185.489 201.57 184.81 200.618 184.197 199.555C180.404 192.994 179.637 183.238 182.515 178.257C183.733 176.146 185.511 175.031 187.666 175.031C189.393 175.031 190.803 175.895 191.747 177.526C194.441 182.197 193.031 193.231 188.862 201.983C190.323 203.289 192.19 204.249 194.522 204.249C199.843 204.249 204.625 191.231 206.02 186.22L208.116 186.803C207.555 188.81 202.441 206.426 194.522 206.426C192.101 206.426 189.836 205.577 187.851 203.961C187.725 204.19 187.6 204.411 187.467 204.64C183.976 210.684 179.762 213.872 175.26 213.872ZM187.659 177.209C186.308 177.209 185.209 177.932 184.389 179.349C181.895 183.666 182.685 192.603 186.072 198.478C186.404 199.061 186.803 199.666 187.253 200.256C190.751 192.374 192.079 182.485 189.851 178.626C189.297 177.651 188.603 177.209 187.659 177.209ZM161.445 177.209C160.286 177.209 159.474 177.688 158.877 178.729C156.832 182.279 158.139 190.884 161.629 198.529C164.065 194.574 165.843 188.743 165.843 184.079C165.843 180.943 165.076 177.209 161.445 177.209Z" fill="white"/>
<path d="M213.407 272.462H137.113V314.454H213.407V272.462Z" fill="#D03339"/>
<path d="M204.758 314.447C200.271 322.403 191.666 329.517 175.26 329.517C158.854 329.517 150.249 322.403 145.762 314.447H204.758Z" fill="#D03339"/>
<path d="M204.758 314.447C203.474 316.72 201.858 318.919 199.813 320.905L147.29 316.875C146.729 316.078 146.22 315.274 145.762 314.447H204.758Z" fill="#E31B22"/>
<path d="M215.636 280.47L134.884 287.938V284.278L215.636 276.809V280.47Z" fill="#CB1C23"/>
<path d="M215.636 291.554L134.884 299.023V295.362L215.636 287.894V291.554Z" fill="#CB1C23"/>
<path d="M215.636 302.639L134.884 310.108V306.44L215.636 298.979V302.639Z" fill="#CB1C23"/>
<path d="M174.102 55.7412C173.46 47.6748 173.305 39.5199 173.652 31.4388C174.294 39.5052 174.449 47.6527 174.102 55.7412Z" fill="#C40008"/>
<path d="M118.611 71.2244C114.021 64.5603 109.814 57.5788 106.073 50.398C110.656 57.0622 114.862 64.051 118.611 71.2244Z" fill="#C40008"/>
<path d="M78.2945 112.383C70.9883 108.907 63.8519 104.958 57.0254 100.619C64.3316 104.095 71.4607 108.036 78.2945 112.383Z" fill="#C40008"/>
<path d="M63.9552 168.183C55.8888 168.825 47.7339 168.98 39.6528 168.633C47.7192 167.984 55.8667 167.836 63.9552 168.183Z" fill="#C40008"/>
<path d="M79.4382 223.673C72.774 228.263 65.7852 232.47 58.6118 236.212C65.2833 231.621 72.2648 227.415 79.4382 223.673Z" fill="#C40008"/>
<path d="M272.204 221.688C279.51 225.164 286.647 229.112 293.473 233.452C286.167 229.976 279.031 226.027 272.204 221.688Z" fill="#C40008"/>
<path d="M286.543 165.888C294.61 165.246 302.765 165.098 310.846 165.437C302.779 166.08 294.625 166.234 286.543 165.888Z" fill="#C40008"/>
<path d="M271.06 110.39C277.724 105.8 284.706 101.593 291.886 97.8514C285.215 102.442 278.233 106.648 271.06 110.39Z" fill="#C40008"/>
<path d="M229.902 70.0731C233.378 62.7669 237.326 55.6305 241.666 48.804C238.19 56.1102 234.241 63.2466 229.902 70.0731Z" fill="#C40008"/>
<path d="M195.142 350.233L195.127 349.687C196.101 349.657 197.068 349.613 198.005 349.539L198.05 350.078C197.105 350.159 196.131 350.211 195.142 350.233ZM191.504 350.233C190.994 350.218 190.485 350.196 189.969 350.174C189.511 350.151 189.053 350.122 188.596 350.078L188.64 349.539C189.09 349.576 189.54 349.605 189.991 349.627C190.5 349.65 191.009 349.672 191.511 349.687L191.504 350.233ZM201.658 349.694L201.585 349.155C202.544 349.022 203.496 348.86 204.426 348.675L204.529 349.207C203.592 349.399 202.625 349.561 201.658 349.694ZM184.994 349.605C184.042 349.436 183.083 349.229 182.146 348.985L182.279 348.461C183.208 348.698 184.153 348.904 185.09 349.074L184.994 349.605ZM208.064 348.373L207.917 347.849C208.839 347.591 209.769 347.31 210.669 347L210.847 347.517C209.939 347.834 209.002 348.122 208.064 348.373ZM178.662 347.937C177.762 347.62 176.847 347.273 175.947 346.89L176.161 346.388C177.054 346.764 177.954 347.111 178.847 347.421L178.662 347.937ZM214.241 346.218L214.027 345.716C214.906 345.34 215.784 344.941 216.64 344.513L216.883 345C216.02 345.436 215.134 345.842 214.241 346.218ZM172.655 345.347C171.814 344.919 170.95 344.447 170.102 343.952L170.375 343.48C171.216 343.967 172.072 344.432 172.906 344.86L172.655 345.347ZM220.086 343.273L219.813 342.808C220.625 342.329 221.452 341.819 222.256 341.288L222.551 341.746C221.739 342.277 220.905 342.794 220.086 343.273ZM167.009 342.033C166.212 341.502 165.408 340.949 164.618 340.373L164.936 339.93C165.718 340.498 166.515 341.052 167.305 341.576L167.009 342.033ZM270.418 341.923C270.174 341.923 269.938 341.915 269.702 341.908L269.724 341.362C270.639 341.399 271.606 341.362 272.58 341.251L272.639 341.79C271.887 341.886 271.141 341.923 270.418 341.923ZM266.093 341.399C265.156 341.163 264.226 340.845 263.333 340.447L263.554 339.952C264.425 340.336 265.326 340.646 266.226 340.875L266.093 341.399ZM276.233 341.118L276.093 340.594C276.588 340.462 277.082 340.314 277.591 340.152C278.012 340.011 278.425 339.871 278.824 339.716L279.016 340.225C278.61 340.38 278.189 340.528 277.761 340.668C277.244 340.831 276.735 340.986 276.233 341.118ZM225.533 339.65L225.208 339.214C225.953 338.661 226.721 338.063 227.488 337.45L227.828 337.871C227.06 338.498 226.285 339.096 225.533 339.65ZM260.145 338.661C259.377 338.129 258.603 337.524 257.85 336.853L258.211 336.447C258.949 337.104 259.702 337.694 260.455 338.211L260.145 338.661ZM282.329 338.646L282.056 338.174C282.89 337.687 283.687 337.141 284.41 336.558L284.75 336.978C284.004 337.583 283.185 338.144 282.329 338.646ZM161.725 338.174C160.987 337.583 160.227 336.963 159.482 336.329L159.836 335.915C160.574 336.543 161.319 337.155 162.065 337.753L161.725 338.174ZM230.603 335.532L230.241 335.126C230.964 334.491 231.68 333.842 232.389 333.192L232.758 333.591C232.049 334.248 231.333 334.89 230.603 335.532ZM287.348 334.395L286.927 334.056C287.525 333.318 288.056 332.521 288.514 331.694L288.993 331.952C288.521 332.808 287.968 333.628 287.348 334.395ZM255.282 334.277C254.669 333.583 254.042 332.831 253.429 332.026L253.857 331.694C254.462 332.484 255.082 333.229 255.687 333.915L255.282 334.277ZM156.751 333.93C156.035 333.281 155.327 332.624 154.626 331.952L155.002 331.561C155.703 332.233 156.412 332.89 157.12 333.532L156.751 333.93ZM235.392 331.089L235.016 330.698C235.71 330.026 236.396 329.347 237.082 328.668L237.466 329.052C236.78 329.731 236.094 330.41 235.392 331.089ZM152.028 329.414C151.349 328.735 150.67 328.041 149.991 327.34L150.382 326.964C151.054 327.657 151.733 328.351 152.412 329.03L152.028 329.414ZM251.311 329.059C250.794 328.292 250.27 327.465 249.747 326.602L250.211 326.321C250.728 327.178 251.252 327.997 251.761 328.757L251.311 329.059ZM290.396 328.558L289.872 328.403C290.13 327.502 290.322 326.565 290.432 325.606L290.971 325.672C290.86 326.654 290.661 327.628 290.396 328.558ZM240.02 326.484L239.636 326.1L241.68 324.041L242.064 324.425L240.02 326.484ZM147.489 324.713C146.832 324.011 146.176 323.296 145.519 322.58L145.917 322.211C146.574 322.927 147.231 323.635 147.888 324.336L147.489 324.713ZM247.916 323.465C247.451 322.631 246.986 321.783 246.521 320.912L247.001 320.654C247.459 321.517 247.924 322.366 248.389 323.192L247.916 323.465ZM290.499 322.048C290.425 321.111 290.277 320.159 290.063 319.222L290.595 319.104C290.816 320.063 290.964 321.037 291.038 322.004L290.499 322.048ZM244.625 321.864L244.241 321.48C244.927 320.801 245.621 320.122 246.322 319.458L246.699 319.849C246.005 320.513 245.311 321.185 244.625 321.864ZM143.076 319.893C142.434 319.178 141.792 318.454 141.15 317.739L141.556 317.377C142.198 318.1 142.84 318.816 143.482 319.532L143.076 319.893ZM244.846 317.694C244.411 316.838 243.983 315.975 243.547 315.096L244.034 314.853C244.47 315.731 244.898 316.595 245.333 317.443L244.846 317.694ZM249.341 317.377L248.979 316.978C249.695 316.329 250.425 315.687 251.156 315.052L251.51 315.465C250.78 316.093 250.056 316.735 249.341 317.377ZM288.964 315.827C288.587 314.949 288.152 314.093 287.658 313.281L288.123 313.001C288.624 313.834 289.075 314.713 289.458 315.613L288.964 315.827ZM138.751 315.015L136.84 312.838L137.246 312.477L139.157 314.654L138.751 315.015ZM254.307 313.178L253.975 312.75C254.758 312.137 255.54 311.547 256.307 311.001L256.625 311.443C255.857 311.989 255.082 312.572 254.307 313.178ZM241.946 311.842L240.676 309.237L241.164 309.001L242.433 311.606L241.946 311.842ZM285.532 310.418C284.89 309.702 284.196 309.037 283.473 308.447L283.813 308.026C284.565 308.639 285.281 309.318 285.938 310.056L285.532 310.418ZM134.441 310.115C133.799 309.384 133.157 308.661 132.515 307.938L132.921 307.576C133.563 308.299 134.205 309.03 134.847 309.753L134.441 310.115ZM259.606 309.429L259.318 308.971C260.145 308.447 260.986 307.953 261.82 307.48L262.086 307.953C261.252 308.418 260.425 308.912 259.606 309.429ZM280.492 306.499C279.643 306.063 278.757 305.709 277.857 305.429L278.012 304.912C278.942 305.193 279.864 305.569 280.735 306.012L280.492 306.499ZM265.296 306.366L265.09 305.864C266.012 305.48 266.942 305.163 267.857 304.905L268.005 305.429C267.112 305.68 266.197 305.99 265.296 306.366ZM239.09 305.975C238.669 305.111 238.241 304.24 237.813 303.37L238.3 303.126C238.728 303.997 239.156 304.868 239.584 305.731L239.09 305.975ZM130.095 305.229C129.445 304.514 128.796 303.798 128.146 303.082L128.545 302.713C129.194 303.421 129.844 304.145 130.493 304.86L130.095 305.229ZM271.51 304.794L271.466 304.255C272.462 304.167 273.466 304.167 274.403 304.24L274.359 304.779C273.458 304.705 272.484 304.705 271.51 304.794ZM125.689 300.425C125.025 299.717 124.36 299.023 123.689 298.329L124.08 297.953C124.751 298.646 125.416 299.348 126.08 300.056L125.689 300.425ZM236.189 300.13C235.754 299.274 235.311 298.41 234.861 297.554L235.341 297.303C235.791 298.167 236.234 299.023 236.669 299.886L236.189 300.13ZM121.15 295.753C120.464 295.067 119.77 294.396 119.076 293.731L119.453 293.34C120.146 294.004 120.84 294.683 121.534 295.37L121.15 295.753ZM233.164 294.359C232.706 293.51 232.234 292.669 231.754 291.827L232.226 291.562C232.706 292.403 233.171 293.252 233.636 294.1L233.164 294.359ZM116.427 291.266C115.711 290.617 114.988 289.975 114.257 289.355L114.611 288.942C115.342 289.569 116.065 290.211 116.788 290.861L116.427 291.266ZM229.931 288.691C229.437 287.864 228.928 287.038 228.411 286.219L228.868 285.931C229.385 286.75 229.894 287.576 230.389 288.41L229.931 288.691ZM111.475 287.045C110.707 286.433 109.932 285.842 109.187 285.289L109.512 284.853C110.265 285.414 111.047 286.012 111.814 286.624L111.475 287.045ZM106.242 283.207C105.431 282.669 104.611 282.145 103.814 281.658L104.095 281.193C104.907 281.687 105.733 282.211 106.545 282.757L106.242 283.207ZM226.433 283.193C225.894 282.396 225.341 281.606 224.78 280.824L225.223 280.506C225.791 281.296 226.345 282.086 226.883 282.89L226.433 283.193ZM100.678 279.879C99.8292 279.429 98.9584 279.001 98.0949 278.602L98.3237 278.108C99.1945 278.514 100.073 278.942 100.929 279.399L100.678 279.879ZM222.61 277.931C222.012 277.163 221.4 276.411 220.795 275.687L221.208 275.34C221.821 276.071 222.433 276.831 223.038 277.599L222.61 277.931ZM94.7739 277.208C94.3901 277.06 94.0064 276.927 93.6152 276.787L93.7924 276.27C94.1835 276.403 94.5746 276.551 94.9658 276.691L94.7739 277.208ZM218.411 272.979C217.754 272.27 217.083 271.577 216.404 270.898L216.787 270.514C217.466 271.193 218.153 271.894 218.81 272.61L218.411 272.979ZM213.776 268.425C213.053 267.783 212.315 267.156 211.57 266.558L211.909 266.138C212.662 266.743 213.407 267.377 214.131 268.019L213.776 268.425Z" fill="#C40008"/>
<path d="M68.3166 180.515C67.9476 180.515 67.586 180.515 67.2317 180.507L67.2391 179.961C68.169 179.976 69.1284 179.976 70.1247 179.947L70.1395 180.493C69.5122 180.507 68.907 180.515 68.3166 180.515ZM63.586 180.301C62.5676 180.205 61.5934 180.065 60.6931 179.902L60.789 179.371C61.6746 179.533 62.634 179.666 63.6377 179.762L63.586 180.301ZM73.7704 180.293L73.7335 179.755C74.6708 179.688 75.6302 179.6 76.6117 179.496L76.6708 180.035C75.6745 180.138 74.7077 180.227 73.7704 180.293ZM80.2722 179.592L80.1984 179.054C81.1357 178.921 82.0877 178.78 83.0618 178.626L83.1504 179.164C82.1689 179.312 81.2095 179.459 80.2722 179.592ZM57.1507 178.972C56.1544 178.618 55.2614 178.19 54.4865 177.71L54.7743 177.245C55.5197 177.703 56.3758 178.116 57.3352 178.456L57.1507 178.972ZM86.7223 178.53L86.619 177.998C87.5489 177.821 88.5009 177.637 89.4603 177.445L89.571 177.976C88.6116 178.168 87.6596 178.36 86.7223 178.53ZM93.1208 177.209L93.0027 176.677C93.9326 176.471 94.8698 176.249 95.8219 176.02L95.9473 176.552C94.9953 176.781 94.058 177.002 93.1208 177.209ZM99.475 175.674L99.3421 175.15C100.265 174.913 101.202 174.662 102.139 174.412L102.279 174.936C101.335 175.186 100.405 175.43 99.475 175.674ZM51.778 175.179C51.5197 174.795 51.2983 174.382 51.1138 173.961C50.9072 173.474 50.7301 172.965 50.6046 172.441L51.1286 172.308C51.254 172.803 51.4164 173.282 51.6083 173.747C51.778 174.138 51.9847 174.515 52.2208 174.876L51.778 175.179ZM105.777 173.954L105.63 173.43C106.552 173.164 107.475 172.899 108.412 172.618L108.567 173.142C107.63 173.423 106.7 173.688 105.777 173.954ZM112.036 172.087L111.873 171.57C112.788 171.282 113.711 170.995 114.633 170.692L114.803 171.209C113.873 171.504 112.951 171.799 112.036 172.087ZM118.25 170.072L118.08 169.555C118.988 169.253 119.903 168.943 120.825 168.626L121.002 169.142C120.08 169.46 119.157 169.77 118.25 170.072ZM50.8703 168.803L50.3315 168.758C50.4053 167.836 50.5825 166.862 50.8629 165.865L51.3869 166.013C51.1138 166.972 50.9441 167.91 50.8703 168.803ZM124.419 167.939L124.235 167.43C125.143 167.105 126.05 166.781 126.958 166.449L127.143 166.958C126.235 167.29 125.327 167.615 124.419 167.939ZM130.552 165.688L130.36 165.179C131.261 164.84 132.161 164.493 133.069 164.146L133.268 164.655C132.353 165.009 131.452 165.349 130.552 165.688ZM136.641 163.334L136.441 162.832C137.334 162.478 138.235 162.116 139.128 161.755L139.334 162.257C138.434 162.618 137.534 162.98 136.641 163.334ZM52.6341 162.663L52.1396 162.434C52.5308 161.6 52.9883 160.729 53.5049 159.851L53.9773 160.124C53.468 160.987 53.0179 161.843 52.6341 162.663ZM142.692 160.877L142.486 160.375C143.371 160.006 144.264 159.629 145.157 159.253L145.371 159.755C144.471 160.131 143.578 160.508 142.692 160.877ZM148.7 158.323L148.486 157.821C149.371 157.438 150.249 157.046 151.142 156.655L151.364 157.15C150.471 157.548 149.585 157.939 148.7 158.323ZM55.933 157.098L55.4902 156.788C56.0289 156.028 56.6193 155.238 57.2392 154.456L57.6673 154.795C57.0473 155.57 56.4643 156.345 55.933 157.098ZM154.67 155.674L154.449 155.179C155.327 154.781 156.205 154.382 157.083 153.976L157.312 154.471C156.426 154.877 155.548 155.275 154.67 155.674ZM160.596 152.936L160.367 152.441C161.238 152.028 162.109 151.615 162.987 151.194L163.223 151.681C162.338 152.109 161.467 152.522 160.596 152.936ZM59.9772 152.013L59.5713 151.652C60.1912 150.943 60.848 150.22 61.527 149.497L61.9255 149.866C61.2466 150.589 60.5897 151.312 59.9772 152.013ZM166.478 150.109L166.242 149.622C167.105 149.201 167.976 148.773 168.84 148.338L169.083 148.825C168.212 149.253 167.341 149.681 166.478 150.109ZM64.4495 147.29L64.0657 146.906C64.7521 146.227 65.4532 145.556 66.1616 144.892L66.5306 145.29C65.8295 145.939 65.1284 146.611 64.4495 147.29ZM172.323 147.194L172.079 146.707C172.935 146.272 173.799 145.829 174.662 145.386L174.913 145.866C174.042 146.316 173.179 146.759 172.323 147.194ZM178.116 144.19L177.865 143.711C178.721 143.261 179.57 142.81 180.426 142.353L180.684 142.833C179.828 143.29 178.972 143.74 178.116 144.19ZM69.2022 142.84L68.8406 142.434C69.5712 141.785 70.3018 141.15 71.0324 140.523L71.3867 140.936C70.6561 141.556 69.9254 142.19 69.2022 142.84ZM183.873 141.106L183.614 140.626C184.463 140.161 185.304 139.696 186.153 139.231L186.419 139.703C185.563 140.176 184.714 140.641 183.873 141.106ZM74.1689 138.611L73.8221 138.19C74.5822 137.571 75.3424 136.965 76.0877 136.375L76.4272 136.803C75.6818 137.386 74.9217 137.991 74.1689 138.611ZM189.57 137.932L189.304 137.46C190.146 136.988 190.98 136.508 191.821 136.021L192.094 136.493C191.253 136.973 190.411 137.452 189.57 137.932ZM195.23 134.67L194.957 134.205C195.791 133.718 196.618 133.224 197.452 132.729L197.732 133.194C196.898 133.689 196.064 134.183 195.23 134.67ZM79.298 134.589L78.9733 134.154C79.7704 133.548 80.5526 132.973 81.3054 132.419L81.6227 132.862C80.87 133.408 80.0877 133.984 79.298 134.589ZM200.847 131.312L200.566 130.847C201.393 130.346 202.219 129.836 203.046 129.327L203.334 129.792C202.5 130.301 201.673 130.81 200.847 131.312ZM84.5674 130.759L84.2574 130.316L84.8847 129.881L85.1947 130.331L84.5674 130.759ZM206.411 127.866L206.123 127.408C206.943 126.892 207.762 126.375 208.574 125.851L208.869 126.309C208.05 126.833 207.23 127.349 206.411 127.866ZM211.909 124.331L211.614 123.873C212.426 123.342 213.23 122.811 214.035 122.279L214.337 122.729C213.525 123.268 212.721 123.799 211.909 124.331ZM217.341 120.707L217.038 120.257C217.835 119.711 218.632 119.172 219.429 118.619L219.739 119.069C218.942 119.615 218.145 120.161 217.341 120.707ZM222.706 116.995L222.389 116.552C223.179 115.999 223.961 115.438 224.743 114.877L225.06 115.32C224.286 115.873 223.496 116.434 222.706 116.995ZM227.998 113.187L227.673 112.752C228.448 112.183 229.223 111.608 229.998 111.032L230.322 111.468C229.547 112.043 228.773 112.611 227.998 113.187ZM233.208 109.283L232.876 108.855C233.643 108.272 234.403 107.682 235.164 107.091L235.496 107.519C234.736 108.11 233.975 108.693 233.208 109.283ZM238.344 105.268L238.005 104.84C238.758 104.235 239.51 103.63 240.263 103.025L240.603 103.445C239.857 104.058 239.105 104.663 238.344 105.268ZM243.407 101.143L243.06 100.722C243.806 100.102 244.544 99.4824 245.274 98.8551L245.628 99.2684C244.89 99.9031 244.152 100.523 243.407 101.143ZM248.374 96.9068L248.012 96.4935C248.743 95.8588 249.466 95.2168 250.182 94.5747L250.544 94.9806C249.828 95.63 249.104 96.2721 248.374 96.9068ZM253.245 92.5526L252.876 92.1541C253.592 91.4972 254.3 90.8478 255.001 90.1836L255.37 90.5821C254.669 91.2463 253.953 91.9031 253.245 92.5526ZM257.997 88.0803L257.621 87.6892C258.315 87.0176 259.008 86.346 259.695 85.667L260.079 86.0508C259.392 86.7371 258.698 87.4087 257.997 88.0803Z" fill="#C40008"/>
<path d="M261.267 65.9993L257.953 87.6449L270.964 72.5233L325.657 39.3502L261.267 65.9993Z" fill="#D44248"/>
<path opacity="0.4" d="M261.267 65.9993L257.953 87.6449L270.964 72.5233L325.657 39.3502L261.267 65.9993Z" fill="white"/>
<path d="M273.887 76.8258L257.953 87.6449L270.964 72.5233L273.887 76.8258Z" fill="#D44248"/>
<path opacity="0.1" d="M273.887 76.8258L257.953 87.6449L270.964 72.5233L273.887 76.8258Z" fill="black"/>
<path d="M270.964 72.5233L325.657 39.3502L286.728 96.2131L270.964 72.5233Z" fill="#D44248"/>
<path opacity="0.7" d="M270.964 72.5233L325.657 39.3502L286.728 96.2131L270.964 72.5233Z" fill="white"/>
<path d="M261.267 65.9993L233.599 55.0769L325.657 39.3502L261.267 65.9993Z" fill="#D44248"/>
<path opacity="0.7" d="M261.267 65.9993L233.599 55.0769L325.657 39.3502L261.267 65.9993Z" fill="white"/>
<path d="M84.3755 260.322L93.7038 276.536L78.6707 268.507L24.8779 258.986L84.3755 260.322Z" fill="#D44248"/>
<path opacity="0.4" d="M84.3755 260.322L93.7038 276.536L78.6707 268.507L24.8779 258.986L84.3755 260.322Z" fill="white"/>
<path d="M77.6743 272.839L93.7037 276.536L78.6706 268.507L77.6743 272.839Z" fill="#D44248"/>
<path opacity="0.1" d="M77.6743 272.839L93.7037 276.536L78.6706 268.507L77.6743 272.839Z" fill="black"/>
<path d="M78.6708 268.507L24.8779 258.986L73.4383 292.241L78.6708 268.507Z" fill="#D44248"/>
<path opacity="0.7" d="M78.6708 268.507L24.8779 258.986L73.4383 292.241L78.6708 268.507Z" fill="white"/>
<path d="M84.3755 260.322L103.032 243.082L24.8779 258.986L84.3755 260.322Z" fill="#D44248"/>
<path opacity="0.7" d="M84.3755 260.322L103.032 243.082L24.8779 258.986L84.3755 260.322Z" fill="white"/>
<path d="M80.1839 107.032C79.1065 109.741 80.4275 112.789 83.1359 113.866C84.6562 114.471 86.302 114.309 87.6082 113.578C88.2946 113.187 89.0916 113.121 89.8148 113.408C91.1137 113.925 91.7632 115.379 91.2466 116.678L86.3831 128.929L52.8115 115.608L57.6749 103.357C58.1915 102.058 59.638 101.431 60.9369 101.947C61.6675 102.235 62.1915 102.826 62.4277 103.586C62.9 105.025 63.9922 106.272 65.5051 106.877C68.1914 107.947 71.2615 106.634 72.339 103.925C73.4091 101.239 72.0733 98.1614 69.387 97.0913C67.8667 96.4861 66.221 96.6485 64.8778 97.3939C64.1989 97.7629 63.3944 97.8514 62.6712 97.5636C61.3723 97.047 60.7524 95.5784 61.2616 94.3017L66.1324 82.0287L78.3832 86.8921C79.6821 87.4087 81.1286 86.7814 81.6452 85.4826C81.933 84.7519 81.8666 83.9623 81.4754 83.2759C80.7522 81.9475 80.5825 80.3239 81.195 78.7815C82.2651 76.0952 85.313 74.7594 88.0289 75.8295C90.7152 76.8996 92.0436 79.9697 90.9809 82.6634C90.3683 84.2058 89.1285 85.2685 87.6746 85.7335C86.944 85.977 86.3241 86.501 86.0363 87.2242C85.5197 88.5231 86.1691 89.977 87.4459 90.4862L99.7188 95.357L94.848 107.63C94.3388 108.907 92.8628 109.549 91.5639 109.032C90.8407 108.744 90.3167 108.132 90.0732 107.394C89.6303 105.94 88.5455 104.693 87.0252 104.095C84.3094 103.003 81.254 104.346 80.1839 107.032Z" fill="#D03339"/>
<path d="M75.4681 42.804L80.2872 73.3941L69.1287 75.1506C67.9479 75.3351 66.8556 74.5454 66.6638 73.3572C66.5604 72.693 66.7671 72.0436 67.2246 71.5417C68.0807 70.5602 68.5235 69.217 68.3095 67.8296C67.9257 65.3794 65.6232 63.6894 63.1509 64.0732C60.7007 64.4569 59.0328 66.7816 59.4166 69.2318C59.638 70.6192 60.4498 71.7631 61.5863 72.4273C62.1546 72.7668 62.5679 73.3203 62.6786 73.9845C62.8631 75.1653 62.0513 76.2649 60.8852 76.4494L49.7045 78.2133L47.9481 67.0547C47.7636 65.8739 46.6713 65.0769 45.4832 65.2614C44.819 65.3647 44.2655 65.7632 43.926 66.3536C43.2765 67.4606 42.1326 68.3019 40.7526 68.5233C38.2803 68.9145 35.9851 67.2392 35.594 64.7669C35.2102 62.3167 36.8781 59.9994 39.3504 59.6083C40.7378 59.3869 42.081 59.8371 43.0404 60.7153C43.5422 61.1507 44.1917 61.3795 44.8559 61.2762C46.0367 61.0917 46.8337 59.9773 46.6492 58.8112L44.8854 47.6305L56.0661 45.8667C57.2321 45.6822 58.3465 46.494 58.531 47.6822C58.6343 48.3464 58.4055 48.9958 57.9701 49.4977C57.0919 50.4571 56.6639 51.8002 56.8853 53.1877C57.2764 55.66 59.5716 57.3279 62.0217 56.9441C64.494 56.553 66.1619 54.2578 65.7782 51.7855C65.5568 50.398 64.7228 49.2541 63.6084 48.6121C63.018 48.2726 62.6269 47.7191 62.5162 47.0549C62.3317 45.8741 63.1214 44.7597 64.3022 44.5752L75.4681 42.804Z" fill="#D44248"/>
<path d="M304.373 169.865L299.532 161.526C297.451 157.939 298.58 153.681 302.174 151.593C305.502 149.659 310.019 150.641 312.108 154.227L319.857 167.57C319.93 167.696 319.797 167.77 319.871 167.902C320.078 167.954 320.078 167.954 320.152 168.08C322.093 171.415 320.853 176.079 317.524 178.013C309.443 182.707 306.624 192.921 311.244 200.869C315.938 208.95 326.13 211.437 334.211 206.743C339.473 203.688 342.447 198.183 342.425 192.537C342.425 188.419 345.679 185.157 349.805 185.164C353.797 185.245 356.978 188.367 356.971 192.493C356.971 203.127 351.384 213.577 341.509 219.311C326.624 227.953 307.443 222.972 298.801 208.094C291.414 195.4 294.086 179.614 304.373 169.865ZM288.063 141.777L286.72 139.467C284.632 135.873 285.761 131.615 289.355 129.526C292.683 127.593 297.2 128.574 299.288 132.168L300.632 134.478C302.639 137.94 301.333 142.471 297.997 144.412C294.403 146.493 290.071 145.238 288.063 141.777Z" fill="#E31B22"/>
</svg>
