<svg width="29" height="21" viewBox="0 0 29 21" fill="none" xmlns="http://www.w3.org/2000/svg">
<path d="M18.2208 21H2.75089C2.4039 21.0014 2.06007 20.9276 1.73911 20.7828C1.41815 20.638 1.12639 20.425 0.880561 20.156C0.634732 19.887 0.439675 19.5674 0.306582 19.2154C0.173489 18.8634 0.104978 18.4861 0.10498 18.105V2.89501C0.107662 2.12619 0.38761 1.38985 0.883524 0.84725C1.37944 0.304648 2.0509 -5.64308e-06 2.75089 0H18.2208C18.9208 -5.64308e-06 19.5923 0.304648 20.0882 0.84725C20.5841 1.38985 20.8641 2.12619 20.8667 2.89501V4.00848L26.5843 0.47879C26.7384 0.381063 26.9133 0.329614 27.0912 0.329614C27.2692 0.329614 27.444 0.381063 27.5981 0.47879C27.7528 0.576892 27.8812 0.71815 27.9702 0.888263C28.0592 1.05838 28.1057 1.2513 28.105 1.44751V17.3701C28.1039 17.565 28.0563 17.7561 27.9669 17.9245C27.8775 18.0928 27.7494 18.2324 27.5955 18.3293C27.4415 18.4263 27.2671 18.4771 27.0897 18.4768C26.9123 18.4765 26.738 18.4251 26.5843 18.3277L20.8667 14.7089V18.1495C20.8561 18.9115 20.5723 19.6381 20.0769 20.1718C19.5816 20.7054 18.9147 21.003 18.2208 21ZM2.75089 2.22693C2.67016 2.22545 2.58998 2.24164 2.51501 2.27456C2.44003 2.30747 2.37178 2.35644 2.31422 2.41863C2.25666 2.48081 2.21095 2.55496 2.17975 2.63675C2.14855 2.71854 2.13249 2.80633 2.1325 2.89501V18.105C2.13249 18.1936 2.14855 18.2814 2.17975 18.3632C2.21095 18.445 2.25666 18.5192 2.31422 18.5814C2.37178 18.6435 2.44003 18.6925 2.51501 18.7254C2.58998 18.7583 2.67016 18.7745 2.75089 18.773H18.2208C18.3016 18.7745 18.3817 18.7583 18.4567 18.7254C18.5317 18.6925 18.5999 18.6435 18.6575 18.5814C18.7151 18.5192 18.7608 18.445 18.792 18.3632C18.8232 18.2814 18.8392 18.1936 18.8392 18.105V12.7269C18.8403 12.532 18.8879 12.3409 18.9773 12.1725C19.0667 12.0042 19.1948 11.8646 19.3487 11.7677C19.5027 11.6707 19.6771 11.6199 19.8545 11.6202C20.0319 11.6205 20.2062 11.6719 20.3599 11.7693L26.0775 15.3881V3.32927L20.3599 6.94803C20.2062 7.04548 20.0319 7.09692 19.8545 7.09722C19.6771 7.09751 19.5027 7.04665 19.3487 6.94972C19.1948 6.85278 19.0667 6.71317 18.9773 6.54483C18.8879 6.3765 18.8403 6.18533 18.8392 5.99045V2.89501C18.8392 2.80633 18.8232 2.71854 18.792 2.63675C18.7608 2.55496 18.7151 2.48081 18.6575 2.41863C18.5999 2.35644 18.5317 2.30747 18.4567 2.27456C18.3817 2.24164 18.3016 2.22545 18.2208 2.22693H2.75089Z" fill="white"/>
</svg>
