<svg width="25" height="22" viewBox="0 0 25 22" fill="none" xmlns="http://www.w3.org/2000/svg">
<path d="M22.934 0.936951H1.80161C1.03995 0.936951 0.420166 1.56047 0.420166 2.32213V14.8186C0.420166 15.5803 1.03995 16.2001 1.80161 16.2001H22.934C23.6957 16.2001 24.3154 15.5803 24.3154 14.8186V2.32213C24.3154 1.56047 23.6957 0.936951 22.934 0.936951ZM23.9495 14.8149C23.9495 15.3749 23.494 15.8304 22.934 15.8304H1.80161C1.24157 15.8304 0.786062 15.3749 0.786062 14.8149V2.32213C0.786062 1.76208 1.24157 1.30658 1.80161 1.30658H22.934C23.494 1.30658 23.9495 1.76208 23.9495 2.32213V14.8149Z" fill="white"/>
<path d="M22.9341 1.30658H1.80168C1.24164 1.30658 0.786133 1.76208 0.786133 2.32213V14.8186C0.786133 15.3787 1.24164 15.8342 1.80168 15.8342H22.9341C23.4941 15.8342 23.9496 15.3787 23.9496 14.8186V2.32213C23.9496 1.76208 23.4904 1.30658 22.9341 1.30658ZM22.8482 14.2996C22.8482 14.5983 22.6055 14.8373 22.3068 14.8373H2.4812C2.18251 14.8373 1.93983 14.5983 1.93983 14.2996V2.94191C1.93983 2.64322 2.18251 2.40054 2.4812 2.40054H22.3068C22.6055 2.40054 22.8482 2.64322 22.8482 2.94191V14.2996Z" fill="white"/>
<path d="M22.3067 2.40051H2.48107C2.18238 2.40051 1.9397 2.6432 1.9397 2.94189V14.2996C1.9397 14.5983 2.18238 14.8373 2.48107 14.8373H22.3067C22.6054 14.8373 22.8481 14.5983 22.8481 14.2996V2.94189C22.8481 2.6432 22.6054 2.40051 22.3067 2.40051ZM22.4822 14.2996C22.4822 14.393 22.4038 14.4676 22.3104 14.4676H2.48107C2.384 14.4676 2.30933 14.3892 2.30933 14.2996V2.94189C2.30933 2.84482 2.38773 2.77014 2.48107 2.77014H22.3067C22.4038 2.77014 22.4784 2.84855 22.4784 2.94189V14.2996H22.4822Z" fill="white"/>
<path d="M20.567 8.80371H19.4021V10.8161H20.567V8.80371Z" fill="white"/>
<path d="M16.6128 20.2062C16.5606 20.2062 16.5083 20.1912 16.4635 20.1576C15.265 19.3026 14.5444 17.7569 14.5332 16.017C14.5332 15.8751 14.6452 15.7594 14.7871 15.7594C14.929 15.7594 15.0447 15.8751 15.0447 16.0133C15.0559 17.5889 15.6981 18.9815 16.7585 19.7395C16.8742 19.8216 16.9003 19.9821 16.8182 20.0979C16.7771 20.1651 16.6987 20.2062 16.6128 20.2062Z" fill="white"/>
<path d="M16.6129 20.1316C16.5756 20.1316 16.5383 20.1204 16.5046 20.098C15.3286 19.2579 14.6154 17.7308 14.6042 16.0171C14.6042 15.9163 14.6864 15.8341 14.7872 15.8304C14.888 15.8304 14.9701 15.9126 14.9701 16.0134C14.9813 17.6114 15.6347 19.0264 16.7175 19.7993C16.7996 19.859 16.8183 19.9747 16.7585 20.0569C16.7287 20.1054 16.6727 20.1316 16.6129 20.1316ZM8.20851 20.2062C8.1301 20.2062 8.05543 20.1726 8.00689 20.1092C7.96582 20.0569 7.94342 19.9897 7.95089 19.9187C7.95835 19.8515 7.99196 19.7881 8.04423 19.747C8.83949 19.1085 9.78037 17.9436 9.72436 16.0208C9.72063 15.9536 9.74677 15.8864 9.7953 15.8379C9.84384 15.7893 9.90731 15.7595 9.97452 15.7557C10.1201 15.7557 10.2359 15.8677 10.2396 16.0059C10.2993 18.1415 9.25393 19.4371 8.36905 20.1465C8.32425 20.1838 8.26451 20.2062 8.20851 20.2062Z" fill="white"/>
<path d="M8.20851 20.1316C8.15624 20.1316 8.10024 20.1092 8.06663 20.0644C8.00316 19.986 8.01436 19.8702 8.0965 19.8068C8.9067 19.1571 9.85878 17.9736 9.80277 16.0209C9.79904 15.9201 9.88118 15.8342 9.98199 15.8304C10.0791 15.8304 10.1687 15.9089 10.1724 16.0097C10.2321 18.1117 9.20166 19.3923 8.32799 20.0905C8.28692 20.1204 8.24585 20.1316 8.20851 20.1316Z" fill="white"/>
<path d="M16.8371 19.7657H7.94736C7.55906 19.7657 7.2417 20.083 7.2417 20.4975C7.2417 20.8858 7.55906 21.2031 7.94736 21.2031H16.8409C17.2254 21.2031 17.5428 20.8858 17.5428 20.4713C17.5391 20.0793 17.2254 19.7657 16.8371 19.7657ZM16.8371 20.8335H7.94736C7.76441 20.8335 7.6076 20.6842 7.6076 20.4713C7.6076 20.2847 7.76067 20.1316 7.94736 20.1316H16.8409C17.0238 20.1316 17.1769 20.2809 17.1769 20.4937C17.1732 20.6842 17.0238 20.8335 16.8371 20.8335Z" fill="white"/>
<path d="M17.173 20.4974C17.173 20.6841 17.0237 20.8371 16.837 20.8371H7.94718C7.76423 20.8371 7.60742 20.6878 7.60742 20.475C7.60742 20.2883 7.7605 20.1352 7.94718 20.1352H16.8407C17.0237 20.1315 17.173 20.2808 17.173 20.4974ZM16.1687 11.2566C16.15 11.2566 16.1313 11.2566 16.1089 11.2492C14.7013 11.2342 13.5327 10.0544 13.5327 8.62069C13.5327 7.1683 14.7163 5.98474 16.1687 5.98474C17.5501 5.98474 18.7038 7.06003 18.7934 8.43027C18.8009 8.49375 18.8046 8.55348 18.8046 8.62069C18.8046 8.68789 18.8009 8.75137 18.7934 8.81484C18.7374 9.66237 18.2632 10.4352 17.524 10.8795C17.1207 11.126 16.654 11.2566 16.1687 11.2566ZM16.1687 6.49998C15 6.49998 14.0479 7.45206 14.0479 8.62069C14.0479 9.78932 15 10.7414 16.1687 10.7414C17.3373 10.7414 18.2894 9.78932 18.2894 8.62069C18.2894 7.45206 17.3373 6.49998 16.1687 6.49998Z" fill="white"/>
<path d="M18.7188 8.43784C18.6292 7.10866 17.5165 6.05951 16.1687 6.05951C14.7574 6.05951 13.6074 7.20574 13.6074 8.62078C13.6074 10.0209 14.7387 11.1597 16.1314 11.1783C16.1426 11.1821 16.1538 11.1821 16.1687 11.1821C16.6503 11.1821 17.1021 11.0514 17.4829 10.8162C18.1811 10.398 18.6628 9.65874 18.7188 8.80373C18.7262 8.74399 18.73 8.68426 18.73 8.62078C18.73 8.56105 18.7262 8.50131 18.7188 8.43784ZM16.1687 10.8162C14.959 10.8162 13.9733 9.83048 13.9733 8.62078C13.9733 7.40735 14.959 6.42541 16.1687 6.42541C17.3784 6.42541 18.3641 7.40735 18.3641 8.62078C18.3641 9.83048 17.3784 10.8162 16.1687 10.8162Z" fill="white"/>
<path d="M16.1685 6.42542C14.9588 6.42542 13.9731 7.40736 13.9731 8.62079C13.9731 9.83049 14.9588 10.8162 16.1685 10.8162C17.3782 10.8162 18.3639 9.83049 18.3639 8.62079C18.3639 7.40736 17.3782 6.42542 16.1685 6.42542ZM14.8169 9.24058C14.4735 9.24058 14.1972 8.96429 14.1972 8.62453C14.1972 8.28103 14.4772 8.00474 14.8169 8.00474C15.1604 8.00474 15.433 8.28477 15.433 8.62453C15.433 8.96429 15.1567 9.24058 14.8169 9.24058ZM16.1685 10.6071C15.825 10.6071 15.5487 10.3308 15.5487 9.99104C15.5487 9.64754 15.8288 9.37126 16.1685 9.37126C16.5083 9.37126 16.7883 9.65128 16.7883 9.99104C16.7883 10.3308 16.512 10.6071 16.1685 10.6071ZM16.1685 9.24058C15.825 9.24058 15.5487 8.96429 15.5487 8.62453C15.5487 8.28103 15.8288 8.00474 16.1685 8.00474C16.5083 8.00474 16.7883 8.28477 16.7883 8.62453C16.7883 8.96429 16.512 9.24058 16.1685 9.24058ZM16.1685 7.87033C15.825 7.87033 15.5487 7.59031 15.5487 7.25428C15.5487 6.91079 15.8288 6.6345 16.1685 6.6345C16.5083 6.6345 16.7883 6.91452 16.7883 7.25428C16.7883 7.59404 16.512 7.87033 16.1685 7.87033ZM17.5574 9.24058C17.2139 9.24058 16.9414 8.96429 16.9414 8.62453C16.9414 8.28103 17.2177 8.00474 17.5574 8.00474C17.9009 8.00474 18.1772 8.28477 18.1772 8.62453C18.181 8.96429 17.9009 9.24058 17.5574 9.24058Z" fill="white"/>
<path d="M16.4226 8.6207C16.4226 8.75885 16.3068 8.87086 16.1687 8.87086C16.0306 8.87086 15.9148 8.75885 15.9148 8.6207C15.9148 8.48256 16.0306 8.36682 16.1687 8.36682C16.3068 8.36682 16.4226 8.48256 16.4226 8.6207ZM16.4226 9.99095C16.4226 10.1291 16.3068 10.2411 16.1687 10.2411C16.0306 10.2411 15.9148 10.1291 15.9148 9.99095C15.9148 9.8528 16.0306 9.73706 16.1687 9.73706C16.3068 9.73706 16.4226 9.84907 16.4226 9.99095ZM16.4226 7.25419C16.4226 7.3886 16.3068 7.50435 16.1687 7.50435C16.0306 7.50435 15.9148 7.3886 15.9148 7.25419C15.9148 7.11605 16.0306 7.00031 16.1687 7.00031C16.3068 7.00031 16.4226 7.11605 16.4226 7.25419ZM17.8115 8.6207C17.8115 8.75885 17.6958 8.87086 17.5576 8.87086C17.4232 8.87086 17.3075 8.75885 17.3075 8.6207C17.3075 8.48256 17.4232 8.36682 17.5576 8.36682C17.6995 8.36682 17.8115 8.48256 17.8115 8.6207ZM15.0673 8.6207C15.0673 8.75885 14.9515 8.87086 14.8171 8.87086C14.679 8.87086 14.5632 8.75885 14.5632 8.6207C14.5632 8.48256 14.679 8.36682 14.8171 8.36682C14.9515 8.36682 15.0673 8.48256 15.0673 8.6207ZM16.1687 11.2567C16.15 11.2567 16.1314 11.2567 16.109 11.2492C15.9969 11.2268 15.9148 11.1222 15.9148 10.999C15.9148 10.8534 16.0268 10.7414 16.1724 10.7414H21.814C21.9596 10.7414 22.0716 10.8534 22.0716 10.999C22.0716 11.1409 21.9558 11.2567 21.814 11.2567H16.1687Z" fill="white"/>
<path d="M21.9968 10.999C21.9968 11.0999 21.9146 11.182 21.8138 11.182H16.1685C16.1536 11.182 16.1424 11.182 16.1312 11.1783C16.0453 11.1596 15.9856 11.0849 15.9856 10.999C15.9856 10.8945 16.0677 10.8161 16.1685 10.8161H21.8101C21.9146 10.8161 21.9968 10.8982 21.9968 10.999ZM18.5469 8.87834C18.405 8.87834 18.2893 8.7626 18.2893 8.62072C18.2893 8.47511 18.4013 8.3631 18.5469 8.3631H21.4068C21.5524 8.3631 21.6645 8.47511 21.6645 8.62072C21.6645 8.7626 21.5487 8.87834 21.4068 8.87834H18.5469Z" fill="white"/>
<path d="M21.5899 8.62069C21.5899 8.7215 21.5077 8.80364 21.4069 8.80364H18.547C18.4424 8.80364 18.364 8.71777 18.364 8.62069C18.364 8.51615 18.4462 8.43774 18.547 8.43774H21.4069C21.5115 8.43774 21.5899 8.51988 21.5899 8.62069Z" fill="white"/>
<path d="M19.402 8.62069V10.999C19.402 11.0998 19.3199 11.182 19.2191 11.182C19.1183 11.182 19.0361 11.0961 19.0361 10.999V8.62069C19.0361 8.51615 19.122 8.43774 19.2191 8.43774C19.3199 8.43774 19.402 8.51988 19.402 8.62069Z" fill="white"/>
<path d="M20.9328 8.62069V10.999C20.9328 11.0998 20.8469 11.182 20.7498 11.182C20.6453 11.182 20.5669 11.0961 20.5669 10.999V8.62069C20.5669 8.51615 20.649 8.43774 20.7498 8.43774C20.8507 8.43774 20.9328 8.51988 20.9328 8.62069Z" fill="white"/>
<path d="M12.3939 14.912C12.252 14.912 12.1362 14.7962 12.1362 14.6543V2.58349C12.1362 2.44161 12.252 2.32587 12.3939 2.32587C12.5357 2.32587 12.6515 2.44161 12.6515 2.58349V14.6543C12.6515 14.7962 12.5357 14.912 12.3939 14.912Z" fill="white"/>
<path d="M12.3939 14.8411C12.2931 14.8411 12.2109 14.7589 12.2109 14.6581V2.58352C12.2109 2.48271 12.2931 2.40057 12.3939 2.40057C12.4947 2.40057 12.5768 2.48271 12.5768 2.58352V14.6544C12.5806 14.7589 12.4984 14.8411 12.3939 14.8411Z" fill="white"/>
<path d="M9.85133 8.04193L5.76673 5.72334C5.52404 5.5852 5.23655 5.58893 4.99387 5.72708C4.75492 5.86522 4.61304 6.11164 4.61304 6.38793V6.39913L4.63544 11.0176C4.63544 11.2939 4.77732 11.5441 5.02 11.6822C5.13948 11.7532 5.27389 11.7868 5.40457 11.7868C5.53525 11.7868 5.66592 11.7532 5.7854 11.686L9.84386 9.39351C10.0903 9.25536 10.2359 9.00521 10.2359 8.72145C10.2396 8.43396 10.094 8.18008 9.85133 8.04193ZM9.66465 9.06868L5.60618 11.3611C5.47924 11.4321 5.32616 11.4321 5.20295 11.3574C5.07601 11.2827 5.00134 11.1558 5.00134 11.0064L4.97893 6.38793C4.9752 6.24232 5.05361 6.10791 5.17682 6.03323C5.30376 5.95856 5.45684 5.95856 5.58378 6.03323L9.66465 8.35182C9.79159 8.4265 9.87 8.55717 9.87 8.70652C9.87 8.86333 9.79533 8.99774 9.66465 9.06868Z" fill="white"/>
<path d="M9.86995 8.71777C9.86995 8.86339 9.79155 8.9978 9.6646 9.07247L5.60614 11.3649C5.47919 11.4359 5.32612 11.4359 5.20291 11.3612C5.07596 11.2865 5.00129 11.1596 5.00129 11.0102L4.97889 6.39172C4.97515 6.24611 5.05356 6.1117 5.17677 6.03702C5.30371 5.96235 5.45679 5.96235 5.58374 6.03702L9.6646 8.35561C9.79528 8.43402 9.86995 8.5647 9.86995 8.71777Z" fill="white"/>
</svg>
