<svg width="25" height="25" viewBox="0 0 25 25" fill="none" xmlns="http://www.w3.org/2000/svg">
<path d="M22.1986 24.5883H2.36051C1.26645 24.5883 0.376709 23.6986 0.376709 22.6045V7.72596C0.376709 6.63189 1.26645 5.74216 2.36051 5.74216H12.2795C12.4111 5.74216 12.5372 5.79441 12.6302 5.88742C12.7232 5.98043 12.7755 6.10657 12.7755 6.23811C12.7755 6.36964 12.7232 6.49579 12.6302 6.5888C12.5372 6.68181 12.4111 6.73406 12.2795 6.73406H2.36051C1.81348 6.73406 1.36861 7.17893 1.36861 7.72596V22.6045C1.36861 23.1515 1.81348 23.5964 2.36051 23.5964H22.1986C22.7456 23.5964 23.1905 23.1515 23.1905 22.6045V7.72596C23.1905 7.17893 22.7456 6.73406 22.1986 6.73406C22.067 6.73406 21.9409 6.68181 21.8479 6.5888C21.7549 6.49579 21.7026 6.36964 21.7026 6.23811C21.7026 6.10657 21.7549 5.98043 21.8479 5.88742C21.9409 5.79441 22.067 5.74216 22.1986 5.74216C23.2926 5.74216 24.1824 6.63189 24.1824 7.72596V22.6045C24.1824 23.6986 23.2926 24.5883 22.1986 24.5883Z" fill="white"/>
<path d="M22.1986 22.6045H5.33622V7.72598H10.2957C10.4273 7.72598 10.5534 7.77823 10.6464 7.87124C10.7394 7.96425 10.7917 8.0904 10.7917 8.22193C10.7917 8.35347 10.7394 8.47962 10.6464 8.57262C10.5534 8.66563 10.4273 8.71789 10.2957 8.71789H6.32813V21.6126H21.2067V8.71789H20.2148C20.0832 8.71789 19.9571 8.66563 19.8641 8.57262C19.7711 8.47962 19.7188 8.35347 19.7188 8.22193C19.7188 8.0904 19.7711 7.96425 19.8641 7.87124C19.9571 7.77823 20.0832 7.72598 20.2148 7.72598H22.1986V22.6045ZM4.34432 21.6126H0.376709V8.71789H4.34432V21.6126ZM1.36861 20.6207H3.35242V9.70979H1.36861V20.6207Z" fill="white"/>
<path d="M9.02624 14.4511L10.3351 10.3362L19.2582 1.4135C20.0076 0.66362 21.3144 0.66362 22.0638 1.4135C22.4354 1.78571 22.644 2.29014 22.644 2.81605C22.644 3.34196 22.4354 3.84639 22.0638 4.2186L13.1412 13.1418L9.02624 14.4511ZM11.2074 10.8668L10.5528 12.924L12.61 12.2694L21.3625 3.51782C21.7494 3.13098 21.7494 2.50211 21.3625 2.11527C20.9876 1.74033 20.3344 1.74033 19.9595 2.11527L11.2074 10.8668ZM0.872803 12.6855H3.84851V13.6774H0.872803V12.6855ZM0.872803 16.6531H3.84851V17.645H0.872803V16.6531Z" fill="white"/>
<path d="M21.0112 5.06569C20.9461 5.06576 20.8816 5.05296 20.8214 5.02802C20.7612 5.00308 20.7066 4.9665 20.6606 4.92038L18.5562 2.81606C18.5102 2.77001 18.4737 2.71535 18.4488 2.65518C18.4238 2.59502 18.411 2.53054 18.411 2.46542C18.411 2.4003 18.4238 2.33582 18.4488 2.27566C18.4737 2.21549 18.5102 2.16083 18.5562 2.11478C18.6023 2.06874 18.657 2.03221 18.7171 2.00729C18.7773 1.98237 18.8418 1.96954 18.9069 1.96954C18.972 1.96954 19.0365 1.98237 19.0967 2.00729C19.1568 2.03221 19.2115 2.06874 19.2575 2.11478L21.3618 4.2191C21.4314 4.28837 21.4789 4.37675 21.4981 4.47302C21.5174 4.56929 21.5076 4.66912 21.4701 4.75983C21.4325 4.85054 21.3688 4.92804 21.2871 4.98249C21.2054 5.03695 21.1094 5.06591 21.0112 5.06569ZM18.2061 7.87129C18.141 7.87136 18.0765 7.85855 18.0163 7.83362C17.9561 7.80868 17.9015 7.7721 17.8555 7.72598L15.7511 5.62165C15.7051 5.57561 15.6686 5.52094 15.6437 5.46078C15.6187 5.40062 15.6059 5.33614 15.6059 5.27102C15.6059 5.2059 15.6187 5.14142 15.6437 5.08125C15.6686 5.02109 15.7051 4.96643 15.7511 4.92038C15.7972 4.87433 15.8519 4.83781 15.912 4.81289C15.9722 4.78797 16.0367 4.77514 16.1018 4.77514C16.1669 4.77514 16.2314 4.78797 16.2916 4.81289C16.3517 4.83781 16.4064 4.87433 16.4524 4.92038L18.5567 7.0247C18.6263 7.09397 18.6738 7.18235 18.693 7.27862C18.7123 7.37489 18.7025 7.47472 18.665 7.56542C18.6274 7.65613 18.5637 7.73363 18.482 7.78809C18.4003 7.84255 18.3043 7.87151 18.2061 7.87129ZM12.8756 13.2018C12.8105 13.2018 12.746 13.189 12.6858 13.1641C12.6256 13.1392 12.571 13.1026 12.525 13.0565L10.4207 10.9521C10.3277 10.8591 10.2754 10.733 10.2754 10.6015C10.2754 10.47 10.3277 10.3439 10.4207 10.2509C10.5137 10.1579 10.6398 10.1056 10.7713 10.1056C10.9028 10.1056 11.0289 10.1579 11.1219 10.2509L13.2263 12.3552C13.2958 12.4245 13.3433 12.5128 13.3625 12.6091C13.3818 12.7054 13.372 12.8052 13.3345 12.8959C13.2969 12.9866 13.2332 13.0641 13.1515 13.1186C13.0698 13.173 12.9738 13.202 12.8756 13.2018ZM8.80783 15.1652C8.70965 15.1655 8.61362 15.1365 8.53192 15.082C8.45023 15.0276 8.38656 14.9501 8.34899 14.8594C8.31142 14.7687 8.30165 14.6688 8.32091 14.5726C8.34018 14.4763 8.38761 14.3879 8.45719 14.3187L9.43868 13.3372C9.53167 13.2442 9.6578 13.1919 9.78932 13.1919C9.92083 13.1919 10.047 13.2442 10.14 13.3372C10.233 13.4302 10.2852 13.5563 10.2852 13.6878C10.2852 13.8193 10.233 13.9455 10.14 14.0384L9.15847 15.0199C9.11247 15.0661 9.05782 15.1026 8.99765 15.1276C8.93747 15.1525 8.87297 15.1653 8.80783 15.1652Z" fill="white"/>
</svg>
