<svg width="26" height="25" viewBox="0 0 26 25" fill="none" xmlns="http://www.w3.org/2000/svg">
<path d="M23.6693 0.810181H2.00564C1.01519 0.810181 0.210205 1.61517 0.210205 2.60562V23.0815C0.210205 24.072 1.01519 24.877 2.00564 24.877H23.6693C24.6597 24.877 25.4647 24.072 25.4647 23.0815V2.60562C25.4647 1.61517 24.6597 0.810181 23.6693 0.810181ZM24.3322 23.0776C24.3322 23.4445 24.0363 23.7405 23.6693 23.7405H2.00564C1.63866 23.7405 1.34271 23.4445 1.34271 23.0776V5.47438H24.3362V23.0776H24.3322ZM24.3322 4.34187H1.34271V2.60562C1.34271 2.23864 1.63866 1.94269 2.00564 1.94269H23.6693C24.0363 1.94269 24.3322 2.23864 24.3322 2.60562V4.34187Z" fill="white"/>
<path d="M2.83825 2.578C2.52256 2.578 2.27002 2.83055 2.27002 3.14228C2.27002 3.45402 2.52651 3.70656 2.83825 3.70656C2.9879 3.70656 3.13143 3.64711 3.23725 3.54129C3.34308 3.43547 3.40253 3.29194 3.40253 3.14228C3.40253 2.99263 3.34308 2.8491 3.23725 2.74328C3.13143 2.63745 2.9879 2.578 2.83825 2.578ZM4.83493 2.578C4.51925 2.578 4.26671 2.83055 4.26671 3.14228C4.26671 3.45402 4.5232 3.70656 4.83493 3.70656C4.98459 3.70656 5.12812 3.64711 5.23394 3.54129C5.33976 3.43547 5.39921 3.29194 5.39921 3.14228C5.39921 2.99263 5.33976 2.8491 5.23394 2.74328C5.12812 2.63745 4.98459 2.578 4.83493 2.578ZM6.83162 2.578C6.51594 2.578 6.26339 2.83055 6.26339 3.14228C6.26339 3.45402 6.51988 3.70656 6.83162 3.70656C7.14335 3.70656 7.3959 3.45402 7.3959 3.14228C7.39984 2.83055 7.1473 2.578 6.83162 2.578ZM11.2748 16.4719H15.4813C15.793 16.4719 16.0456 16.2194 16.0456 15.9077V11.6973C16.0456 11.3855 15.793 11.133 15.4813 11.133H11.2748C10.9631 11.133 10.7106 11.3855 10.7106 11.6973V15.9037C10.7106 16.2154 10.9631 16.4719 11.2748 16.4719ZM11.8391 12.2655H14.9131V15.3394H11.8391V12.2655ZM17.766 16.4719H21.9725C22.2842 16.4719 22.5368 16.2194 22.5368 15.9077V11.6973C22.5368 11.3855 22.2842 11.133 21.9725 11.133H17.766C17.4543 11.133 17.2018 11.3855 17.2018 11.6973V15.9037C17.2018 16.2154 17.4543 16.4719 17.766 16.4719ZM18.3343 12.2655H21.4082V15.3394H18.3343V12.2655ZM15.5878 17.1625H11.1683C11.0186 17.1625 10.8751 17.2219 10.7693 17.3278C10.6635 17.4336 10.604 17.5771 10.604 17.7268C10.604 17.8764 10.6635 18.02 10.7693 18.1258C10.8751 18.2316 11.0186 18.2911 11.1683 18.2911H15.5839C15.8956 18.2911 16.1482 18.0385 16.1482 17.7268C16.1482 17.415 15.8996 17.1625 15.5878 17.1625ZM15.5878 19.2381H11.1683C11.0186 19.2381 10.8751 19.2975 10.7693 19.4034C10.6635 19.5092 10.604 19.6527 10.604 19.8024C10.604 19.952 10.6635 20.0956 10.7693 20.2014C10.8751 20.3072 11.0186 20.3667 11.1683 20.3667H15.5839C15.8956 20.3667 16.1482 20.1141 16.1482 19.8024C16.1482 19.4906 15.8996 19.2381 15.5878 19.2381ZM15.5878 21.3137H11.1683C11.0186 21.3137 10.8751 21.3732 10.7693 21.479C10.6635 21.5848 10.604 21.7283 10.604 21.878C10.604 22.0276 10.6635 22.1712 10.7693 22.277C10.8751 22.3828 11.0186 22.4423 11.1683 22.4423H15.5839C15.8956 22.4423 16.1482 22.1897 16.1482 21.878C16.1482 21.5662 15.8996 21.3137 15.5878 21.3137ZM22.079 17.1625H17.6595C17.5098 17.1625 17.3663 17.2219 17.2605 17.3278C17.1547 17.4336 17.0952 17.5771 17.0952 17.7268C17.0952 17.8764 17.1547 18.02 17.2605 18.1258C17.3663 18.2316 17.5098 18.2911 17.6595 18.2911H22.0751C22.3868 18.2911 22.6394 18.0385 22.6394 17.7268C22.6394 17.415 22.3908 17.1625 22.079 17.1625ZM22.079 19.2381H17.6595C17.5098 19.2381 17.3663 19.2975 17.2605 19.4034C17.1547 19.5092 17.0952 19.6527 17.0952 19.8024C17.0952 19.952 17.1547 20.0956 17.2605 20.2014C17.3663 20.3072 17.5098 20.3667 17.6595 20.3667H22.0751C22.3868 20.3667 22.6394 20.1141 22.6394 19.8024C22.6394 19.4906 22.3908 19.2381 22.079 19.2381ZM22.079 21.3137H17.6595C17.5098 21.3137 17.3663 21.3732 17.2605 21.479C17.1547 21.5848 17.0952 21.7283 17.0952 21.878C17.0952 22.0276 17.1547 22.1712 17.2605 22.277C17.3663 22.3828 17.5098 22.4423 17.6595 22.4423H22.0751C22.3868 22.4423 22.6394 22.1897 22.6394 21.878C22.6394 21.5662 22.3908 21.3137 22.079 21.3137ZM6.08977 17.127C4.5232 17.127 3.24863 18.4015 3.24863 19.9681C3.24863 21.5347 4.5232 22.8092 6.08977 22.8092C7.65634 22.8092 8.9309 21.5347 8.9309 19.9681C8.9309 18.4015 7.65634 17.127 6.08977 17.127ZM6.08977 21.6767C5.14667 21.6767 4.38114 20.9112 4.38114 19.9681C4.38114 19.025 5.14667 18.2595 6.08977 18.2595C6.54329 18.2595 6.97829 18.4394 7.29935 18.7597C7.6204 19.08 7.80129 19.5146 7.80234 19.9681C7.80057 20.4214 7.61944 20.8556 7.29854 21.1757C6.97764 21.4959 6.54306 21.676 6.08977 21.6767ZM2.64884 15.4026C2.65278 15.4223 2.65673 15.4381 2.66068 15.4539C2.66462 15.4696 2.66857 15.4894 2.67646 15.5052C2.68435 15.5209 2.69224 15.5407 2.70014 15.5565C2.70803 15.5722 2.71592 15.588 2.72776 15.6038C2.7396 15.6196 2.75143 15.6354 2.76327 15.6472C2.77511 15.6591 2.783 15.6748 2.79879 15.6867C2.81457 15.7025 2.83035 15.7182 2.85008 15.7301C2.85798 15.738 2.86587 15.7459 2.87771 15.7538C2.87771 15.7538 2.88165 15.7538 2.88165 15.7577C2.93391 15.7934 2.99106 15.8213 3.05133 15.8406C3.09868 15.8524 3.14998 15.8642 3.20128 15.8642H9.08874C9.15098 15.8644 9.21265 15.8523 9.27026 15.8287C9.32156 15.813 9.36891 15.7893 9.40837 15.7577C9.40837 15.7577 9.41231 15.7577 9.41231 15.7538C9.42415 15.7459 9.43204 15.738 9.43994 15.7301C9.45572 15.7143 9.47545 15.7025 9.49124 15.6867C9.50294 15.6745 9.51351 15.6613 9.5228 15.6472C9.53464 15.6314 9.54648 15.6196 9.55832 15.5999C9.56621 15.5841 9.5741 15.5683 9.58594 15.5525C9.59383 15.5367 9.60172 15.5209 9.60962 15.5012C9.61751 15.4854 9.62145 15.4657 9.6254 15.4499C9.62935 15.4341 9.63724 15.4144 9.64118 15.3986C9.64513 15.3789 9.64513 15.3552 9.64908 15.3355C9.64908 15.3236 9.65302 15.3079 9.65302 15.296V7.11987C9.65302 7.10803 9.64908 7.09225 9.64908 7.08041C9.64774 7.0412 9.63974 7.0025 9.6254 6.96598C9.62145 6.95019 9.61751 6.93046 9.60962 6.91468C9.60172 6.89889 9.59383 6.88311 9.58594 6.86338C9.57823 6.84677 9.56898 6.83092 9.55832 6.81603C9.54648 6.80024 9.53464 6.78446 9.5228 6.77262C9.51097 6.76078 9.50307 6.745 9.48729 6.73316C9.47205 6.71663 9.45482 6.70205 9.43599 6.68975C9.42765 6.68091 9.41839 6.67297 9.40837 6.66608C9.40442 6.66608 9.40442 6.66213 9.40048 6.66213L9.34129 6.62662C9.32945 6.61873 9.31761 6.61084 9.30183 6.60689C9.28604 6.599 9.26631 6.59505 9.24658 6.58716C9.2308 6.58321 9.21107 6.57532 9.19528 6.57137C9.1795 6.56743 9.16372 6.56743 9.14793 6.56348C9.12717 6.55891 9.10604 6.55627 9.08479 6.55559H3.19339C3.17366 6.55559 3.14998 6.55954 3.13025 6.56348C3.11447 6.56743 3.09868 6.56743 3.0829 6.57137C3.06712 6.57532 3.05133 6.58321 3.03555 6.58716C3.01582 6.59505 2.99609 6.599 2.9803 6.60689C2.96847 6.61084 2.95663 6.61873 2.94479 6.62662C2.92506 6.63846 2.90138 6.65029 2.88165 6.66213C2.87771 6.66213 2.87771 6.66608 2.87376 6.66608C2.86192 6.67397 2.85403 6.68186 2.84614 6.68975C2.83035 6.70554 2.81062 6.71738 2.79484 6.73316C2.783 6.745 2.77116 6.76078 2.75933 6.77262C2.74749 6.78841 2.73565 6.80024 2.72381 6.81603C2.71592 6.83181 2.70803 6.8476 2.69619 6.86338C2.6883 6.87916 2.68041 6.89495 2.67251 6.91468C2.66462 6.93046 2.66068 6.95019 2.65673 6.96598C2.65278 6.98176 2.64489 7.00149 2.64489 7.01727C2.64095 7.037 2.64095 7.06068 2.637 7.08041C2.637 7.09225 2.63305 7.10409 2.63305 7.11987V15.3C2.63305 15.3118 2.637 15.3276 2.637 15.3394L2.64884 15.4026ZM4.30617 14.7357L6.14501 12.1787L7.98386 14.7357H4.30617ZM8.52446 13.5479L6.84346 11.2119L8.52446 8.87585V13.5479ZM7.9878 7.68415L6.14896 10.2412L4.31011 7.68415H7.9878ZM3.76951 8.8719L5.45051 11.2079L3.76951 13.544V8.8719ZM11.2748 7.53815H22.079C22.2287 7.53815 22.3722 7.4787 22.478 7.37288C22.5839 7.26705 22.6433 7.12352 22.6433 6.97387C22.6433 6.82421 22.5839 6.68068 22.478 6.57486C22.3722 6.46904 22.2287 6.40959 22.079 6.40959H11.2748C11.1252 6.40959 10.9817 6.46904 10.8758 6.57486C10.77 6.68068 10.7106 6.82421 10.7106 6.97387C10.7106 7.12352 10.77 7.26705 10.8758 7.37288C10.9817 7.4787 11.1252 7.53815 11.2748 7.53815ZM11.0657 9.78738H15.7694C15.8435 9.78738 15.9168 9.77278 15.9853 9.74443C16.0538 9.71607 16.116 9.6745 16.1684 9.62211C16.2208 9.56971 16.2623 9.5075 16.2907 9.43904C16.319 9.37058 16.3336 9.2972 16.3336 9.2231C16.3336 9.149 16.319 9.07562 16.2907 9.00716C16.2623 8.9387 16.2208 8.87649 16.1684 8.82409C16.116 8.77169 16.0538 8.73013 15.9853 8.70177C15.9168 8.67341 15.8435 8.65882 15.7694 8.65882H11.0657C10.754 8.65882 10.5014 8.91136 10.5014 9.2231C10.5014 9.53483 10.75 9.78738 11.0657 9.78738ZM17.766 8.65487C17.6164 8.65487 17.4729 8.71432 17.367 8.82015C17.2612 8.92597 17.2018 9.0695 17.2018 9.21915C17.2018 9.36881 17.2612 9.51234 17.367 9.61816C17.4729 9.72398 17.6164 9.78343 17.766 9.78343H22.4736C22.6233 9.78343 22.7668 9.72398 22.8726 9.61816C22.9785 9.51234 23.0379 9.36881 23.0379 9.21915C23.0379 9.0695 22.9785 8.92597 22.8726 8.82015C22.7668 8.71432 22.6233 8.65487 22.4736 8.65487H17.766ZM21.9725 2.578H18.0107C17.861 2.578 17.7175 2.63745 17.6117 2.74328C17.5059 2.8491 17.4464 2.99263 17.4464 3.14228C17.4464 3.29194 17.5059 3.43547 17.6117 3.54129C17.7175 3.64711 17.861 3.70656 18.0107 3.70656H21.9764C22.2882 3.70656 22.5407 3.45402 22.5407 3.14228C22.5368 2.83055 22.2842 2.578 21.9725 2.578Z" fill="white"/>
</svg>
