<svg width="30" height="26" viewBox="0 0 30 26" fill="none" xmlns="http://www.w3.org/2000/svg">
<path d="M1.22929 14.9522C1.92592 15.2889 2.19601 16.2318 1.78479 16.8858C0.790457 18.4008 2.09021 20.6042 3.89677 20.4582C4.67434 20.4532 5.32644 21.0935 5.29303 21.9009C5.2467 23.7001 7.37451 24.9009 8.90923 23.8974C9.55028 23.4916 10.4663 23.7378 10.819 24.4085C11.6321 26.0054 14.1302 26.0121 14.944 24.4084C15.2816 23.7123 16.2236 23.4415 16.878 23.8532C17.2537 24.0797 17.6605 24.1946 18.0874 24.1946C19.0885 24.1946 20.0094 23.534 20.3264 22.5889C20.4127 22.3307 20.274 22.0519 20.0161 21.9654C19.7587 21.8803 19.4794 22.0182 19.3928 22.2754C19.1311 23.0566 18.1349 23.4614 17.385 23.009C16.2699 22.3086 14.6732 22.755 14.083 23.9316C13.6088 24.8627 12.1533 24.8624 11.6802 23.9315C11.0526 22.7625 9.50328 22.3545 8.36331 23.0783C7.47835 23.6409 6.23838 22.9413 6.27762 21.8754C6.33051 20.5549 5.14838 19.4106 3.83204 19.4737C2.78747 19.5145 2.0504 18.2783 2.62903 17.3925C3.31866 16.2943 2.89762 14.721 1.75086 14.1152C0.783482 13.6652 0.755087 12.1717 1.70624 11.6882C2.87551 11.0612 3.28402 9.51051 2.55974 8.37106C2.3011 7.93863 2.29437 7.41966 2.5422 6.98242C2.78978 6.54615 3.2364 6.28558 3.76257 6.28558C5.07729 6.31962 6.21681 5.19384 6.16174 3.84769C6.15428 3.46721 6.29394 3.11626 6.55234 2.8545C6.9903 2.41077 7.69171 2.30284 8.24505 2.63696C9.35975 3.33801 10.957 2.89026 11.5473 1.71438C12.0204 0.78312 13.4772 0.783868 13.9498 1.7142C14.577 2.88367 16.1266 3.29153 17.267 2.5677C18.1518 2.00526 19.392 2.70504 19.3524 3.77059C19.3117 5.08819 20.4464 6.22627 21.7903 6.16969C22.8452 6.09953 23.5745 7.37849 23.0015 8.25231C22.5831 8.94963 22.553 9.79767 22.921 10.5209C23.2152 11.0915 24.0863 10.657 23.7984 10.0743C23.2838 9.18264 24.2585 8.44485 24.1869 7.55066C24.188 6.24709 23.0943 5.13308 21.7391 5.18539C20.9671 5.21865 20.3016 4.54335 20.337 3.74532C20.3826 1.94522 18.2568 0.746666 16.7206 1.74836C16.0796 2.15495 15.1641 1.90821 14.8113 1.23748C13.9873 -0.379571 11.4529 -0.358388 10.6618 1.28107C10.3106 1.94874 9.38911 2.19278 8.75224 1.79298C7.82392 1.23246 6.60114 1.40337 5.85166 2.16271C5.40673 2.61365 5.16636 3.21482 5.17741 3.89892C5.1851 4.28087 5.04064 4.6347 4.77335 4.9008C4.51351 5.15968 4.17122 5.30126 3.76667 5.30126C1.95414 5.23338 0.731506 7.37069 1.74038 8.91743C1.93503 9.23977 1.98863 9.6174 1.89152 9.9806C1.79441 10.3438 1.55933 10.6443 1.22953 10.8267C-0.367719 11.6399 -0.373759 14.1389 1.22929 14.9522Z" fill="white"/>
<path d="M21.4429 13.0098C21.7148 12.9999 21.927 12.7716 21.9172 12.4999C21.1005 0.963218 4.6198 1.28946 4.19999 12.8231C4.18598 17.8544 8.45314 21.9241 13.4777 21.674C13.7493 21.6644 13.9618 21.436 13.9519 21.1644C13.9423 20.8928 13.7103 20.6741 13.4421 20.6904C8.97244 20.9179 5.17178 17.2999 5.18459 12.823C5.55855 2.57011 20.2079 2.28187 20.9331 12.5356C20.9429 12.8071 21.1756 13.0254 21.4429 13.0098Z" fill="white"/>
<path d="M18.9363 12.7896C19.8954 12.1803 19.4308 10.6045 18.2841 10.6373C18.2841 10.6373 15.3107 10.6373 15.3107 10.6373C15.2314 10.6373 15.1612 10.5885 15.134 10.5101L14.1656 7.81673C13.837 6.78604 12.2881 6.78241 11.958 7.81243C11.958 7.8124 10.9859 10.5159 10.9859 10.5159C10.9609 10.5885 10.8907 10.6373 10.8114 10.6373H7.83801C6.69371 10.6058 6.22319 12.1796 7.1881 12.791C7.18804 12.791 9.48192 14.3022 9.48192 14.3022C9.55283 14.3489 9.58312 14.4431 9.55524 14.5229L8.65432 17.0386C8.35857 17.7777 8.97711 18.6318 9.75597 18.615C9.97877 18.615 10.2026 18.5496 10.4028 18.4179L12.9625 16.7314C13.0221 16.6901 13.0998 16.6906 13.1644 16.7343L14.9663 17.9203C15.5041 18.271 16.0451 17.456 15.5076 17.0982C15.5076 17.0982 13.7106 15.9151 13.7106 15.9151C13.3161 15.6483 12.8063 15.6493 12.4162 15.9122L9.86148 17.5953C9.76365 17.6607 9.68168 17.6179 9.64226 17.5867C9.60188 17.555 9.54058 17.4848 9.58144 17.3704L10.4833 14.8512C10.6622 14.3402 10.4732 13.7768 10.0237 13.4802L7.73201 11.9704C7.56435 11.8515 7.65107 11.6227 7.83802 11.6218H10.8114C11.3104 11.6218 11.7544 11.3067 11.9145 10.8433L12.8858 8.14123C12.9236 8.0333 13.0118 8.0172 13.0611 8.0172C13.1104 8.0172 13.1986 8.0333 13.2378 8.14556L14.2055 10.8375C14.3677 11.3067 14.8117 11.6218 15.3107 11.6218H18.2841C18.4022 11.6218 18.449 11.6947 18.4675 11.756C18.4827 11.8064 18.493 11.9016 18.3923 11.9689L16.0984 13.4802C15.6489 13.7768 15.46 14.3402 15.6405 14.856L15.9112 15.6041C16.0037 15.8598 16.2862 15.9925 16.5417 15.8997C16.7972 15.807 16.9296 15.5248 16.8371 15.2695L16.5681 14.5263C16.539 14.4431 16.5693 14.3489 16.6402 14.3022L18.9363 12.7896Z" fill="white"/>
<path d="M26.9512 11.1495C26.543 10.4076 25.5235 10.1342 24.7991 10.5729L24.1169 10.9666C23.5671 11.2742 23.2513 11.9292 23.3449 12.5492L16.85 16.2988C16.7502 16.3565 16.6738 16.4474 16.6341 16.5555L15.8977 18.5577C15.8832 18.5626 15.0306 19.0549 15.0306 19.0549C13.3696 20.0805 14.7881 22.5384 16.5074 21.6129C16.5074 21.613 17.36 21.1207 17.36 21.1207C17.3718 21.1103 19.4736 21.474 19.4736 21.474C19.5866 21.4937 19.7038 21.4729 19.8037 21.4154L24.9196 18.4617L25.4118 19.314L23.2804 20.5448C22.7246 20.8788 23.2091 21.7117 23.7727 21.3976C23.7727 21.3976 26.3305 19.9207 26.3305 19.9207C26.5661 19.7847 26.6466 19.4837 26.5108 19.2482L25.7724 17.9693L26.2989 17.6654C26.7894 18.0562 27.511 18.1108 28.0552 17.7882L28.7376 17.3939C29.4893 16.9594 29.7479 15.994 29.314 15.2421L26.9512 11.1495ZM16.0149 20.7601C15.4568 21.0799 14.9662 20.2316 15.5226 19.9078C15.5229 19.9078 15.9491 19.6616 15.9491 19.6616L16.4413 20.514L16.0149 20.7601ZM19.4657 20.4736L17.343 20.1063L16.7529 19.0843L17.4966 17.0622L23.7371 13.4596C23.9096 13.7583 25.4911 16.4977 25.7063 16.8704L19.4657 20.4736ZM28.2451 16.5416L27.5629 16.9353C27.2909 17.0985 26.9091 16.9981 26.7562 16.719L24.3931 12.6264C24.2285 12.3547 24.331 11.9725 24.6092 11.8195C24.6092 11.8192 25.2914 11.4255 25.2914 11.4255C25.5687 11.2639 25.9347 11.3572 26.0983 11.6418L28.4612 15.7344C28.6239 16.0166 28.5271 16.3786 28.2451 16.5416Z" fill="white"/>
</svg>
