<svg width="25" height="27" viewBox="0 0 25 27" fill="none" xmlns="http://www.w3.org/2000/svg">
<path d="M24.3847 2.86636C22.8593 2.86636 21.3554 2.86636 19.83 2.86636C19.83 2.63045 19.8461 2.41599 19.8246 2.2042C19.8193 2.14523 19.8193 2.09965 19.83 2.05944C20.9881 2.02995 21.8942 1.76187 21.8942 1.43749C21.8942 1.09167 20.8755 0.812861 19.6209 0.812861C18.3663 0.812861 17.3476 1.09167 17.3476 1.43749C17.3476 1.75383 18.2027 2.01387 19.3099 2.05676C19.3099 2.32484 19.3099 2.58756 19.3099 2.85564C17.0259 2.85564 14.7552 2.85564 12.4631 2.85564C12.4631 2.60096 12.4712 2.35969 12.4604 2.1211C12.4604 2.09697 12.4604 2.07552 12.4631 2.05676C13.5971 2.02191 14.4791 1.75651 14.4791 1.43481C14.4791 1.08899 13.4604 0.810181 12.2058 0.810181C10.9511 0.810181 9.93244 1.08899 9.93244 1.43481C9.93244 1.75651 10.8117 2.01923 11.943 2.05676C11.9645 2.31948 11.9511 2.58488 11.9511 2.85296C9.64559 2.85296 7.37494 2.85296 5.10161 2.85296C5.10161 2.57684 5.10161 2.31412 5.10161 2.05676C6.25168 2.02459 7.14975 1.75919 7.14975 1.43481C7.14975 1.08899 6.13105 0.810181 4.87643 0.810181C3.62181 0.810181 2.6031 1.08899 2.6031 1.43481C2.6031 1.75115 3.45828 2.01118 4.56545 2.05408C4.56545 2.05676 4.56545 2.05676 4.56545 2.05944C4.58422 2.32216 4.57349 2.58756 4.57349 2.87441C3.03739 2.87441 1.53345 2.87441 0.0161133 2.87441C0.0161133 7.22268 0.0161133 11.5254 0.0161133 15.8388C8.1497 15.8388 16.2699 15.8388 24.3847 15.8388C24.3847 11.5093 24.3847 7.19856 24.3847 2.86636ZM22.8781 14.5172C15.7659 14.5172 8.65905 14.5172 1.52809 14.5172C1.52809 11.075 1.52809 7.65161 1.52809 4.21749C8.64833 4.21749 15.7525 4.21749 22.8781 4.21749C22.8781 7.64625 22.8781 11.075 22.8781 14.5172Z" fill="white"/>
<path d="M24.4061 16.2087C16.2538 16.2087 8.13358 16.2087 0 16.2087C0 16.4312 0 16.635 0 16.8387C0 17.5625 0.281485 17.8414 1.0053 17.8387C4.06411 17.8387 7.12292 17.8387 10.1844 17.8387C10.2782 17.8387 10.3747 17.8467 10.4686 17.8521C10.4686 19.7179 10.4686 21.5596 10.4686 23.4148C9.95922 23.4148 9.47131 23.4201 8.98072 23.4121C8.81719 23.4094 8.75017 23.4577 8.71264 23.6212C8.55179 24.3048 8.36949 24.983 8.19792 25.6666C8.10141 26.05 8.01027 26.4334 7.91376 26.8301C10.7929 26.8301 13.6346 26.8301 16.5111 26.8301C16.2538 25.6854 16.0018 24.5595 15.7417 23.4121C15.1332 23.4121 14.5407 23.4121 13.9429 23.4121C13.9429 21.5436 13.9429 19.7045 13.9429 17.8414C14.0501 17.8414 14.1386 17.8414 14.2271 17.8414C17.2591 17.8414 20.2911 17.8414 23.3257 17.8414C23.4517 17.8414 23.5777 17.8467 23.7011 17.8306C24.1139 17.7797 24.3954 17.4741 24.4061 17.0559C24.4115 16.7798 24.4061 16.5036 24.4061 16.2087Z" fill="white"/>
<path d="M12.6748 11.8176C12.6748 11.9141 12.6748 12.0106 12.6748 12.1179C13.6721 12.2733 15.0419 12.2707 15.9373 11.9463C16.8649 11.6112 17.4761 10.9758 17.7657 10.0349C17.9533 9.429 17.9882 8.80973 17.8917 8.18511C17.696 6.89832 16.8408 6.03509 15.562 5.80454C14.7015 5.64906 13.8436 5.70535 12.9804 5.79114C12.723 5.81795 12.6667 5.90373 12.6667 6.14769C12.6802 8.03766 12.6748 9.92763 12.6748 11.8176ZM16.5486 7.15031C17.066 7.78834 17.1437 8.53093 17.0499 9.29764C16.8756 10.7185 15.9615 11.5174 14.5272 11.5388C14.2511 11.5442 13.975 11.5442 13.6989 11.52C13.6265 11.5147 13.5058 11.4074 13.5032 11.3485C13.4924 9.72657 13.4951 8.10736 13.4951 6.46939C14.5701 6.22007 15.9159 6.37288 16.5486 7.15031Z" fill="white"/>
<path d="M6.99959 12.1715C7.16848 12.1849 7.23014 12.1098 7.2784 11.9624C7.45265 11.4101 7.63494 10.8633 7.82796 10.3164C7.85209 10.2467 7.9486 10.1502 8.01294 10.1502C8.72603 10.1394 9.43913 10.1421 10.1603 10.1421C10.3667 10.7507 10.5651 11.3512 10.7769 11.9463C10.809 12.0348 10.9082 12.1474 10.9886 12.1581C11.2219 12.1876 11.4631 12.1688 11.7232 12.1688C11.6883 12.0562 11.6669 11.9731 11.6374 11.89C11.0342 10.1234 10.4337 8.35402 9.82517 6.58737C9.72866 6.30856 9.67772 5.92521 9.47398 5.79385C9.25952 5.65444 8.88688 5.76168 8.58395 5.76168C8.57591 5.76168 8.56787 5.76704 8.52765 5.78044C7.80652 7.89828 7.08538 10.0188 6.35352 12.1688C6.59479 12.1688 6.79853 12.1554 6.99959 12.1715ZM9.01288 6.56324C9.32654 7.52029 9.64555 8.49611 9.97261 9.48533C9.32654 9.48533 8.70995 9.48533 8.06924 9.48533C8.39093 8.49343 8.70459 7.51761 9.01288 6.56324Z" fill="white"/>
</svg>
