<svg width="26" height="24" viewBox="0 0 26 24" fill="none" xmlns="http://www.w3.org/2000/svg">
<path d="M5.96659 8.38417C5.96659 8.89262 5.55299 9.30622 5.04454 9.30622C4.5361 9.30622 4.12249 8.89262 4.12249 8.38417C4.12249 7.87573 4.5361 7.46212 5.04454 7.46212C5.55299 7.46212 5.96659 7.87573 5.96659 8.38417ZM19.2046 12.9944C19.2046 16.4442 16.3976 19.2512 12.9478 19.2512C9.49805 19.2512 6.69106 16.4442 6.69106 12.9944C6.69106 9.54464 9.49805 6.73765 12.9478 6.73765C16.3976 6.73765 19.2046 9.54464 19.2046 12.9944ZM17.2288 12.9944C17.2288 10.634 15.3083 8.71348 12.9478 8.71348C10.5874 8.71348 8.66688 10.634 8.66688 12.9944C8.66688 15.3549 10.5874 17.2754 12.9478 17.2754C15.3083 17.2754 17.2288 15.3549 17.2288 12.9944ZM25.7907 7.06696V20.2391C25.7907 22.2373 24.1666 23.8615 22.1683 23.8615H3.72732C1.72911 23.8615 0.10498 22.2373 0.10498 20.2391V7.06696C0.10498 5.06874 1.72911 3.44461 3.72732 3.44461H5.2711C5.70447 3.44461 6.12861 3.26942 6.43552 2.96251L7.52618 1.87186C8.21113 1.1869 9.12001 0.810181 10.0868 0.810181H15.8088C16.7757 0.810181 17.6859 1.1869 18.3695 1.87186L19.4602 2.96251C19.7657 3.26942 20.1912 3.44461 20.6246 3.44461H21.1804V3.11531C21.1804 2.56998 21.623 2.1274 22.1683 2.1274C22.7137 2.1274 23.1563 2.56998 23.1563 3.11531V3.59873C24.6724 4.03209 25.7907 5.41385 25.7907 7.06696ZM23.8149 7.06696C23.8149 6.1594 23.0759 5.42044 22.1683 5.42044H20.6246C19.6577 5.42044 18.7475 5.04371 18.0639 4.35876L16.9732 3.26811C16.6677 2.96119 16.2422 2.786 15.8088 2.786H10.0868C9.65348 2.786 9.22934 2.96119 8.92243 3.26811L7.83177 4.35876C7.14682 5.04371 6.23794 5.42044 5.2711 5.42044H3.72732C2.81976 5.42044 2.0808 6.1594 2.0808 7.06696V20.2391C2.0808 21.1467 2.81976 21.8856 3.72732 21.8856H22.1683C23.0759 21.8856 23.8149 21.1467 23.8149 20.2391V7.06696Z" fill="white"/>
</svg>
