<svg width="17" height="28" viewBox="0 0 17 28" fill="none" xmlns="http://www.w3.org/2000/svg">
<path d="M12.7591 0H3.79561C2.84503 0.0010676 1.93369 0.379157 1.26152 1.05132C0.589362 1.72348 0.211273 2.63482 0.210205 3.5854V24.2015C0.211273 25.152 0.589362 26.0634 1.26152 26.7355C1.93369 27.4077 2.84503 27.7858 3.79561 27.7869H12.7591C13.7097 27.7858 14.621 27.4077 15.2932 26.7355C15.9654 26.0634 16.3434 25.152 16.3445 24.2015V3.5854C16.3434 2.63482 15.9654 1.72348 15.2932 1.05132C14.621 0.379157 13.7097 0.0010676 12.7591 0ZM1.10656 4.48175H15.4482V21.5124H1.10656V4.48175ZM3.79561 0.89635H12.7591C13.4721 0.897062 14.1556 1.1806 14.6598 1.68474C15.1639 2.18888 15.4474 2.87244 15.4482 3.5854H1.10656C1.10727 2.87244 1.39081 2.18888 1.89495 1.68474C2.39909 1.1806 3.08264 0.897062 3.79561 0.89635ZM12.7591 26.8905H3.79561C3.08268 26.8897 2.39919 26.6061 1.89508 26.102C1.39096 25.5979 1.10739 24.9144 1.10656 24.2015V22.4088H15.4482V24.2015C15.4473 24.9144 15.1637 25.5979 14.6596 26.102C14.1555 26.6061 13.472 26.8897 12.7591 26.8905Z" fill="white"/>
<path d="M8.27727 23.3051C8.01135 23.3051 7.7514 23.3839 7.53029 23.5317C7.30919 23.6794 7.13686 23.8894 7.03509 24.1351C6.93333 24.3807 6.9067 24.6511 6.95858 24.9119C7.01046 25.1727 7.13851 25.4123 7.32655 25.6003C7.51459 25.7883 7.75416 25.9164 8.01497 25.9683C8.27578 26.0202 8.54612 25.9935 8.7918 25.8918C9.03748 25.79 9.24747 25.6177 9.3952 25.3966C9.54294 25.1755 9.6218 24.9155 9.6218 24.6496C9.6218 24.293 9.48014 23.951 9.22799 23.6989C8.97585 23.4467 8.63386 23.3051 8.27727 23.3051ZM8.27727 25.0978C8.18863 25.0978 8.10198 25.0715 8.02828 25.0222C7.95458 24.973 7.89713 24.903 7.86321 24.8211C7.82929 24.7392 7.82042 24.6491 7.83771 24.5622C7.855 24.4752 7.89769 24.3954 7.96036 24.3327C8.02304 24.27 8.1029 24.2273 8.18984 24.21C8.27677 24.1927 8.36689 24.2016 8.44878 24.2355C8.53067 24.2695 8.60067 24.3269 8.64992 24.4006C8.69916 24.4743 8.72545 24.5609 8.72545 24.6496C8.72545 24.7685 8.67823 24.8824 8.59418 24.9665C8.51013 25.0505 8.39614 25.0978 8.27727 25.0978ZM9.6218 1.79266H6.93275C6.81388 1.79266 6.69989 1.83988 6.61584 1.92393C6.53179 2.00798 6.48457 2.12198 6.48457 2.24084C6.48457 2.3597 6.53179 2.4737 6.61584 2.55775C6.69989 2.6418 6.81388 2.68901 6.93275 2.68901H9.6218C9.74066 2.68901 9.85466 2.6418 9.93871 2.55775C10.0228 2.4737 10.07 2.3597 10.07 2.24084C10.07 2.12198 10.0228 2.00798 9.93871 1.92393C9.85466 1.83988 9.74066 1.79266 9.6218 1.79266ZM8.27727 7.61087C7.21358 7.61087 6.17378 7.92629 5.28936 8.51725C4.40494 9.1082 3.71561 9.94814 3.30856 10.9309C2.9015 11.9136 2.795 12.9949 3.00251 14.0382C3.21003 15.0814 3.72224 16.0397 4.47438 16.7919C5.22652 17.544 6.18481 18.0562 7.22806 18.2637C8.27131 18.4712 9.35266 18.3647 10.3354 17.9577C11.3181 17.5506 12.158 16.8613 12.749 15.9769C13.34 15.0925 13.6554 14.0527 13.6554 12.989C13.6538 11.5631 13.0867 10.196 12.0785 9.18778C11.0702 8.17953 9.70316 7.61241 8.27727 7.61087ZM8.27727 17.4707C7.39087 17.4707 6.52437 17.2079 5.78735 16.7154C5.05033 16.223 4.47589 15.523 4.13667 14.7041C3.79746 13.8851 3.70871 12.984 3.88164 12.1146C4.05457 11.2453 4.48141 10.4467 5.1082 9.8199C5.73498 9.19311 6.53355 8.76627 7.40293 8.59334C8.2723 8.42041 9.17343 8.50916 9.99236 8.84837C10.8113 9.18759 11.5113 9.76203 12.0037 10.499C12.4962 11.2361 12.759 12.1026 12.759 12.989C12.7577 14.1772 12.2851 15.3164 11.4449 16.1566C10.6047 16.9968 9.46551 17.4694 8.27727 17.4707Z" fill="white"/>
</svg>
