<svg width="28" height="28" viewBox="0 0 28 28" fill="none" xmlns="http://www.w3.org/2000/svg">
<path d="M3.39919 15.9192C2.74769 15.9191 2.1108 16.1123 1.56907 16.4742C1.02734 16.8362 0.605108 17.3506 0.355766 17.9525C0.106423 18.5544 0.041172 19.2167 0.168263 19.8557C0.295355 20.4947 0.609081 21.0817 1.06977 21.5424C1.53045 22.003 2.1174 22.3168 2.75639 22.4439C3.39538 22.571 4.05771 22.5057 4.65962 22.2564C5.26152 22.007 5.77597 21.5848 6.1379 21.0431C6.49983 20.5013 6.69298 19.8644 6.69294 19.2129C6.69195 18.3397 6.34461 17.5025 5.72713 16.885C5.10965 16.2675 4.27245 15.9202 3.39919 15.9192ZM3.39919 22.0406C2.83992 22.0407 2.29318 21.8749 1.82814 21.5642C1.3631 21.2535 1.00063 20.8119 0.786567 20.2952C0.572509 19.7785 0.516478 19.21 0.625559 18.6614C0.73464 18.1129 1.00393 17.609 1.39939 17.2135C1.79484 16.818 2.29869 16.5487 2.84722 16.4396C3.39574 16.3305 3.96431 16.3864 4.48102 16.6005C4.99773 16.8145 5.43937 17.1769 5.75009 17.6419C6.06082 18.1069 6.22667 18.6537 6.22667 19.2129C6.22586 19.9626 5.92772 20.6813 5.39765 21.2115C4.86757 21.7416 4.14886 22.0398 3.39919 22.0406Z" fill="white"/>
<path d="M4.25066 17.2702C4.15182 17.2284 4.04558 17.2069 3.93826 17.207H3.67738C3.46476 17.2072 3.26091 17.2918 3.11056 17.4422C2.96022 17.5925 2.87564 17.7964 2.8754 18.009V18.6193H2.63876C2.57693 18.6193 2.51763 18.6439 2.47391 18.6876C2.43019 18.7313 2.40563 18.7906 2.40563 18.8525C2.40563 18.9143 2.43019 18.9736 2.47391 19.0173C2.51763 19.061 2.57693 19.0856 2.63876 19.0856H2.87633V20.9857C2.87633 21.0475 2.90089 21.1068 2.94461 21.1505C2.98833 21.1942 3.04763 21.2188 3.10946 21.2188C3.1713 21.2188 3.23059 21.1942 3.27432 21.1505C3.31804 21.1068 3.3426 21.0475 3.3426 20.9857V19.0856H3.8914C3.95323 19.0856 4.01253 19.061 4.05625 19.0173C4.09997 18.9736 4.12454 18.9143 4.12454 18.8525C4.12454 18.7906 4.09997 18.7313 4.05625 18.6876C4.01253 18.6439 3.95323 18.6193 3.8914 18.6193H3.3426V18.009C3.34272 17.92 3.37813 17.8347 3.44106 17.7717C3.504 17.7088 3.58932 17.6734 3.67832 17.6733H3.93826C3.98311 17.6731 4.02752 17.6821 4.06882 17.6996C4.12576 17.7237 4.18996 17.7242 4.24728 17.701C4.3046 17.6778 4.35034 17.6328 4.37446 17.5758C4.39857 17.5189 4.39908 17.4547 4.37586 17.3974C4.35265 17.34 4.30761 17.2943 4.25066 17.2702ZM4.11381 7.73585C4.76533 7.73589 5.40223 7.54273 5.94396 7.18079C6.48569 6.81885 6.90793 6.30439 7.15726 5.70247C7.4066 5.10055 7.47184 4.43821 7.34473 3.79922C7.21762 3.16022 6.90387 2.57327 6.44316 2.11259C5.98245 1.65192 5.39548 1.33821 4.75647 1.21114C4.11746 1.08408 3.45513 1.14936 2.85323 1.39874C2.25133 1.64812 1.73689 2.07039 1.37499 2.61215C1.01309 3.1539 0.819976 3.79082 0.820068 4.44233C0.821179 5.31553 1.16856 6.15263 1.78602 6.77005C2.40349 7.38747 3.24062 7.7348 4.11381 7.73585ZM4.11381 1.61416C4.67307 1.61412 5.21978 1.77991 5.68482 2.09057C6.14985 2.40123 6.51232 2.84282 6.72639 3.35948C6.94047 3.87615 6.99652 4.44469 6.88748 4.99321C6.77844 5.54174 6.50919 6.04561 6.11378 6.44111C5.71838 6.83661 5.21457 7.10599 4.66608 7.21517C4.11758 7.32435 3.54902 7.26843 3.03231 7.05448C2.51559 6.84054 2.07392 6.47818 1.76314 6.01322C1.45236 5.54826 1.28643 5.00159 1.28634 4.44233C1.28708 3.6926 1.58519 2.97378 2.11526 2.44358C2.64534 1.91337 3.36408 1.61509 4.11381 1.61416Z" fill="white"/>
<path d="M2.86127 6.25415H5.36655C5.55749 6.25397 5.74056 6.17803 5.87557 6.04302C6.01059 5.908 6.08652 5.72494 6.08671 5.534V3.34998C6.08652 3.15904 6.01059 2.97597 5.87557 2.84096C5.74056 2.70594 5.55749 2.63001 5.36655 2.62982H2.86127C2.67035 2.63007 2.48732 2.70602 2.35231 2.84102C2.21731 2.97603 2.14136 3.15906 2.14111 3.34998V5.534C2.14136 5.72492 2.21731 5.90795 2.35231 6.04295C2.48732 6.17795 2.67035 6.25391 2.86127 6.25415ZM2.60715 3.34998C2.60728 3.28264 2.6341 3.2181 2.68173 3.17051C2.72937 3.12292 2.79393 3.09616 2.86127 3.09609H5.36655C5.43386 3.09616 5.49841 3.12292 5.546 3.17052C5.5936 3.21812 5.62037 3.28266 5.62043 3.34998V5.534C5.62037 5.60131 5.5936 5.66585 5.546 5.71345C5.49841 5.76105 5.43386 5.78782 5.36655 5.78788H2.86127C2.79395 5.78782 2.72941 5.76105 2.68181 5.71345C2.63422 5.66585 2.60745 5.60131 2.60739 5.534L2.60715 3.34998Z" fill="white"/>
<path d="M4.11402 5.53551C4.31558 5.53556 4.51262 5.47583 4.68023 5.36389C4.84784 5.25194 4.97849 5.09281 5.05565 4.9066C5.13282 4.7204 5.15303 4.5155 5.11374 4.31781C5.07444 4.12012 4.97741 3.93853 4.8349 3.79599C4.6924 3.65345 4.51082 3.55637 4.31314 3.51703C4.11546 3.4777 3.91056 3.49786 3.72434 3.57498C3.53812 3.65211 3.37895 3.78272 3.26697 3.9503C3.15499 4.11789 3.09521 4.31492 3.09521 4.51647C3.09552 4.7866 3.20295 5.04559 3.39394 5.23662C3.58493 5.42765 3.84389 5.53514 4.11402 5.53551ZM4.11402 3.96371C4.22336 3.96366 4.33025 3.99604 4.42118 4.05675C4.51211 4.11746 4.583 4.20378 4.62487 4.30478C4.66675 4.40578 4.67773 4.51693 4.65642 4.62417C4.63512 4.73141 4.58249 4.82993 4.5052 4.90726C4.4279 4.98458 4.32941 5.03725 4.22218 5.0586C4.11494 5.07995 4.00379 5.06902 3.90277 5.02719C3.80175 4.98535 3.71541 4.91451 3.65466 4.8236C3.59391 4.73269 3.56149 4.62581 3.56149 4.51647C3.56167 4.36997 3.61994 4.22951 3.72351 4.1259C3.82708 4.02228 3.96751 3.96396 4.11402 3.96371Z" fill="white"/>
<path d="M5.21526 3.65892C5.30179 3.65892 5.37193 3.58877 5.37193 3.50225C5.37193 3.41572 5.30179 3.34558 5.21526 3.34558C5.12874 3.34558 5.05859 3.41572 5.05859 3.50225C5.05859 3.58877 5.12874 3.65892 5.21526 3.65892Z" fill="white"/>
<path d="M27.7369 12.8119C27.7376 12.1703 27.5509 11.5425 27.1998 11.0055C26.8486 10.4685 26.3483 10.0458 25.7603 9.78918C25.1722 9.53259 24.522 9.45331 23.8895 9.5611C23.2571 9.66888 22.6698 9.95904 22.1999 10.3959C21.7301 10.8328 21.398 11.3974 21.2445 12.0204C21.0911 12.6434 21.1229 13.2976 21.3361 13.9027C21.5493 14.5079 21.9345 15.0376 22.4446 15.4268C22.9546 15.8161 23.5672 16.0479 24.2072 16.0938C24.2022 16.2348 24.1753 16.3742 24.1275 16.5069L24.5632 16.6729C24.6322 16.4873 24.6707 16.2917 24.6772 16.0938C25.5074 16.0343 26.2843 15.6628 26.8519 15.054C27.4194 14.4452 27.7356 13.6443 27.7369 12.8119ZM24.4422 15.6387C23.8829 15.6386 23.3362 15.4726 22.8713 15.1618C22.4064 14.8509 22.044 14.4092 21.8302 13.8924C21.6163 13.3757 21.5604 12.8071 21.6697 12.2586C21.7789 11.7101 22.0484 11.2063 22.444 10.8109C22.8396 10.4156 23.3435 10.1464 23.8921 10.0375C24.4406 9.92853 25.0092 9.9847 25.5258 10.1989C26.0425 10.4131 26.484 10.7756 26.7946 11.2408C27.1051 11.7059 27.2708 12.2527 27.2706 12.8119C27.2696 13.5616 26.9712 14.2802 26.4409 14.8102C25.9107 15.3401 25.1919 15.6381 24.4422 15.6387Z" fill="white"/>
<path d="M26.5543 11.5941C26.535 11.5756 26.5129 11.5603 26.4887 11.5489C26.5081 11.5024 26.512 11.4509 26.5 11.402C26.4879 11.3532 26.4606 11.3094 26.4218 11.2773C26.3799 11.2422 26.3268 11.2234 26.2722 11.2243C26.2176 11.2252 26.1651 11.2458 26.1244 11.2821C26.0347 11.328 25.9411 11.3655 25.8446 11.3943C25.7009 11.2813 25.5291 11.2095 25.3477 11.1867C25.1663 11.1638 24.9822 11.1907 24.8149 11.2645C24.6476 11.3383 24.5036 11.4562 24.3982 11.6056C24.2928 11.755 24.23 11.9303 24.2166 12.1126C23.7361 12.0451 23.3002 11.7945 23.0001 11.4132C22.9782 11.3845 22.95 11.3613 22.9176 11.3454C22.8853 11.3295 22.8496 11.3214 22.8136 11.3215C22.7774 11.3215 22.7417 11.33 22.7093 11.3462C22.677 11.3623 22.6488 11.3858 22.6271 11.4148C22.5453 11.5497 22.4939 11.7008 22.4766 11.8576C22.4592 12.0144 22.4763 12.1731 22.5266 12.3226C22.5016 12.3439 22.4814 12.3701 22.4673 12.3997C22.4531 12.4292 22.4454 12.4615 22.4445 12.4942C22.4413 12.7762 22.5493 13.048 22.745 13.251C22.7311 13.3012 22.7342 13.3545 22.7539 13.4028C22.8185 13.5999 22.942 13.7725 23.1078 13.8972C22.9321 13.9524 22.7472 13.972 22.5639 13.9551C22.512 13.9502 22.46 13.9628 22.4162 13.991C22.3724 14.0191 22.3392 14.0611 22.322 14.1103C22.3049 14.1595 22.3047 14.213 22.3214 14.2623C22.3382 14.3116 22.3711 14.3539 22.4147 14.3824C22.8013 14.6247 23.2436 14.7637 23.6993 14.7859C23.7773 14.7861 23.8553 14.7802 23.9324 14.7685C24.4166 14.7261 24.8792 14.5492 25.268 14.2577C25.7016 13.9123 26.0062 13.4309 26.1327 12.8913C26.1611 12.771 26.1814 12.6489 26.1936 12.5259C26.1997 12.4645 26.204 12.4031 26.2067 12.3418C26.2067 12.3341 26.2067 12.3184 26.2067 12.2989C26.3431 12.1803 26.4665 12.0474 26.5745 11.9025C26.6083 11.8571 26.6248 11.8011 26.6211 11.7446C26.6173 11.6881 26.5937 11.6347 26.5543 11.5941ZM25.7434 12.321C25.7413 12.3737 25.7373 12.4264 25.7322 12.4788C25.7221 12.5809 25.7052 12.6821 25.6816 12.7819C25.58 13.2223 25.3312 13.6149 24.9762 13.8947C24.6509 14.1324 24.2658 14.2749 23.8641 14.3062C23.7094 14.3268 23.5523 14.3198 23.4002 14.2854C23.5513 14.2262 23.6935 14.1464 23.8226 14.0481C23.8571 14.0199 23.8828 13.9825 23.8966 13.9402C23.9105 13.8979 23.912 13.8526 23.9009 13.8095C23.8898 13.7664 23.8666 13.7273 23.8341 13.697C23.8015 13.6667 23.761 13.6463 23.7172 13.6382C23.5879 13.6233 23.4644 13.576 23.3582 13.5007C23.3884 13.4874 23.4154 13.4679 23.4375 13.4434C23.4596 13.4189 23.4762 13.39 23.4863 13.3586C23.4964 13.3272 23.4997 13.294 23.4961 13.2612C23.4924 13.2285 23.4818 13.1968 23.465 13.1685L23.4522 13.1468C23.4362 13.1198 23.415 13.0963 23.3897 13.0777C23.3645 13.0591 23.3358 13.0458 23.3053 13.0386C23.2443 13.0259 23.1865 13.0012 23.1351 12.966C23.0837 12.9307 23.0398 12.8857 23.0059 12.8334C23.0521 12.8309 23.0965 12.8147 23.1335 12.7869C23.1705 12.7591 23.1983 12.7209 23.2135 12.6772C23.2287 12.6335 23.2306 12.5863 23.2189 12.5415C23.2071 12.4968 23.1823 12.4565 23.1477 12.4259C23.0881 12.3764 23.0389 12.3155 23.0031 12.2468C22.9674 12.178 22.9456 12.1028 22.9393 12.0256C23.3683 12.3833 23.9051 12.5864 24.4635 12.6022C24.4993 12.6042 24.5351 12.5973 24.5677 12.5822C24.6002 12.567 24.6285 12.544 24.65 12.5152C24.6725 12.4873 24.6882 12.4547 24.696 12.4197C24.7038 12.3848 24.7035 12.3486 24.695 12.3138C24.6848 12.272 24.6797 12.2292 24.6798 12.1863C24.68 12.0425 24.7372 11.9046 24.8389 11.8029C24.9405 11.7012 25.0783 11.644 25.2221 11.6437C25.2965 11.6434 25.3701 11.6585 25.4384 11.6881C25.5066 11.7177 25.5679 11.7612 25.6184 11.8158C25.6366 11.8354 25.6581 11.8518 25.6819 11.8641C25.67 11.9179 25.6776 11.9741 25.7033 12.0228C25.7182 12.0514 25.7389 12.0765 25.7642 12.0965C25.7413 12.169 25.7343 12.2455 25.7434 12.321ZM21.2325 5.29592C21.7562 5.29606 22.2682 5.14089 22.7037 4.85004C23.1392 4.5592 23.4787 4.14573 23.6793 3.66194C23.8798 3.17814 23.9324 2.64574 23.8304 2.13205C23.7283 1.61837 23.4763 1.14649 23.106 0.776065C22.7358 0.405643 22.2641 0.153325 21.7504 0.0510175C21.2368 -0.0512902 20.7044 0.0010075 20.2205 0.201297C19.7366 0.401587 19.3229 0.740873 19.0319 1.17625C18.7408 1.61163 18.5853 2.12354 18.5852 2.64726C18.5858 3.34931 18.8648 4.02248 19.3611 4.51904C19.8574 5.01559 20.5304 5.29499 21.2325 5.29592ZM21.2325 0.466506C21.664 0.466368 22.0859 0.594227 22.4448 0.833911C22.8037 1.0736 23.0835 1.41433 23.2487 1.81303C23.4139 2.21172 23.4571 2.65046 23.3729 3.07373C23.2888 3.49701 23.0809 3.88581 22.7758 4.19096C22.4706 4.49611 22.0818 4.70389 21.6585 4.78802C21.2352 4.87215 20.7965 4.82886 20.3978 4.66361C19.9991 4.49836 19.6584 4.21858 19.4188 3.85967C19.1791 3.50075 19.0513 3.07883 19.0515 2.64726C19.0524 2.06913 19.2825 1.51495 19.6913 1.10617C20.1001 0.697396 20.6543 0.467369 21.2325 0.466506Z" fill="white"/>
<path d="M20.8277 4.16496C20.8405 4.16821 20.8535 4.17032 20.8666 4.17126C20.8797 4.17126 20.8937 4.17382 20.9079 4.17592C20.906 4.18431 20.9042 4.19247 20.9021 4.19923C20.8988 4.21124 20.8965 4.22348 20.8951 4.23584L20.8813 4.35963C20.8772 4.41079 20.8858 4.46218 20.9064 4.50918C20.9271 4.55618 20.9591 4.59732 20.9995 4.6289C21.0511 4.66692 21.1138 4.68691 21.1779 4.68579C21.232 4.68484 21.2856 4.67418 21.3359 4.65432C21.8395 4.39247 22.305 4.06303 22.7194 3.67514C23.329 3.0128 23.3903 2.28262 22.9021 1.63451C22.8812 1.60117 22.3697 0.820162 21.0107 0.922508C21.0051 0.922508 20.9825 0.926238 20.9769 0.927171C20.6442 0.977062 19.5406 1.22558 19.313 2.33741C19.3111 2.35163 19.0974 3.73459 20.8277 4.16496ZM19.7716 2.42344C19.9327 1.63754 20.717 1.43774 21.0466 1.38831L21.0555 1.38668C22.1144 1.31045 22.4946 1.86275 22.5196 1.89958C22.8828 2.3831 22.8362 2.86057 22.3767 3.35971C22.0759 3.64333 21.7431 3.89082 21.3849 4.09712C21.3857 4.05026 21.3789 4.00358 21.3648 3.95887C21.3056 3.78099 21.096 3.72387 20.9219 3.70825C19.6403 3.38023 19.7674 2.45328 19.7716 2.42344Z" fill="white"/>
<path d="M20.5524 2.77542C20.5939 2.77542 20.6344 2.76311 20.6689 2.74006C20.7034 2.717 20.7303 2.68423 20.7462 2.64589C20.7621 2.60755 20.7662 2.56536 20.7581 2.52466C20.75 2.48396 20.7301 2.44657 20.7007 2.41723C20.6714 2.38789 20.634 2.3679 20.5933 2.35981C20.5526 2.35171 20.5104 2.35587 20.4721 2.37175C20.4337 2.38763 20.401 2.41452 20.3779 2.44903C20.3548 2.48353 20.3425 2.5241 20.3425 2.5656C20.3424 2.59319 20.3477 2.62055 20.3582 2.64607C20.3687 2.6716 20.3841 2.69479 20.4036 2.71431C20.4232 2.73382 20.4464 2.74927 20.4719 2.75976C20.4974 2.77025 20.5248 2.77557 20.5524 2.77542ZM21.3611 2.77542C21.4027 2.77565 21.4433 2.76354 21.478 2.74063C21.5126 2.71771 21.5397 2.68502 21.5558 2.6467C21.5718 2.60838 21.5762 2.56616 21.5682 2.52538C21.5602 2.4846 21.5403 2.44711 21.511 2.41765C21.4818 2.38819 21.4444 2.36809 21.4036 2.3599C21.3629 2.3517 21.3207 2.35579 21.2822 2.37164C21.2438 2.38748 21.211 2.41438 21.1879 2.4489C21.1648 2.48343 21.1524 2.52405 21.1524 2.5656C21.1523 2.5931 21.1576 2.62035 21.168 2.6458C21.1784 2.67125 21.1938 2.69439 21.2131 2.71389C21.2325 2.73339 21.2556 2.74887 21.281 2.75942C21.3064 2.76998 21.3336 2.77542 21.3611 2.77542Z" fill="white"/>
<path d="M22.1698 2.77541C22.2851 2.77541 22.3785 2.68199 22.3785 2.56675C22.3785 2.45151 22.2851 2.35809 22.1698 2.35809C22.0546 2.35809 21.9612 2.45151 21.9612 2.56675C21.9612 2.68199 22.0546 2.77541 22.1698 2.77541Z" fill="white"/>
<path d="M8.68337 23.7168L8.06934 23.9663L8.24489 24.3983L8.85892 24.1487L8.68337 23.7168Z" fill="white"/>
<path d="M3.99031 24.3907C4.20336 24.5323 4.4358 24.6422 4.68039 24.7171L4.82027 24.2721C4.61881 24.2108 4.4274 24.1204 4.25212 24.0037L3.99031 24.3907ZM5.45813 24.4005L5.41011 24.8642C5.58401 24.8818 5.7587 24.8905 5.9335 24.8903C6.00064 24.8903 6.06957 24.8891 6.14029 24.8866L6.12397 24.4203C5.90183 24.4293 5.67934 24.4227 5.45813 24.4005ZM7.29594 24.2809C7.12482 24.3136 6.9572 24.3411 6.79773 24.3623L6.85951 24.8246C7.03483 24.8013 7.21901 24.7707 7.40668 24.7344C7.4216 24.7315 7.4362 24.7272 7.45028 24.7215L7.59669 24.6619L7.42114 24.2301L7.29594 24.2809ZM3.1333 23.0873C3.17258 23.3587 3.27573 23.617 3.43428 23.8408L3.81965 23.578C3.70676 23.418 3.63086 23.2348 3.59747 23.0418L3.1333 23.0873ZM8.02053 3.56143C8.16883 3.56175 8.3169 3.57321 8.46349 3.5957L8.53343 3.13479C8.36369 3.1088 8.19225 3.09555 8.02053 3.09516C7.93753 3.09434 7.85455 3.09831 7.77201 3.10705L7.82796 3.57006C7.89194 3.56366 7.95623 3.56078 8.02053 3.56143ZM10.8081 6.32269L11.2704 6.26091C11.2389 6.01933 11.1908 5.78019 11.1266 5.54518L10.6771 5.66945C10.7357 5.88394 10.7794 6.1022 10.8081 6.32269ZM9.92199 3.69432C9.71747 3.54507 9.49483 3.42239 9.25941 3.32923L9.08713 3.76286C9.28552 3.84091 9.47315 3.94394 9.64549 4.06943L9.92199 3.69432ZM10.8688 4.8523C10.7601 4.62624 10.6261 4.41327 10.4694 4.21748L10.1064 4.51029C10.241 4.67847 10.3559 4.86141 10.4491 5.0556L10.8688 4.8523ZM18.5513 3.02988L18.4981 2.56641C18.2925 2.58972 18.0946 2.62259 17.9102 2.66269L18.0097 3.11847C18.1886 3.07979 18.3694 3.05022 18.5513 3.02988ZM16.3533 4.04192L15.9868 3.75517C15.828 3.95853 15.7021 4.18557 15.6138 4.428L16.0518 4.58793C16.1231 4.39126 16.2248 4.20701 16.3533 4.04192ZM17.3777 3.30848L17.204 2.87578C16.9705 2.96805 16.7484 3.08696 16.5421 3.23014L16.81 3.61179C16.9869 3.48914 17.1774 3.38736 17.3777 3.30848ZM15.9548 5.83451C15.9267 5.69029 15.9133 5.5436 15.9147 5.39668C15.9147 5.33769 15.9166 5.27428 15.9215 5.2076L15.4566 5.17333C15.4508 5.25213 15.4485 5.32697 15.4485 5.39668C15.4467 5.57923 15.4642 5.76147 15.5007 5.94035L15.9548 5.83451ZM23.2762 17.3419L23.4807 17.7615C23.7132 17.6512 23.9275 17.5063 24.1165 17.3316L23.7968 16.9926C23.642 17.1348 23.4665 17.2525 23.2762 17.3419ZM22.0033 17.7051L22.0716 18.1665C22.3121 18.1316 22.5503 18.0821 22.7848 18.0184L22.6608 17.5689C22.4446 17.6278 22.2251 17.6732 22.0033 17.7051ZM13.8098 12.0142C13.2605 12.0142 12.7236 12.1771 12.267 12.4822C11.8103 12.7874 11.4544 13.2211 11.2442 13.7285C11.0341 14.2359 10.9791 14.7943 11.0863 15.333C11.1934 15.8716 11.4579 16.3664 11.8463 16.7548C12.2347 17.1431 12.7295 17.4076 13.2682 17.5147C13.8068 17.6218 14.3652 17.5668 14.8726 17.3566C15.38 17.1463 15.8137 16.7904 16.1188 16.3337C16.4239 15.877 16.5867 15.3401 16.5866 14.7909C16.5858 14.0547 16.2929 13.3489 15.7723 12.8284C15.2518 12.3078 14.5459 12.015 13.8098 12.0142ZM15.5877 13.3172C15.293 13.3976 14.9932 13.4574 14.6903 13.4963C14.5711 13.1434 14.3972 12.8113 14.1751 12.5122C14.728 12.6003 15.23 12.8864 15.5877 13.3172ZM13.7746 16.9075C13.5736 16.646 13.4161 16.3537 13.3083 16.0419C13.6189 16.023 13.9303 16.0235 14.2408 16.0433C14.1328 16.3547 13.9754 16.6467 13.7746 16.908V16.9075ZM13.1796 15.5787C13.1433 15.4033 13.1199 15.2256 13.1097 15.0469H14.4385C14.4284 15.226 14.405 15.4041 14.3686 15.5798C13.9728 15.5494 13.5754 15.5492 13.1796 15.5794V15.5787ZM14.2112 13.5392C13.9203 13.5561 13.6286 13.5561 13.3377 13.5392C13.4435 13.2568 13.5907 12.9917 13.7746 12.7526C13.9584 12.9918 14.1056 13.2572 14.2112 13.5399V13.5392ZM13.7643 14.025C13.9534 14.025 14.1506 14.0173 14.3537 14.0017C14.3972 14.1921 14.4255 14.3857 14.4383 14.5806H13.1113C13.1239 14.3864 13.1519 14.1935 13.1952 14.0038C13.3757 14.0173 13.565 14.0257 13.7643 14.0257V14.025ZM12.6452 14.5806H11.5106C11.5366 14.2957 11.6157 14.0181 11.7437 13.7623C12.0682 13.8495 12.3982 13.9147 12.7315 13.9572C12.6873 14.1628 12.6588 14.3714 12.6464 14.5813L12.6452 14.5806ZM12.6436 15.0469C12.6532 15.2415 12.6766 15.4353 12.7136 15.6267C12.3864 15.669 12.0624 15.733 11.7437 15.8183C11.6222 15.5768 11.5446 15.3156 11.5145 15.0469H12.6436ZM14.9034 15.0469H16.1041C16.0725 15.3306 15.9882 15.6059 15.8555 15.8587C15.5213 15.7584 15.18 15.6829 14.8346 15.633C14.872 15.4398 14.8953 15.2441 14.9046 15.0476L14.9034 15.0469ZM14.902 14.5806C14.8894 14.3689 14.8605 14.1584 14.8157 13.9511C15.168 13.902 15.5159 13.8263 15.8567 13.7245C15.9959 13.9906 16.0815 14.2815 16.1085 14.5806H14.902ZM13.3649 12.5236C13.1464 12.82 12.9751 13.1485 12.8572 13.4975C12.5713 13.4636 12.2875 13.4133 12.0074 13.3468C12.3488 12.9207 12.8302 12.6293 13.3661 12.5243L13.3649 12.5236ZM12.0086 16.2345C12.2805 16.1701 12.5558 16.1209 12.8332 16.0871C12.9411 16.427 13.0986 16.7491 13.3006 17.043C12.7909 16.9272 12.3355 16.6422 12.0086 16.2345ZM14.2369 17.0602C14.4444 16.7622 14.6058 16.4347 14.7157 16.0885C15.0099 16.1276 15.3011 16.1865 15.5874 16.2648C15.2437 16.6793 14.766 16.9606 14.2369 17.0602ZM14.9246 21.9139H12.7814C12.6299 21.9139 12.4846 21.9741 12.3775 22.0812C12.2704 22.1883 12.2102 22.3336 12.2102 22.4851C12.2102 22.6366 12.2704 22.7818 12.3775 22.889C12.4846 22.9961 12.6299 23.0563 12.7814 23.0563H14.9246C15.0761 23.0563 15.2214 22.9961 15.3285 22.889C15.4356 22.7818 15.4958 22.6366 15.4958 22.4851C15.4958 22.3336 15.4356 22.1883 15.3285 22.0812C15.2214 21.9741 15.0761 21.9139 14.9246 21.9139ZM14.9246 22.59H12.7814C12.7537 22.5899 12.7271 22.5789 12.7075 22.5592C12.688 22.5396 12.677 22.513 12.677 22.4853C12.6773 22.4577 12.6884 22.4314 12.7079 22.4119C12.7275 22.3923 12.7538 22.3812 12.7814 22.3809H14.9246C14.9522 22.3813 14.9785 22.3924 14.9979 22.4119C15.0174 22.4314 15.0285 22.4578 15.0288 22.4853C15.0287 22.5129 15.0177 22.5393 14.9982 22.5588C14.9786 22.5783 14.9522 22.5892 14.9246 22.5893V22.59Z" fill="white"/>
<path d="M21.9585 23.2619C21.9389 23.2017 21.886 23.0637 21.8232 22.901C21.7351 22.6727 21.5731 22.2531 21.5509 22.1487C21.5537 21.7346 21.5743 21.3112 21.5922 20.9014C21.6411 20.1581 21.6453 19.4125 21.6046 18.6686C21.5239 17.9118 21.3499 17.1679 21.0865 16.4538L20.7012 15.2625C20.645 15.0883 20.6161 14.9064 20.6156 14.7233V11.5748C20.6156 11.5439 20.6095 11.5133 20.5976 11.4849C20.5857 11.4564 20.5682 11.4305 20.5462 11.4088C20.5243 11.3872 20.4982 11.37 20.4696 11.3585C20.4409 11.347 20.4103 11.3412 20.3794 11.3416C20.1164 11.3442 19.8565 11.3995 19.6153 11.5045C19.374 11.6095 19.1564 11.7619 18.9753 11.9527C18.9753 11.9175 18.9753 11.8806 18.9753 11.8468L18.9673 7.31585C18.9671 7.1746 18.911 7.03918 18.8111 6.93928C18.7112 6.83938 18.5759 6.78314 18.4346 6.7829H9.27237C9.13108 6.78308 8.99563 6.83929 8.89572 6.9392C8.79581 7.03911 8.7396 7.17456 8.73942 7.31585V11.6501H8.49532C8.30465 11.6503 8.12184 11.7261 7.98695 11.8609C7.85205 11.9957 7.77607 12.1784 7.77563 12.3691V13.3839C7.77606 13.5127 7.81116 13.639 7.87725 13.7495C7.94334 13.86 8.03798 13.9507 8.15122 14.012C8.03802 14.0733 7.94343 14.164 7.87735 14.2745C7.81127 14.385 7.77613 14.5113 7.77563 14.64V15.6563C7.77606 15.7851 7.81116 15.9113 7.87725 16.0219C7.94334 16.1324 8.03798 16.223 8.15122 16.2844C8.03801 16.3457 7.9434 16.4364 7.87731 16.5469C7.81123 16.6574 7.77611 16.7837 7.77563 16.9124V17.9273C7.77629 18.0562 7.81172 18.1827 7.87818 18.2932C7.94465 18.4037 8.0397 18.4943 8.15331 18.5553C8.03957 18.6166 7.94446 18.7074 7.87802 18.8182C7.81159 18.9289 7.7763 19.0556 7.77587 19.1848V20.1973C7.77605 20.3881 7.85194 20.5711 7.98686 20.706C8.12179 20.8409 8.30474 20.9168 8.49556 20.917H8.74058V23.1453C8.74071 23.2866 8.79689 23.4222 8.8968 23.5221C8.99672 23.6221 9.1322 23.6783 9.27353 23.6785H13.3868C13.8344 24.2077 14.3004 24.6418 15.1162 24.7276L15.7053 27.0471C15.718 27.0973 15.7471 27.1418 15.788 27.1736C15.8289 27.2055 15.8792 27.2228 15.931 27.2229C15.9466 27.2228 15.9622 27.2211 15.9776 27.218L22.4254 25.8812C22.4567 25.8747 22.4862 25.8619 22.5123 25.8435C22.5384 25.8252 22.5604 25.8017 22.577 25.7745C22.5936 25.7473 22.6045 25.7169 22.609 25.6854C22.6134 25.6538 22.6113 25.6216 22.6028 25.5909L21.9585 23.2619ZM9.20592 7.31538C9.20598 7.29772 9.21303 7.28079 9.22552 7.2683C9.23801 7.25581 9.25494 7.24876 9.2726 7.2487H18.4346C18.4523 7.24895 18.4692 7.25611 18.4817 7.26867C18.4941 7.28122 18.5012 7.29816 18.5013 7.31585L18.5092 11.8468C18.5092 11.9965 18.5092 12.1637 18.5069 12.322C18.5069 12.502 18.5046 12.6717 18.5053 12.7901C18.4601 12.9526 18.4362 13.1203 18.4341 13.289L18.3936 16.9152C18.3314 16.9618 18.2704 17.0098 18.2106 17.0591V8.23021C18.2104 8.09176 18.1554 7.95901 18.0576 7.86107C17.9597 7.76313 17.827 7.70799 17.6886 7.70775H10.0555C9.91694 7.70787 9.78413 7.76296 9.68617 7.86091C9.58822 7.95886 9.53314 8.09168 9.53301 8.23021V11.6916C9.50294 11.6834 9.47217 11.679 9.44162 11.6734C9.42344 11.6701 9.40572 11.6652 9.3873 11.6627C9.33008 11.6545 9.27236 11.6503 9.21455 11.6501L9.20592 7.31538ZM16.749 21.3331H10.0555C10.0481 21.3332 10.0407 21.3318 10.0339 21.329C10.0271 21.3262 10.0208 21.3221 10.0156 21.3168C10.0104 21.3116 10.0062 21.3054 10.0034 21.2985C10.0006 21.2917 9.99922 21.2844 9.99928 21.277V20.6328C10.0273 20.6095 10.0545 20.5845 10.0811 20.558C10.2131 20.4276 10.3135 20.2688 10.3744 20.0935C10.4354 19.9183 10.4553 19.7315 10.4327 19.5473C10.4308 19.5312 10.4273 19.5159 10.4248 19.5007C10.4199 19.4692 10.4145 19.4378 10.4073 19.4074C10.4028 19.389 10.397 19.3711 10.3917 19.3529C10.3837 19.3256 10.3756 19.2983 10.366 19.2718C10.359 19.2526 10.3509 19.234 10.3427 19.2153C10.3322 19.1906 10.3212 19.1661 10.3094 19.1424C10.2998 19.1235 10.2898 19.1048 10.279 19.0864C10.2662 19.0631 10.2527 19.0421 10.2385 19.0204C10.2243 18.9988 10.2152 18.9843 10.2014 18.9668C10.1877 18.9493 10.1699 18.9263 10.1534 18.9067C10.1368 18.8871 10.1256 18.8731 10.1107 18.8572C10.0923 18.8374 10.0727 18.819 10.0529 18.8006C10.038 18.7866 10.0235 18.7719 10.0077 18.7586C10.0046 18.7561 10.0021 18.753 9.99905 18.7505V18.3618C10.027 18.3385 10.0543 18.3136 10.0809 18.2872C10.1958 18.1738 10.2869 18.0385 10.3488 17.8894C10.4108 17.7403 10.4423 17.5803 10.4415 17.4188C10.4413 17.3705 10.4383 17.3222 10.4325 17.2742C10.4306 17.2584 10.4271 17.2428 10.4245 17.2276C10.4196 17.1961 10.4143 17.1649 10.407 17.1344C10.4026 17.1157 10.3968 17.0978 10.3914 17.0796C10.3835 17.0523 10.3753 17.0253 10.3658 16.9987C10.3588 16.9796 10.3506 16.9609 10.3425 16.942C10.332 16.9173 10.321 16.8931 10.3091 16.8693C10.2996 16.8502 10.2895 16.8318 10.2788 16.8133C10.266 16.79 10.2525 16.7688 10.2382 16.7474C10.224 16.7259 10.2149 16.7112 10.2012 16.6935C10.1874 16.6758 10.1697 16.6529 10.1532 16.6334C10.1366 16.6138 10.1254 16.5998 10.1105 16.5839C10.0921 16.5644 10.0725 16.5459 10.0527 16.5273C10.0378 16.5133 10.0233 16.4986 10.0074 16.4851L9.99882 16.4772V16.0909C10.0271 16.0674 10.0547 16.0422 10.0816 16.0153C10.1959 15.9017 10.2865 15.7665 10.3483 15.6177C10.41 15.4688 10.4416 15.3092 10.4413 15.148C10.4411 15.0997 10.4381 15.0515 10.4322 15.0035C10.4304 14.9874 10.4269 14.9718 10.4243 14.9569C10.4194 14.9254 10.414 14.8942 10.4068 14.8636C10.4024 14.8452 10.3965 14.827 10.3912 14.8088C10.3833 14.7816 10.3751 14.7545 10.3655 14.7279C10.3585 14.7088 10.3504 14.6902 10.3422 14.6713C10.3317 14.6468 10.3208 14.6223 10.3089 14.5985C10.2993 14.5797 10.2893 14.561 10.2786 14.5426C10.2658 14.5193 10.2522 14.4983 10.238 14.4766C10.2261 14.4584 10.2147 14.4405 10.2009 14.423C10.1872 14.4055 10.1695 14.3824 10.1529 14.3626C10.1364 14.3428 10.1252 14.3293 10.1103 14.3132C10.0918 14.2936 10.0723 14.2752 10.0524 14.2568C10.0375 14.2425 10.0231 14.2279 10.0072 14.2146C10.0042 14.212 10.0016 14.209 9.99859 14.2064V13.8201C10.0266 13.7966 10.0538 13.7717 10.0804 13.7453C10.1953 13.6319 10.2864 13.4966 10.3483 13.3476C10.4103 13.1985 10.4418 13.0385 10.4411 12.8771C10.4409 12.8288 10.4378 12.7805 10.432 12.7325C10.4301 12.7164 10.4266 12.7011 10.4241 12.6859C10.4192 12.6547 10.4138 12.6232 10.4066 12.5926C10.4021 12.5742 10.3963 12.5563 10.391 12.5379C10.383 12.5106 10.3749 12.4835 10.3653 12.457C10.3583 12.4378 10.3502 12.4192 10.342 12.4003C10.3315 12.3758 10.3205 12.3516 10.3087 12.3276C10.2991 12.3087 10.2891 12.29 10.2783 12.2716C10.2655 12.2483 10.252 12.2273 10.2378 12.2056C10.2259 12.1875 10.2145 12.1695 10.2007 12.152C10.187 12.1345 10.1692 12.1115 10.1527 12.0916C10.1361 12.0718 10.1249 12.0583 10.11 12.0424C10.0916 12.0226 10.072 12.0042 10.0522 11.9858C10.0373 11.9716 10.0228 11.9569 10.007 11.9436C10.0039 11.941 10.0014 11.938 9.99835 11.9357V8.23021C9.99829 8.22281 9.9997 8.21548 10.0025 8.20863C10.0053 8.20179 10.0094 8.19557 10.0147 8.19034C10.0199 8.18511 10.0261 8.18097 10.033 8.17817C10.0398 8.17537 10.0471 8.17396 10.0545 8.17402H17.6886C17.7034 8.1742 17.7176 8.18018 17.7281 8.19068C17.7386 8.20117 17.7446 8.21536 17.7448 8.23021V17.5167C17.2276 18.1178 16.8775 18.8443 16.7297 19.6233C16.6288 20.1894 16.6354 20.7695 16.749 21.3331ZM9.63629 14.5156C9.73006 14.5778 9.80882 14.66 9.86688 14.7564C9.92495 14.8528 9.96086 14.9609 9.97201 15.0728C9.98317 15.1848 9.9693 15.2979 9.93139 15.4038C9.89349 15.5098 9.83251 15.6059 9.75286 15.6854C9.61013 15.828 9.41676 15.9083 9.21502 15.9088H8.49532C8.42831 15.9086 8.36407 15.882 8.31659 15.8347C8.26912 15.7874 8.24228 15.7233 8.24191 15.6563V14.6405C8.24203 14.5734 8.26878 14.509 8.31628 14.4615C8.36379 14.4141 8.42817 14.3874 8.49532 14.3873H9.21455C9.36484 14.3866 9.51184 14.4313 9.63629 14.5156ZM9.63629 16.7865C9.74054 16.8558 9.82606 16.9498 9.88523 17.0601C9.94441 17.1704 9.97542 17.2936 9.97551 17.4188C9.97605 17.5188 9.95658 17.6178 9.91827 17.7101C9.87995 17.8025 9.82355 17.8862 9.75239 17.9564C9.71696 17.9923 9.6779 18.0244 9.63583 18.0522C9.51199 18.136 9.36572 18.1805 9.21618 18.1798H8.49532C8.42815 18.1796 8.36377 18.1529 8.31627 18.1054C8.26877 18.0579 8.24203 17.9935 8.24191 17.9263V16.9115C8.24221 16.8444 8.26903 16.7802 8.31651 16.7329C8.36399 16.6855 8.42827 16.6589 8.49532 16.6588H9.21455C9.36481 16.6578 9.51184 16.7023 9.63629 16.7865ZM8.24191 12.3691C8.24203 12.3019 8.26878 12.2376 8.31628 12.1901C8.36379 12.1426 8.42817 12.1159 8.49532 12.1159H9.21455C9.36455 12.1152 9.51128 12.1597 9.63559 12.2436H9.63699C9.74103 12.313 9.82636 12.407 9.88541 12.5173C9.94445 12.6275 9.9754 12.7506 9.97551 12.8757C9.9759 12.9754 9.95636 13.0742 9.91805 13.1663C9.87974 13.2584 9.82342 13.3419 9.75239 13.4119C9.71697 13.4478 9.6779 13.48 9.63583 13.5079C9.51192 13.5916 9.36568 13.636 9.21618 13.6352H8.49532C8.42815 13.6351 8.36377 13.6084 8.31627 13.5609C8.26877 13.5134 8.24203 13.449 8.24191 13.3818V12.3691ZM8.49532 20.45C8.42813 20.45 8.36371 20.4232 8.3162 20.3757C8.26869 20.3282 8.24197 20.2638 8.24191 20.1966V19.1846C8.24203 19.1174 8.26877 19.053 8.31627 19.0055C8.36377 18.958 8.42815 18.9313 8.49532 18.9311H9.21455C9.36488 18.9303 9.51193 18.9751 9.63629 19.0596C9.74056 19.1289 9.82608 19.2228 9.88526 19.3332C9.94444 19.4435 9.97544 19.5667 9.97551 19.6919C9.97606 19.7916 9.95659 19.8905 9.91827 19.9826C9.87995 20.0747 9.82354 20.1582 9.75239 20.2281C9.71703 20.2641 9.67795 20.2963 9.63583 20.3241C9.51192 20.4078 9.36568 20.4522 9.21618 20.4514H8.49532V20.45ZM9.20662 23.1446V20.9163H9.21455C9.27228 20.9161 9.32992 20.9119 9.38707 20.9037C9.40642 20.9011 9.4253 20.896 9.44442 20.8925C9.47403 20.8869 9.50387 20.8827 9.53301 20.875V21.2765C9.53314 21.415 9.58822 21.5478 9.68617 21.6458C9.78413 21.7437 9.91694 21.7988 10.0555 21.799H16.8668C16.9106 21.9444 16.9612 22.087 17.0185 22.2268C17.0281 22.2501 17.0374 22.2734 17.047 22.2967C17.0612 22.3298 17.0754 22.3624 17.0903 22.3948C17.1188 22.4599 17.1491 22.5231 17.1778 22.5786C17.1987 22.6244 17.222 22.669 17.2477 22.7124C17.3172 22.8439 17.3933 22.9718 17.4757 23.0957C17.4852 23.1093 17.49 23.1257 17.4895 23.1423C17.489 23.1535 17.486 23.1644 17.4806 23.1742C17.4745 23.1859 17.4652 23.1955 17.4538 23.2021C17.4424 23.2087 17.4294 23.212 17.4163 23.2115H9.27237C9.2549 23.2112 9.23825 23.2041 9.22597 23.1917C9.21369 23.1793 9.20674 23.1625 9.20662 23.1451V23.1446ZM16.1033 26.7172L15.5845 24.6786C15.6166 24.6459 15.6383 24.6045 15.647 24.5595C15.6556 24.5145 15.6508 24.468 15.6332 24.4257C15.6156 24.3834 15.5859 24.3473 15.5478 24.3218C15.5098 24.2963 15.465 24.2826 15.4192 24.2823C15.1551 24.2924 14.892 24.2434 14.6491 24.1391C14.4062 24.0348 14.1896 23.8777 14.0151 23.6792H17.4156C17.5133 23.6793 17.6092 23.6528 17.6931 23.6026C17.7769 23.5523 17.8455 23.4803 17.8915 23.394C17.9376 23.3078 17.9593 23.2107 17.9544 23.1131C17.9495 23.0155 17.9181 22.9211 17.8637 22.8399C17.8546 22.8261 17.8469 22.8126 17.838 22.7989C17.8089 22.7536 17.7797 22.7086 17.7532 22.6639C17.7186 22.6058 17.686 22.5473 17.655 22.4886C17.6341 22.4527 17.615 22.4158 17.5979 22.3781C17.5347 22.2543 17.4799 22.127 17.4293 21.9981L17.3878 21.8861C17.3645 21.8202 17.3447 21.7533 17.3244 21.6863C17.306 21.6274 17.2857 21.5698 17.2701 21.5094L17.2587 21.4651C17.1103 20.8919 17.0865 20.2937 17.1887 19.7105C17.3258 18.9862 17.6583 18.3132 18.1504 17.7643L18.1518 17.7629C18.3325 17.5618 18.5359 17.3823 18.758 17.2281L18.8573 17.1595L18.9006 13.2965C18.9023 13.1687 18.9203 13.0417 18.9543 12.9186L18.9725 12.8764V12.8628C19.0534 12.5984 19.2065 12.3617 19.4144 12.1794C19.6224 11.9971 19.877 11.8763 20.1498 11.8305V14.7237C20.1502 14.9553 20.1866 15.1855 20.2577 15.4059L20.6433 16.5979C20.8938 17.2768 21.0603 17.9838 21.139 18.7031C21.1778 19.4284 21.1734 20.1554 21.1257 20.8802C21.1066 21.2947 21.087 21.7232 21.084 22.1468C21.0793 22.2428 21.1248 22.3883 21.387 23.0688C21.4458 23.2211 21.4957 23.35 21.5111 23.3964L22.0869 25.4762L16.1033 26.7172Z" fill="white"/>
</svg>
