<svg width="25" height="22" viewBox="0 0 25 22" fill="none" xmlns="http://www.w3.org/2000/svg">
<path d="M7.10284 3.50938C7.47151 3.50938 7.77037 3.21052 7.77037 2.84185C7.77037 2.47318 7.47151 2.17432 7.10284 2.17432C6.73417 2.17432 6.4353 2.47318 6.4353 2.84185C6.4353 3.21052 6.73417 3.50938 7.10284 3.50938Z" fill="white"/>
<path d="M3.38335 3.50938C3.75202 3.50938 4.05089 3.21052 4.05089 2.84185C4.05089 2.47318 3.75202 2.17432 3.38335 2.17432C3.01469 2.17432 2.71582 2.47318 2.71582 2.84185C2.71582 3.21052 3.01469 3.50938 3.38335 3.50938Z" fill="white"/>
<path d="M0.929443 19.5811C0.935801 20.7063 1.84492 21.6154 2.97019 21.6154H22.0299C23.1551 21.6154 24.0643 20.7063 24.0706 19.5811V6.6754H0.929443V19.5811ZM8.54569 9.3964C8.67919 9.26289 8.88263 9.21203 9.067 9.2756L15.5389 11.4308C15.8059 11.5198 15.9521 11.8059 15.8631 12.0729C15.8377 12.1492 15.7932 12.2128 15.7423 12.27L13.9432 14.0691L16.4607 16.5867C16.6578 16.7838 16.6578 17.108 16.4607 17.3051C16.2636 17.5022 15.9394 17.5022 15.7423 17.3051L13.2248 14.7875L11.4193 16.5867C11.2222 16.7838 10.8979 16.7838 10.7009 16.5867C10.6437 16.5295 10.6055 16.4659 10.5801 16.3896L8.41854 9.91771C8.36132 9.73334 8.40582 9.5299 8.54569 9.3964ZM10.8153 2.17432C10.4466 2.17432 10.1478 2.47312 10.1478 2.84185C10.1478 3.21058 10.4466 3.50938 10.8153 3.50938C11.184 3.50938 11.4828 3.21058 11.4828 2.84185C11.4828 2.47312 11.184 2.17432 10.8153 2.17432Z" fill="white"/>
<path d="M12.8559 13.713H12.8623V13.7066L14.4326 12.1363L9.70898 10.5597L11.2856 15.2833L12.8559 13.713Z" fill="white"/>
<path d="M22.0299 0H2.97019C1.84492 0 0.935801 0.909117 0.929443 2.03439V5.65814H24.0706V2.03439C24.0643 0.909117 23.1551 0 22.0299 0ZM3.38342 4.52652C2.45523 4.52652 1.6987 3.76998 1.6987 2.84179C1.6987 1.9136 2.45523 1.15706 3.38342 1.15706C4.31161 1.15706 5.06815 1.9136 5.06815 2.84179C5.06815 3.76998 4.31161 4.52652 3.38342 4.52652ZM7.10254 4.52652C6.17435 4.52652 5.41781 3.76998 5.41781 2.84179C5.41781 1.9136 6.17435 1.15706 7.10254 1.15706C8.03073 1.15706 8.78727 1.9136 8.78727 2.84179C8.78727 3.76998 8.03073 4.52652 7.10254 4.52652ZM10.8153 4.52652C9.88711 4.52652 9.13057 3.76998 9.13057 2.84179C9.13057 1.9136 9.88711 1.15706 10.8153 1.15706C11.7435 1.15706 12.5 1.9136 12.5 2.84179C12.5 3.76998 11.7498 4.52652 10.8153 4.52652Z" fill="white"/>
</svg>
